<?xml version="1.0" encoding="UTF-8"?>
<svg xmlns="http://www.w3.org/2000/svg" xmlns:xlink="http://www.w3.org/1999/xlink" width="375pt" height="374.999991pt" viewBox="0 0 375 374.999991" version="1.2">
<defs>
<clipPath id="clip1">
  <path d="M 19.21875 0 L 355.96875 0 L 355.96875 375 L 19.21875 375 Z M 19.21875 0 "/>
</clipPath>
</defs>
<g id="surface1">
<path style=" stroke:none;fill-rule:nonzero;fill:rgb(100%,100%,100%);fill-opacity:1;" d="M 70.925781 214.902344 L 115.738281 214.902344 L 115.738281 170.117188 L 70.925781 170.117188 L 70.925781 214.902344 "/>
<path style=" stroke:none;fill-rule:nonzero;fill:rgb(100%,100%,100%);fill-opacity:1;" d="M 274.902344 170.117188 L 230.089844 170.117188 L 230.089844 214.902344 L 274.902344 214.902344 L 274.902344 170.117188 "/>
<path style=" stroke:none;fill-rule:nonzero;fill:rgb(100%,100%,100%);fill-opacity:1;" d="M 150.511719 214.902344 L 195.320312 214.902344 L 195.320312 170.117188 L 150.511719 170.117188 L 150.511719 214.902344 "/>
<path style=" stroke:none;fill-rule:nonzero;fill:rgb(100%,100%,100%);fill-opacity:1;" d="M 70.925781 297.433594 L 115.738281 297.433594 L 115.738281 252.648438 L 70.925781 252.648438 L 70.925781 297.433594 "/>
<path style=" stroke:none;fill-rule:nonzero;fill:rgb(100%,100%,100%);fill-opacity:1;" d="M 150.511719 297.433594 L 195.320312 297.433594 L 195.320312 252.648438 L 150.511719 252.648438 L 150.511719 297.433594 "/>
<g clip-path="url(#clip1)" clip-rule="nonzero">
<path style=" stroke:none;fill-rule:nonzero;fill:rgb(100%,100%,100%);fill-opacity:1;" d="M 285.515625 357.480469 C 256.421875 357.480469 232.757812 333.824219 232.757812 304.753906 C 232.757812 275.683594 256.421875 252.027344 285.515625 252.027344 C 314.601562 252.027344 338.269531 275.683594 338.269531 304.753906 C 338.269531 333.824219 314.601562 357.480469 285.515625 357.480469 Z M 37 338.574219 L 37 143.015625 L 308.832031 143.015625 L 308.832031 238.53125 C 301.523438 235.949219 293.695312 234.476562 285.515625 234.476562 C 246.738281 234.476562 215.195312 266.003906 215.195312 304.753906 C 215.195312 317.863281 218.871094 330.109375 225.152344 340.628906 L 39.050781 340.628906 C 37.921875 340.628906 37 339.703125 37 338.574219 Z M 244 62.847656 L 244 71.355469 C 244 78.628906 249.898438 84.523438 257.171875 84.523438 C 264.449219 84.523438 270.34375 78.628906 270.34375 71.355469 L 270.34375 62.847656 C 274.996094 66.667969 278.027344 72.394531 278.027344 78.886719 C 278.027344 90.394531 268.691406 99.730469 257.171875 99.730469 C 245.65625 99.730469 236.316406 90.394531 236.316406 78.886719 C 236.316406 72.394531 239.347656 66.671875 244 62.847656 Z M 159.742188 63.183594 L 159.742188 71.355469 C 159.742188 78.628906 165.640625 84.523438 172.914062 84.523438 C 180.1875 84.523438 186.085938 78.628906 186.085938 71.355469 L 186.085938 62.515625 C 190.976562 66.332031 194.175781 72.207031 194.175781 78.886719 C 194.175781 90.394531 184.839844 99.730469 173.320312 99.730469 C 161.800781 99.730469 152.46875 90.394531 152.46875 78.886719 C 152.46875 72.585938 155.324219 67.003906 159.742188 63.183594 Z M 75.484375 62.847656 L 75.484375 71.355469 C 75.484375 78.628906 81.382812 84.523438 88.65625 84.523438 C 95.933594 84.523438 101.828125 78.628906 101.828125 71.355469 L 101.828125 62.847656 C 106.480469 66.671875 109.511719 72.394531 109.511719 78.886719 C 109.511719 90.394531 100.171875 99.730469 88.65625 99.730469 C 77.136719 99.730469 67.800781 90.394531 67.800781 78.886719 C 67.800781 72.394531 70.832031 66.667969 75.484375 62.847656 Z M 326.394531 247.683594 L 326.394531 55.492188 C 326.394531 44.683594 317.597656 35.890625 306.78125 35.890625 L 270.34375 35.890625 L 270.34375 13.210938 C 270.34375 5.945312 264.449219 0.0507812 257.171875 0.0507812 C 249.898438 0.0507812 244 5.945312 244 13.210938 L 244 35.890625 L 186.085938 35.890625 L 186.085938 13.210938 C 186.085938 5.945312 180.1875 0.0507812 172.914062 0.0507812 C 165.640625 0.0507812 159.742188 5.945312 159.742188 13.210938 L 159.742188 35.890625 L 101.828125 35.890625 L 101.828125 13.210938 C 101.828125 5.945312 95.933594 0.0507812 88.65625 0.0507812 C 81.382812 0.0507812 75.484375 5.945312 75.484375 13.210938 L 75.484375 35.890625 L 39.050781 35.890625 C 28.234375 35.890625 19.4375 44.683594 19.4375 55.492188 L 19.4375 338.574219 C 19.4375 349.382812 28.234375 358.175781 39.050781 358.175781 L 239.945312 358.175781 C 252.230469 368.660156 268.128906 375.03125 285.515625 375.03125 C 324.289062 375.03125 355.832031 343.503906 355.832031 304.753906 C 355.832031 281.246094 344.183594 260.449219 326.394531 247.683594 "/>
</g>
<path style=" stroke:none;fill-rule:nonzero;fill:rgb(100%,100%,100%);fill-opacity:1;" d="M 318.179688 316.800781 L 289.902344 302.089844 L 289.902344 274.015625 C 289.902344 271.589844 287.9375 269.628906 285.515625 269.628906 C 283.089844 269.628906 281.121094 271.589844 281.121094 274.015625 L 281.121094 304.753906 C 281.121094 306.390625 282.035156 307.890625 283.484375 308.644531 L 314.128906 324.585938 C 314.777344 324.925781 315.46875 325.082031 316.152344 325.082031 C 317.738281 325.082031 319.269531 324.222656 320.050781 322.722656 C 321.171875 320.570312 320.335938 317.925781 318.179688 316.800781 "/>
</g>
</svg>
