<?xml version="1.0" encoding="UTF-8"?>
<svg xmlns="http://www.w3.org/2000/svg" xmlns:xlink="http://www.w3.org/1999/xlink" width="375pt" height="374.999991pt" viewBox="0 0 375 374.999991" version="1.2">
<g id="surface1">
<path style=" stroke:none;fill-rule:nonzero;fill:rgb(0%,0%,0%);fill-opacity:1;" d="M 187.5 23.4375 C 277.953125 23.4375 351.5625 97.046875 351.5625 187.5 C 351.5625 277.953125 277.953125 351.5625 187.5 351.5625 C 97.046875 351.5625 23.4375 277.953125 23.4375 187.5 C 23.4375 97.046875 97.046875 23.4375 187.5 23.4375 M 187.5 0 C 83.953125 0 0 83.953125 0 187.5 C 0 291.046875 83.953125 375 187.5 375 C 291.046875 375 375 291.046875 375 187.5 C 375 83.953125 291.046875 0 187.5 0 Z M 292.03125 250.191406 L 290.976562 246.988281 C 288.503906 239.617188 280.355469 231.925781 272.851562 229.867188 L 245.132812 222.289062 C 237.625 220.253906 226.914062 223 221.398438 228.515625 L 211.371094 238.539062 C 174.933594 228.675781 146.347656 200.089844 136.503906 163.652344 L 146.53125 153.625 C 152.023438 148.132812 154.769531 137.421875 152.734375 129.890625 L 145.179688 102.171875 C 143.144531 94.664062 135.40625 86.515625 128.035156 84.046875 L 124.878906 82.992188 C 117.484375 80.519531 106.933594 83.015625 101.441406 88.53125 L 86.425781 103.546875 C 83.746094 106.199219 82.03125 113.824219 82.03125 113.847656 C 81.527344 161.5 100.203125 207.390625 133.894531 241.105469 C 167.496094 274.703125 213.226562 293.359375 260.71875 292.945312 C 260.972656 292.945312 268.820312 291.273438 271.5 288.597656 L 286.515625 273.582031 C 292.007812 268.113281 294.480469 257.558594 292.03125 250.191406 Z M 292.03125 250.191406 "/>
</g>
</svg>
