<?xml version="1.0" encoding="UTF-8"?>
<svg xmlns="http://www.w3.org/2000/svg" xmlns:xlink="http://www.w3.org/1999/xlink" width="375pt" height="374.999991pt" viewBox="0 0 375 374.999991" version="1.2">
<defs>
<clipPath id="clip1">
  <path d="M 71.105469 66.097656 L 302.21875 66.097656 L 302.21875 308.394531 L 71.105469 308.394531 Z M 71.105469 66.097656 "/>
</clipPath>
</defs>
<g id="surface1">
<path style=" stroke:none;fill-rule:nonzero;fill:rgb(9.01947%,45.878601%,66.668701%);fill-opacity:1;" d="M 187.5 0 C 184.429688 0 181.363281 0.0742188 178.300781 0.226562 C 175.234375 0.375 172.175781 0.601562 169.121094 0.902344 C 166.066406 1.203125 163.023438 1.578125 159.988281 2.03125 C 156.953125 2.480469 153.929688 3.003906 150.921875 3.601562 C 147.910156 4.203125 144.917969 4.875 141.941406 5.617188 C 138.964844 6.363281 136.007812 7.183594 133.070312 8.074219 C 130.136719 8.964844 127.222656 9.925781 124.332031 10.960938 C 121.445312 11.996094 118.582031 13.097656 115.746094 14.273438 C 112.910156 15.445312 110.105469 16.691406 107.332031 18.003906 C 104.558594 19.3125 101.820312 20.691406 99.113281 22.140625 C 96.40625 23.585938 93.738281 25.097656 91.105469 26.675781 C 88.472656 28.253906 85.882812 29.894531 83.332031 31.597656 C 80.777344 33.304688 78.269531 35.070312 75.804688 36.898438 C 73.339844 38.726562 70.921875 40.613281 68.550781 42.558594 C 66.179688 44.507812 63.855469 46.511719 61.582031 48.570312 C 59.308594 50.632812 57.085938 52.746094 54.917969 54.917969 C 52.746094 57.085938 50.632812 59.308594 48.570312 61.582031 C 46.511719 63.855469 44.507812 66.179688 42.558594 68.550781 C 40.613281 70.921875 38.726562 73.339844 36.898438 75.804688 C 35.070312 78.269531 33.304688 80.777344 31.597656 83.332031 C 29.894531 85.882812 28.253906 88.472656 26.675781 91.105469 C 25.097656 93.738281 23.585938 96.40625 22.140625 99.113281 C 20.691406 101.820312 19.3125 104.558594 18.003906 107.332031 C 16.691406 110.105469 15.445312 112.910156 14.273438 115.746094 C 13.097656 118.582031 11.996094 121.445312 10.960938 124.332031 C 9.925781 127.222656 8.964844 130.136719 8.074219 133.070312 C 7.183594 136.007812 6.363281 138.964844 5.621094 141.941406 C 4.875 144.917969 4.203125 147.910156 3.601562 150.921875 C 3.003906 153.929688 2.480469 156.953125 2.03125 159.988281 C 1.578125 163.023438 1.203125 166.066406 0.902344 169.121094 C 0.601562 172.175781 0.375 175.234375 0.226562 178.300781 C 0.0742188 181.363281 0 184.429688 0 187.5 C 0 190.570312 0.0742188 193.636719 0.226562 196.699219 C 0.375 199.765625 0.601562 202.824219 0.902344 205.878906 C 1.203125 208.933594 1.578125 211.976562 2.03125 215.011719 C 2.480469 218.046875 3.003906 221.070312 3.601562 224.078125 C 4.203125 227.089844 4.875 230.082031 5.621094 233.058594 C 6.363281 236.035156 7.183594 238.992188 8.074219 241.929688 C 8.964844 244.863281 9.925781 247.777344 10.960938 250.667969 C 11.996094 253.554688 13.097656 256.417969 14.273438 259.253906 C 15.445312 262.089844 16.691406 264.890625 18.003906 267.667969 C 19.3125 270.441406 20.691406 273.179688 22.140625 275.886719 C 23.585938 278.59375 25.097656 281.261719 26.675781 283.894531 C 28.253906 286.527344 29.894531 289.117188 31.597656 291.667969 C 33.304688 294.222656 35.070312 296.730469 36.898438 299.195312 C 38.726562 301.660156 40.613281 304.078125 42.558594 306.449219 C 44.507812 308.820312 46.511719 311.144531 48.570312 313.417969 C 50.632812 315.691406 52.746094 317.914062 54.917969 320.082031 C 57.085938 322.253906 59.308594 324.367188 61.582031 326.429688 C 63.855469 328.488281 66.179688 330.492188 68.550781 332.4375 C 70.921875 334.386719 73.339844 336.273438 75.804688 338.101562 C 78.269531 339.929688 80.777344 341.695312 83.332031 343.402344 C 85.882812 345.105469 88.472656 346.746094 91.105469 348.324219 C 93.738281 349.902344 96.40625 351.414062 99.113281 352.859375 C 101.820312 354.308594 104.558594 355.6875 107.332031 356.996094 C 110.105469 358.308594 112.910156 359.554688 115.746094 360.726562 C 118.582031 361.902344 121.445312 363.003906 124.332031 364.039062 C 127.222656 365.074219 130.136719 366.035156 133.070312 366.925781 C 136.007812 367.816406 138.964844 368.636719 141.941406 369.378906 C 144.917969 370.125 147.910156 370.796875 150.921875 371.398438 C 153.929688 371.996094 156.953125 372.519531 159.988281 372.96875 C 163.023438 373.421875 166.066406 373.796875 169.121094 374.097656 C 172.175781 374.398438 175.234375 374.625 178.300781 374.773438 C 181.363281 374.925781 184.429688 375 187.5 375 C 190.570312 375 193.636719 374.925781 196.699219 374.773438 C 199.765625 374.625 202.824219 374.398438 205.878906 374.097656 C 208.933594 373.796875 211.976562 373.421875 215.011719 372.96875 C 218.046875 372.519531 221.070312 371.996094 224.078125 371.398438 C 227.089844 370.796875 230.082031 370.125 233.058594 369.378906 C 236.035156 368.636719 238.992188 367.816406 241.929688 366.925781 C 244.863281 366.035156 247.777344 365.074219 250.667969 364.039062 C 253.554688 363.003906 256.417969 361.902344 259.253906 360.726562 C 262.089844 359.554688 264.890625 358.308594 267.667969 356.996094 C 270.441406 355.6875 273.179688 354.308594 275.886719 352.859375 C 278.59375 351.414062 281.261719 349.902344 283.894531 348.324219 C 286.527344 346.746094 289.117188 345.105469 291.667969 343.402344 C 294.222656 341.695312 296.730469 339.929688 299.195312 338.101562 C 301.660156 336.273438 304.078125 334.386719 306.449219 332.4375 C 308.820312 330.492188 311.144531 328.488281 313.417969 326.429688 C 315.691406 324.367188 317.914062 322.253906 320.082031 320.082031 C 322.253906 317.914062 324.367188 315.691406 326.429688 313.417969 C 328.488281 311.144531 330.492188 308.820312 332.4375 306.449219 C 334.386719 304.078125 336.273438 301.660156 338.101562 299.195312 C 339.929688 296.730469 341.695312 294.222656 343.402344 291.667969 C 345.105469 289.117188 346.746094 286.527344 348.324219 283.894531 C 349.902344 281.261719 351.414062 278.59375 352.859375 275.886719 C 354.308594 273.179688 355.6875 270.441406 356.996094 267.667969 C 358.308594 264.890625 359.554688 262.089844 360.726562 259.253906 C 361.902344 256.417969 363.003906 253.554688 364.039062 250.667969 C 365.074219 247.777344 366.035156 244.863281 366.925781 241.929688 C 367.816406 238.992188 368.636719 236.035156 369.378906 233.058594 C 370.125 230.082031 370.796875 227.089844 371.398438 224.078125 C 371.996094 221.070312 372.519531 218.046875 372.96875 215.011719 C 373.421875 211.976562 373.796875 208.933594 374.097656 205.878906 C 374.398438 202.824219 374.625 199.765625 374.773438 196.699219 C 374.925781 193.636719 375 190.570312 375 187.5 C 375 184.429688 374.925781 181.363281 374.773438 178.300781 C 374.625 175.234375 374.398438 172.175781 374.097656 169.121094 C 373.796875 166.066406 373.421875 163.023438 372.96875 159.988281 C 372.519531 156.953125 371.996094 153.929688 371.398438 150.921875 C 370.796875 147.910156 370.125 144.917969 369.378906 141.941406 C 368.636719 138.964844 367.816406 136.007812 366.925781 133.070312 C 366.035156 130.136719 365.074219 127.222656 364.039062 124.332031 C 363.003906 121.445312 361.902344 118.582031 360.726562 115.746094 C 359.554688 112.910156 358.308594 110.105469 356.996094 107.332031 C 355.6875 104.558594 354.308594 101.820312 352.859375 99.113281 C 351.414062 96.40625 349.902344 93.738281 348.324219 91.105469 C 346.746094 88.472656 345.105469 85.882812 343.402344 83.332031 C 341.695312 80.777344 339.929688 78.269531 338.101562 75.804688 C 336.273438 73.339844 334.386719 70.921875 332.4375 68.550781 C 330.492188 66.179688 328.488281 63.855469 326.429688 61.582031 C 324.367188 59.308594 322.253906 57.085938 320.082031 54.917969 C 317.914062 52.746094 315.691406 50.632812 313.417969 48.570312 C 311.144531 46.511719 308.820312 44.507812 306.449219 42.558594 C 304.078125 40.613281 301.660156 38.726562 299.195312 36.898438 C 296.730469 35.070312 294.222656 33.304688 291.667969 31.597656 C 289.117188 29.894531 286.527344 28.253906 283.894531 26.675781 C 281.261719 25.097656 278.59375 23.585938 275.886719 22.140625 C 273.179688 20.691406 270.441406 19.3125 267.667969 18.003906 C 264.890625 16.691406 262.089844 15.445312 259.253906 14.273438 C 256.417969 13.097656 253.554688 11.996094 250.667969 10.960938 C 247.777344 9.925781 244.863281 8.964844 241.929688 8.074219 C 238.992188 7.183594 236.035156 6.363281 233.058594 5.617188 C 230.082031 4.875 227.089844 4.203125 224.078125 3.601562 C 221.070312 3.003906 218.046875 2.480469 215.011719 2.03125 C 211.976562 1.578125 208.933594 1.203125 205.878906 0.902344 C 202.824219 0.601562 199.765625 0.375 196.699219 0.226562 C 193.636719 0.0742188 190.570312 0 187.5 0 Z M 187.5 0 "/>
<g clip-path="url(#clip1)" clip-rule="nonzero">
<path style=" stroke:none;fill-rule:nonzero;fill:rgb(100%,100%,100%);fill-opacity:1;" d="M 267.015625 208.046875 L 275.648438 242.773438 L 258.382812 242.773438 Z M 267.015625 273.058594 C 254.890625 273.058594 244.75 264.382812 242.414062 252.867188 L 291.617188 252.867188 C 289.28125 264.382812 279.140625 273.058594 267.015625 273.058594 Z M 201.730469 278.105469 L 201.730469 176.441406 C 203.335938 176.855469 205.003906 177.152344 206.75 177.152344 C 208.496094 177.152344 210.164062 176.855469 211.773438 176.441406 L 211.773438 278.105469 Z M 206.75 146.863281 C 212.28125 146.863281 216.796875 151.398438 216.796875 156.960938 C 216.796875 162.519531 212.28125 167.054688 206.75 167.054688 C 201.21875 167.054688 196.707031 162.519531 196.707031 156.960938 C 196.707031 151.398438 201.21875 146.863281 206.75 146.863281 Z M 137.855469 182.199219 L 146.484375 147.476562 L 155.117188 182.199219 Z M 146.484375 212.484375 C 134.363281 212.484375 124.21875 203.808594 121.886719 192.292969 L 171.085938 192.292969 C 168.75 203.808594 158.609375 212.484375 146.484375 212.484375 Z M 236.882812 242.773438 C 234.117188 242.773438 231.859375 245.039062 231.859375 247.820312 C 231.859375 267.300781 247.632812 283.152344 267.015625 283.152344 C 286.398438 283.152344 302.171875 267.300781 302.171875 247.820312 C 302.171875 245.039062 299.914062 242.773438 297.148438 242.773438 L 286.003906 242.773438 L 271.878906 186.023438 C 271.527344 184.566406 270.527344 183.460938 269.273438 182.808594 L 269.3125 182.75 L 226.445312 160.765625 C 226.683594 159.523438 226.839844 158.261719 226.839844 156.960938 C 226.839844 145.820312 217.835938 136.769531 206.75 136.769531 C 200.570312 136.769531 195.097656 139.648438 191.410156 144.0625 L 148.78125 122.175781 L 148.742188 122.234375 C 148.054688 121.882812 147.308594 121.625 146.484375 121.625 C 144.171875 121.625 142.171875 123.203125 141.621094 125.449219 L 127.496094 182.199219 L 116.355469 182.199219 C 113.585938 182.199219 111.332031 184.464844 111.332031 187.246094 C 111.332031 206.726562 127.105469 222.582031 146.484375 222.582031 C 165.867188 222.582031 181.640625 206.726562 181.640625 187.246094 C 181.640625 184.464844 179.382812 182.199219 176.617188 182.199219 L 165.476562 182.199219 L 154.039062 136.214844 L 187.054688 153.152344 C 186.820312 154.394531 186.664062 155.65625 186.664062 156.960938 C 186.664062 162.027344 188.605469 166.621094 191.683594 170.171875 L 191.683594 278.105469 L 186.664062 278.105469 C 182.640625 278.105469 178.855469 279.683594 176.011719 282.542969 C 173.164062 285.402344 171.597656 289.207031 171.597656 293.25 L 171.597656 298.296875 L 146.484375 298.296875 L 146.484375 257.914062 C 146.484375 255.136719 144.230469 252.867188 141.464844 252.867188 L 121.375 252.867188 C 118.6875 252.867188 116.175781 251.824219 114.273438 249.910156 C 112.371094 247.996094 111.332031 245.472656 111.332031 242.773438 L 111.332031 212.484375 C 111.332031 209.703125 109.074219 207.4375 106.308594 207.4375 L 81.90625 207.4375 L 110.722656 154.335938 C 111.117188 153.585938 111.332031 152.757812 111.332031 151.910156 C 111.332031 110.167969 145.132812 76.195312 186.664062 76.195312 C 228.210938 76.195312 261.992188 110.167969 261.992188 151.910156 L 261.992188 162.007812 L 272.039062 162.007812 L 272.039062 151.910156 C 272.039062 104.589844 233.746094 66.097656 186.664062 66.097656 C 140.011719 66.097656 101.992188 103.878906 101.289062 150.609375 L 71.761719 205.03125 C 71.371094 205.761719 71.15625 206.589844 71.15625 207.4375 L 71.15625 212.484375 C 71.15625 215.265625 73.410156 217.53125 76.175781 217.53125 L 101.289062 217.53125 L 101.289062 242.773438 C 101.289062 248.175781 103.386719 253.242188 107.171875 257.046875 C 110.957031 260.851562 116 262.964844 121.375 262.964844 L 136.441406 262.964844 L 136.441406 308.394531 L 176.617188 308.394531 C 179.382812 308.394531 181.640625 306.125 181.640625 303.34375 L 181.640625 293.25 C 181.640625 291.890625 182.171875 290.628906 183.113281 289.679688 C 184.054688 288.734375 185.328125 288.203125 186.664062 288.203125 L 226.839844 288.203125 C 228.171875 288.203125 229.449219 288.734375 230.390625 289.679688 C 231.332031 290.628906 231.859375 291.910156 231.859375 293.25 L 231.859375 298.296875 L 191.683594 298.296875 L 191.683594 308.394531 L 272.039062 308.394531 L 272.039062 298.296875 L 241.90625 298.296875 L 241.90625 293.25 C 241.90625 289.207031 240.335938 285.402344 237.492188 282.542969 C 234.648438 279.683594 230.859375 278.105469 226.839844 278.105469 L 221.816406 278.105469 L 221.816406 170.171875 C 221.914062 170.070312 221.992188 169.953125 222.089844 169.855469 L 261.167969 189.929688 L 248.027344 242.773438 L 236.882812 242.773438 "/>
</g>
</g>
</svg>
