<?xml version="1.0" encoding="UTF-8"?>
<svg xmlns="http://www.w3.org/2000/svg" xmlns:xlink="http://www.w3.org/1999/xlink" width="375pt" height="374.999991pt" viewBox="0 0 375 374.999991" version="1.2">
<g id="surface1">
<path style=" stroke:none;fill-rule:nonzero;fill:rgb(0%,0%,0%);fill-opacity:1;" d="M 329.988281 307.625 L 45.011719 307.625 C 21.0625 307.625 1.578125 288.160156 1.578125 264.238281 L 1.578125 83.175781 C 1.578125 59.253906 21.0625 39.785156 45.011719 39.785156 L 128.535156 39.785156 C 131.855469 39.785156 134.546875 42.472656 134.546875 45.789062 C 134.546875 49.105469 131.855469 51.792969 128.535156 51.792969 L 45.011719 51.792969 C 27.695312 51.792969 13.601562 65.871094 13.601562 83.175781 L 13.601562 264.238281 C 13.601562 281.539062 27.695312 295.613281 45.011719 295.613281 L 329.988281 295.613281 C 347.308594 295.613281 361.402344 281.539062 361.402344 264.238281 L 361.402344 83.175781 C 361.402344 65.875 347.308594 51.792969 329.988281 51.792969 L 246.933594 51.792969 C 243.613281 51.792969 240.921875 49.105469 240.921875 45.789062 C 240.921875 42.472656 243.613281 39.785156 246.933594 39.785156 L 329.988281 39.785156 C 353.941406 39.785156 373.429688 59.246094 373.429688 83.175781 L 373.429688 264.238281 C 373.421875 288.160156 353.941406 307.625 329.988281 307.625 Z M 329.988281 307.625 "/>
<path style=" stroke:none;fill-rule:nonzero;fill:rgb(0%,0%,0%);fill-opacity:1;" d="M 187.5 244.605469 C 185.808594 244.605469 184.199219 243.898438 183.058594 242.648438 L 15.742188 59.335938 C 13.507812 56.886719 13.679688 53.085938 16.132812 50.851562 C 18.59375 48.617188 22.394531 48.796875 24.628906 51.242188 L 187.492188 229.683594 L 350.324219 51.164062 C 352.554688 48.714844 356.359375 48.535156 358.816406 50.765625 C 361.269531 53 361.453125 56.796875 359.214844 59.253906 L 191.949219 242.644531 C 190.800781 243.898438 189.191406 244.605469 187.5 244.605469 Z M 187.5 244.605469 "/>
<path style=" stroke:none;fill-rule:nonzero;fill:rgb(0%,0%,0%);fill-opacity:1;" d="M 24.09375 301.1875 C 22.507812 301.1875 20.925781 300.5625 19.742188 299.324219 C 17.449219 296.921875 17.539062 293.121094 19.945312 290.832031 L 135.003906 181.277344 C 137.398438 178.984375 141.210938 179.074219 143.507812 181.476562 C 145.796875 183.875 145.707031 187.679688 143.300781 189.964844 L 28.242188 299.523438 C 27.078125 300.632812 25.585938 301.1875 24.09375 301.1875 Z M 24.09375 301.1875 "/>
<path style=" stroke:none;fill-rule:nonzero;fill:rgb(0%,0%,0%);fill-opacity:1;" d="M 355.824219 297.230469 C 354.339844 297.230469 352.859375 296.683594 351.691406 295.597656 L 235.40625 185.941406 C 232.996094 183.660156 232.882812 179.859375 235.160156 177.453125 C 237.4375 175.042969 241.246094 174.933594 243.660156 177.203125 L 359.949219 286.859375 C 362.359375 289.140625 362.472656 292.941406 360.195312 295.351562 C 359.011719 296.597656 357.421875 297.230469 355.824219 297.230469 Z M 355.824219 297.230469 "/>
<path style=" stroke:none;fill-rule:nonzero;fill:rgb(0%,0%,0%);fill-opacity:1;" d="M 212.765625 39.976562 L 201.675781 39.976562 L 201.726562 49.417969 C 198.585938 42.515625 191.839844 38.15625 182.027344 38.15625 C 165.3125 38.15625 154.851562 50.851562 154.972656 70.644531 L 155.019531 77.734375 C 155.164062 98.425781 165.601562 110.234375 182.691406 110.234375 C 193.242188 110.234375 201.207031 104.796875 205.332031 96.429688 C 207.925781 104.410156 214.308594 109.132812 223.59375 109.132812 C 238.851562 109.132812 251.136719 95.164062 250.941406 66.117188 C 250.679688 27.613281 226.136719 -0.164062 187.964844 -0.164062 C 145.59375 -0.164062 119.277344 30.34375 119.566406 74.097656 C 119.878906 122.382812 147.324219 148.554688 189.308594 148.554688 C 207.496094 148.554688 222.558594 144.722656 234.871094 137.816406 L 234.777344 125.109375 C 221.199219 132.929688 205.964844 136.742188 189.230469 136.742188 C 156.519531 136.742188 132.738281 116.582031 132.480469 74.097656 C 132.199219 36.691406 152.039062 11.648438 188.023438 11.648438 C 220.203125 11.648438 238.167969 34.703125 238.382812 66.285156 C 238.527344 88.976562 231.859375 96.976562 223.492188 96.976562 C 217.320312 96.976562 213.101562 92.792969 213.027344 82.265625 Z M 200.28125 76.636719 C 200.382812 90.996094 194.238281 98.617188 184.234375 98.617188 C 174.253906 98.617188 168.015625 91.164062 167.921875 77.003906 L 167.882812 71.371094 C 167.808594 57.398438 173.730469 49.777344 183.933594 49.777344 C 194.292969 49.777344 200.148438 57.945312 200.246094 71.917969 Z M 200.28125 76.636719 "/>
</g>
</svg>
