<?xml version="1.0" encoding="UTF-8"?>
<svg xmlns="http://www.w3.org/2000/svg" xmlns:xlink="http://www.w3.org/1999/xlink" width="375pt" height="374.999991pt" viewBox="0 0 375 374.999991" version="1.2">
<defs>
<clipPath id="clip1">
  <path d="M 134 171 L 240 171 L 240 308.148438 L 134 308.148438 Z M 134 171 "/>
</clipPath>
<clipPath id="clip2">
  <path d="M 234 82 L 299.851562 82 L 299.851562 128 L 234 128 Z M 234 82 "/>
</clipPath>
<clipPath id="clip3">
  <path d="M 275 65.855469 L 292 65.855469 L 292 75 L 275 75 Z M 275 65.855469 "/>
</clipPath>
<clipPath id="clip4">
  <path d="M 84 65.855469 L 102 65.855469 L 102 75 L 84 75 Z M 84 65.855469 "/>
</clipPath>
<clipPath id="clip5">
  <path d="M 76.195312 82 L 142 82 L 142 128 L 76.195312 128 Z M 76.195312 82 "/>
</clipPath>
</defs>
<g id="surface1">
<path style=" stroke:none;fill-rule:nonzero;fill:rgb(9.01947%,45.878601%,66.668701%);fill-opacity:1;" d="M 187.5 0 C 184.429688 0 181.363281 0.0742188 178.300781 0.226562 C 175.234375 0.375 172.175781 0.601562 169.121094 0.902344 C 166.066406 1.203125 163.023438 1.578125 159.988281 2.03125 C 156.953125 2.480469 153.929688 3.003906 150.921875 3.601562 C 147.910156 4.203125 144.917969 4.875 141.941406 5.617188 C 138.964844 6.363281 136.007812 7.183594 133.070312 8.074219 C 130.136719 8.964844 127.222656 9.925781 124.332031 10.960938 C 121.445312 11.996094 118.582031 13.097656 115.746094 14.273438 C 112.910156 15.445312 110.105469 16.691406 107.332031 18.003906 C 104.558594 19.3125 101.820312 20.691406 99.113281 22.140625 C 96.40625 23.585938 93.738281 25.097656 91.105469 26.675781 C 88.472656 28.253906 85.882812 29.894531 83.332031 31.597656 C 80.777344 33.304688 78.269531 35.070312 75.804688 36.898438 C 73.339844 38.726562 70.921875 40.613281 68.550781 42.558594 C 66.179688 44.507812 63.855469 46.511719 61.582031 48.570312 C 59.308594 50.632812 57.085938 52.746094 54.917969 54.917969 C 52.746094 57.085938 50.632812 59.308594 48.570312 61.582031 C 46.511719 63.855469 44.507812 66.179688 42.558594 68.550781 C 40.613281 70.921875 38.726562 73.339844 36.898438 75.804688 C 35.070312 78.269531 33.304688 80.777344 31.597656 83.332031 C 29.894531 85.882812 28.253906 88.472656 26.675781 91.105469 C 25.097656 93.738281 23.585938 96.40625 22.140625 99.113281 C 20.691406 101.820312 19.3125 104.558594 18.003906 107.332031 C 16.691406 110.105469 15.445312 112.910156 14.273438 115.746094 C 13.097656 118.582031 11.996094 121.445312 10.960938 124.332031 C 9.925781 127.222656 8.964844 130.136719 8.074219 133.070312 C 7.183594 136.007812 6.363281 138.964844 5.621094 141.941406 C 4.875 144.917969 4.203125 147.910156 3.601562 150.921875 C 3.003906 153.929688 2.480469 156.953125 2.03125 159.988281 C 1.578125 163.023438 1.203125 166.066406 0.902344 169.121094 C 0.601562 172.175781 0.375 175.234375 0.226562 178.300781 C 0.0742188 181.363281 0 184.429688 0 187.5 C 0 190.570312 0.0742188 193.636719 0.226562 196.699219 C 0.375 199.765625 0.601562 202.824219 0.902344 205.878906 C 1.203125 208.933594 1.578125 211.976562 2.03125 215.011719 C 2.480469 218.046875 3.003906 221.070312 3.601562 224.078125 C 4.203125 227.089844 4.875 230.082031 5.621094 233.058594 C 6.363281 236.035156 7.183594 238.992188 8.074219 241.929688 C 8.964844 244.863281 9.925781 247.777344 10.960938 250.667969 C 11.996094 253.554688 13.097656 256.417969 14.273438 259.253906 C 15.445312 262.089844 16.691406 264.890625 18.003906 267.667969 C 19.3125 270.441406 20.691406 273.179688 22.140625 275.886719 C 23.585938 278.59375 25.097656 281.261719 26.675781 283.894531 C 28.253906 286.527344 29.894531 289.117188 31.597656 291.667969 C 33.304688 294.222656 35.070312 296.730469 36.898438 299.195312 C 38.726562 301.660156 40.613281 304.078125 42.558594 306.449219 C 44.507812 308.820312 46.511719 311.144531 48.570312 313.417969 C 50.632812 315.691406 52.746094 317.914062 54.917969 320.082031 C 57.085938 322.253906 59.308594 324.367188 61.582031 326.429688 C 63.855469 328.488281 66.179688 330.492188 68.550781 332.4375 C 70.921875 334.386719 73.339844 336.273438 75.804688 338.101562 C 78.269531 339.929688 80.777344 341.695312 83.332031 343.402344 C 85.882812 345.105469 88.472656 346.746094 91.105469 348.324219 C 93.738281 349.902344 96.40625 351.414062 99.113281 352.859375 C 101.820312 354.308594 104.558594 355.6875 107.332031 356.996094 C 110.105469 358.308594 112.910156 359.554688 115.746094 360.726562 C 118.582031 361.902344 121.445312 363.003906 124.332031 364.039062 C 127.222656 365.074219 130.136719 366.035156 133.070312 366.925781 C 136.007812 367.816406 138.964844 368.636719 141.941406 369.378906 C 144.917969 370.125 147.910156 370.796875 150.921875 371.398438 C 153.929688 371.996094 156.953125 372.519531 159.988281 372.96875 C 163.023438 373.421875 166.066406 373.796875 169.121094 374.097656 C 172.175781 374.398438 175.234375 374.625 178.300781 374.773438 C 181.363281 374.925781 184.429688 375 187.5 375 C 190.570312 375 193.636719 374.925781 196.699219 374.773438 C 199.765625 374.625 202.824219 374.398438 205.878906 374.097656 C 208.933594 373.796875 211.976562 373.421875 215.011719 372.96875 C 218.046875 372.519531 221.070312 371.996094 224.078125 371.398438 C 227.089844 370.796875 230.082031 370.125 233.058594 369.378906 C 236.035156 368.636719 238.992188 367.816406 241.929688 366.925781 C 244.863281 366.035156 247.777344 365.074219 250.667969 364.039062 C 253.554688 363.003906 256.417969 361.902344 259.253906 360.726562 C 262.089844 359.554688 264.890625 358.308594 267.667969 356.996094 C 270.441406 355.6875 273.179688 354.308594 275.886719 352.859375 C 278.59375 351.414062 281.261719 349.902344 283.894531 348.324219 C 286.527344 346.746094 289.117188 345.105469 291.667969 343.402344 C 294.222656 341.695312 296.730469 339.929688 299.195312 338.101562 C 301.660156 336.273438 304.078125 334.386719 306.449219 332.4375 C 308.820312 330.492188 311.144531 328.488281 313.417969 326.429688 C 315.691406 324.367188 317.914062 322.253906 320.082031 320.082031 C 322.253906 317.914062 324.367188 315.691406 326.429688 313.417969 C 328.488281 311.144531 330.492188 308.820312 332.4375 306.449219 C 334.386719 304.078125 336.273438 301.660156 338.101562 299.195312 C 339.929688 296.730469 341.695312 294.222656 343.402344 291.667969 C 345.105469 289.117188 346.746094 286.527344 348.324219 283.894531 C 349.902344 281.261719 351.414062 278.59375 352.859375 275.886719 C 354.308594 273.179688 355.6875 270.441406 356.996094 267.667969 C 358.308594 264.890625 359.554688 262.089844 360.726562 259.253906 C 361.902344 256.417969 363.003906 253.554688 364.039062 250.667969 C 365.074219 247.777344 366.035156 244.863281 366.925781 241.929688 C 367.816406 238.992188 368.636719 236.035156 369.378906 233.058594 C 370.125 230.082031 370.796875 227.089844 371.398438 224.078125 C 371.996094 221.070312 372.519531 218.046875 372.96875 215.011719 C 373.421875 211.976562 373.796875 208.933594 374.097656 205.878906 C 374.398438 202.824219 374.625 199.765625 374.773438 196.699219 C 374.925781 193.636719 375 190.570312 375 187.5 C 375 184.429688 374.925781 181.363281 374.773438 178.300781 C 374.625 175.234375 374.398438 172.175781 374.097656 169.121094 C 373.796875 166.066406 373.421875 163.023438 372.96875 159.988281 C 372.519531 156.953125 371.996094 153.929688 371.398438 150.921875 C 370.796875 147.910156 370.125 144.917969 369.378906 141.941406 C 368.636719 138.964844 367.816406 136.007812 366.925781 133.070312 C 366.035156 130.136719 365.074219 127.222656 364.039062 124.332031 C 363.003906 121.445312 361.902344 118.582031 360.726562 115.746094 C 359.554688 112.910156 358.308594 110.105469 356.996094 107.332031 C 355.6875 104.558594 354.308594 101.820312 352.859375 99.113281 C 351.414062 96.40625 349.902344 93.738281 348.324219 91.105469 C 346.746094 88.472656 345.105469 85.882812 343.402344 83.332031 C 341.695312 80.777344 339.929688 78.269531 338.101562 75.804688 C 336.273438 73.339844 334.386719 70.921875 332.4375 68.550781 C 330.492188 66.179688 328.488281 63.855469 326.429688 61.582031 C 324.367188 59.308594 322.253906 57.085938 320.082031 54.917969 C 317.914062 52.746094 315.691406 50.632812 313.417969 48.570312 C 311.144531 46.511719 308.820312 44.507812 306.449219 42.558594 C 304.078125 40.613281 301.660156 38.726562 299.195312 36.898438 C 296.730469 35.070312 294.222656 33.304688 291.667969 31.597656 C 289.117188 29.894531 286.527344 28.253906 283.894531 26.675781 C 281.261719 25.097656 278.59375 23.585938 275.886719 22.140625 C 273.179688 20.691406 270.441406 19.3125 267.667969 18.003906 C 264.890625 16.691406 262.089844 15.445312 259.253906 14.273438 C 256.417969 13.097656 253.554688 11.996094 250.667969 10.960938 C 247.777344 9.925781 244.863281 8.964844 241.929688 8.074219 C 238.992188 7.183594 236.035156 6.363281 233.058594 5.617188 C 230.082031 4.875 227.089844 4.203125 224.078125 3.601562 C 221.070312 3.003906 218.046875 2.480469 215.011719 2.03125 C 211.976562 1.578125 208.933594 1.203125 205.878906 0.902344 C 202.824219 0.601562 199.765625 0.375 196.699219 0.226562 C 193.636719 0.0742188 190.570312 0 187.5 0 Z M 187.5 0 "/>
<path style=" stroke:none;fill-rule:nonzero;fill:rgb(100%,100%,100%);fill-opacity:1;" d="M 183.878906 205.476562 L 183.878906 197.265625 L 192.164062 197.265625 L 192.164062 205.476562 L 204.589844 205.476562 L 204.589844 175.882812 C 197.4375 171.246094 188.90625 168.527344 179.738281 168.527344 C 176.90625 168.527344 174.148438 168.816406 171.453125 169.308594 L 171.453125 205.476562 Z M 183.878906 180.84375 L 192.164062 180.84375 L 192.164062 189.054688 L 183.878906 189.054688 Z M 183.878906 180.84375 "/>
<g clip-path="url(#clip1)" clip-rule="nonzero">
<path style=" stroke:none;fill-rule:nonzero;fill:rgb(100%,100%,100%);fill-opacity:1;" d="M 225.296875 213.6875 C 225.296875 201.730469 220.550781 190.871094 212.871094 182.789062 L 212.871094 209.582031 C 212.871094 211.851562 211.019531 213.6875 208.730469 213.6875 L 192.164062 213.6875 L 192.164062 226.003906 C 192.164062 228.273438 190.3125 230.109375 188.023438 230.109375 L 167.3125 230.109375 C 165.023438 230.109375 163.171875 228.273438 163.171875 226.003906 L 163.171875 213.6875 L 154.886719 213.6875 L 154.886719 205.476562 L 163.171875 205.476562 L 163.171875 171.664062 C 146.226562 178.253906 134.179688 194.585938 134.179688 213.6875 L 134.179688 218.101562 C 134.179688 230.9375 136.847656 243.394531 142.105469 255.128906 C 147.839844 267.917969 150.746094 281.5 150.746094 295.492188 L 150.746094 308.117188 L 200.445312 308.117188 L 200.445312 283.480469 C 200.445312 281.210938 202.296875 279.375 204.589844 279.375 L 225.296875 279.375 L 225.296875 246.53125 C 225.296875 244.261719 227.148438 242.425781 229.441406 242.425781 L 239.304688 242.425781 L 225.738281 215.523438 C 225.445312 214.957031 225.296875 214.324219 225.296875 213.6875 Z M 146.605469 213.6875 L 138.320312 213.6875 L 138.320312 205.476562 L 146.605469 205.476562 Z M 146.605469 213.6875 "/>
</g>
<path style=" stroke:none;fill-rule:nonzero;fill:rgb(100%,100%,100%);fill-opacity:1;" d="M 171.453125 213.6875 L 183.878906 213.6875 L 183.878906 221.898438 L 171.453125 221.898438 Z M 171.453125 213.6875 "/>
<path style=" stroke:none;fill-rule:nonzero;fill:rgb(100%,100%,100%);fill-opacity:1;" d="M 208.730469 139.785156 C 213.300781 139.785156 217.015625 136.105469 217.015625 131.574219 C 217.015625 130.558594 216.828125 129.558594 216.460938 128.617188 C 216.023438 127.488281 216.105469 126.226562 216.695312 125.167969 C 217.285156 124.101562 218.3125 123.355469 219.507812 123.113281 C 225.261719 121.960938 229.441406 116.886719 229.441406 111.046875 C 229.441406 105.222656 225.269531 100.148438 219.519531 98.980469 C 218.328125 98.738281 217.289062 97.988281 216.703125 96.929688 C 216.117188 95.871094 216.019531 94.609375 216.457031 93.480469 C 216.828125 92.535156 217.015625 91.539062 217.015625 90.519531 C 217.015625 85.992188 213.300781 82.308594 208.730469 82.308594 C 204.164062 82.308594 200.445312 85.992188 200.445312 90.519531 L 200.445312 131.574219 C 200.445312 136.105469 204.164062 139.785156 208.730469 139.785156 Z M 208.730469 139.785156 "/>
<g clip-path="url(#clip2)" clip-rule="nonzero">
<path style=" stroke:none;fill-rule:nonzero;fill:rgb(100%,100%,100%);fill-opacity:1;" d="M 294.824219 88.554688 L 292.726562 82.308594 L 283.921875 82.308594 L 287.519531 107.285156 C 287.761719 108.953125 286.949219 110.601562 285.472656 111.433594 C 284.835938 111.800781 284.128906 111.976562 283.417969 111.976562 C 282.496094 111.976562 281.585938 111.671875 280.832031 111.078125 L 271.863281 103.964844 C 264.703125 98.277344 254.226562 97.191406 246.042969 101.253906 L 236.976562 105.746094 C 237.441406 107.453125 237.722656 109.21875 237.722656 111.046875 C 237.722656 114.808594 236.636719 118.351562 234.808594 121.425781 C 242.800781 125.378906 251.742188 127.46875 260.671875 127.46875 L 266.714844 127.46875 C 278.488281 127.46875 290.164062 123.824219 299.824219 117.171875 C 299.617188 107.429688 297.9375 97.8125 294.824219 88.554688 Z M 294.824219 88.554688 "/>
</g>
<g clip-path="url(#clip3)" clip-rule="nonzero">
<path style=" stroke:none;fill-rule:nonzero;fill:rgb(100%,100%,100%);fill-opacity:1;" d="M 291.566406 65.886719 L 279.140625 65.886719 C 276.855469 65.886719 275 67.726562 275 69.992188 L 275 74.097656 L 291.566406 74.097656 Z M 291.566406 65.886719 "/>
</g>
<path style=" stroke:none;fill-rule:nonzero;fill:rgb(100%,100%,100%);fill-opacity:1;" d="M 156.535156 123.113281 C 157.734375 123.355469 158.761719 124.101562 159.347656 125.167969 C 159.9375 126.226562 160.019531 127.480469 159.585938 128.617188 C 159.214844 129.558594 159.03125 130.558594 159.03125 131.574219 C 159.03125 136.105469 162.746094 139.785156 167.3125 139.785156 C 171.882812 139.785156 175.597656 136.105469 175.597656 131.574219 L 175.597656 90.519531 C 175.597656 85.992188 171.882812 82.308594 167.3125 82.308594 C 162.746094 82.308594 159.03125 85.992188 159.03125 90.519531 C 159.03125 91.539062 159.214844 92.535156 159.585938 93.480469 C 160.027344 94.628906 159.933594 95.921875 159.316406 96.988281 C 158.699219 98.058594 157.628906 98.796875 156.398438 99 C 150.773438 100.148438 146.605469 105.222656 146.605469 111.046875 C 146.605469 116.886719 150.78125 121.960938 156.535156 123.113281 Z M 156.535156 123.113281 "/>
<g clip-path="url(#clip4)" clip-rule="nonzero">
<path style=" stroke:none;fill-rule:nonzero;fill:rgb(100%,100%,100%);fill-opacity:1;" d="M 101.042969 69.992188 C 101.042969 67.726562 99.1875 65.886719 96.902344 65.886719 L 84.476562 65.886719 L 84.476562 74.097656 L 101.042969 74.097656 Z M 101.042969 69.992188 "/>
</g>
<g clip-path="url(#clip5)" clip-rule="nonzero">
<path style=" stroke:none;fill-rule:nonzero;fill:rgb(100%,100%,100%);fill-opacity:1;" d="M 138.320312 111.046875 C 138.320312 109.21875 138.605469 107.453125 139.070312 105.746094 L 130.003906 101.253906 C 121.816406 97.191406 111.34375 98.277344 104.183594 103.964844 L 95.21875 111.078125 C 94.464844 111.671875 93.550781 111.976562 92.628906 111.976562 C 91.921875 111.976562 91.210938 111.800781 90.574219 111.433594 C 89.097656 110.601562 88.289062 108.953125 88.527344 107.285156 L 92.128906 82.308594 L 83.316406 82.308594 L 81.21875 88.554688 C 78.105469 97.8125 76.425781 107.429688 76.21875 117.171875 C 85.882812 123.824219 97.558594 127.46875 109.328125 127.46875 L 115.371094 127.46875 C 124.300781 127.46875 133.242188 125.378906 141.234375 121.425781 C 139.40625 118.351562 138.320312 114.808594 138.320312 111.046875 Z M 138.320312 111.046875 "/>
</g>
<path style=" stroke:none;fill-rule:nonzero;fill:rgb(100%,100%,100%);fill-opacity:1;" d="M 212.871094 147.414062 C 211.539062 147.761719 210.167969 147.996094 208.730469 147.996094 C 207.292969 147.996094 205.921875 147.761719 204.589844 147.414062 L 204.589844 175.882812 C 207.625 177.851562 210.394531 180.175781 212.871094 182.785156 Z M 212.871094 147.414062 "/>
<path style=" stroke:none;fill-rule:nonzero;fill:rgb(100%,100%,100%);fill-opacity:1;" d="M 171.453125 147.414062 C 170.121094 147.761719 168.75 147.996094 167.3125 147.996094 C 165.875 147.996094 164.503906 147.761719 163.171875 147.414062 L 163.171875 171.664062 C 165.820312 170.632812 168.589844 169.835938 171.453125 169.308594 Z M 171.453125 147.414062 "/>
</g>
</svg>
