<?xml version="1.0" encoding="UTF-8"?>
<svg xmlns="http://www.w3.org/2000/svg" xmlns:xlink="http://www.w3.org/1999/xlink" width="375pt" height="374.999991pt" viewBox="0 0 375 374.999991" version="1.2">
<defs>
<clipPath id="clip1">
  <path d="M 272 144 L 286.542969 144 L 286.542969 151 L 272 151 Z M 272 144 "/>
</clipPath>
</defs>
<g id="surface1">
<path style=" stroke:none;fill-rule:nonzero;fill:rgb(9.01947%,45.878601%,66.668701%);fill-opacity:1;" d="M 187.5 0 C 184.429688 0 181.363281 0.0742188 178.300781 0.226562 C 175.234375 0.375 172.175781 0.601562 169.121094 0.902344 C 166.066406 1.203125 163.023438 1.578125 159.988281 2.03125 C 156.953125 2.480469 153.929688 3.003906 150.921875 3.601562 C 147.910156 4.203125 144.917969 4.875 141.941406 5.617188 C 138.964844 6.363281 136.007812 7.183594 133.070312 8.074219 C 130.136719 8.964844 127.222656 9.925781 124.332031 10.960938 C 121.445312 11.996094 118.582031 13.097656 115.746094 14.273438 C 112.910156 15.445312 110.105469 16.691406 107.332031 18.003906 C 104.558594 19.3125 101.820312 20.691406 99.113281 22.140625 C 96.40625 23.585938 93.738281 25.097656 91.105469 26.675781 C 88.472656 28.253906 85.882812 29.894531 83.332031 31.597656 C 80.777344 33.304688 78.269531 35.070312 75.804688 36.898438 C 73.339844 38.726562 70.921875 40.613281 68.550781 42.558594 C 66.179688 44.507812 63.855469 46.511719 61.582031 48.570312 C 59.308594 50.632812 57.085938 52.746094 54.917969 54.917969 C 52.746094 57.085938 50.632812 59.308594 48.570312 61.582031 C 46.511719 63.855469 44.507812 66.179688 42.558594 68.550781 C 40.613281 70.921875 38.726562 73.339844 36.898438 75.804688 C 35.070312 78.269531 33.304688 80.777344 31.597656 83.332031 C 29.894531 85.882812 28.253906 88.472656 26.675781 91.105469 C 25.097656 93.738281 23.585938 96.40625 22.140625 99.113281 C 20.691406 101.820312 19.3125 104.558594 18.003906 107.332031 C 16.691406 110.105469 15.445312 112.910156 14.273438 115.746094 C 13.097656 118.582031 11.996094 121.445312 10.960938 124.332031 C 9.925781 127.222656 8.964844 130.136719 8.074219 133.070312 C 7.183594 136.007812 6.363281 138.964844 5.621094 141.941406 C 4.875 144.917969 4.203125 147.910156 3.601562 150.921875 C 3.003906 153.929688 2.480469 156.953125 2.03125 159.988281 C 1.578125 163.023438 1.203125 166.066406 0.902344 169.121094 C 0.601562 172.175781 0.375 175.234375 0.226562 178.300781 C 0.0742188 181.363281 0 184.429688 0 187.5 C 0 190.570312 0.0742188 193.636719 0.226562 196.699219 C 0.375 199.765625 0.601562 202.824219 0.902344 205.878906 C 1.203125 208.933594 1.578125 211.976562 2.03125 215.011719 C 2.480469 218.046875 3.003906 221.070312 3.601562 224.078125 C 4.203125 227.089844 4.875 230.082031 5.621094 233.058594 C 6.363281 236.035156 7.183594 238.992188 8.074219 241.929688 C 8.964844 244.863281 9.925781 247.777344 10.960938 250.667969 C 11.996094 253.554688 13.097656 256.417969 14.273438 259.253906 C 15.445312 262.089844 16.691406 264.890625 18.003906 267.667969 C 19.3125 270.441406 20.691406 273.179688 22.140625 275.886719 C 23.585938 278.59375 25.097656 281.261719 26.675781 283.894531 C 28.253906 286.527344 29.894531 289.117188 31.597656 291.667969 C 33.304688 294.222656 35.070312 296.730469 36.898438 299.195312 C 38.726562 301.660156 40.613281 304.078125 42.558594 306.449219 C 44.507812 308.820312 46.511719 311.144531 48.570312 313.417969 C 50.632812 315.691406 52.746094 317.914062 54.917969 320.082031 C 57.085938 322.253906 59.308594 324.367188 61.582031 326.429688 C 63.855469 328.488281 66.179688 330.492188 68.550781 332.4375 C 70.921875 334.386719 73.339844 336.273438 75.804688 338.101562 C 78.269531 339.929688 80.777344 341.695312 83.332031 343.402344 C 85.882812 345.105469 88.472656 346.746094 91.105469 348.324219 C 93.738281 349.902344 96.40625 351.414062 99.113281 352.859375 C 101.820312 354.308594 104.558594 355.6875 107.332031 356.996094 C 110.105469 358.308594 112.910156 359.554688 115.746094 360.726562 C 118.582031 361.902344 121.445312 363.003906 124.332031 364.039062 C 127.222656 365.074219 130.136719 366.035156 133.070312 366.925781 C 136.007812 367.816406 138.964844 368.636719 141.941406 369.378906 C 144.917969 370.125 147.910156 370.796875 150.921875 371.398438 C 153.929688 371.996094 156.953125 372.519531 159.988281 372.96875 C 163.023438 373.421875 166.066406 373.796875 169.121094 374.097656 C 172.175781 374.398438 175.234375 374.625 178.300781 374.773438 C 181.363281 374.925781 184.429688 375 187.5 375 C 190.570312 375 193.636719 374.925781 196.699219 374.773438 C 199.765625 374.625 202.824219 374.398438 205.878906 374.097656 C 208.933594 373.796875 211.976562 373.421875 215.011719 372.96875 C 218.046875 372.519531 221.070312 371.996094 224.078125 371.398438 C 227.089844 370.796875 230.082031 370.125 233.058594 369.378906 C 236.035156 368.636719 238.992188 367.816406 241.929688 366.925781 C 244.863281 366.035156 247.777344 365.074219 250.667969 364.039062 C 253.554688 363.003906 256.417969 361.902344 259.253906 360.726562 C 262.089844 359.554688 264.890625 358.308594 267.667969 356.996094 C 270.441406 355.6875 273.179688 354.308594 275.886719 352.859375 C 278.59375 351.414062 281.261719 349.902344 283.894531 348.324219 C 286.527344 346.746094 289.117188 345.105469 291.667969 343.402344 C 294.222656 341.695312 296.730469 339.929688 299.195312 338.101562 C 301.660156 336.273438 304.078125 334.386719 306.449219 332.4375 C 308.820312 330.492188 311.144531 328.488281 313.417969 326.429688 C 315.691406 324.367188 317.914062 322.253906 320.082031 320.082031 C 322.253906 317.914062 324.367188 315.691406 326.429688 313.417969 C 328.488281 311.144531 330.492188 308.820312 332.4375 306.449219 C 334.386719 304.078125 336.273438 301.660156 338.101562 299.195312 C 339.929688 296.730469 341.695312 294.222656 343.402344 291.667969 C 345.105469 289.117188 346.746094 286.527344 348.324219 283.894531 C 349.902344 281.261719 351.414062 278.59375 352.859375 275.886719 C 354.308594 273.179688 355.6875 270.441406 356.996094 267.667969 C 358.308594 264.890625 359.554688 262.089844 360.726562 259.253906 C 361.902344 256.417969 363.003906 253.554688 364.039062 250.667969 C 365.074219 247.777344 366.035156 244.863281 366.925781 241.929688 C 367.816406 238.992188 368.636719 236.035156 369.378906 233.058594 C 370.125 230.082031 370.796875 227.089844 371.398438 224.078125 C 371.996094 221.070312 372.519531 218.046875 372.96875 215.011719 C 373.421875 211.976562 373.796875 208.933594 374.097656 205.878906 C 374.398438 202.824219 374.625 199.765625 374.773438 196.699219 C 374.925781 193.636719 375 190.570312 375 187.5 C 375 184.429688 374.925781 181.363281 374.773438 178.300781 C 374.625 175.234375 374.398438 172.175781 374.097656 169.121094 C 373.796875 166.066406 373.421875 163.023438 372.96875 159.988281 C 372.519531 156.953125 371.996094 153.929688 371.398438 150.921875 C 370.796875 147.910156 370.125 144.917969 369.378906 141.941406 C 368.636719 138.964844 367.816406 136.007812 366.925781 133.070312 C 366.035156 130.136719 365.074219 127.222656 364.039062 124.332031 C 363.003906 121.445312 361.902344 118.582031 360.726562 115.746094 C 359.554688 112.910156 358.308594 110.105469 356.996094 107.332031 C 355.6875 104.558594 354.308594 101.820312 352.859375 99.113281 C 351.414062 96.40625 349.902344 93.738281 348.324219 91.105469 C 346.746094 88.472656 345.105469 85.882812 343.402344 83.332031 C 341.695312 80.777344 339.929688 78.269531 338.101562 75.804688 C 336.273438 73.339844 334.386719 70.921875 332.4375 68.550781 C 330.492188 66.179688 328.488281 63.855469 326.429688 61.582031 C 324.367188 59.308594 322.253906 57.085938 320.082031 54.917969 C 317.914062 52.746094 315.691406 50.632812 313.417969 48.570312 C 311.144531 46.511719 308.820312 44.507812 306.449219 42.558594 C 304.078125 40.613281 301.660156 38.726562 299.195312 36.898438 C 296.730469 35.070312 294.222656 33.304688 291.667969 31.597656 C 289.117188 29.894531 286.527344 28.253906 283.894531 26.675781 C 281.261719 25.097656 278.59375 23.585938 275.886719 22.140625 C 273.179688 20.691406 270.441406 19.3125 267.667969 18.003906 C 264.890625 16.691406 262.089844 15.445312 259.253906 14.273438 C 256.417969 13.097656 253.554688 11.996094 250.667969 10.960938 C 247.777344 9.925781 244.863281 8.964844 241.929688 8.074219 C 238.992188 7.183594 236.035156 6.363281 233.058594 5.617188 C 230.082031 4.875 227.089844 4.203125 224.078125 3.601562 C 221.070312 3.003906 218.046875 2.480469 215.011719 2.03125 C 211.976562 1.578125 208.933594 1.203125 205.878906 0.902344 C 202.824219 0.601562 199.765625 0.375 196.699219 0.226562 C 193.636719 0.0742188 190.570312 0 187.5 0 Z M 187.5 0 "/>
<path style=" stroke:none;fill-rule:nonzero;fill:rgb(100%,100%,100%);fill-opacity:1;" d="M 236.304688 219.988281 C 235.117188 220.160156 229.007812 219.988281 227.816406 219.988281 C 225.613281 228.417969 225.273438 237.351562 226.121094 244.933594 C 226.460938 247.96875 227.816406 252.015625 229.34375 256.734375 C 230.535156 260.105469 232.402344 265.667969 232.910156 269.035156 C 231.210938 269.375 229.175781 269.710938 227.480469 269.878906 C 221.707031 270.722656 213.5625 271.902344 205.921875 274.09375 C 195.398438 276.957031 184.367188 281.847656 177.070312 286.058594 C 176.558594 285.21875 176.050781 284.207031 175.710938 283.363281 C 170.28125 273.082031 165.699219 264.148438 147.535156 259.429688 C 147.027344 259.261719 144.820312 258.753906 141.085938 258.753906 C 136.335938 258.753906 131.414062 259.597656 126.492188 261.453125 C 126.492188 261.453125 126.152344 261.621094 125.472656 261.621094 C 122.417969 261.621094 118.34375 259.9375 117.15625 258.925781 C 116.308594 258.082031 116.476562 254.878906 116.476562 252.519531 C 116.648438 248.472656 116.816406 241.5625 112.0625 237.183594 C 112.574219 233.472656 112.402344 229.429688 109.859375 226.394531 C 109.6875 226.058594 109.347656 225.890625 109.179688 225.722656 C 110.027344 220.160156 109.347656 215.269531 106.800781 210.886719 L 104.597656 206.84375 L 99.84375 207.179688 L 98.824219 207.347656 C 98.144531 207.519531 97.46875 207.519531 96.789062 207.6875 C 97.46875 205.664062 98.996094 202.96875 99.84375 201.449219 C 100.523438 200.269531 101.03125 199.257812 101.539062 198.246094 C 103.238281 194.875 104.425781 191.335938 105.273438 187.796875 C 107.820312 177.347656 106.292969 167.910156 104.425781 156.953125 L 104.085938 154.59375 C 101.878906 140.605469 105.953125 125.773438 115.628906 112.792969 C 124.625 100.660156 137.863281 91.726562 150.761719 89.199219 C 158.570312 87.511719 167.226562 85.660156 175.542969 85.660156 C 192.175781 85.660156 208.300781 90.714844 221.027344 96.78125 C 221.027344 95.097656 221.027344 90.042969 221.027344 88.355469 C 206.941406 82.457031 190.816406 79.085938 175.542969 79.085938 C 166.375 79.085938 157.382812 80.941406 149.402344 82.625 C 119.703125 88.859375 92.207031 122.066406 97.46875 155.773438 C 99.335938 167.234375 101.03125 176.503906 98.65625 186.28125 C 97.976562 189.144531 96.957031 192.179688 95.429688 195.214844 C 93.5625 199.089844 88.980469 205.496094 89.660156 210.046875 C 90.167969 213.417969 92.546875 214.257812 95.261719 214.257812 C 96.957031 214.257812 98.996094 213.921875 100.523438 213.753906 C 102.898438 218.136719 102.898438 223.191406 100.691406 229.765625 C 101.203125 229.597656 101.710938 229.597656 102.21875 229.597656 C 106.632812 229.597656 104.933594 237.183594 104.085938 240.554688 C 114.101562 243.585938 105.273438 257.40625 112.0625 263.8125 C 114.609375 266.171875 120.378906 268.363281 124.964844 268.363281 C 126.152344 268.363281 127.339844 268.195312 128.1875 267.855469 C 133.28125 266.003906 137.691406 265.667969 140.578125 265.667969 C 143.632812 265.667969 145.332031 266.171875 145.332031 266.171875 C 165.1875 271.398438 165.359375 280.328125 174.523438 294.992188 C 178.089844 291.621094 192.175781 285.050781 207.449219 280.835938 C 222.046875 276.789062 237.832031 276.285156 238.851562 274.261719 C 242.074219 268.867188 233.078125 250.835938 232.570312 244.429688 C 232.0625 236.339844 233.757812 228.082031 236.304688 219.988281 Z M 236.304688 219.988281 "/>
<path style=" stroke:none;fill-rule:nonzero;fill:rgb(100%,100%,100%);fill-opacity:1;" d="M 229.515625 114.480469 C 211.015625 114.480469 196.589844 129.480469 196.589844 147.851562 C 196.589844 160.15625 203.546875 170.773438 213.5625 176.503906 L 213.5625 190.324219 L 245.808594 190.324219 L 245.808594 176 C 255.824219 170.269531 264.480469 161.335938 264.480469 149.03125 C 264.480469 130.660156 250.902344 114.480469 229.515625 114.480469 Z M 243.941406 171.113281 L 239.019531 173.640625 L 239.019531 183.585938 L 220.351562 183.585938 L 220.351562 173.640625 L 217.464844 171.113281 C 209.148438 166.222656 204.226562 157.796875 204.226562 148.359375 C 204.226562 133.695312 216.105469 121.894531 230.875 121.894531 C 245.46875 121.894531 257.519531 133.695312 257.519531 148.359375 C 257.351562 157.796875 252.257812 166.390625 243.941406 171.113281 Z M 243.941406 171.113281 "/>
<path style=" stroke:none;fill-rule:nonzero;fill:rgb(100%,100%,100%);fill-opacity:1;" d="M 213.5625 196.394531 C 213.5625 199.597656 215.089844 202.125 218.992188 202.125 L 240.378906 202.125 C 244.28125 202.125 245.808594 199.597656 245.808594 196.394531 L 245.808594 195.382812 L 213.5625 195.382812 Z M 213.5625 196.394531 "/>
<path style=" stroke:none;fill-rule:nonzero;fill:rgb(100%,100%,100%);fill-opacity:1;" d="M 239.019531 208.867188 L 223.066406 208.867188 C 221.199219 208.867188 219.839844 210.046875 219.839844 211.394531 C 219.839844 212.742188 221.367188 213.921875 223.066406 213.921875 L 239.019531 213.921875 C 240.886719 213.921875 242.246094 212.742188 242.246094 211.394531 C 242.246094 210.046875 240.886719 208.867188 239.019531 208.867188 Z M 239.019531 208.867188 "/>
<path style=" stroke:none;fill-rule:nonzero;fill:rgb(100%,100%,100%);fill-opacity:1;" d="M 194.890625 114.480469 C 196.25 115.828125 198.457031 115.828125 199.8125 114.480469 C 201.171875 113.132812 201.171875 110.941406 199.8125 109.59375 L 194.890625 104.703125 C 193.53125 103.355469 191.328125 103.355469 189.96875 104.703125 C 188.609375 106.054688 188.609375 108.242188 189.96875 109.59375 Z M 194.890625 114.480469 "/>
<path style=" stroke:none;fill-rule:nonzero;fill:rgb(100%,100%,100%);fill-opacity:1;" d="M 186.066406 144.3125 L 179.105469 144.3125 C 177.238281 144.3125 175.710938 145.828125 175.710938 147.683594 C 175.710938 149.539062 177.238281 150.886719 179.105469 150.886719 L 186.066406 150.886719 C 187.933594 150.886719 189.460938 149.539062 189.460938 147.683594 C 189.460938 145.828125 187.933594 144.3125 186.066406 144.3125 Z M 186.066406 144.3125 "/>
<g clip-path="url(#clip1)" clip-rule="nonzero">
<path style=" stroke:none;fill-rule:nonzero;fill:rgb(100%,100%,100%);fill-opacity:1;" d="M 283.148438 144.3125 L 276.191406 144.3125 C 274.324219 144.3125 272.796875 145.828125 272.796875 147.683594 C 272.796875 149.539062 274.324219 150.886719 276.191406 150.886719 L 283.148438 150.886719 C 285.015625 150.886719 286.542969 149.539062 286.542969 147.683594 C 286.542969 145.828125 285.015625 144.3125 283.148438 144.3125 Z M 283.148438 144.3125 "/>
</g>
<path style=" stroke:none;fill-rule:nonzero;fill:rgb(100%,100%,100%);fill-opacity:1;" d="M 275.34375 110.265625 C 273.984375 108.917969 271.777344 108.917969 270.417969 110.265625 L 265.496094 115.15625 C 264.140625 116.503906 264.140625 118.695312 265.496094 120.042969 C 266.855469 121.390625 269.0625 121.390625 270.417969 120.042969 L 275.34375 115.15625 C 276.699219 113.804688 276.699219 111.613281 275.34375 110.265625 Z M 275.34375 110.265625 "/>
<path style=" stroke:none;fill-rule:nonzero;fill:rgb(100%,100%,100%);fill-opacity:1;" d="M 231.382812 105.714844 C 232.402344 105.714844 233.25 105.378906 233.757812 104.703125 C 234.4375 104.03125 234.777344 103.1875 234.777344 102.34375 L 234.777344 95.265625 C 234.777344 93.410156 233.25 91.894531 231.382812 91.894531 C 230.023438 91.894531 228.667969 92.738281 228.15625 94.085938 L 227.816406 95.433594 L 227.816406 102.34375 C 227.816406 104.199219 229.34375 105.714844 231.382812 105.714844 Z M 231.382812 105.714844 "/>
</g>
</svg>
