<?xml version="1.0" encoding="UTF-8"?>
<svg xmlns="http://www.w3.org/2000/svg" xmlns:xlink="http://www.w3.org/1999/xlink" width="375pt" height="374.999991pt" viewBox="0 0 375 374.999991" version="1.2">
<defs>
<clipPath id="clip1">
  <path d="M 90.109375 117 L 212 117 L 212 241 L 90.109375 241 Z M 90.109375 117 "/>
</clipPath>
<clipPath id="clip2">
  <path d="M 197 78.9375 L 266 78.9375 L 266 148 L 197 148 Z M 197 78.9375 "/>
</clipPath>
<clipPath id="clip3">
  <path d="M 192 202 L 283.945312 202 L 283.945312 295.140625 L 192 295.140625 Z M 192 202 "/>
</clipPath>
</defs>
<g id="surface1">
<path style=" stroke:none;fill-rule:nonzero;fill:rgb(9.01947%,45.878601%,66.668701%);fill-opacity:1;" d="M 187.5 0 C 184.429688 0 181.363281 0.0742188 178.300781 0.226562 C 175.234375 0.375 172.175781 0.601562 169.121094 0.902344 C 166.066406 1.203125 163.023438 1.578125 159.988281 2.03125 C 156.953125 2.480469 153.929688 3.003906 150.921875 3.601562 C 147.910156 4.203125 144.917969 4.875 141.941406 5.621094 C 138.964844 6.363281 136.007812 7.183594 133.070312 8.074219 C 130.136719 8.964844 127.222656 9.925781 124.332031 10.960938 C 121.445312 11.996094 118.582031 13.097656 115.746094 14.273438 C 112.910156 15.445312 110.105469 16.691406 107.332031 18.003906 C 104.558594 19.3125 101.820312 20.695312 99.113281 22.140625 C 96.40625 23.585938 93.738281 25.097656 91.105469 26.675781 C 88.472656 28.253906 85.882812 29.894531 83.332031 31.601562 C 80.777344 33.304688 78.269531 35.070312 75.804688 36.898438 C 73.339844 38.726562 70.921875 40.613281 68.550781 42.5625 C 66.179688 44.507812 63.855469 46.511719 61.582031 48.570312 C 59.308594 50.632812 57.085938 52.746094 54.917969 54.917969 C 52.746094 57.085938 50.632812 59.308594 48.570312 61.582031 C 46.511719 63.855469 44.507812 66.179688 42.558594 68.550781 C 40.613281 70.921875 38.726562 73.34375 36.898438 75.804688 C 35.070312 78.269531 33.304688 80.78125 31.597656 83.332031 C 29.894531 85.882812 28.253906 88.472656 26.675781 91.105469 C 25.097656 93.738281 23.585938 96.40625 22.140625 99.113281 C 20.691406 101.820312 19.3125 104.558594 18.003906 107.332031 C 16.691406 110.109375 15.445312 112.910156 14.273438 115.746094 C 13.097656 118.582031 11.996094 121.445312 10.960938 124.332031 C 9.925781 127.222656 8.964844 130.136719 8.074219 133.070312 C 7.183594 136.007812 6.363281 138.964844 5.621094 141.941406 C 4.875 144.917969 4.203125 147.910156 3.601562 150.921875 C 3.003906 153.929688 2.480469 156.953125 2.03125 159.988281 C 1.578125 163.023438 1.203125 166.066406 0.902344 169.121094 C 0.601562 172.175781 0.375 175.234375 0.226562 178.300781 C 0.0742188 181.363281 0 184.429688 0 187.5 C 0 190.570312 0.0742188 193.636719 0.226562 196.699219 C 0.375 199.765625 0.601562 202.824219 0.902344 205.878906 C 1.203125 208.933594 1.578125 211.976562 2.03125 215.011719 C 2.480469 218.046875 3.003906 221.070312 3.601562 224.078125 C 4.203125 227.089844 4.875 230.082031 5.621094 233.058594 C 6.363281 236.035156 7.183594 238.992188 8.074219 241.929688 C 8.964844 244.863281 9.925781 247.777344 10.960938 250.667969 C 11.996094 253.554688 13.097656 256.417969 14.273438 259.253906 C 15.445312 262.089844 16.691406 264.894531 18.003906 267.667969 C 19.3125 270.441406 20.691406 273.179688 22.140625 275.886719 C 23.585938 278.59375 25.097656 281.261719 26.675781 283.894531 C 28.253906 286.527344 29.894531 289.117188 31.597656 291.667969 C 33.304688 294.222656 35.070312 296.730469 36.898438 299.195312 C 38.726562 301.660156 40.613281 304.078125 42.558594 306.449219 C 44.507812 308.820312 46.511719 311.144531 48.570312 313.417969 C 50.632812 315.691406 52.746094 317.914062 54.917969 320.082031 C 57.085938 322.253906 59.308594 324.367188 61.582031 326.429688 C 63.855469 328.488281 66.179688 330.492188 68.550781 332.441406 C 70.921875 334.386719 73.339844 336.273438 75.804688 338.101562 C 78.269531 339.929688 80.777344 341.695312 83.332031 343.402344 C 85.882812 345.105469 88.472656 346.746094 91.105469 348.324219 C 93.738281 349.902344 96.40625 351.414062 99.113281 352.859375 C 101.820312 354.308594 104.558594 355.6875 107.332031 357 C 110.105469 358.308594 112.910156 359.554688 115.746094 360.726562 C 118.582031 361.902344 121.445312 363.007812 124.332031 364.039062 C 127.222656 365.074219 130.136719 366.035156 133.070312 366.925781 C 136.007812 367.816406 138.964844 368.636719 141.941406 369.382812 C 144.917969 370.125 147.910156 370.796875 150.921875 371.398438 C 153.929688 371.996094 156.953125 372.519531 159.988281 372.972656 C 163.023438 373.421875 166.066406 373.796875 169.121094 374.097656 C 172.175781 374.398438 175.234375 374.625 178.300781 374.773438 C 181.363281 374.925781 184.429688 375 187.5 375 C 190.570312 375 193.636719 374.925781 196.699219 374.773438 C 199.765625 374.625 202.824219 374.398438 205.878906 374.097656 C 208.933594 373.796875 211.976562 373.421875 215.011719 372.972656 C 218.046875 372.519531 221.070312 371.996094 224.078125 371.398438 C 227.089844 370.796875 230.082031 370.125 233.058594 369.382812 C 236.035156 368.636719 238.992188 367.816406 241.929688 366.925781 C 244.863281 366.035156 247.777344 365.074219 250.667969 364.039062 C 253.554688 363.007812 256.417969 361.902344 259.253906 360.726562 C 262.089844 359.554688 264.890625 358.308594 267.667969 357 C 270.441406 355.6875 273.179688 354.308594 275.886719 352.859375 C 278.59375 351.414062 281.261719 349.902344 283.894531 348.324219 C 286.527344 346.746094 289.117188 345.105469 291.667969 343.402344 C 294.222656 341.695312 296.730469 339.929688 299.195312 338.101562 C 301.660156 336.273438 304.078125 334.386719 306.449219 332.441406 C 308.820312 330.492188 311.144531 328.488281 313.417969 326.429688 C 315.691406 324.367188 317.914062 322.253906 320.082031 320.082031 C 322.253906 317.914062 324.367188 315.691406 326.429688 313.417969 C 328.488281 311.144531 330.492188 308.820312 332.4375 306.449219 C 334.386719 304.078125 336.273438 301.660156 338.101562 299.195312 C 339.929688 296.730469 341.695312 294.222656 343.402344 291.667969 C 345.105469 289.117188 346.746094 286.527344 348.324219 283.894531 C 349.902344 281.261719 351.414062 278.59375 352.859375 275.886719 C 354.308594 273.179688 355.6875 270.441406 356.996094 267.667969 C 358.308594 264.894531 359.554688 262.089844 360.726562 259.253906 C 361.902344 256.417969 363.003906 253.554688 364.039062 250.667969 C 365.074219 247.777344 366.035156 244.863281 366.925781 241.929688 C 367.816406 238.992188 368.636719 236.035156 369.378906 233.058594 C 370.125 230.082031 370.796875 227.089844 371.398438 224.078125 C 371.996094 221.070312 372.519531 218.046875 372.96875 215.011719 C 373.421875 211.976562 373.796875 208.933594 374.097656 205.878906 C 374.398438 202.824219 374.625 199.765625 374.773438 196.699219 C 374.925781 193.636719 375 190.570312 375 187.5 C 375 184.429688 374.925781 181.363281 374.773438 178.300781 C 374.625 175.234375 374.398438 172.175781 374.097656 169.121094 C 373.796875 166.066406 373.421875 163.023438 372.96875 159.988281 C 372.519531 156.953125 371.996094 153.929688 371.398438 150.921875 C 370.796875 147.910156 370.125 144.917969 369.378906 141.941406 C 368.636719 138.964844 367.816406 136.007812 366.925781 133.070312 C 366.035156 130.136719 365.074219 127.222656 364.039062 124.332031 C 363.003906 121.445312 361.902344 118.582031 360.726562 115.746094 C 359.554688 112.910156 358.308594 110.109375 356.996094 107.332031 C 355.6875 104.558594 354.308594 101.820312 352.859375 99.113281 C 351.414062 96.40625 349.902344 93.738281 348.324219 91.105469 C 346.746094 88.472656 345.105469 85.882812 343.402344 83.332031 C 341.695312 80.78125 339.929688 78.269531 338.101562 75.804688 C 336.273438 73.34375 334.386719 70.921875 332.4375 68.550781 C 330.492188 66.179688 328.488281 63.855469 326.429688 61.582031 C 324.367188 59.308594 322.253906 57.085938 320.082031 54.917969 C 317.914062 52.746094 315.691406 50.632812 313.417969 48.570312 C 311.144531 46.511719 308.820312 44.507812 306.449219 42.5625 C 304.078125 40.613281 301.660156 38.726562 299.195312 36.898438 C 296.730469 35.070312 294.222656 33.304688 291.667969 31.601562 C 289.117188 29.894531 286.527344 28.253906 283.894531 26.675781 C 281.261719 25.097656 278.59375 23.585938 275.886719 22.140625 C 273.179688 20.695312 270.441406 19.3125 267.667969 18.003906 C 264.890625 16.691406 262.089844 15.445312 259.253906 14.273438 C 256.417969 13.097656 253.554688 11.996094 250.667969 10.960938 C 247.777344 9.925781 244.863281 8.964844 241.929688 8.074219 C 238.992188 7.183594 236.035156 6.363281 233.058594 5.621094 C 230.082031 4.875 227.089844 4.203125 224.078125 3.601562 C 221.070312 3.003906 218.046875 2.480469 215.011719 2.03125 C 211.976562 1.578125 208.933594 1.203125 205.878906 0.902344 C 202.824219 0.601562 199.765625 0.375 196.699219 0.226562 C 193.636719 0.0742188 190.570312 0 187.5 0 Z M 187.5 0 "/>
<path style=" stroke:none;fill-rule:nonzero;fill:rgb(100%,100%,100%);fill-opacity:1;" d="M 186.3125 179.066406 C 186.3125 159.320312 170.410156 143.3125 150.796875 143.3125 C 131.183594 143.3125 115.28125 159.320312 115.28125 179.066406 C 115.28125 198.8125 131.183594 214.816406 150.796875 214.816406 C 170.402344 214.796875 186.289062 198.800781 186.3125 179.066406 Z M 120.5625 179.066406 C 120.5625 162.253906 134.097656 148.628906 150.796875 148.628906 C 167.492188 148.628906 181.03125 162.253906 181.03125 179.066406 C 181.03125 195.875 167.492188 209.5 150.796875 209.5 C 134.105469 209.480469 120.582031 195.867188 120.5625 179.066406 Z M 120.5625 179.066406 "/>
<path style=" stroke:none;fill-rule:nonzero;fill:rgb(100%,100%,100%);fill-opacity:1;" d="M 155.371094 199.574219 C 156.453125 199.574219 157.425781 198.90625 157.824219 197.898438 C 158.222656 196.886719 157.972656 195.730469 157.183594 194.980469 L 146.789062 185.113281 C 152.023438 184.792969 156.445312 181.089844 157.710938 175.964844 L 161.425781 175.964844 C 162.886719 175.964844 164.066406 174.773438 164.066406 173.304688 C 164.066406 171.839844 162.886719 170.648438 161.425781 170.648438 L 157.707031 170.648438 C 157.351562 169.246094 156.796875 167.902344 156.058594 166.660156 L 161.425781 166.660156 C 162.886719 166.660156 164.066406 165.46875 164.066406 164 C 164.066406 162.535156 162.886719 161.34375 161.425781 161.34375 L 140.164062 161.34375 C 138.703125 161.34375 137.523438 162.535156 137.523438 164 C 137.523438 165.46875 138.703125 166.660156 140.164062 166.660156 L 146.246094 166.660156 C 148.882812 166.660156 151.152344 168.433594 152.164062 170.648438 L 140.164062 170.648438 C 138.703125 170.648438 137.523438 171.839844 137.523438 173.304688 C 137.523438 174.773438 138.703125 175.964844 140.164062 175.964844 L 152.164062 175.964844 C 151.152344 178.179688 148.882812 179.949219 146.246094 179.949219 L 140.164062 179.949219 C 139.09375 179.910156 138.109375 180.546875 137.707031 181.546875 C 137.300781 182.546875 137.558594 183.691406 138.351562 184.417969 L 153.558594 198.867188 C 154.050781 199.328125 154.699219 199.582031 155.371094 199.574219 Z M 155.371094 199.574219 "/>
<g clip-path="url(#clip1)" clip-rule="nonzero">
<path style=" stroke:none;fill-rule:nonzero;fill:rgb(100%,100%,100%);fill-opacity:1;" d="M 139.757812 237.691406 C 139.878906 239.078125 141.007812 240.152344 142.386719 240.203125 L 159.355469 240.203125 C 160.734375 240.152344 161.863281 239.078125 161.984375 237.691406 L 163.015625 226.871094 C 167.519531 225.683594 171.832031 223.847656 175.816406 221.417969 L 184.035156 228.253906 C 185.085938 229.128906 186.625 229.054688 187.585938 228.082031 L 199.554688 216.03125 C 200.519531 215.058594 200.59375 213.511719 199.722656 212.453125 L 192.902344 204.164062 C 195.296875 200.148438 197.113281 195.816406 198.304688 191.289062 L 208.847656 190.25 C 210.203125 190.117188 211.230469 188.972656 211.230469 187.605469 L 211.230469 170.523438 C 211.230469 169.15625 210.199219 168.011719 208.847656 167.878906 L 198.148438 166.839844 C 196.980469 162.304688 195.167969 157.964844 192.765625 153.953125 L 199.570312 145.679688 C 200.433594 144.628906 200.367188 143.089844 199.414062 142.117188 L 187.597656 130.066406 C 186.636719 129.085938 185.089844 129.007812 184.03125 129.886719 L 175.796875 136.753906 C 171.8125 134.34375 167.507812 132.511719 163.015625 131.316406 L 161.984375 120.4375 C 161.863281 119.054688 160.734375 117.976562 159.355469 117.925781 L 142.386719 117.925781 C 141.007812 117.976562 139.878906 119.054688 139.757812 120.4375 L 138.726562 131.261719 C 134.222656 132.449219 129.910156 134.285156 125.925781 136.710938 L 117.707031 129.875 C 116.65625 129.003906 115.117188 129.078125 114.15625 130.050781 L 102.1875 142.101562 C 101.222656 143.070312 101.148438 144.621094 102.019531 145.679688 L 108.839844 153.96875 C 106.445312 157.980469 104.628906 162.3125 103.4375 166.835938 L 92.667969 167.875 C 91.300781 168.003906 90.242188 169.140625 90.210938 170.523438 L 90.210938 187.605469 C 90.242188 188.988281 91.300781 190.128906 92.667969 190.25 L 103.402344 191.289062 C 104.578125 195.824219 106.398438 200.167969 108.808594 204.179688 L 102.011719 212.449219 C 101.144531 213.507812 101.21875 215.054688 102.183594 216.027344 L 114.152344 228.074219 C 115.117188 229.046875 116.65625 229.121094 117.707031 228.242188 L 125.941406 221.375 C 129.925781 223.804688 134.226562 225.652344 138.726562 226.867188 Z M 124.039062 216.0625 L 116.191406 222.605469 L 107.621094 213.976562 L 114.117188 206.078125 C 114.863281 205.175781 114.929688 203.886719 114.28125 202.910156 C 111.355469 198.453125 109.273438 193.488281 108.152344 188.265625 C 107.875 187.125 106.910156 186.289062 105.75 186.183594 L 95.488281 185.191406 L 95.488281 172.9375 L 105.75 171.949219 C 106.902344 171.839844 107.855469 171.003906 108.113281 169.867188 C 109.277344 164.636719 111.367188 159.664062 114.285156 155.1875 C 114.914062 154.214844 114.84375 152.941406 114.109375 152.046875 L 107.617188 144.152344 L 116.191406 135.527344 L 124.035156 142.066406 C 124.933594 142.816406 126.214844 142.882812 127.183594 142.230469 C 131.613281 139.285156 136.546875 137.191406 141.730469 136.058594 C 142.867188 135.765625 143.695312 134.785156 143.800781 133.605469 L 144.785156 123.242188 L 156.957031 123.242188 L 157.9375 133.605469 C 158.046875 134.769531 158.878906 135.734375 160.007812 136.003906 C 165.199219 137.175781 170.140625 139.285156 174.589844 142.226562 C 175.554688 142.855469 176.8125 142.789062 177.703125 142.050781 L 185.539062 135.53125 L 193.976562 144.136719 L 187.472656 152.046875 C 186.726562 152.953125 186.660156 154.242188 187.308594 155.21875 C 190.238281 159.675781 192.316406 164.640625 193.441406 169.863281 C 193.683594 170.996094 194.621094 171.835938 195.765625 171.945312 L 205.953125 172.9375 L 205.953125 185.195312 L 195.914062 186.179688 C 194.773438 186.292969 193.832031 187.136719 193.589844 188.261719 C 192.4375 193.488281 190.351562 198.460938 187.4375 202.941406 C 186.8125 203.917969 186.886719 205.183594 187.621094 206.078125 L 194.121094 213.976562 L 185.550781 222.605469 L 177.703125 216.0625 C 176.808594 215.3125 175.527344 215.246094 174.558594 215.898438 C 170.128906 218.847656 165.195312 220.941406 160.007812 222.070312 C 158.875 222.363281 158.046875 223.347656 157.941406 224.523438 L 156.957031 234.886719 L 144.785156 234.886719 L 143.804688 224.523438 C 143.695312 223.359375 142.863281 222.394531 141.734375 222.125 C 136.542969 220.953125 131.601562 218.847656 127.152344 215.90625 C 126.191406 215.265625 124.929688 215.332031 124.039062 216.0625 Z M 124.039062 216.0625 "/>
</g>
<path style=" stroke:none;fill-rule:nonzero;fill:rgb(100%,100%,100%);fill-opacity:1;" d="M 231.210938 133.828125 C 242.519531 133.828125 251.691406 124.597656 251.691406 113.210938 C 251.691406 101.828125 242.519531 92.59375 231.210938 92.59375 C 219.902344 92.59375 210.734375 101.828125 210.734375 113.210938 C 210.746094 124.59375 219.90625 133.816406 231.210938 133.828125 Z M 231.210938 97.910156 C 239.605469 97.910156 246.410156 104.761719 246.410156 113.210938 C 246.410156 121.660156 239.605469 128.511719 231.210938 128.511719 C 222.820312 128.511719 216.015625 121.660156 216.015625 113.210938 C 216.023438 104.765625 222.820312 97.921875 231.210938 97.910156 Z M 231.210938 97.910156 "/>
<g clip-path="url(#clip2)" clip-rule="nonzero">
<path style=" stroke:none;fill-rule:nonzero;fill:rgb(100%,100%,100%);fill-opacity:1;" d="M 199.566406 120.492188 L 204.558594 120.976562 C 205.144531 122.972656 205.953125 124.902344 206.964844 126.714844 L 203.8125 130.550781 C 202.945312 131.609375 203.019531 133.15625 203.984375 134.125 L 210.480469 140.664062 C 211.441406 141.636719 212.980469 141.707031 214.03125 140.832031 L 217.851562 137.644531 C 219.652344 138.664062 221.5625 139.476562 223.542969 140.066406 L 224.023438 145.144531 C 224.148438 146.519531 225.277344 147.582031 226.652344 147.609375 L 235.859375 147.609375 C 237.230469 147.582031 238.363281 146.519531 238.488281 145.144531 L 238.964844 140.101562 C 240.953125 139.511719 242.863281 138.695312 244.671875 137.671875 L 248.480469 140.839844 C 249.53125 141.714844 251.066406 141.640625 252.027344 140.667969 L 258.523438 134.128906 C 259.488281 133.15625 259.5625 131.609375 258.691406 130.550781 L 255.527344 126.703125 C 256.535156 124.890625 257.34375 122.96875 257.933594 120.972656 L 262.90625 120.492188 C 264.273438 120.363281 265.328125 119.226562 265.363281 117.847656 L 265.363281 108.578125 C 265.328125 107.195312 264.269531 106.058594 262.902344 105.933594 L 257.886719 105.449219 C 257.300781 103.449219 256.492188 101.523438 255.472656 99.707031 L 258.617188 95.875 C 259.480469 94.820312 259.414062 93.28125 258.457031 92.308594 L 252.042969 85.773438 C 251.082031 84.789062 249.535156 84.710938 248.480469 85.589844 L 244.65625 88.777344 C 242.855469 87.761719 240.945312 86.949219 238.964844 86.355469 L 238.488281 81.34375 C 238.355469 79.980469 237.21875 78.9375 235.859375 78.9375 L 226.652344 78.9375 C 225.289062 78.9375 224.152344 79.980469 224.023438 81.34375 L 223.542969 86.351562 C 221.558594 86.941406 219.644531 87.75 217.839844 88.765625 L 214.03125 85.589844 C 212.980469 84.71875 211.445312 84.789062 210.480469 85.757812 L 203.984375 92.296875 C 203.023438 93.265625 202.949219 94.816406 203.816406 95.875 L 206.984375 99.71875 C 205.972656 101.535156 205.167969 103.453125 204.578125 105.449219 L 199.566406 105.929688 C 198.207031 106.058594 197.164062 107.203125 197.148438 108.578125 L 197.148438 117.847656 C 197.164062 119.222656 198.207031 120.363281 199.566406 120.492188 Z M 202.429688 110.992188 L 206.898438 110.5625 C 208.042969 110.453125 208.992188 109.609375 209.238281 108.480469 C 209.839844 105.785156 210.914062 103.222656 212.421875 100.914062 C 213.046875 99.941406 212.972656 98.671875 212.238281 97.777344 L 209.417969 94.34375 L 212.511719 91.226562 L 215.921875 94.070312 C 216.824219 94.820312 218.101562 94.886719 219.074219 94.234375 C 221.347656 92.71875 223.882812 91.644531 226.550781 91.0625 C 227.671875 90.816406 228.507812 89.871094 228.617188 88.71875 L 229.046875 84.253906 L 233.460938 84.253906 L 233.886719 88.722656 C 233.996094 89.875 234.835938 90.820312 235.957031 91.066406 C 238.628906 91.664062 241.175781 92.746094 243.46875 94.257812 C 244.4375 94.886719 245.695312 94.8125 246.582031 94.070312 L 249.980469 91.242188 L 253.015625 94.332031 L 250.183594 97.777344 C 249.4375 98.683594 249.371094 99.972656 250.019531 100.949219 C 251.527344 103.238281 252.59375 105.792969 253.171875 108.476562 C 253.449219 109.617188 254.410156 110.453125 255.574219 110.558594 L 260.082031 110.992188 L 260.082031 115.433594 L 255.652344 115.863281 C 254.5 115.972656 253.550781 116.8125 253.292969 117.945312 C 252.6875 120.636719 251.605469 123.199219 250.101562 125.507812 C 249.472656 126.480469 249.542969 127.75 250.277344 128.644531 L 253.09375 132.074219 L 249.996094 135.191406 L 246.585938 132.347656 C 245.6875 131.601562 244.410156 131.53125 243.4375 132.183594 C 241.160156 133.699219 238.625 134.773438 235.960938 135.355469 C 234.828125 135.628906 233.996094 136.597656 233.890625 137.761719 L 233.460938 142.292969 L 229.046875 142.292969 L 228.621094 137.765625 C 228.515625 136.605469 227.679688 135.648438 226.550781 135.390625 C 223.878906 134.785156 221.332031 133.695312 219.042969 132.179688 C 218.074219 131.550781 216.8125 131.621094 215.925781 132.359375 L 212.515625 135.195312 L 209.421875 132.078125 L 212.246094 128.648438 C 212.988281 127.742188 213.054688 126.453125 212.40625 125.476562 C 210.902344 123.183594 209.832031 120.632812 209.257812 117.949219 C 209 116.816406 208.046875 115.976562 206.898438 115.867188 L 202.429688 115.433594 Z M 202.429688 110.992188 "/>
</g>
<path style=" stroke:none;fill-rule:nonzero;fill:rgb(100%,100%,100%);fill-opacity:1;" d="M 237.898438 221.601562 C 222.882812 221.601562 210.707031 233.855469 210.707031 248.972656 C 210.707031 264.089844 222.878906 276.347656 237.898438 276.347656 C 252.914062 276.347656 265.085938 264.089844 265.085938 248.972656 C 265.070312 233.863281 252.90625 221.617188 237.898438 221.601562 Z M 237.898438 271.03125 C 225.796875 271.03125 215.988281 261.15625 215.988281 248.972656 C 215.988281 236.792969 225.796875 226.917969 237.898438 226.917969 C 249.996094 226.917969 259.804688 236.792969 259.804688 248.972656 C 259.792969 261.148438 249.992188 271.015625 237.898438 271.03125 Z M 237.898438 271.03125 "/>
<g clip-path="url(#clip3)" clip-rule="nonzero">
<path style=" stroke:none;fill-rule:nonzero;fill:rgb(100%,100%,100%);fill-opacity:1;" d="M 281.386719 239.949219 L 273.824219 239.21875 C 272.96875 236.089844 271.707031 233.085938 270.070312 230.285156 L 274.84375 224.472656 C 275.707031 223.421875 275.636719 221.878906 274.683594 220.910156 L 265.855469 211.910156 C 264.894531 210.929688 263.347656 210.851562 262.292969 211.730469 L 256.503906 216.558594 C 253.722656 214.921875 250.746094 213.65625 247.640625 212.789062 L 246.917969 205.300781 C 246.777344 203.957031 245.632812 202.949219 244.289062 202.988281 L 231.617188 202.988281 C 230.277344 202.949219 229.128906 203.957031 228.988281 205.300781 L 228.265625 212.832031 C 225.15625 213.679688 222.171875 214.9375 219.390625 216.570312 L 213.617188 211.742188 C 212.570312 210.867188 211.03125 210.9375 210.066406 211.90625 L 201.128906 220.902344 C 200.164062 221.871094 200.09375 223.417969 200.960938 224.472656 L 205.753906 230.300781 C 204.128906 233.097656 202.871094 236.097656 202.007812 239.21875 L 194.589844 239.949219 C 193.253906 240.089844 192.257812 241.246094 192.308594 242.59375 L 192.308594 255.351562 C 192.261719 256.699219 193.253906 257.859375 194.589844 257.996094 L 202.0625 258.726562 C 202.902344 261.855469 204.148438 264.863281 205.769531 267.664062 L 200.972656 273.476562 C 200.101562 274.53125 200.171875 276.078125 201.132812 277.050781 L 210.070312 286.050781 C 211.03125 287.019531 212.570312 287.089844 213.617188 286.21875 L 219.40625 281.390625 C 222.183594 283.027344 225.164062 284.292969 228.265625 285.160156 L 228.988281 292.734375 C 229.121094 294.101562 230.257812 295.140625 231.617188 295.140625 L 244.289062 295.140625 C 245.648438 295.140625 246.789062 294.101562 246.917969 292.734375 L 247.644531 285.160156 C 250.753906 284.304688 253.738281 283.042969 256.519531 281.402344 L 262.292969 286.214844 C 263.339844 287.089844 264.878906 287.019531 265.84375 286.046875 L 274.78125 277.050781 C 275.742188 276.078125 275.816406 274.53125 274.949219 273.476562 L 270.15625 267.648438 C 271.777344 264.847656 273.039062 261.851562 273.898438 258.726562 L 281.390625 257.996094 C 282.757812 257.871094 283.8125 256.734375 283.847656 255.351562 L 283.847656 242.59375 C 283.8125 241.210938 282.753906 240.074219 281.386719 239.949219 Z M 278.566406 252.9375 L 271.597656 253.617188 C 270.449219 253.726562 269.5 254.566406 269.238281 255.699219 C 268.386719 259.523438 266.855469 263.160156 264.71875 266.4375 C 264.089844 267.410156 264.160156 268.679688 264.894531 269.574219 L 269.351562 275 L 263.8125 280.574219 L 258.421875 276.082031 C 257.523438 275.332031 256.242188 275.265625 255.269531 275.917969 C 252.035156 278.074219 248.429688 279.605469 244.636719 280.433594 C 243.515625 280.675781 242.679688 281.625 242.570312 282.773438 L 241.890625 289.824219 L 234.015625 289.824219 L 233.339844 282.773438 C 233.230469 281.621094 232.394531 280.675781 231.273438 280.429688 C 227.476562 279.582031 223.859375 278.042969 220.605469 275.898438 C 219.636719 275.265625 218.375 275.34375 217.488281 276.082031 L 212.101562 280.578125 L 206.5625 275 L 211.023438 269.578125 C 211.769531 268.671875 211.835938 267.382812 211.1875 266.40625 C 209.046875 263.148438 207.527344 259.519531 206.707031 255.703125 C 206.511719 254.585938 205.605469 253.738281 204.488281 253.621094 L 197.589844 252.9375 L 197.589844 245.007812 L 204.488281 244.328125 C 205.617188 244.214844 206.539062 243.371094 206.761719 242.246094 C 207.597656 238.425781 209.113281 234.785156 211.238281 231.507812 C 211.859375 230.53125 211.777344 229.261719 211.039062 228.375 L 206.566406 222.945312 L 212.101562 217.371094 L 217.492188 221.863281 C 218.390625 222.609375 219.667969 222.679688 220.640625 222.027344 C 223.875 219.871094 227.480469 218.339844 231.269531 217.515625 C 232.382812 217.3125 233.222656 216.390625 233.339844 215.261719 L 234.015625 208.304688 L 241.890625 208.304688 L 242.566406 215.265625 C 242.679688 216.40625 243.519531 217.335938 244.636719 217.5625 C 248.433594 218.40625 252.046875 219.933594 255.300781 222.070312 C 256.273438 222.699219 257.535156 222.617188 258.417969 221.875 L 263.796875 217.386719 L 269.242188 222.9375 L 264.769531 228.375 C 264.027344 229.277344 263.960938 230.566406 264.609375 231.542969 C 266.746094 234.800781 268.269531 238.429688 269.089844 242.246094 C 269.363281 243.386719 270.328125 244.222656 271.488281 244.332031 L 278.566406 245.007812 Z M 278.566406 252.9375 "/>
</g>
</g>
</svg>
