<?xml version="1.0" encoding="UTF-8"?>
<svg xmlns="http://www.w3.org/2000/svg" xmlns:xlink="http://www.w3.org/1999/xlink" width="375pt" height="374.999991pt" viewBox="0 0 375 374.999991" version="1.2">
<defs>
<clipPath id="clip1">
  <path d="M 195 129 L 305.292969 129 L 305.292969 239 L 195 239 Z M 195 129 "/>
</clipPath>
<clipPath id="clip2">
  <path d="M 143 185 L 255 185 L 255 294.269531 L 143 294.269531 Z M 143 185 "/>
</clipPath>
<clipPath id="clip3">
  <path d="M 70.453125 138 L 187 138 L 187 253 L 70.453125 253 Z M 70.453125 138 "/>
</clipPath>
</defs>
<g id="surface1">
<path style=" stroke:none;fill-rule:nonzero;fill:rgb(9.01947%,45.878601%,66.668701%);fill-opacity:1;" d="M 187.5 0 C 184.429688 0 181.363281 0.0742188 178.300781 0.226562 C 175.234375 0.375 172.175781 0.601562 169.121094 0.902344 C 166.066406 1.203125 163.023438 1.578125 159.988281 2.03125 C 156.953125 2.480469 153.929688 3.003906 150.921875 3.601562 C 147.910156 4.203125 144.917969 4.875 141.941406 5.617188 C 138.964844 6.363281 136.007812 7.183594 133.070312 8.074219 C 130.136719 8.964844 127.222656 9.925781 124.332031 10.960938 C 121.445312 11.996094 118.582031 13.097656 115.746094 14.273438 C 112.910156 15.445312 110.105469 16.691406 107.332031 18.003906 C 104.558594 19.3125 101.820312 20.691406 99.113281 22.140625 C 96.40625 23.585938 93.738281 25.097656 91.105469 26.675781 C 88.472656 28.253906 85.882812 29.894531 83.332031 31.597656 C 80.777344 33.304688 78.269531 35.070312 75.804688 36.898438 C 73.339844 38.726562 70.921875 40.613281 68.550781 42.558594 C 66.179688 44.507812 63.855469 46.511719 61.582031 48.570312 C 59.308594 50.632812 57.085938 52.746094 54.917969 54.917969 C 52.746094 57.085938 50.632812 59.308594 48.570312 61.582031 C 46.511719 63.855469 44.507812 66.179688 42.558594 68.550781 C 40.613281 70.921875 38.726562 73.339844 36.898438 75.804688 C 35.070312 78.269531 33.304688 80.777344 31.597656 83.332031 C 29.894531 85.882812 28.253906 88.472656 26.675781 91.105469 C 25.097656 93.738281 23.585938 96.40625 22.140625 99.113281 C 20.691406 101.820312 19.3125 104.558594 18.003906 107.332031 C 16.691406 110.105469 15.445312 112.910156 14.273438 115.746094 C 13.097656 118.582031 11.996094 121.445312 10.960938 124.332031 C 9.925781 127.222656 8.964844 130.136719 8.074219 133.070312 C 7.183594 136.007812 6.363281 138.964844 5.621094 141.941406 C 4.875 144.917969 4.203125 147.910156 3.601562 150.921875 C 3.003906 153.929688 2.480469 156.953125 2.03125 159.988281 C 1.578125 163.023438 1.203125 166.066406 0.902344 169.121094 C 0.601562 172.175781 0.375 175.234375 0.226562 178.300781 C 0.0742188 181.363281 0 184.429688 0 187.5 C 0 190.570312 0.0742188 193.636719 0.226562 196.699219 C 0.375 199.765625 0.601562 202.824219 0.902344 205.878906 C 1.203125 208.933594 1.578125 211.976562 2.03125 215.011719 C 2.480469 218.046875 3.003906 221.070312 3.601562 224.078125 C 4.203125 227.089844 4.875 230.082031 5.621094 233.058594 C 6.363281 236.035156 7.183594 238.992188 8.074219 241.929688 C 8.964844 244.863281 9.925781 247.777344 10.960938 250.667969 C 11.996094 253.554688 13.097656 256.417969 14.273438 259.253906 C 15.445312 262.089844 16.691406 264.890625 18.003906 267.667969 C 19.3125 270.441406 20.691406 273.179688 22.140625 275.886719 C 23.585938 278.59375 25.097656 281.261719 26.675781 283.894531 C 28.253906 286.527344 29.894531 289.117188 31.597656 291.667969 C 33.304688 294.222656 35.070312 296.730469 36.898438 299.195312 C 38.726562 301.660156 40.613281 304.078125 42.558594 306.449219 C 44.507812 308.820312 46.511719 311.144531 48.570312 313.417969 C 50.632812 315.691406 52.746094 317.914062 54.917969 320.082031 C 57.085938 322.253906 59.308594 324.367188 61.582031 326.429688 C 63.855469 328.488281 66.179688 330.492188 68.550781 332.4375 C 70.921875 334.386719 73.339844 336.273438 75.804688 338.101562 C 78.269531 339.929688 80.777344 341.695312 83.332031 343.402344 C 85.882812 345.105469 88.472656 346.746094 91.105469 348.324219 C 93.738281 349.902344 96.40625 351.414062 99.113281 352.859375 C 101.820312 354.308594 104.558594 355.6875 107.332031 356.996094 C 110.105469 358.308594 112.910156 359.554688 115.746094 360.726562 C 118.582031 361.902344 121.445312 363.003906 124.332031 364.039062 C 127.222656 365.074219 130.136719 366.035156 133.070312 366.925781 C 136.007812 367.816406 138.964844 368.636719 141.941406 369.378906 C 144.917969 370.125 147.910156 370.796875 150.921875 371.398438 C 153.929688 371.996094 156.953125 372.519531 159.988281 372.96875 C 163.023438 373.421875 166.066406 373.796875 169.121094 374.097656 C 172.175781 374.398438 175.234375 374.625 178.300781 374.773438 C 181.363281 374.925781 184.429688 375 187.5 375 C 190.570312 375 193.636719 374.925781 196.699219 374.773438 C 199.765625 374.625 202.824219 374.398438 205.878906 374.097656 C 208.933594 373.796875 211.976562 373.421875 215.011719 372.96875 C 218.046875 372.519531 221.070312 371.996094 224.078125 371.398438 C 227.089844 370.796875 230.082031 370.125 233.058594 369.378906 C 236.035156 368.636719 238.992188 367.816406 241.929688 366.925781 C 244.863281 366.035156 247.777344 365.074219 250.667969 364.039062 C 253.554688 363.003906 256.417969 361.902344 259.253906 360.726562 C 262.089844 359.554688 264.890625 358.308594 267.667969 356.996094 C 270.441406 355.6875 273.179688 354.308594 275.886719 352.859375 C 278.59375 351.414062 281.261719 349.902344 283.894531 348.324219 C 286.527344 346.746094 289.117188 345.105469 291.667969 343.402344 C 294.222656 341.695312 296.730469 339.929688 299.195312 338.101562 C 301.660156 336.273438 304.078125 334.386719 306.449219 332.4375 C 308.820312 330.492188 311.144531 328.488281 313.417969 326.429688 C 315.691406 324.367188 317.914062 322.253906 320.082031 320.082031 C 322.253906 317.914062 324.367188 315.691406 326.429688 313.417969 C 328.488281 311.144531 330.492188 308.820312 332.4375 306.449219 C 334.386719 304.078125 336.273438 301.660156 338.101562 299.195312 C 339.929688 296.730469 341.695312 294.222656 343.402344 291.667969 C 345.105469 289.117188 346.746094 286.527344 348.324219 283.894531 C 349.902344 281.261719 351.414062 278.59375 352.859375 275.886719 C 354.308594 273.179688 355.6875 270.441406 356.996094 267.667969 C 358.308594 264.890625 359.554688 262.089844 360.726562 259.253906 C 361.902344 256.417969 363.003906 253.554688 364.039062 250.667969 C 365.074219 247.777344 366.035156 244.863281 366.925781 241.929688 C 367.816406 238.992188 368.636719 236.035156 369.378906 233.058594 C 370.125 230.082031 370.796875 227.089844 371.398438 224.078125 C 371.996094 221.070312 372.519531 218.046875 372.96875 215.011719 C 373.421875 211.976562 373.796875 208.933594 374.097656 205.878906 C 374.398438 202.824219 374.625 199.765625 374.773438 196.699219 C 374.925781 193.636719 375 190.570312 375 187.5 C 375 184.429688 374.925781 181.363281 374.773438 178.300781 C 374.625 175.234375 374.398438 172.175781 374.097656 169.121094 C 373.796875 166.066406 373.421875 163.023438 372.96875 159.988281 C 372.519531 156.953125 371.996094 153.929688 371.398438 150.921875 C 370.796875 147.910156 370.125 144.917969 369.378906 141.941406 C 368.636719 138.964844 367.816406 136.007812 366.925781 133.070312 C 366.035156 130.136719 365.074219 127.222656 364.039062 124.332031 C 363.003906 121.445312 361.902344 118.582031 360.726562 115.746094 C 359.554688 112.910156 358.308594 110.105469 356.996094 107.332031 C 355.6875 104.558594 354.308594 101.820312 352.859375 99.113281 C 351.414062 96.40625 349.902344 93.738281 348.324219 91.105469 C 346.746094 88.472656 345.105469 85.882812 343.402344 83.332031 C 341.695312 80.777344 339.929688 78.269531 338.101562 75.804688 C 336.273438 73.339844 334.386719 70.921875 332.4375 68.550781 C 330.492188 66.179688 328.488281 63.855469 326.429688 61.582031 C 324.367188 59.308594 322.253906 57.085938 320.082031 54.917969 C 317.914062 52.746094 315.691406 50.632812 313.417969 48.570312 C 311.144531 46.511719 308.820312 44.507812 306.449219 42.558594 C 304.078125 40.613281 301.660156 38.726562 299.195312 36.898438 C 296.730469 35.070312 294.222656 33.304688 291.667969 31.597656 C 289.117188 29.894531 286.527344 28.253906 283.894531 26.675781 C 281.261719 25.097656 278.59375 23.585938 275.886719 22.140625 C 273.179688 20.691406 270.441406 19.3125 267.667969 18.003906 C 264.890625 16.691406 262.089844 15.445312 259.253906 14.273438 C 256.417969 13.097656 253.554688 11.996094 250.667969 10.960938 C 247.777344 9.925781 244.863281 8.964844 241.929688 8.074219 C 238.992188 7.183594 236.035156 6.363281 233.058594 5.617188 C 230.082031 4.875 227.089844 4.203125 224.078125 3.601562 C 221.070312 3.003906 218.046875 2.480469 215.011719 2.03125 C 211.976562 1.578125 208.933594 1.203125 205.878906 0.902344 C 202.824219 0.601562 199.765625 0.375 196.699219 0.226562 C 193.636719 0.0742188 190.570312 0 187.5 0 Z M 187.5 0 "/>
<path style=" stroke:none;fill-rule:nonzero;fill:rgb(100%,100%,100%);fill-opacity:1;" d="M 160.242188 153.800781 L 140.457031 135.894531 L 192.019531 80.574219 L 211.804688 98.480469 C 212.777344 99.179688 216.121094 101.589844 217.589844 100.148438 C 219.0625 98.707031 219.089844 93.792969 219.089844 93.792969 L 219.097656 93.800781 C 219.101562 90.867188 220.164062 87.925781 222.335938 85.59375 C 226.945312 80.652344 234.746094 80.324219 239.765625 84.867188 C 244.78125 89.410156 245.109375 97.101562 240.503906 102.042969 C 238.332031 104.375 235.449219 105.667969 232.484375 105.917969 L 232.496094 105.929688 C 232.496094 105.929688 227.53125 106.375 226.195312 107.941406 C 224.863281 109.503906 227.585938 112.585938 228.371094 113.480469 L 248.152344 131.390625 L 229.976562 150.886719 C 229.066406 151.664062 225.941406 154.347656 224.355469 153.03125 C 222.769531 151.714844 222.316406 146.820312 222.316406 146.820312 L 222.308594 146.832031 C 222.054688 143.910156 220.742188 141.070312 218.375 138.925781 C 213.359375 134.382812 205.558594 134.710938 200.949219 139.65625 C 196.339844 144.601562 196.671875 152.292969 201.6875 156.835938 C 204.054688 158.976562 207.039062 160.019531 210.015625 160.027344 L 210 160.039062 C 210 160.039062 214.988281 160.066406 216.453125 161.511719 C 217.914062 162.960938 215.464844 166.257812 214.757812 167.21875 L 196.589844 186.710938 L 176.8125 168.804688 C 175.839844 168.105469 172.488281 165.695312 171.023438 167.136719 C 169.554688 168.578125 169.523438 173.496094 169.523438 173.496094 L 169.511719 173.480469 C 169.511719 176.414062 168.449219 179.355469 166.277344 181.6875 C 161.664062 186.632812 153.863281 186.957031 148.84375 182.414062 C 143.828125 177.875 143.496094 170.183594 148.105469 165.238281 C 150.277344 162.90625 153.164062 161.613281 156.128906 161.363281 L 156.117188 161.355469 C 156.117188 161.355469 161.082031 160.914062 162.417969 159.34375 C 163.75 157.78125 161.027344 154.699219 160.242188 153.800781 "/>
<path style=" stroke:none;fill-rule:nonzero;fill:rgb(13.729858%,12.159729%,12.548828%);fill-opacity:1;" d="M 160.242188 153.800781 L 161.234375 152.734375 L 142.535156 135.804688 L 192.109375 82.621094 L 210.808594 99.550781 L 210.9375 99.65625 C 211.320312 99.929688 212.109375 100.5 213.050781 101.011719 C 213.523438 101.269531 214.039062 101.515625 214.589844 101.710938 C 215.140625 101.902344 215.726562 102.046875 216.375 102.050781 C 216.746094 102.050781 217.140625 102 217.535156 101.859375 C 217.929688 101.722656 218.3125 101.488281 218.625 101.175781 L 218.628906 101.175781 C 218.960938 100.851562 219.195312 100.492188 219.386719 100.121094 C 219.71875 99.476562 219.925781 98.785156 220.089844 98.089844 C 220.324219 97.046875 220.4375 95.992188 220.496094 95.1875 C 220.554688 94.378906 220.558594 93.820312 220.558594 93.796875 L 219.089844 93.792969 L 218.015625 94.777344 L 218.027344 94.789062 C 218.4375 95.226562 219.074219 95.367188 219.636719 95.148438 C 220.199219 94.933594 220.566406 94.398438 220.566406 93.800781 C 220.574219 91.210938 221.503906 88.628906 223.417969 86.578125 C 225.566406 84.277344 228.480469 83.113281 231.421875 83.113281 C 234.054688 83.113281 236.679688 84.039062 238.769531 85.933594 C 241.105469 88.050781 242.28125 90.921875 242.285156 93.824219 C 242.28125 96.414062 241.339844 99.003906 239.421875 101.0625 C 237.503906 103.117188 234.976562 104.25 232.355469 104.472656 C 231.769531 104.523438 231.269531 104.910156 231.085938 105.464844 C 230.898438 106.015625 231.066406 106.617188 231.507812 107.003906 L 231.523438 107.019531 L 232.496094 105.929688 L 232.367188 104.488281 C 232.328125 104.492188 231.042969 104.605469 229.53125 104.933594 C 228.773438 105.097656 227.957031 105.316406 227.1875 105.621094 C 226.804688 105.777344 226.429688 105.953125 226.070312 106.175781 C 225.714844 106.394531 225.371094 106.65625 225.070312 107.011719 L 225.070312 107.007812 C 224.820312 107.296875 224.636719 107.632812 224.523438 107.972656 C 224.410156 108.3125 224.363281 108.65625 224.363281 108.980469 C 224.367188 109.664062 224.550781 110.269531 224.785156 110.828125 C 225.144531 111.660156 225.636719 112.402344 226.105469 113.027344 C 226.574219 113.652344 227.019531 114.160156 227.261719 114.429688 L 227.378906 114.550781 L 246.074219 131.476562 L 228.894531 149.90625 L 229.976562 150.886719 L 229.019531 149.792969 C 228.652344 150.101562 227.972656 150.679688 227.230469 151.160156 C 226.859375 151.402344 226.476562 151.613281 226.144531 151.75 C 225.816406 151.890625 225.539062 151.941406 225.410156 151.941406 L 225.3125 151.929688 L 225.300781 151.921875 C 225.261719 151.890625 225.167969 151.789062 225.058594 151.621094 C 224.875 151.328125 224.667969 150.851562 224.496094 150.316406 C 224.238281 149.511719 224.054688 148.585938 223.941406 147.875 C 223.882812 147.519531 223.84375 147.21875 223.816406 147.007812 C 223.804688 146.902344 223.796875 146.820312 223.789062 146.765625 L 223.785156 146.707031 L 223.78125 146.6875 C 223.726562 146.089844 223.296875 145.582031 222.703125 145.421875 C 222.113281 145.265625 221.480469 145.484375 221.121094 145.976562 L 221.117188 145.984375 L 222.308594 146.832031 L 223.773438 146.707031 C 223.488281 143.445312 222.019531 140.257812 219.371094 137.859375 C 216.722656 135.460938 213.367188 134.269531 210.035156 134.273438 C 206.3125 134.269531 202.585938 135.757812 199.863281 138.675781 C 197.433594 141.285156 196.226562 144.59375 196.226562 147.878906 C 196.226562 151.550781 197.730469 155.222656 200.691406 157.902344 C 203.339844 160.296875 206.691406 161.46875 210.011719 161.476562 L 210.015625 160.027344 L 209.089844 158.898438 L 209.070312 158.910156 C 208.589844 159.296875 208.40625 159.9375 208.609375 160.515625 C 208.816406 161.097656 209.367188 161.484375 209.992188 161.488281 L 210.03125 161.488281 C 210.269531 161.488281 211.480469 161.519531 212.730469 161.703125 C 213.355469 161.792969 213.988281 161.921875 214.492188 162.085938 C 214.742188 162.167969 214.957031 162.257812 215.117188 162.34375 C 215.277344 162.425781 215.378906 162.503906 215.410156 162.539062 L 215.421875 162.550781 C 215.425781 162.566406 215.4375 162.613281 215.4375 162.710938 C 215.441406 162.871094 215.386719 163.164062 215.265625 163.5 C 215.085938 164.003906 214.757812 164.601562 214.433594 165.121094 C 214.101562 165.644531 213.773438 166.085938 213.566406 166.367188 L 214.757812 167.21875 L 213.675781 166.238281 L 196.5 184.664062 L 177.804688 167.738281 L 177.675781 167.628906 C 177.292969 167.359375 176.503906 166.789062 175.566406 166.273438 C 175.09375 166.015625 174.578125 165.765625 174.027344 165.574219 C 173.476562 165.382812 172.886719 165.238281 172.238281 165.234375 C 171.867188 165.234375 171.472656 165.285156 171.078125 165.425781 C 170.6875 165.5625 170.300781 165.796875 169.984375 166.109375 L 169.988281 166.105469 C 169.65625 166.433594 169.421875 166.792969 169.230469 167.164062 C 168.894531 167.808594 168.6875 168.5 168.523438 169.195312 C 168.289062 170.238281 168.175781 171.292969 168.117188 172.097656 C 168.058594 172.90625 168.054688 173.464844 168.054688 173.488281 L 169.523438 173.496094 L 170.589844 172.496094 L 170.578125 172.484375 C 170.164062 172.050781 169.523438 171.917969 168.964844 172.136719 C 168.40625 172.351562 168.039062 172.890625 168.039062 173.480469 C 168.035156 176.074219 167.105469 178.652344 165.191406 180.703125 C 163.042969 183.007812 160.128906 184.167969 157.1875 184.171875 C 154.554688 184.167969 151.929688 183.238281 149.839844 181.347656 C 147.507812 179.234375 146.328125 176.355469 146.324219 173.460938 C 146.324219 170.867188 147.269531 168.277344 149.191406 166.21875 C 151.101562 164.164062 153.632812 163.03125 156.253906 162.808594 C 156.859375 162.753906 157.371094 162.34375 157.539062 161.765625 C 157.707031 161.191406 157.5 160.570312 157.015625 160.207031 L 157.003906 160.199219 L 156.117188 161.355469 L 156.246094 162.796875 C 156.285156 162.792969 157.570312 162.679688 159.082031 162.351562 C 159.839844 162.1875 160.65625 161.972656 161.425781 161.664062 C 161.808594 161.507812 162.183594 161.332031 162.542969 161.109375 C 162.898438 160.890625 163.242188 160.628906 163.542969 160.277344 C 163.792969 159.988281 163.976562 159.652344 164.089844 159.3125 C 164.203125 158.972656 164.25 158.628906 164.25 158.308594 C 164.246094 157.621094 164.0625 157.015625 163.828125 156.457031 C 163.46875 155.625 162.976562 154.882812 162.507812 154.257812 C 162.039062 153.632812 161.59375 153.125 161.351562 152.855469 L 161.234375 152.734375 L 160.242188 153.800781 L 159.128906 154.75 C 159.441406 155.109375 160.03125 155.777344 160.519531 156.511719 C 160.761719 156.878906 160.976562 157.253906 161.117188 157.578125 C 161.257812 157.910156 161.3125 158.179688 161.308594 158.308594 L 161.296875 158.402344 L 161.292969 158.414062 C 161.261719 158.453125 161.15625 158.546875 160.984375 158.648438 C 160.6875 158.835938 160.203125 159.039062 159.660156 159.207031 C 158.84375 159.460938 157.90625 159.644531 157.183594 159.757812 C 156.824219 159.8125 156.519531 159.851562 156.304688 159.875 C 156.195312 159.890625 156.113281 159.898438 156.058594 159.902344 L 155.996094 159.910156 L 155.980469 159.910156 C 155.375 159.964844 154.867188 160.378906 154.699219 160.953125 C 154.53125 161.53125 154.742188 162.148438 155.226562 162.507812 L 155.238281 162.519531 L 156.128906 161.363281 L 156 159.917969 C 152.691406 160.199219 149.453125 161.648438 147.023438 164.257812 L 147.023438 164.253906 C 144.589844 166.867188 143.382812 170.171875 143.382812 173.460938 C 143.382812 177.128906 144.890625 180.804688 147.851562 183.480469 C 150.496094 185.878906 153.851562 187.070312 157.1875 187.070312 C 160.914062 187.070312 164.640625 185.585938 167.359375 182.667969 C 169.789062 180.058594 170.980469 176.757812 170.980469 173.484375 L 169.511719 173.480469 L 168.445312 174.480469 L 168.460938 174.496094 C 168.871094 174.921875 169.511719 175.058594 170.066406 174.84375 C 170.625 174.625 170.992188 174.09375 170.996094 173.503906 L 170.996094 173.460938 C 171 173.226562 171.03125 172.035156 171.21875 170.800781 C 171.304688 170.1875 171.441406 169.5625 171.609375 169.070312 C 171.6875 168.824219 171.777344 168.609375 171.863281 168.453125 C 171.945312 168.296875 172.027344 168.195312 172.0625 168.164062 L 172.078125 168.152344 C 172.09375 168.148438 172.140625 168.132812 172.238281 168.132812 C 172.402344 168.132812 172.699219 168.183594 173.039062 168.304688 C 173.550781 168.484375 174.160156 168.800781 174.683594 169.125 C 175.214844 169.449219 175.667969 169.773438 175.949219 169.976562 L 176.8125 168.804688 L 175.820312 169.871094 L 195.597656 187.78125 C 195.882812 188.039062 196.261719 188.175781 196.652344 188.160156 C 197.042969 188.140625 197.40625 187.976562 197.671875 187.691406 L 215.84375 168.199219 L 215.949219 168.070312 C 216.226562 167.691406 216.804688 166.914062 217.328125 165.988281 C 217.589844 165.519531 217.839844 165.015625 218.035156 164.472656 C 218.230469 163.925781 218.375 163.351562 218.378906 162.710938 C 218.378906 162.34375 218.328125 161.957031 218.1875 161.570312 C 218.046875 161.179688 217.808594 160.800781 217.492188 160.492188 C 217.164062 160.164062 216.800781 159.933594 216.425781 159.742188 C 215.769531 159.414062 215.066406 159.210938 214.359375 159.050781 C 213.304688 158.820312 212.234375 158.710938 211.414062 158.648438 C 210.597656 158.589844 210.03125 158.585938 210.003906 158.585938 L 210 160.039062 L 210.925781 161.164062 L 210.9375 161.152344 C 211.421875 160.765625 211.609375 160.121094 211.402344 159.542969 C 211.195312 158.964844 210.636719 158.578125 210.015625 158.578125 C 207.386719 158.566406 204.765625 157.652344 202.683594 155.769531 C 200.347656 153.652344 199.171875 150.777344 199.167969 147.878906 C 199.171875 145.285156 200.113281 142.695312 202.03125 140.636719 C 204.179688 138.332031 207.09375 137.171875 210.035156 137.171875 C 212.667969 137.171875 215.289062 138.101562 217.382812 139.992188 C 219.46875 141.882812 220.613281 144.371094 220.84375 146.957031 C 220.898438 147.5625 221.324219 148.066406 221.917969 148.230469 C 222.515625 148.390625 223.144531 148.171875 223.503906 147.679688 L 223.511719 147.664062 L 222.316406 146.820312 L 220.851562 146.953125 C 220.859375 146.988281 220.972656 148.257812 221.304688 149.746094 C 221.472656 150.492188 221.695312 151.292969 222.007812 152.054688 C 222.160156 152.433594 222.34375 152.800781 222.5625 153.15625 C 222.789062 153.503906 223.050781 153.84375 223.410156 154.144531 C 223.703125 154.386719 224.042969 154.570312 224.386719 154.679688 C 224.734375 154.792969 225.082031 154.839844 225.410156 154.839844 C 226.105469 154.832031 226.722656 154.652344 227.285156 154.421875 C 228.132812 154.070312 228.882812 153.582031 229.519531 153.121094 C 230.152344 152.660156 230.664062 152.21875 230.941406 151.984375 L 231.0625 151.867188 L 249.234375 132.371094 C 249.785156 131.78125 249.746094 130.863281 249.148438 130.320312 L 229.367188 112.414062 L 228.371094 113.480469 L 229.488281 112.535156 C 229.171875 112.175781 228.582031 111.503906 228.09375 110.773438 C 227.851562 110.40625 227.632812 110.03125 227.496094 109.703125 C 227.355469 109.378906 227.300781 109.105469 227.304688 108.980469 L 227.316406 108.882812 L 227.320312 108.871094 L 227.324219 108.871094 C 227.355469 108.832031 227.460938 108.738281 227.628906 108.636719 C 227.925781 108.449219 228.410156 108.246094 228.953125 108.078125 C 229.765625 107.824219 230.707031 107.640625 231.425781 107.53125 C 231.789062 107.472656 232.09375 107.433594 232.308594 107.410156 C 232.414062 107.398438 232.496094 107.390625 232.554688 107.382812 L 232.617188 107.378906 L 232.628906 107.375 C 233.210938 107.324219 233.710938 106.929688 233.898438 106.382812 C 234.078125 105.835938 233.910156 105.230469 233.472656 104.84375 L 233.457031 104.832031 L 232.484375 105.917969 L 232.609375 107.363281 C 235.917969 107.082031 239.15625 105.632812 241.585938 103.023438 C 244.019531 100.417969 245.226562 97.105469 245.226562 93.824219 C 245.226562 90.152344 243.71875 86.476562 240.761719 83.800781 C 238.113281 81.402344 234.753906 80.214844 231.421875 80.214844 C 227.699219 80.210938 223.972656 81.695312 221.25 84.617188 C 218.820312 87.222656 217.628906 90.523438 217.625 93.800781 L 219.097656 93.800781 L 220.171875 92.8125 L 220.164062 92.800781 C 219.75 92.363281 219.113281 92.222656 218.550781 92.441406 C 217.988281 92.660156 217.621094 93.1875 217.617188 93.78125 L 217.613281 93.824219 C 217.613281 94.058594 217.582031 95.25 217.394531 96.484375 C 217.308594 97.097656 217.175781 97.722656 217.007812 98.21875 C 216.925781 98.464844 216.835938 98.675781 216.75 98.832031 C 216.667969 98.992188 216.589844 99.089844 216.554688 99.121094 L 216.539062 99.128906 C 216.523438 99.136719 216.472656 99.152344 216.375 99.152344 C 216.210938 99.152344 215.914062 99.101562 215.574219 98.980469 C 215.0625 98.800781 214.457031 98.480469 213.933594 98.160156 C 213.402344 97.835938 212.949219 97.511719 212.664062 97.308594 L 211.804688 98.480469 L 212.796875 97.414062 L 193.015625 79.503906 C 192.417969 78.960938 191.484375 79 190.9375 79.589844 L 139.375 134.910156 C 139.113281 135.191406 138.972656 135.574219 138.988281 135.953125 C 139.003906 136.335938 139.175781 136.699219 139.464844 136.960938 L 159.242188 154.871094 L 160.242188 153.800781 L 159.128906 154.75 L 160.242188 153.800781 "/>
<path style=" stroke:none;fill-rule:nonzero;fill:rgb(100%,100%,100%);fill-opacity:1;" d="M 218.375 138.925781 C 220.742188 141.070312 222.054688 143.910156 222.308594 146.832031 L 222.324219 146.816406 C 222.324219 146.816406 222.769531 151.714844 224.363281 153.027344 C 225.949219 154.34375 229.070312 151.660156 229.984375 150.882812 L 248.152344 131.390625 L 267.933594 149.296875 C 268.910156 149.996094 272.253906 152.410156 273.722656 150.96875 C 275.191406 149.527344 275.222656 144.609375 275.222656 144.609375 L 275.230469 144.617188 C 275.234375 141.6875 276.292969 138.746094 278.46875 136.414062 C 283.074219 131.472656 290.875 131.140625 295.894531 135.6875 C 300.914062 140.226562 301.242188 147.921875 296.632812 152.863281 C 294.460938 155.191406 291.582031 156.488281 288.613281 156.738281 L 288.628906 156.75 C 288.628906 156.75 283.660156 157.195312 282.328125 158.761719 C 280.996094 160.324219 283.714844 163.402344 284.503906 164.304688 L 304.28125 182.207031 L 286.113281 201.703125 C 285.207031 202.480469 282.078125 205.164062 280.492188 203.847656 C 278.902344 202.53125 278.453125 197.636719 278.453125 197.636719 L 278.441406 197.652344 C 278.183594 194.726562 276.875 191.886719 274.507812 189.746094 C 269.492188 185.203125 261.6875 185.527344 257.082031 190.476562 C 252.472656 195.417969 252.804688 203.109375 257.820312 207.652344 C 260.183594 209.792969 263.167969 210.835938 266.144531 210.84375 L 266.136719 210.851562 C 266.136719 210.851562 271.121094 210.882812 272.585938 212.328125 C 274.050781 213.777344 271.601562 217.070312 270.890625 218.035156 L 252.71875 237.53125 L 232.941406 219.625 C 232.15625 218.722656 229.433594 215.648438 230.765625 214.082031 C 232.097656 212.515625 237.066406 212.070312 237.066406 212.070312 L 237.054688 212.058594 C 240.019531 211.808594 242.902344 210.515625 245.074219 208.1875 C 249.683594 203.242188 249.351562 195.550781 244.332031 191.007812 C 239.316406 186.464844 231.515625 186.792969 226.90625 191.738281 C 224.734375 194.066406 223.671875 197.007812 223.667969 199.941406 L 223.660156 199.929688 C 223.660156 199.929688 223.628906 204.847656 222.160156 206.289062 C 220.691406 207.730469 217.347656 205.320312 216.371094 204.621094 L 196.589844 186.710938 L 214.757812 167.214844 C 215.472656 166.253906 217.917969 162.960938 216.453125 161.507812 C 214.992188 160.0625 210.003906 160.035156 210.003906 160.035156 L 210.015625 160.027344 C 207.039062 160.019531 204.054688 158.976562 201.6875 156.835938 C 196.671875 152.292969 196.339844 144.597656 200.949219 139.65625 C 205.558594 134.710938 213.359375 134.382812 218.375 138.925781 "/>
<g clip-path="url(#clip1)" clip-rule="nonzero">
<path style=" stroke:none;fill-rule:nonzero;fill:rgb(13.729858%,12.159729%,12.548828%);fill-opacity:1;" d="M 218.375 138.925781 L 217.382812 139.992188 C 219.46875 141.882812 220.613281 144.371094 220.84375 146.957031 C 220.894531 147.550781 221.308594 148.054688 221.890625 148.222656 C 222.464844 148.394531 223.09375 148.199219 223.464844 147.730469 L 223.476562 147.714844 L 222.324219 146.816406 L 220.859375 146.945312 C 220.859375 146.984375 220.976562 148.25 221.308594 149.742188 C 221.476562 150.488281 221.695312 151.292969 222.011719 152.046875 C 222.167969 152.429688 222.347656 152.796875 222.570312 153.152344 C 222.792969 153.503906 223.058594 153.84375 223.417969 154.140625 L 223.414062 154.136719 C 223.707031 154.382812 224.046875 154.566406 224.394531 154.679688 C 224.738281 154.792969 225.085938 154.832031 225.414062 154.832031 C 226.113281 154.832031 226.726562 154.648438 227.289062 154.417969 C 228.132812 154.066406 228.886719 153.578125 229.523438 153.113281 C 230.152344 152.65625 230.667969 152.214844 230.945312 151.980469 L 231.066406 151.859375 L 248.238281 133.4375 L 266.941406 150.367188 L 267.070312 150.472656 C 267.453125 150.746094 268.242188 151.316406 269.179688 151.828125 C 269.65625 152.089844 270.167969 152.335938 270.71875 152.527344 C 271.273438 152.722656 271.859375 152.867188 272.507812 152.867188 C 272.878906 152.867188 273.273438 152.816406 273.664062 152.679688 C 274.058594 152.539062 274.441406 152.308594 274.757812 151.996094 C 275.089844 151.671875 275.324219 151.3125 275.515625 150.941406 C 275.851562 150.296875 276.058594 149.605469 276.222656 148.90625 C 276.457031 147.867188 276.570312 146.8125 276.628906 146.007812 C 276.6875 145.199219 276.691406 144.640625 276.691406 144.617188 L 275.222656 144.609375 L 274.074219 145.519531 L 274.082031 145.53125 C 274.472656 146.007812 275.132812 146.191406 275.71875 145.984375 C 276.304688 145.78125 276.699219 145.234375 276.699219 144.621094 C 276.707031 142.027344 277.636719 139.449219 279.550781 137.398438 C 281.695312 135.09375 284.613281 133.933594 287.554688 133.929688 C 290.183594 133.929688 292.808594 134.859375 294.902344 136.753906 C 297.238281 138.867188 298.414062 141.742188 298.414062 144.640625 C 298.414062 147.234375 297.472656 149.824219 295.550781 151.882812 C 293.636719 153.9375 291.109375 155.070312 288.488281 155.296875 C 287.886719 155.347656 287.378906 155.75 287.207031 156.320312 C 287.035156 156.890625 287.230469 157.507812 287.703125 157.875 L 287.71875 157.886719 L 288.628906 156.75 L 288.5 155.304688 C 288.457031 155.308594 287.171875 155.425781 285.660156 155.75 C 284.90625 155.917969 284.089844 156.136719 283.320312 156.441406 C 282.933594 156.597656 282.5625 156.777344 282.203125 156.992188 C 281.84375 157.214844 281.503906 157.476562 281.203125 157.828125 C 280.953125 158.113281 280.769531 158.453125 280.65625 158.792969 C 280.542969 159.132812 280.496094 159.472656 280.496094 159.800781 C 280.5 160.484375 280.683594 161.089844 280.917969 161.644531 C 281.273438 162.480469 281.769531 163.21875 282.238281 163.847656 C 282.707031 164.472656 283.152344 164.976562 283.394531 165.253906 L 283.511719 165.371094 L 302.207031 182.296875 L 285.03125 200.722656 L 286.113281 201.703125 L 285.152344 200.605469 C 284.789062 200.917969 284.109375 201.496094 283.363281 201.976562 C 282.996094 202.214844 282.617188 202.429688 282.28125 202.5625 C 281.953125 202.707031 281.675781 202.757812 281.546875 202.753906 L 281.449219 202.742188 L 281.4375 202.738281 C 281.398438 202.707031 281.300781 202.605469 281.195312 202.4375 C 281.007812 202.140625 280.804688 201.664062 280.632812 201.132812 C 280.375 200.328125 280.191406 199.402344 280.074219 198.691406 C 280.019531 198.335938 279.976562 198.035156 279.957031 197.824219 C 279.941406 197.71875 279.933594 197.636719 279.925781 197.582031 L 279.921875 197.523438 L 279.917969 197.503906 C 279.867188 196.929688 279.46875 196.4375 278.914062 196.257812 C 278.355469 196.078125 277.742188 196.246094 277.351562 196.675781 L 277.339844 196.691406 L 278.441406 197.652344 L 279.90625 197.527344 C 279.621094 194.261719 278.152344 191.074219 275.503906 188.675781 C 272.855469 186.277344 269.503906 185.089844 266.167969 185.09375 C 262.441406 185.089844 258.714844 186.578125 256 189.496094 C 253.566406 192.101562 252.359375 195.410156 252.359375 198.695312 C 252.355469 202.367188 253.863281 206.039062 256.824219 208.71875 C 259.472656 211.117188 262.824219 212.289062 266.140625 212.292969 L 266.144531 210.84375 L 265.144531 209.78125 L 265.136719 209.789062 C 264.695312 210.195312 264.542969 210.824219 264.765625 211.378906 C 264.984375 211.933594 265.523438 212.296875 266.125 212.300781 L 266.167969 212.304688 C 266.40625 212.304688 267.613281 212.335938 268.867188 212.519531 C 269.492188 212.609375 270.125 212.738281 270.625 212.902344 C 270.878906 212.984375 271.09375 213.074219 271.25 213.160156 C 271.414062 213.242188 271.511719 213.316406 271.542969 213.351562 L 271.554688 213.367188 C 271.558594 213.382812 271.574219 213.433594 271.574219 213.527344 C 271.574219 213.691406 271.523438 213.980469 271.402344 214.316406 C 271.21875 214.824219 270.894531 215.417969 270.566406 215.9375 C 270.238281 216.457031 269.910156 216.902344 269.703125 217.179688 L 270.890625 218.035156 L 269.808594 217.054688 L 252.632812 235.480469 L 233.941406 218.558594 L 232.941406 219.625 L 234.058594 218.675781 C 233.742188 218.316406 233.152344 217.644531 232.664062 216.914062 C 232.421875 216.546875 232.207031 216.171875 232.066406 215.84375 C 231.925781 215.519531 231.871094 215.246094 231.875 215.121094 L 231.886719 215.023438 L 231.890625 215.011719 C 231.921875 214.972656 232.027344 214.878906 232.199219 214.773438 C 232.496094 214.589844 232.980469 214.386719 233.523438 214.21875 C 234.335938 213.964844 235.277344 213.785156 235.996094 213.671875 C 236.359375 213.613281 236.664062 213.574219 236.878906 213.550781 C 236.984375 213.539062 237.066406 213.527344 237.125 213.523438 L 237.1875 213.519531 L 237.203125 213.515625 C 237.804688 213.460938 238.304688 213.054688 238.476562 212.484375 C 238.652344 211.914062 238.453125 211.304688 237.980469 210.9375 L 237.964844 210.921875 L 237.054688 212.058594 L 237.179688 213.503906 C 240.488281 213.222656 243.726562 211.773438 246.15625 209.167969 C 248.589844 206.554688 249.796875 203.25 249.796875 199.964844 C 249.800781 196.292969 248.289062 192.621094 245.328125 189.941406 C 242.679688 187.542969 239.324219 186.351562 235.992188 186.351562 C 232.269531 186.351562 228.542969 187.835938 225.820312 190.753906 C 223.386719 193.363281 222.199219 196.667969 222.195312 199.941406 L 223.667969 199.941406 L 224.773438 198.984375 L 224.761719 198.972656 C 224.355469 198.519531 223.714844 198.363281 223.140625 198.570312 C 222.570312 198.785156 222.191406 199.320312 222.1875 199.921875 L 222.1875 199.964844 C 222.183594 200.199219 222.152344 201.390625 221.964844 202.625 C 221.875 203.238281 221.742188 203.863281 221.574219 204.359375 C 221.496094 204.605469 221.402344 204.816406 221.320312 204.976562 C 221.238281 205.132812 221.15625 205.230469 221.121094 205.265625 L 221.105469 205.273438 C 221.089844 205.277344 221.042969 205.292969 220.945312 205.292969 C 220.78125 205.292969 220.484375 205.242188 220.144531 205.121094 C 219.632812 204.941406 219.023438 204.625 218.5 204.300781 C 217.972656 203.972656 217.519531 203.652344 217.234375 203.449219 L 216.371094 204.621094 L 217.367188 203.554688 L 198.667969 186.625 L 215.84375 168.195312 L 215.949219 168.066406 C 216.230469 167.6875 216.808594 166.914062 217.332031 165.984375 C 217.589844 165.519531 217.84375 165.011719 218.039062 164.46875 C 218.234375 163.925781 218.382812 163.347656 218.382812 162.707031 C 218.382812 162.34375 218.332031 161.953125 218.1875 161.566406 C 218.050781 161.179688 217.8125 160.796875 217.496094 160.484375 C 217.167969 160.160156 216.800781 159.929688 216.425781 159.738281 C 215.769531 159.410156 215.070312 159.203125 214.363281 159.050781 C 213.308594 158.816406 212.238281 158.707031 211.421875 158.648438 C 210.601562 158.585938 210.035156 158.585938 210.015625 158.585938 L 210.003906 160.035156 L 211.089844 161.015625 L 211.097656 161.003906 C 211.488281 160.582031 211.59375 159.96875 211.359375 159.441406 C 211.128906 158.917969 210.597656 158.578125 210.015625 158.578125 C 207.386719 158.566406 204.765625 157.652344 202.683594 155.769531 C 200.347656 153.652344 199.171875 150.777344 199.171875 147.878906 C 199.171875 145.285156 200.113281 142.695312 202.03125 140.636719 C 204.179688 138.335938 207.09375 137.171875 210.035156 137.171875 C 212.667969 137.171875 215.289062 138.101562 217.382812 139.992188 L 218.375 138.925781 L 219.371094 137.859375 C 216.722656 135.460938 213.367188 134.269531 210.035156 134.273438 C 206.3125 134.269531 202.585938 135.757812 199.863281 138.675781 C 197.433594 141.285156 196.226562 144.59375 196.226562 147.878906 C 196.226562 151.550781 197.730469 155.222656 200.691406 157.902344 C 203.339844 160.296875 206.691406 161.46875 210.011719 161.476562 L 210.015625 160.027344 L 208.929688 159.042969 L 208.921875 159.050781 C 208.527344 159.472656 208.425781 160.089844 208.65625 160.613281 C 208.886719 161.136719 209.417969 161.480469 209.996094 161.484375 L 210.039062 161.484375 C 210.273438 161.488281 211.484375 161.519531 212.734375 161.699219 C 213.359375 161.789062 213.992188 161.921875 214.496094 162.085938 C 214.746094 162.167969 214.960938 162.253906 215.121094 162.339844 C 215.28125 162.421875 215.378906 162.496094 215.414062 162.535156 L 215.421875 162.546875 C 215.429688 162.5625 215.441406 162.609375 215.441406 162.707031 C 215.445312 162.871094 215.390625 163.160156 215.269531 163.496094 C 215.085938 164 214.765625 164.597656 214.433594 165.117188 C 214.105469 165.636719 213.777344 166.082031 213.574219 166.359375 L 214.757812 167.214844 L 213.675781 166.230469 L 195.507812 185.730469 C 194.957031 186.320312 194.996094 187.234375 195.597656 187.78125 L 215.378906 205.691406 L 215.507812 205.792969 C 215.890625 206.066406 216.679688 206.636719 217.621094 207.152344 C 218.089844 207.410156 218.609375 207.65625 219.15625 207.851562 C 219.707031 208.042969 220.296875 208.191406 220.945312 208.191406 C 221.316406 208.191406 221.710938 208.136719 222.105469 208 C 222.496094 207.863281 222.878906 207.628906 223.199219 207.316406 C 223.527344 206.992188 223.761719 206.632812 223.953125 206.265625 C 224.289062 205.617188 224.496094 204.925781 224.65625 204.230469 C 224.894531 203.1875 225.007812 202.136719 225.066406 201.328125 C 225.125 200.519531 225.128906 199.960938 225.128906 199.941406 L 223.660156 199.929688 L 222.550781 200.886719 L 222.5625 200.898438 C 222.964844 201.351562 223.613281 201.511719 224.1875 201.296875 C 224.757812 201.085938 225.136719 200.546875 225.136719 199.945312 C 225.144531 197.347656 226.074219 194.773438 227.988281 192.71875 C 230.132812 190.414062 233.050781 189.253906 235.992188 189.253906 C 238.621094 189.253906 241.246094 190.183594 243.339844 192.074219 C 245.675781 194.191406 246.851562 197.066406 246.855469 199.964844 C 246.851562 202.554688 245.910156 205.144531 243.992188 207.203125 C 242.074219 209.257812 239.546875 210.390625 236.925781 210.617188 C 236.324219 210.667969 235.816406 211.074219 235.644531 211.644531 C 235.46875 212.210938 235.664062 212.828125 236.140625 213.195312 L 236.15625 213.210938 L 237.066406 212.070312 L 236.9375 210.628906 C 236.898438 210.632812 235.613281 210.746094 234.101562 211.074219 C 233.34375 211.238281 232.527344 211.457031 231.757812 211.765625 C 231.375 211.917969 231 212.097656 230.640625 212.316406 C 230.285156 212.535156 229.941406 212.796875 229.640625 213.148438 C 229.390625 213.4375 229.207031 213.773438 229.09375 214.113281 C 228.980469 214.453125 228.933594 214.796875 228.933594 215.121094 C 228.9375 215.804688 229.121094 216.410156 229.355469 216.96875 C 229.714844 217.800781 230.207031 218.542969 230.675781 219.167969 C 231.144531 219.792969 231.59375 220.296875 231.832031 220.570312 L 231.949219 220.691406 L 251.726562 238.597656 C 252.015625 238.859375 252.390625 238.996094 252.785156 238.976562 C 253.175781 238.960938 253.539062 238.796875 253.804688 238.511719 L 271.976562 219.011719 L 272.085938 218.886719 C 272.359375 218.507812 272.941406 217.730469 273.460938 216.804688 C 273.726562 216.335938 273.976562 215.832031 274.171875 215.289062 C 274.367188 214.746094 274.511719 214.167969 274.515625 213.527344 C 274.515625 213.160156 274.464844 212.773438 274.320312 212.386719 C 274.179688 211.996094 273.945312 211.617188 273.628906 211.308594 C 273.296875 210.980469 272.933594 210.75 272.558594 210.558594 C 271.902344 210.230469 271.199219 210.023438 270.496094 209.867188 C 269.4375 209.636719 268.371094 209.523438 267.550781 209.464844 C 266.734375 209.40625 266.167969 209.402344 266.144531 209.402344 L 266.136719 210.851562 L 267.136719 211.914062 L 267.144531 211.90625 C 267.585938 211.503906 267.734375 210.871094 267.515625 210.316406 C 267.296875 209.761719 266.75 209.394531 266.148438 209.394531 C 263.515625 209.386719 260.898438 208.472656 258.8125 206.585938 C 256.480469 204.46875 255.304688 201.59375 255.300781 198.695312 C 255.304688 196.101562 256.246094 193.515625 258.164062 191.453125 C 260.308594 189.152344 263.226562 187.992188 266.167969 187.992188 C 268.796875 187.992188 271.421875 188.921875 273.511719 190.8125 C 275.597656 192.699219 276.746094 195.191406 276.976562 197.777344 C 277.023438 198.355469 277.417969 198.847656 277.980469 199.027344 C 278.539062 199.210938 279.152344 199.046875 279.542969 198.613281 L 279.554688 198.597656 L 278.453125 197.636719 L 276.988281 197.765625 C 276.992188 197.804688 277.109375 199.074219 277.441406 200.5625 C 277.609375 201.308594 277.828125 202.109375 278.140625 202.867188 C 278.296875 203.25 278.480469 203.617188 278.699219 203.972656 C 278.925781 204.320312 279.191406 204.660156 279.546875 204.957031 C 279.839844 205.203125 280.179688 205.382812 280.523438 205.496094 C 280.871094 205.609375 281.21875 205.652344 281.546875 205.652344 C 282.246094 205.648438 282.855469 205.46875 283.421875 205.238281 C 284.265625 204.886719 285.019531 204.394531 285.65625 203.933594 C 286.285156 203.476562 286.800781 203.035156 287.078125 202.800781 L 287.195312 202.683594 L 305.367188 183.191406 C 305.914062 182.601562 305.878906 181.683594 305.277344 181.140625 L 285.503906 163.238281 L 284.503906 164.304688 L 285.621094 163.355469 C 285.300781 162.996094 284.714844 162.324219 284.222656 161.589844 C 283.984375 161.226562 283.765625 160.851562 283.628906 160.523438 C 283.484375 160.195312 283.433594 159.925781 283.4375 159.800781 L 283.449219 159.703125 L 283.453125 159.691406 C 283.484375 159.652344 283.589844 159.554688 283.757812 159.453125 C 284.058594 159.269531 284.542969 159.0625 285.082031 158.894531 C 285.898438 158.644531 286.839844 158.460938 287.558594 158.351562 C 287.921875 158.292969 288.226562 158.253906 288.441406 158.226562 C 288.546875 158.21875 288.628906 158.207031 288.683594 158.199219 L 288.75 158.195312 L 288.761719 158.195312 C 289.363281 158.140625 289.867188 157.734375 290.039062 157.164062 C 290.214844 156.59375 290.015625 155.984375 289.542969 155.613281 L 289.527344 155.601562 L 288.613281 156.738281 L 288.738281 158.183594 C 292.050781 157.902344 295.289062 156.449219 297.71875 153.84375 C 300.152344 151.234375 301.359375 147.925781 301.355469 144.640625 C 301.359375 140.972656 299.851562 137.296875 296.890625 134.621094 C 294.242188 132.222656 290.886719 131.03125 287.554688 131.03125 C 283.828125 131.03125 280.101562 132.515625 277.382812 135.433594 C 274.953125 138.042969 273.761719 141.34375 273.757812 144.617188 L 275.230469 144.617188 L 276.375 143.710938 L 276.363281 143.699219 C 275.972656 143.222656 275.320312 143.039062 274.734375 143.238281 C 274.148438 143.445312 273.753906 143.988281 273.75 144.601562 L 273.746094 144.640625 C 273.746094 144.875 273.714844 146.070312 273.53125 147.304688 C 273.4375 147.917969 273.304688 148.542969 273.140625 149.039062 C 273.058594 149.285156 272.964844 149.496094 272.882812 149.652344 C 272.800781 149.8125 272.71875 149.910156 272.683594 149.941406 L 272.667969 149.949219 C 272.652344 149.957031 272.605469 149.96875 272.507812 149.96875 C 272.34375 149.972656 272.046875 149.921875 271.707031 149.800781 C 271.195312 149.621094 270.585938 149.304688 270.0625 148.980469 C 269.535156 148.652344 269.082031 148.332031 268.800781 148.125 L 267.933594 149.296875 L 268.929688 148.230469 L 249.148438 130.320312 C 248.550781 129.78125 247.617188 129.820312 247.070312 130.410156 L 228.902344 149.902344 L 229.984375 150.882812 L 229.023438 149.785156 C 228.65625 150.097656 227.976562 150.675781 227.230469 151.160156 C 226.863281 151.398438 226.480469 151.609375 226.148438 151.746094 C 225.820312 151.886719 225.542969 151.941406 225.414062 151.933594 L 225.320312 151.925781 L 225.308594 151.917969 L 225.304688 151.917969 C 225.265625 151.886719 225.167969 151.785156 225.066406 151.617188 C 224.875 151.324219 224.667969 150.847656 224.5 150.3125 C 224.246094 149.507812 224.058594 148.582031 223.945312 147.871094 C 223.886719 147.519531 223.847656 147.214844 223.824219 147.003906 C 223.8125 146.898438 223.800781 146.816406 223.792969 146.761719 L 223.789062 146.703125 L 223.789062 146.6875 C 223.734375 146.09375 223.320312 145.59375 222.742188 145.425781 C 222.160156 145.257812 221.539062 145.453125 221.167969 145.921875 L 221.152344 145.933594 L 222.308594 146.832031 L 223.773438 146.707031 C 223.488281 143.445312 222.019531 140.257812 219.371094 137.859375 L 218.375 138.925781 "/>
</g>
<path style=" stroke:none;fill-rule:nonzero;fill:rgb(100%,100%,100%);fill-opacity:1;" d="M 166.808594 194.253906 C 169.175781 196.394531 170.484375 199.238281 170.742188 202.160156 L 170.753906 202.144531 C 170.753906 202.144531 171.207031 207.042969 172.792969 208.355469 C 174.378906 209.671875 177.503906 206.988281 178.414062 206.210938 L 196.585938 186.714844 L 216.363281 204.628906 C 217.34375 205.324219 220.683594 207.738281 222.152344 206.296875 C 223.625 204.855469 223.652344 199.9375 223.652344 199.9375 L 223.660156 199.949219 C 223.667969 197.011719 224.726562 194.074219 226.898438 191.742188 C 231.507812 186.796875 239.3125 186.472656 244.328125 191.011719 C 249.34375 195.558594 249.675781 203.246094 245.066406 208.191406 C 242.894531 210.523438 240.011719 211.8125 237.046875 212.066406 L 237.0625 212.078125 C 237.0625 212.078125 232.09375 212.519531 230.757812 214.085938 C 229.425781 215.652344 232.148438 218.734375 232.9375 219.628906 L 252.71875 237.539062 L 201.15625 292.859375 L 181.378906 274.949219 C 180.585938 274.054688 177.863281 270.972656 179.195312 269.40625 C 180.53125 267.84375 185.5 267.398438 185.5 267.398438 L 185.484375 267.386719 C 188.453125 267.132812 191.332031 265.84375 193.507812 263.511719 C 198.117188 258.570312 197.78125 250.878906 192.765625 246.335938 C 187.75 241.792969 179.945312 242.117188 175.339844 247.0625 C 173.164062 249.394531 172.105469 252.335938 172.101562 255.269531 L 172.089844 255.261719 C 172.089844 255.261719 172.0625 260.175781 170.59375 261.617188 C 169.121094 263.058594 165.78125 260.648438 164.804688 259.949219 L 145.023438 242.039062 L 163.195312 222.542969 C 163.902344 221.582031 166.347656 218.285156 164.886719 216.839844 C 163.421875 215.390625 158.4375 215.359375 158.4375 215.359375 L 158.445312 215.351562 C 155.46875 215.347656 152.484375 214.304688 150.121094 212.160156 C 145.101562 207.617188 144.773438 199.929688 149.382812 194.984375 C 153.988281 190.039062 161.792969 189.710938 166.808594 194.253906 "/>
<g clip-path="url(#clip2)" clip-rule="nonzero">
<path style=" stroke:none;fill-rule:nonzero;fill:rgb(13.729858%,12.159729%,12.548828%);fill-opacity:1;" d="M 166.808594 194.253906 L 165.816406 195.320312 C 167.898438 197.207031 169.046875 199.703125 169.277344 202.285156 C 169.328125 202.878906 169.742188 203.378906 170.320312 203.550781 C 170.902344 203.71875 171.523438 203.527344 171.898438 203.058594 L 171.910156 203.042969 L 170.753906 202.144531 L 169.289062 202.273438 C 169.296875 202.3125 169.410156 203.582031 169.742188 205.070312 C 169.910156 205.816406 170.132812 206.617188 170.441406 207.378906 C 170.597656 207.757812 170.78125 208.128906 171 208.480469 C 171.226562 208.832031 171.492188 209.167969 171.847656 209.464844 C 172.140625 209.710938 172.480469 209.894531 172.824219 210.003906 C 173.171875 210.117188 173.519531 210.164062 173.847656 210.164062 C 174.542969 210.160156 175.15625 209.980469 175.722656 209.746094 C 176.570312 209.394531 177.316406 208.902344 177.957031 208.445312 C 178.589844 207.984375 179.097656 207.542969 179.378906 207.304688 L 179.5 207.191406 L 196.671875 188.765625 L 215.371094 205.695312 L 215.503906 205.800781 C 215.886719 206.070312 216.671875 206.644531 217.613281 207.160156 C 218.089844 207.417969 218.601562 207.664062 219.15625 207.859375 C 219.707031 208.050781 220.292969 208.195312 220.941406 208.199219 C 221.3125 208.199219 221.707031 208.148438 222.097656 208.003906 C 222.492188 207.871094 222.878906 207.636719 223.191406 207.324219 C 223.523438 206.996094 223.757812 206.636719 223.953125 206.269531 C 224.285156 205.621094 224.492188 204.929688 224.652344 204.234375 C 224.886719 203.191406 225 202.140625 225.058594 201.332031 C 225.117188 200.527344 225.125 199.96875 225.125 199.945312 L 223.652344 199.9375 L 222.542969 200.890625 L 222.550781 200.898438 C 222.953125 201.355469 223.605469 201.515625 224.175781 201.308594 C 224.75 201.09375 225.132812 200.554688 225.132812 199.949219 C 225.136719 197.359375 226.070312 194.777344 227.980469 192.722656 C 230.128906 190.421875 233.046875 189.261719 235.988281 189.257812 C 238.617188 189.261719 241.242188 190.1875 243.332031 192.082031 C 245.667969 194.195312 246.847656 197.070312 246.847656 199.972656 C 246.847656 202.5625 245.902344 205.148438 243.984375 207.210938 C 242.070312 209.265625 239.542969 210.398438 236.921875 210.621094 C 236.316406 210.671875 235.808594 211.082031 235.636719 211.648438 C 235.464844 212.222656 235.664062 212.839844 236.136719 213.207031 L 236.15625 213.21875 L 237.0625 212.078125 L 236.929688 210.632812 C 236.894531 210.636719 235.605469 210.75 234.09375 211.082031 C 233.335938 211.246094 232.523438 211.460938 231.753906 211.769531 C 231.367188 211.925781 230.992188 212.101562 230.632812 212.320312 C 230.277344 212.542969 229.933594 212.804688 229.632812 213.15625 C 229.386719 213.445312 229.199219 213.777344 229.085938 214.117188 C 228.972656 214.460938 228.925781 214.800781 228.925781 215.125 C 228.929688 215.8125 229.113281 216.417969 229.347656 216.976562 C 229.707031 217.808594 230.203125 218.546875 230.671875 219.175781 C 231.140625 219.796875 231.585938 220.304688 231.824219 220.578125 L 231.941406 220.699219 L 250.636719 237.621094 L 201.066406 290.808594 L 182.371094 273.882812 L 181.378906 274.949219 L 182.488281 274.003906 C 182.171875 273.644531 181.585938 272.976562 181.09375 272.238281 C 180.851562 271.875 180.640625 271.5 180.5 271.171875 C 180.359375 270.847656 180.304688 270.574219 180.304688 270.445312 L 180.316406 270.351562 L 180.324219 270.34375 C 180.355469 270.300781 180.457031 270.207031 180.628906 270.105469 C 180.925781 269.917969 181.410156 269.714844 181.953125 269.546875 C 182.765625 269.292969 183.710938 269.109375 184.429688 269 C 184.789062 268.941406 185.097656 268.902344 185.308594 268.878906 C 185.417969 268.863281 185.503906 268.855469 185.558594 268.851562 L 185.617188 268.84375 L 185.632812 268.84375 C 186.230469 268.789062 186.734375 268.386719 186.90625 267.820312 C 187.082031 267.257812 186.890625 266.644531 186.425781 266.273438 L 186.40625 266.257812 L 185.484375 267.386719 L 185.609375 268.828125 C 188.921875 268.550781 192.160156 267.101562 194.589844 264.492188 C 197.019531 261.886719 198.230469 258.578125 198.226562 255.292969 C 198.230469 251.621094 196.722656 247.949219 193.761719 245.265625 C 191.113281 242.867188 187.757812 241.679688 184.425781 241.679688 C 180.699219 241.679688 176.972656 243.164062 174.253906 246.082031 C 171.824219 248.691406 170.632812 251.992188 170.632812 255.269531 L 172.101562 255.269531 L 173.175781 254.28125 L 173.167969 254.273438 C 172.757812 253.835938 172.117188 253.691406 171.554688 253.910156 C 170.992188 254.125 170.621094 254.65625 170.621094 255.25 L 170.621094 255.292969 C 170.617188 255.527344 170.585938 256.71875 170.402344 257.953125 C 170.308594 258.566406 170.175781 259.191406 170.011719 259.683594 C 169.929688 259.933594 169.839844 260.148438 169.753906 260.300781 C 169.671875 260.460938 169.589844 260.558594 169.554688 260.589844 L 169.539062 260.601562 C 169.523438 260.605469 169.472656 260.621094 169.378906 260.621094 C 169.214844 260.621094 168.917969 260.570312 168.578125 260.445312 C 168.0625 260.269531 167.460938 259.953125 166.933594 259.625 C 166.402344 259.300781 165.953125 258.976562 165.671875 258.773438 L 164.804688 259.949219 L 165.800781 258.882812 L 147.101562 241.949219 L 164.277344 223.523438 L 164.382812 223.394531 C 164.660156 223.015625 165.238281 222.242188 165.761719 221.3125 C 166.023438 220.847656 166.277344 220.339844 166.472656 219.796875 C 166.667969 219.253906 166.8125 218.671875 166.816406 218.035156 C 166.816406 217.667969 166.765625 217.28125 166.625 216.894531 C 166.484375 216.507812 166.246094 216.128906 165.929688 215.816406 C 165.597656 215.492188 165.234375 215.257812 164.859375 215.070312 C 164.203125 214.742188 163.503906 214.535156 162.796875 214.375 C 161.742188 214.144531 160.675781 214.03125 159.851562 213.972656 C 159.039062 213.914062 158.472656 213.910156 158.445312 213.910156 L 158.4375 215.359375 L 159.476562 216.386719 L 159.484375 216.378906 C 159.90625 215.964844 160.03125 215.339844 159.804688 214.800781 C 159.578125 214.257812 159.042969 213.90625 158.449219 213.902344 C 155.816406 213.894531 153.199219 212.980469 151.113281 211.09375 C 148.78125 208.980469 147.601562 206.101562 147.601562 203.203125 C 147.601562 200.613281 148.542969 198.027344 150.464844 195.964844 C 152.609375 193.664062 155.53125 192.503906 158.46875 192.5 C 161.101562 192.5 163.722656 193.429688 165.8125 195.320312 L 165.816406 195.320312 L 167.804688 193.1875 C 165.15625 190.789062 161.800781 189.597656 158.46875 189.601562 C 154.746094 189.597656 151.015625 191.082031 148.300781 194.003906 C 145.867188 196.613281 144.65625 199.917969 144.660156 203.203125 C 144.65625 206.875 146.164062 210.546875 149.125 213.230469 C 151.773438 215.628906 155.121094 216.796875 158.441406 216.800781 L 158.445312 215.351562 L 157.40625 214.328125 L 157.398438 214.335938 C 156.976562 214.75 156.851562 215.371094 157.078125 215.910156 C 157.300781 216.453125 157.832031 216.808594 158.429688 216.808594 L 158.472656 216.808594 C 158.710938 216.8125 159.917969 216.84375 161.167969 217.027344 C 161.792969 217.117188 162.425781 217.25 162.925781 217.414062 C 163.175781 217.492188 163.394531 217.582031 163.554688 217.664062 C 163.714844 217.746094 163.8125 217.828125 163.847656 217.859375 L 163.855469 217.875 C 163.859375 217.890625 163.875 217.941406 163.875 218.035156 C 163.878906 218.199219 163.824219 218.488281 163.703125 218.828125 C 163.519531 219.332031 163.195312 219.925781 162.871094 220.445312 C 162.539062 220.964844 162.210938 221.410156 162.003906 221.691406 L 163.195312 222.542969 L 162.109375 221.5625 L 143.9375 241.054688 C 143.675781 241.335938 143.535156 241.71875 143.554688 242.097656 C 143.570312 242.480469 143.742188 242.847656 144.027344 243.105469 L 163.808594 261.015625 L 163.941406 261.121094 C 164.324219 261.394531 165.109375 261.964844 166.050781 262.480469 C 166.527344 262.738281 167.039062 262.988281 167.589844 263.179688 C 168.144531 263.371094 168.730469 263.515625 169.378906 263.519531 C 169.75 263.519531 170.140625 263.46875 170.535156 263.328125 C 170.929688 263.191406 171.316406 262.957031 171.628906 262.648438 L 171.632812 262.644531 C 171.960938 262.320312 172.195312 261.957031 172.390625 261.589844 C 172.722656 260.941406 172.933594 260.25 173.089844 259.554688 C 173.324219 258.515625 173.441406 257.464844 173.496094 256.65625 C 173.558594 255.847656 173.5625 255.292969 173.5625 255.265625 L 172.089844 255.261719 L 171.015625 256.25 L 171.023438 256.257812 C 171.433594 256.691406 172.074219 256.835938 172.640625 256.621094 C 173.199219 256.402344 173.570312 255.867188 173.574219 255.273438 C 173.574219 252.679688 174.507812 250.097656 176.421875 248.042969 C 178.566406 245.742188 181.484375 244.582031 184.425781 244.582031 C 187.054688 244.582031 189.679688 245.511719 191.769531 247.402344 C 194.105469 249.519531 195.285156 252.394531 195.285156 255.292969 C 195.285156 257.886719 194.339844 260.472656 192.421875 262.53125 C 190.507812 264.585938 187.980469 265.71875 185.359375 265.941406 C 184.761719 265.992188 184.253906 266.398438 184.078125 266.960938 C 183.902344 267.527344 184.089844 268.140625 184.558594 268.511719 L 184.574219 268.527344 L 185.5 267.398438 L 185.367188 265.957031 C 185.328125 265.960938 184.042969 266.074219 182.53125 266.402344 C 181.773438 266.566406 180.960938 266.78125 180.191406 267.089844 C 179.804688 267.246094 179.429688 267.421875 179.074219 267.644531 C 178.71875 267.863281 178.371094 268.121094 178.070312 268.476562 C 177.824219 268.765625 177.636719 269.097656 177.523438 269.441406 C 177.410156 269.78125 177.363281 270.125 177.363281 270.445312 C 177.371094 271.132812 177.554688 271.738281 177.785156 272.296875 C 178.144531 273.128906 178.640625 273.871094 179.109375 274.496094 C 179.574219 275.121094 180.023438 275.628906 180.261719 275.898438 L 180.378906 276.019531 L 200.160156 293.925781 C 200.445312 294.183594 200.832031 294.320312 201.21875 294.304688 C 201.601562 294.289062 201.976562 294.121094 202.238281 293.835938 L 253.796875 238.515625 C 254.347656 237.929688 254.308594 237.011719 253.710938 236.46875 L 233.933594 218.5625 L 232.9375 219.628906 L 234.050781 218.683594 C 233.734375 218.324219 233.148438 217.652344 232.660156 216.917969 C 232.414062 216.554688 232.199219 216.175781 232.0625 215.851562 C 231.917969 215.523438 231.867188 215.25 231.867188 215.125 L 231.878906 215.03125 L 231.886719 215.019531 C 231.917969 214.980469 232.019531 214.886719 232.191406 214.78125 C 232.488281 214.597656 232.972656 214.394531 233.515625 214.226562 C 234.332031 213.972656 235.273438 213.785156 235.992188 213.675781 C 236.351562 213.621094 236.660156 213.582031 236.871094 213.554688 C 236.980469 213.542969 237.0625 213.535156 237.121094 213.527344 L 237.179688 213.519531 L 237.195312 213.519531 C 237.796875 213.46875 238.300781 213.058594 238.472656 212.488281 C 238.644531 211.917969 238.445312 211.304688 237.96875 210.9375 L 237.957031 210.925781 L 237.046875 212.066406 L 237.175781 213.507812 C 240.484375 213.230469 243.71875 211.78125 246.152344 209.171875 C 248.582031 206.5625 249.789062 203.253906 249.789062 199.972656 C 249.789062 196.296875 248.28125 192.625 245.324219 189.945312 C 242.675781 187.546875 239.320312 186.359375 235.988281 186.359375 C 232.261719 186.359375 228.535156 187.84375 225.816406 190.761719 C 223.386719 193.367188 222.195312 196.667969 222.191406 199.949219 L 223.660156 199.949219 L 224.769531 198.996094 L 224.761719 198.984375 C 224.359375 198.53125 223.714844 198.367188 223.140625 198.578125 C 222.566406 198.789062 222.183594 199.324219 222.183594 199.929688 L 222.179688 199.972656 C 222.175781 200.207031 222.148438 201.398438 221.960938 202.628906 C 221.867188 203.246094 221.738281 203.871094 221.574219 204.363281 C 221.488281 204.609375 221.402344 204.824219 221.316406 204.980469 C 221.230469 205.140625 221.152344 205.238281 221.117188 205.269531 L 221.101562 205.277344 C 221.085938 205.285156 221.035156 205.300781 220.941406 205.300781 C 220.777344 205.300781 220.480469 205.246094 220.140625 205.125 C 219.625 204.949219 219.023438 204.628906 218.496094 204.304688 C 217.964844 203.980469 217.515625 203.65625 217.230469 203.453125 L 216.363281 204.628906 L 217.363281 203.5625 L 197.582031 185.648438 C 197.292969 185.390625 196.910156 185.25 196.519531 185.269531 C 196.136719 185.285156 195.761719 185.457031 195.5 185.734375 L 177.332031 205.226562 L 178.414062 206.210938 L 177.457031 205.113281 C 177.089844 205.421875 176.410156 206.003906 175.664062 206.484375 C 175.296875 206.726562 174.914062 206.9375 174.582031 207.074219 C 174.25 207.210938 173.972656 207.265625 173.847656 207.265625 L 173.75 207.253906 L 173.738281 207.242188 C 173.699219 207.210938 173.601562 207.113281 173.496094 206.945312 C 173.3125 206.652344 173.105469 206.171875 172.933594 205.640625 C 172.675781 204.835938 172.492188 203.910156 172.378906 203.199219 C 172.320312 202.847656 172.28125 202.542969 172.253906 202.332031 C 172.242188 202.226562 172.234375 202.144531 172.226562 202.089844 L 172.222656 202.027344 L 172.21875 202.015625 C 172.164062 201.421875 171.753906 200.925781 171.171875 200.753906 C 170.597656 200.585938 169.972656 200.78125 169.601562 201.246094 L 169.585938 201.265625 L 170.742188 202.160156 L 172.207031 202.039062 C 171.921875 198.777344 170.453125 195.582031 167.804688 193.1875 L 166.808594 194.253906 "/>
</g>
<path style=" stroke:none;fill-rule:nonzero;fill:rgb(100%,100%,100%);fill-opacity:1;" d="M 90.480469 154.949219 C 93.308594 156.449219 95.289062 158.886719 96.269531 161.660156 L 96.277344 161.640625 C 96.277344 161.640625 97.933594 166.277344 99.804688 167.167969 C 101.667969 168.050781 104.03125 164.695312 104.71875 163.71875 L 117.457031 140.417969 L 141.101562 152.972656 C 142.089844 153.648438 145.496094 155.972656 144.597656 157.8125 C 143.691406 159.652344 138.988281 161.292969 138.988281 161.292969 L 139.007812 161.300781 C 136.199219 162.265625 133.722656 164.214844 132.199219 167 C 128.96875 172.910156 131.214844 180.285156 137.210938 183.472656 C 143.210938 186.65625 150.691406 184.445312 153.921875 178.535156 C 155.445312 175.746094 155.738281 172.640625 155.007812 169.796875 L 155.019531 169.800781 C 155.019531 169.800781 153.820312 165.03125 154.882812 163.277344 C 155.945312 161.519531 159.789062 163.046875 160.910156 163.488281 L 184.558594 176.042969 L 171.820312 199.347656 C 171.128906 200.320312 168.773438 203.679688 166.90625 202.792969 C 165.039062 201.90625 163.378906 197.265625 163.378906 197.265625 L 163.367188 197.285156 C 162.390625 194.515625 160.414062 192.078125 157.582031 190.578125 C 151.585938 187.390625 144.105469 189.601562 140.875 195.515625 C 137.640625 201.425781 139.886719 208.796875 145.882812 211.984375 C 148.714844 213.484375 151.863281 213.773438 154.75 213.054688 L 154.742188 213.066406 C 154.742188 213.066406 159.585938 211.882812 161.363281 212.933594 C 163.144531 213.980469 161.597656 217.765625 161.148438 218.871094 L 148.410156 242.179688 L 124.761719 229.625 C 123.640625 229.183594 119.796875 227.65625 118.730469 229.410156 C 117.667969 231.164062 118.871094 235.933594 118.871094 235.933594 L 118.863281 235.929688 C 119.589844 238.773438 119.296875 241.878906 117.773438 244.667969 C 114.539062 250.582031 107.0625 252.789062 101.0625 249.605469 C 95.066406 246.417969 92.824219 239.046875 96.054688 233.136719 C 97.574219 230.347656 100.050781 228.398438 102.859375 227.433594 L 102.839844 227.425781 C 102.839844 227.425781 107.546875 225.789062 108.445312 223.949219 C 109.347656 222.109375 105.941406 219.78125 104.949219 219.105469 L 81.308594 206.554688 L 94.046875 183.246094 C 94.492188 182.144531 96.042969 178.351562 94.261719 177.304688 C 92.484375 176.253906 87.640625 177.441406 87.640625 177.441406 L 87.648438 177.425781 C 84.765625 178.148438 81.609375 177.855469 78.78125 176.355469 C 72.785156 173.171875 70.542969 165.796875 73.773438 159.886719 C 77.003906 153.976562 84.484375 151.765625 90.480469 154.949219 "/>
<g clip-path="url(#clip3)" clip-rule="nonzero">
<path style=" stroke:none;fill-rule:nonzero;fill:rgb(13.729858%,12.159729%,12.548828%);fill-opacity:1;" d="M 90.480469 154.949219 L 89.78125 156.222656 C 92.277344 157.550781 94.011719 159.6875 94.878906 162.136719 C 95.078125 162.691406 95.597656 163.078125 96.195312 163.105469 C 96.792969 163.132812 97.351562 162.804688 97.605469 162.265625 L 97.613281 162.25 L 96.277344 161.640625 L 94.890625 162.121094 C 94.902344 162.15625 95.332031 163.359375 96.023438 164.71875 C 96.375 165.40625 96.789062 166.128906 97.28125 166.785156 C 97.53125 167.117188 97.796875 167.433594 98.097656 167.71875 C 98.402344 168.007812 98.746094 168.269531 99.167969 168.472656 C 99.582031 168.667969 100.039062 168.761719 100.460938 168.761719 C 101.296875 168.757812 101.980469 168.453125 102.554688 168.097656 C 103.421875 167.554688 104.109375 166.835938 104.683594 166.167969 C 105.253906 165.503906 105.695312 164.871094 105.925781 164.550781 L 106.015625 164.40625 L 118.054688 142.378906 L 140.402344 154.246094 L 141.101562 152.972656 L 140.257812 154.160156 C 140.476562 154.308594 140.792969 154.523438 141.148438 154.792969 C 141.675781 155.1875 142.285156 155.703125 142.707031 156.191406 C 142.917969 156.433594 143.078125 156.664062 143.167969 156.847656 C 143.261719 157.027344 143.273438 157.136719 143.273438 157.164062 L 143.269531 157.183594 L 143.273438 157.179688 C 143.25 157.230469 143.175781 157.34375 143.035156 157.488281 C 142.792969 157.738281 142.375 158.054688 141.886719 158.347656 C 141.160156 158.792969 140.296875 159.199219 139.625 159.480469 C 139.292969 159.625 139.003906 159.738281 138.804688 159.8125 C 138.703125 159.851562 138.621094 159.878906 138.570312 159.898438 L 138.511719 159.917969 L 138.5 159.925781 C 137.929688 160.121094 137.539062 160.644531 137.519531 161.242188 C 137.496094 161.835938 137.847656 162.382812 138.398438 162.621094 L 138.417969 162.628906 L 139.007812 161.300781 L 138.523438 159.929688 C 135.386719 161.003906 132.609375 163.195312 130.90625 166.3125 L 130.902344 166.3125 C 129.785156 168.363281 129.25 170.578125 129.25 172.753906 C 129.25 177.597656 131.882812 182.289062 136.515625 184.746094 C 138.59375 185.851562 140.839844 186.375 143.050781 186.375 C 147.960938 186.378906 152.71875 183.78125 155.214844 179.222656 C 156.332031 177.179688 156.859375 174.972656 156.859375 172.804688 C 156.859375 171.664062 156.714844 170.535156 156.433594 169.441406 L 155.007812 169.796875 L 154.265625 171.046875 L 154.28125 171.054688 C 154.789062 171.347656 155.429688 171.3125 155.902344 170.960938 C 156.375 170.613281 156.589844 170.015625 156.449219 169.453125 L 156.441406 169.4375 C 156.417969 169.332031 156.28125 168.761719 156.15625 168.011719 C 156.027344 167.261719 155.910156 166.324219 155.914062 165.519531 C 155.914062 165.140625 155.941406 164.789062 155.988281 164.523438 C 156.035156 164.253906 156.109375 164.070312 156.144531 164.019531 C 156.160156 164.007812 156.128906 164.019531 156.214844 163.976562 C 156.296875 163.945312 156.496094 163.898438 156.769531 163.902344 C 157.289062 163.898438 158.039062 164.046875 158.710938 164.25 C 159.394531 164.449219 160.003906 164.691406 160.363281 164.832031 L 160.910156 163.488281 L 160.210938 164.761719 L 182.566406 176.632812 L 170.527344 198.660156 L 171.820312 199.347656 L 170.617188 198.515625 C 170.460938 198.734375 170.242188 199.042969 169.972656 199.390625 C 169.570312 199.910156 169.046875 200.515625 168.550781 200.929688 C 168.308594 201.136719 168.070312 201.296875 167.886719 201.386719 C 167.703125 201.476562 167.589844 201.492188 167.566406 201.492188 L 167.542969 201.484375 C 167.5 201.464844 167.378906 201.390625 167.234375 201.253906 C 166.980469 201.015625 166.660156 200.601562 166.363281 200.125 C 165.914062 199.410156 165.5 198.558594 165.214844 197.898438 C 165.070312 197.566406 164.953125 197.28125 164.878906 197.085938 C 164.839844 196.984375 164.8125 196.90625 164.789062 196.855469 L 164.769531 196.800781 L 164.765625 196.785156 C 164.558594 196.210938 164.007812 195.824219 163.394531 195.816406 C 162.777344 195.8125 162.21875 196.183594 162 196.753906 L 161.992188 196.773438 L 163.367188 197.285156 L 164.757812 196.8125 C 163.671875 193.714844 161.449219 190.980469 158.28125 189.300781 C 156.203125 188.195312 153.957031 187.667969 151.742188 187.667969 C 146.835938 187.667969 142.074219 190.265625 139.582031 194.828125 C 138.460938 196.875 137.925781 199.089844 137.925781 201.269531 C 137.921875 206.113281 140.558594 210.800781 145.1875 213.257812 L 145.1875 213.261719 C 147.257812 214.359375 149.496094 214.878906 151.695312 214.878906 C 152.851562 214.878906 154 214.734375 155.109375 214.457031 L 154.75 213.054688 L 153.4375 212.40625 L 153.429688 212.417969 C 153.171875 212.921875 153.238281 213.53125 153.597656 213.972656 C 153.953125 214.414062 154.542969 214.609375 155.097656 214.476562 L 155.117188 214.46875 C 155.222656 214.445312 155.800781 214.308594 156.5625 214.1875 C 157.320312 214.0625 158.273438 213.945312 159.089844 213.949219 C 159.472656 213.945312 159.828125 213.972656 160.101562 214.023438 C 160.371094 214.066406 160.558594 214.140625 160.609375 214.175781 C 160.621094 214.1875 160.609375 214.15625 160.652344 214.242188 C 160.6875 214.324219 160.730469 214.519531 160.730469 214.792969 C 160.730469 215.304688 160.578125 216.039062 160.375 216.707031 C 160.171875 217.375 159.925781 217.976562 159.78125 218.332031 L 161.148438 218.871094 L 159.851562 218.183594 L 147.8125 240.214844 L 125.460938 228.347656 L 125.304688 228.277344 C 124.941406 228.132812 124.234375 227.855469 123.410156 227.609375 C 122.578125 227.363281 121.621094 227.140625 120.621094 227.136719 C 120.085938 227.136719 119.523438 227.199219 118.960938 227.425781 C 118.394531 227.644531 117.828125 228.070312 117.472656 228.667969 C 117.179688 229.152344 117.035156 229.652344 116.941406 230.148438 C 116.851562 230.644531 116.824219 231.148438 116.824219 231.648438 C 116.824219 232.78125 116.984375 233.914062 117.136719 234.785156 C 117.289062 235.65625 117.4375 236.261719 117.445312 236.285156 L 118.871094 235.933594 L 119.695312 234.738281 L 119.6875 234.730469 C 119.183594 234.390625 118.515625 234.398438 118.015625 234.738281 C 117.519531 235.085938 117.289062 235.699219 117.433594 236.28125 C 117.65625 237.148438 117.769531 238.042969 117.769531 238.9375 C 117.769531 240.644531 117.359375 242.367188 116.476562 243.980469 C 114.515625 247.574219 110.773438 249.609375 106.898438 249.613281 C 105.160156 249.613281 103.402344 249.203125 101.757812 248.328125 L 101.761719 248.328125 C 98.117188 246.394531 96.046875 242.703125 96.046875 238.890625 C 96.046875 237.175781 96.464844 235.441406 97.347656 233.824219 C 98.691406 231.367188 100.859375 229.65625 103.34375 228.800781 C 103.914062 228.605469 104.304688 228.085938 104.328125 227.488281 C 104.351562 226.894531 104.003906 226.347656 103.453125 226.105469 L 103.433594 226.097656 L 102.839844 227.425781 L 103.328125 228.792969 C 103.367188 228.777344 104.585938 228.355469 105.964844 227.671875 C 106.660156 227.328125 107.394531 226.921875 108.0625 226.4375 C 108.398438 226.191406 108.714844 225.929688 109.007812 225.628906 C 109.296875 225.328125 109.566406 224.992188 109.769531 224.578125 C 109.972656 224.167969 110.070312 223.71875 110.066406 223.296875 C 110.058594 222.476562 109.753906 221.800781 109.394531 221.234375 C 108.839844 220.378906 108.113281 219.703125 107.433594 219.136719 C 106.757812 218.578125 106.121094 218.140625 105.789062 217.914062 L 105.648438 217.828125 L 83.300781 205.964844 L 95.34375 183.933594 L 95.414062 183.78125 C 95.558594 183.417969 95.84375 182.726562 96.089844 181.914062 C 96.335938 181.09375 96.5625 180.152344 96.566406 179.164062 C 96.566406 178.636719 96.503906 178.085938 96.277344 177.523438 C 96.054688 176.972656 95.625 176.410156 95.015625 176.058594 L 95.019531 176.0625 C 94.523438 175.773438 94.019531 175.628906 93.515625 175.539062 C 93.007812 175.449219 92.492188 175.421875 91.984375 175.417969 C 90.835938 175.421875 89.691406 175.578125 88.804688 175.726562 C 87.921875 175.878906 87.3125 176.027344 87.285156 176.035156 L 87.640625 177.441406 L 88.992188 178.015625 L 88.996094 178 C 89.21875 177.496094 89.128906 176.90625 88.765625 176.484375 C 88.402344 176.066406 87.824219 175.886719 87.285156 176.023438 C 86.40625 176.238281 85.503906 176.351562 84.589844 176.351562 C 82.863281 176.351562 81.117188 175.945312 79.476562 175.078125 L 79.480469 175.078125 C 75.835938 173.144531 73.769531 169.457031 73.769531 165.644531 C 73.769531 163.925781 74.183594 162.195312 75.070312 160.574219 C 77.03125 156.984375 80.773438 154.945312 84.644531 154.941406 C 86.382812 154.941406 88.140625 155.351562 89.78125 156.226562 L 89.78125 156.222656 L 90.480469 154.949219 L 91.179688 153.671875 C 89.101562 152.570312 86.855469 152.042969 84.644531 152.042969 C 79.730469 152.042969 74.972656 154.636719 72.476562 159.199219 C 71.359375 161.25 70.824219 163.464844 70.824219 165.644531 C 70.824219 170.480469 73.457031 175.171875 78.085938 177.632812 C 80.15625 178.730469 82.394531 179.253906 84.589844 179.253906 C 85.75 179.253906 86.898438 179.109375 88.011719 178.832031 L 87.648438 177.425781 L 86.296875 176.851562 L 86.292969 176.863281 C 86.070312 177.371094 86.160156 177.957031 86.519531 178.378906 C 86.882812 178.796875 87.457031 178.976562 87.996094 178.84375 L 88.011719 178.84375 C 88.117188 178.816406 88.695312 178.683594 89.457031 178.558594 C 90.214844 178.429688 91.167969 178.316406 91.984375 178.316406 C 92.371094 178.316406 92.722656 178.34375 92.996094 178.394531 C 93.269531 178.441406 93.453125 178.511719 93.507812 178.546875 L 93.511719 178.550781 C 93.523438 178.5625 93.507812 178.53125 93.546875 178.617188 C 93.585938 178.699219 93.628906 178.894531 93.625 179.164062 C 93.632812 179.675781 93.480469 180.414062 93.273438 181.078125 C 93.070312 181.75 92.828125 182.351562 92.679688 182.707031 L 94.046875 183.246094 L 92.753906 182.554688 L 80.011719 205.863281 C 79.828125 206.203125 79.789062 206.605469 79.898438 206.96875 C 80.007812 207.335938 80.269531 207.648438 80.609375 207.828125 L 104.25 220.378906 L 104.949219 219.105469 L 104.109375 220.296875 C 104.328125 220.445312 104.644531 220.660156 105 220.925781 C 105.523438 221.320312 106.136719 221.835938 106.558594 222.324219 C 106.769531 222.566406 106.929688 222.796875 107.019531 222.976562 C 107.113281 223.15625 107.125 223.269531 107.125 223.296875 L 107.121094 223.316406 L 107.121094 223.320312 C 107.097656 223.363281 107.023438 223.480469 106.882812 223.625 C 106.644531 223.875 106.222656 224.191406 105.738281 224.484375 C 105.015625 224.925781 104.148438 225.332031 103.480469 225.617188 C 103.144531 225.757812 102.855469 225.871094 102.65625 225.945312 C 102.554688 225.984375 102.476562 226.015625 102.425781 226.03125 L 102.367188 226.054688 L 102.351562 226.058594 C 101.785156 226.253906 101.394531 226.777344 101.375 227.371094 C 101.351562 227.964844 101.699219 228.511719 102.25 228.753906 L 102.265625 228.761719 L 102.859375 227.433594 L 102.375 226.0625 C 99.238281 227.136719 96.460938 229.328125 94.757812 232.449219 C 93.636719 234.496094 93.105469 236.714844 93.105469 238.890625 C 93.101562 243.730469 95.738281 248.421875 100.363281 250.882812 C 102.441406 251.984375 104.691406 252.511719 106.898438 252.511719 C 111.8125 252.515625 116.574219 249.917969 119.066406 245.355469 C 120.1875 243.3125 120.710938 241.105469 120.710938 238.9375 C 120.710938 237.796875 120.566406 236.667969 120.285156 235.574219 L 118.863281 235.929688 L 118.035156 237.128906 L 118.046875 237.136719 C 118.550781 237.472656 119.214844 237.464844 119.714844 237.125 C 120.210938 236.78125 120.445312 236.167969 120.296875 235.585938 L 120.292969 235.570312 C 120.269531 235.464844 120.132812 234.894531 120.007812 234.144531 C 119.878906 233.394531 119.761719 232.457031 119.765625 231.648438 C 119.761719 231.273438 119.792969 230.921875 119.839844 230.65625 C 119.886719 230.386719 119.960938 230.203125 119.996094 230.152344 C 120.011719 230.140625 119.980469 230.152344 120.066406 230.109375 C 120.144531 230.078125 120.34375 230.035156 120.621094 230.035156 C 121.140625 230.03125 121.890625 230.183594 122.5625 230.386719 C 123.246094 230.585938 123.851562 230.828125 124.214844 230.96875 L 124.761719 229.625 L 124.0625 230.898438 L 147.710938 243.453125 C 148.050781 243.636719 148.460938 243.679688 148.832031 243.566406 C 149.203125 243.457031 149.519531 243.203125 149.703125 242.867188 L 162.445312 219.558594 L 162.511719 219.410156 C 162.660156 219.046875 162.945312 218.351562 163.191406 217.539062 C 163.4375 216.71875 163.667969 215.78125 163.671875 214.792969 C 163.667969 214.265625 163.605469 213.714844 163.378906 213.152344 C 163.15625 212.597656 162.726562 212.039062 162.117188 211.6875 L 162.121094 211.6875 C 161.625 211.398438 161.121094 211.253906 160.613281 211.164062 C 160.113281 211.078125 159.601562 211.050781 159.089844 211.050781 C 157.941406 211.050781 156.792969 211.203125 155.910156 211.355469 C 155.027344 211.503906 154.414062 211.65625 154.390625 211.660156 L 154.742188 213.066406 L 156.058594 213.714844 L 156.066406 213.703125 C 156.324219 213.191406 156.257812 212.589844 155.898438 212.144531 C 155.535156 211.703125 154.949219 211.507812 154.390625 211.648438 C 153.511719 211.867188 152.605469 211.980469 151.695312 211.980469 C 149.960938 211.980469 148.214844 211.574219 146.578125 210.707031 L 146.582031 210.707031 C 142.9375 208.773438 140.871094 205.082031 140.867188 201.269531 C 140.867188 199.554688 141.285156 197.820312 142.167969 196.203125 C 144.132812 192.609375 147.875 190.570312 151.742188 190.570312 C 153.484375 190.570312 155.242188 190.980469 156.886719 191.855469 C 159.378906 193.175781 161.113281 195.3125 161.980469 197.761719 C 162.183594 198.335938 162.734375 198.726562 163.351562 198.738281 C 163.96875 198.746094 164.53125 198.367188 164.746094 197.796875 L 164.753906 197.78125 L 163.378906 197.265625 L 161.988281 197.75 C 162.003906 197.785156 162.433594 198.984375 163.128906 200.351562 C 163.476562 201.03125 163.890625 201.753906 164.382812 202.414062 C 164.628906 202.746094 164.898438 203.058594 165.203125 203.34375 C 165.507812 203.632812 165.847656 203.898438 166.265625 204.097656 L 166.269531 204.097656 C 166.679688 204.296875 167.136719 204.390625 167.566406 204.390625 C 168.398438 204.382812 169.085938 204.078125 169.660156 203.726562 C 170.523438 203.179688 171.210938 202.460938 171.785156 201.796875 C 172.355469 201.132812 172.796875 200.5 173.027344 200.175781 L 173.117188 200.03125 L 185.851562 176.734375 C 186.238281 176.027344 185.96875 175.148438 185.253906 174.769531 L 161.609375 162.210938 L 161.457031 162.140625 C 161.089844 161.996094 160.386719 161.71875 159.558594 161.472656 C 158.726562 161.230469 157.773438 161.003906 156.769531 161.003906 C 156.238281 161.003906 155.675781 161.066406 155.109375 161.292969 C 154.546875 161.507812 153.976562 161.933594 153.621094 162.535156 C 153.328125 163.019531 153.1875 163.515625 153.09375 164.015625 C 153.003906 164.511719 152.972656 165.015625 152.972656 165.519531 C 152.972656 166.648438 153.132812 167.78125 153.285156 168.652344 C 153.4375 169.523438 153.589844 170.128906 153.59375 170.148438 L 155.019531 169.800781 L 155.761719 168.550781 L 155.75 168.542969 C 155.238281 168.25 154.597656 168.289062 154.121094 168.636719 C 153.652344 168.988281 153.4375 169.585938 153.582031 170.148438 C 153.804688 171.015625 153.917969 171.910156 153.917969 172.804688 C 153.917969 174.511719 153.507812 176.234375 152.625 177.847656 C 150.664062 181.4375 146.921875 183.476562 143.050781 183.476562 C 141.308594 183.476562 139.550781 183.066406 137.910156 182.195312 C 134.261719 180.261719 132.195312 176.570312 132.191406 172.753906 C 132.191406 171.042969 132.609375 169.308594 133.496094 167.691406 C 134.839844 165.234375 137.007812 163.523438 139.492188 162.667969 C 140.0625 162.472656 140.453125 161.949219 140.476562 161.355469 C 140.5 160.757812 140.148438 160.210938 139.59375 159.972656 L 139.574219 159.964844 L 138.988281 161.292969 L 139.476562 162.660156 C 139.511719 162.644531 140.730469 162.222656 142.113281 161.539062 C 142.808594 161.191406 143.542969 160.785156 144.210938 160.300781 C 144.546875 160.058594 144.863281 159.792969 145.15625 159.492188 C 145.445312 159.195312 145.714844 158.855469 145.921875 158.445312 L 145.921875 158.441406 C 146.121094 158.03125 146.21875 157.585938 146.21875 157.164062 C 146.210938 156.34375 145.902344 155.664062 145.542969 155.101562 C 144.992188 154.246094 144.261719 153.566406 143.585938 153 C 142.910156 152.445312 142.269531 152.007812 141.941406 151.78125 L 141.800781 151.695312 L 118.152344 139.140625 C 117.4375 138.761719 116.546875 139.023438 116.160156 139.730469 L 103.425781 163.03125 L 104.71875 163.71875 L 103.511719 162.886719 C 103.359375 163.105469 103.144531 163.414062 102.871094 163.761719 C 102.46875 164.285156 101.945312 164.886719 101.449219 165.304688 C 101.203125 165.511719 100.96875 165.671875 100.785156 165.757812 C 100.601562 165.851562 100.488281 165.863281 100.460938 165.863281 L 100.445312 165.859375 L 100.441406 165.859375 C 100.394531 165.839844 100.277344 165.765625 100.136719 165.625 C 99.878906 165.386719 99.558594 164.976562 99.261719 164.5 C 98.8125 163.78125 98.398438 162.929688 98.113281 162.269531 C 97.96875 161.941406 97.855469 161.65625 97.777344 161.457031 C 97.738281 161.359375 97.710938 161.28125 97.691406 161.230469 L 97.671875 161.171875 L 97.664062 161.160156 C 97.464844 160.601562 96.945312 160.21875 96.347656 160.191406 C 95.746094 160.164062 95.191406 160.496094 94.941406 161.035156 L 94.933594 161.050781 L 96.269531 161.660156 L 97.660156 161.179688 C 96.566406 158.085938 94.34375 155.351562 91.179688 153.671875 L 90.480469 154.949219 "/>
</g>
</g>
</svg>
