<?xml version="1.0" encoding="UTF-8"?>
<svg xmlns="http://www.w3.org/2000/svg" xmlns:xlink="http://www.w3.org/1999/xlink" width="375pt" height="374.999991pt" viewBox="0 0 375 374.999991" version="1.2">
<g id="surface1">
<path style=" stroke:none;fill-rule:nonzero;fill:rgb(0%,0%,0%);fill-opacity:1;" d="M 187.5 0 C 84.042969 0 0 84.042969 0 187.5 C 0 290.957031 84.042969 375 187.5 375 C 290.957031 375 375 290.957031 375 187.5 C 375 84.042969 290.957031 0 187.5 0 Z M 187.5 16.304688 C 282.144531 16.304688 358.695312 92.855469 358.695312 187.5 C 358.695312 282.144531 282.144531 358.695312 187.5 358.695312 C 92.855469 358.695312 16.304688 282.144531 16.304688 187.5 C 16.304688 92.855469 92.855469 16.304688 187.5 16.304688 Z M 114.128906 81.523438 C 100.71875 81.523438 89.675781 92.566406 89.675781 105.976562 C 89.675781 119.386719 100.71875 130.433594 114.128906 130.433594 C 127.539062 130.433594 138.585938 119.386719 138.585938 105.976562 C 138.585938 92.566406 127.539062 81.523438 114.128906 81.523438 Z M 114.128906 97.824219 C 118.730469 97.824219 122.28125 101.378906 122.28125 105.976562 C 122.28125 110.578125 118.730469 114.128906 114.128906 114.128906 C 109.53125 114.128906 105.976562 110.578125 105.976562 105.976562 C 105.976562 101.378906 109.53125 97.824219 114.128906 97.824219 Z M 97.824219 138.585938 C 97.289062 138.585938 96.761719 138.640625 96.234375 138.742188 C 95.710938 138.847656 95.199219 139.003906 94.707031 139.207031 C 94.210938 139.414062 93.742188 139.664062 93.296875 139.960938 C 92.851562 140.257812 92.441406 140.597656 92.0625 140.976562 C 91.683594 141.355469 91.34375 141.765625 91.046875 142.210938 C 90.75 142.65625 90.5 143.125 90.292969 143.621094 C 90.089844 144.113281 89.933594 144.625 89.832031 145.148438 C 89.726562 145.675781 89.675781 146.203125 89.675781 146.738281 L 89.675781 269.023438 C 89.675781 269.558594 89.726562 270.085938 89.832031 270.613281 C 89.933594 271.136719 90.089844 271.648438 90.296875 272.140625 C 90.5 272.636719 90.75 273.105469 91.046875 273.550781 C 91.347656 273.996094 91.683594 274.40625 92.0625 274.785156 C 92.441406 275.164062 92.851562 275.503906 93.296875 275.800781 C 93.742188 276.097656 94.210938 276.347656 94.707031 276.554688 C 95.203125 276.757812 95.710938 276.914062 96.234375 277.015625 C 96.761719 277.121094 97.289062 277.175781 97.824219 277.175781 L 130.433594 277.175781 C 130.96875 277.171875 131.5 277.121094 132.023438 277.015625 C 132.550781 276.914062 133.058594 276.757812 133.554688 276.554688 C 134.050781 276.347656 134.519531 276.097656 134.964844 275.800781 C 135.410156 275.503906 135.820312 275.164062 136.199219 274.785156 C 136.578125 274.40625 136.914062 273.996094 137.214844 273.550781 C 137.511719 273.105469 137.761719 272.636719 137.964844 272.140625 C 138.171875 271.648438 138.324219 271.136719 138.429688 270.613281 C 138.535156 270.085938 138.585938 269.558594 138.585938 269.023438 L 138.585938 146.738281 C 138.585938 146.203125 138.535156 145.671875 138.429688 145.148438 C 138.324219 144.625 138.171875 144.113281 137.964844 143.621094 C 137.761719 143.125 137.511719 142.65625 137.210938 142.210938 C 136.914062 141.765625 136.578125 141.351562 136.199219 140.972656 C 135.820312 140.597656 135.410156 140.257812 134.964844 139.960938 C 134.519531 139.664062 134.046875 139.414062 133.554688 139.207031 C 133.058594 139.003906 132.550781 138.847656 132.023438 138.742188 C 131.5 138.640625 130.96875 138.585938 130.433594 138.585938 Z M 163.042969 138.585938 C 162.507812 138.585938 161.976562 138.640625 161.453125 138.742188 C 160.929688 138.847656 160.417969 139.003906 159.921875 139.207031 C 159.429688 139.414062 158.960938 139.664062 158.515625 139.960938 C 158.070312 140.257812 157.65625 140.597656 157.277344 140.976562 C 156.902344 141.355469 156.5625 141.765625 156.265625 142.210938 C 155.96875 142.65625 155.714844 143.125 155.511719 143.621094 C 155.308594 144.113281 155.152344 144.625 155.046875 145.148438 C 154.945312 145.675781 154.890625 146.203125 154.890625 146.738281 L 154.890625 269.023438 C 154.890625 269.558594 154.945312 270.085938 155.046875 270.613281 C 155.152344 271.136719 155.308594 271.648438 155.511719 272.140625 C 155.71875 272.636719 155.96875 273.105469 156.265625 273.550781 C 156.5625 273.996094 156.902344 274.40625 157.28125 274.785156 C 157.65625 275.164062 158.070312 275.503906 158.515625 275.800781 C 158.960938 276.097656 159.429688 276.347656 159.925781 276.554688 C 160.417969 276.757812 160.929688 276.914062 161.453125 277.015625 C 161.976562 277.121094 162.507812 277.175781 163.042969 277.175781 L 195.652344 277.175781 C 196.1875 277.171875 196.71875 277.121094 197.242188 277.015625 C 197.769531 276.914062 198.277344 276.757812 198.773438 276.554688 C 199.265625 276.347656 199.734375 276.097656 200.179688 275.800781 C 200.625 275.503906 201.039062 275.164062 201.417969 274.785156 C 201.796875 274.40625 202.132812 273.996094 202.429688 273.550781 C 202.726562 273.105469 202.980469 272.636719 203.183594 272.140625 C 203.386719 271.648438 203.542969 271.136719 203.648438 270.613281 C 203.753906 270.085938 203.804688 269.558594 203.804688 269.023438 L 203.804688 207.878906 C 203.804688 196.632812 212.9375 187.5 224.183594 187.5 C 235.429688 187.5 244.566406 196.632812 244.566406 207.878906 L 244.566406 269.023438 C 244.566406 269.558594 244.617188 270.085938 244.722656 270.613281 C 244.828125 271.136719 244.980469 271.648438 245.1875 272.140625 C 245.390625 272.636719 245.640625 273.105469 245.941406 273.550781 C 246.238281 273.996094 246.574219 274.40625 246.953125 274.785156 C 247.332031 275.164062 247.742188 275.503906 248.1875 275.800781 C 248.632812 276.097656 249.105469 276.347656 249.597656 276.554688 C 250.09375 276.757812 250.601562 276.914062 251.128906 277.015625 C 251.652344 277.121094 252.183594 277.175781 252.71875 277.175781 L 285.324219 277.175781 C 285.863281 277.171875 286.390625 277.121094 286.917969 277.015625 C 287.441406 276.914062 287.953125 276.757812 288.445312 276.554688 C 288.941406 276.347656 289.410156 276.097656 289.855469 275.800781 C 290.300781 275.503906 290.710938 275.164062 291.089844 274.785156 C 291.46875 274.40625 291.808594 273.996094 292.105469 273.550781 C 292.402344 273.105469 292.652344 272.636719 292.859375 272.140625 C 293.0625 271.648438 293.21875 271.136719 293.320312 270.613281 C 293.425781 270.085938 293.476562 269.558594 293.476562 269.023438 L 293.476562 199.726562 C 293.476562 166.054688 266.007812 138.585938 232.335938 138.585938 C 221.847656 138.585938 212.445312 141.980469 203.804688 146.660156 C 203.800781 146.128906 203.742188 145.601562 203.632812 145.082031 C 203.527344 144.558594 203.367188 144.054688 203.160156 143.5625 C 202.953125 143.074219 202.699219 142.609375 202.402344 142.167969 C 202.105469 141.726562 201.765625 141.320312 201.386719 140.945312 C 201.011719 140.570312 200.601562 140.238281 200.15625 139.945312 C 199.714844 139.648438 199.246094 139.402344 198.753906 139.199219 C 198.261719 138.996094 197.753906 138.84375 197.234375 138.742188 C 196.710938 138.636719 196.183594 138.585938 195.652344 138.585938 Z M 105.976562 154.890625 L 122.28125 154.890625 L 122.28125 260.871094 L 105.976562 260.871094 Z M 171.195312 154.890625 L 187.5 154.890625 L 187.5 161.546875 C 187.5 162.347656 187.617188 163.128906 187.84375 163.894531 C 188.074219 164.660156 188.410156 165.375 188.851562 166.042969 C 189.292969 166.710938 189.820312 167.300781 190.433594 167.808594 C 191.050781 168.320312 191.722656 168.734375 192.460938 169.046875 C 193.195312 169.359375 193.960938 169.5625 194.753906 169.648438 C 195.550781 169.738281 196.339844 169.707031 197.125 169.566406 C 197.914062 169.421875 198.660156 169.164062 199.375 168.800781 C 200.085938 168.4375 200.726562 167.976562 201.304688 167.421875 C 209.382812 159.664062 220.246094 154.890625 232.335938 154.890625 C 257.199219 154.890625 277.175781 174.867188 277.175781 199.726562 L 277.175781 260.871094 L 260.871094 260.871094 L 260.871094 207.878906 C 260.871094 187.742188 244.324219 171.195312 224.183594 171.195312 C 204.046875 171.195312 187.5 187.742188 187.5 207.878906 L 187.5 260.871094 L 171.195312 260.871094 Z M 171.195312 154.890625 "/>
</g>
</svg>
