<?xml version="1.0" encoding="UTF-8"?>
<svg xmlns="http://www.w3.org/2000/svg" xmlns:xlink="http://www.w3.org/1999/xlink" width="375pt" height="374.999991pt" viewBox="0 0 375 374.999991" version="1.2">
<defs>
<clipPath id="clip1">
  <path d="M 0 0 L 281.25 0 L 281.25 375 L 0 375 Z M 0 0 "/>
</clipPath>
</defs>
<g id="surface1">
<g clip-path="url(#clip1)" clip-rule="nonzero">
<path style=" stroke:none;fill-rule:nonzero;fill:rgb(0%,0%,0%);fill-opacity:1;" d="M 140.625 0 C 63.070312 0 0 63.070312 0 140.625 C 0 238.101562 126.9375 366.164062 132.328125 371.578125 C 134.625 373.851562 137.625 375 140.625 375 C 143.625 375 146.625 373.851562 148.921875 371.578125 C 154.3125 366.164062 281.25 238.101562 281.25 140.625 C 281.25 63.070312 218.179688 0 140.625 0 Z M 140.625 210.9375 C 101.859375 210.9375 70.3125 179.390625 70.3125 140.625 C 70.3125 101.859375 101.859375 70.3125 140.625 70.3125 C 179.390625 70.3125 210.9375 101.859375 210.9375 140.625 C 210.9375 179.390625 179.390625 210.9375 140.625 210.9375 Z M 140.625 210.9375 "/>
</g>
</g>
</svg>
