<?xml version="1.0" encoding="UTF-8"?>
<svg xmlns="http://www.w3.org/2000/svg" xmlns:xlink="http://www.w3.org/1999/xlink" width="375pt" height="374.999991pt" viewBox="0 0 375 374.999991" version="1.2">
<g id="surface1">
<path style=" stroke:none;fill-rule:nonzero;fill:rgb(95.689392%,87.449646%,25.489807%);fill-opacity:1;" d="M 271.175781 32.257812 C 271.175781 32.257812 264.328125 26.703125 258.179688 22.644531 C 232.554688 5.691406 208.617188 -0.0585938 187.296875 0.347656 C 165.980469 -0.0585938 142.042969 5.691406 116.417969 22.644531 C 110.269531 26.703125 103.421875 32.257812 103.421875 32.257812 C 12.738281 111.433594 73.898438 207.832031 114.03125 250.613281 C 115.914062 252.597656 117.71875 254.480469 119.425781 256.226562 C 128.714844 266.792969 147.472656 292.15625 155.058594 331.789062 L 219.558594 331.789062 C 227.101562 292.15625 245.878906 266.792969 255.171875 256.226562 C 256.898438 254.480469 258.683594 252.597656 260.5625 250.613281 C 300.699219 207.832031 361.859375 111.433594 271.175781 32.257812 "/>
<path style="fill:none;stroke-width:40;stroke-linecap:round;stroke-linejoin:round;stroke:rgb(90.979004%,90.979004%,90.979004%);stroke-opacity:1;stroke-miterlimit:10;" d="M 1922.806293 1988.795726 C 1922.806293 1988.795726 2034.307487 1870.803566 2008.108633 1531.993483 " transform="matrix(0.193979,0,0,-0.1942,-225.101508,600.466065)"/>
<path style="fill:none;stroke-width:40;stroke-linecap:round;stroke-linejoin:round;stroke:rgb(90.979004%,90.979004%,90.979004%);stroke-opacity:1;stroke-miterlimit:10;" d="M 2309.606895 1988.795726 C 2309.606895 1988.795726 2186.808578 1868.208784 2213.309494 1531.993483 " transform="matrix(0.193979,0,0,-0.1942,-225.101508,600.466065)"/>
<path style=" stroke:none;fill-rule:nonzero;fill:rgb(21.958923%,20.779419%,21.179199%);fill-opacity:1;" d="M 216.609375 345.035156 C 216.609375 361.503906 203.496094 374.863281 187.296875 374.863281 C 171.121094 374.863281 157.988281 361.503906 157.988281 345.035156 C 157.988281 328.566406 171.121094 315.207031 187.296875 315.207031 C 203.496094 315.207031 216.609375 328.566406 216.609375 345.035156 "/>
<path style=" stroke:none;fill-rule:nonzero;fill:rgb(21.958923%,20.779419%,21.179199%);fill-opacity:1;" d="M 237.925781 330.957031 C 237.925781 335.460938 234.28125 339.113281 229.78125 339.113281 L 145.574219 339.113281 C 141.074219 339.113281 137.40625 335.460938 137.40625 330.957031 C 137.40625 326.449219 141.074219 322.78125 145.574219 322.78125 L 229.78125 322.78125 C 234.28125 322.78125 237.925781 326.449219 237.925781 330.957031 "/>
<path style=" stroke:none;fill-rule:nonzero;fill:rgb(21.958923%,20.779419%,21.179199%);fill-opacity:1;" d="M 237.925781 315.789062 C 237.925781 320.292969 234.28125 323.945312 229.78125 323.945312 L 145.574219 323.945312 C 141.074219 323.945312 137.40625 320.292969 137.40625 315.789062 C 137.40625 311.261719 141.074219 307.613281 145.574219 307.613281 L 229.78125 307.613281 C 234.28125 307.613281 237.925781 311.261719 237.925781 315.789062 "/>
<path style=" stroke:none;fill-rule:nonzero;fill:rgb(21.958923%,20.779419%,21.179199%);fill-opacity:1;" d="M 237.925781 302.503906 C 237.925781 307.011719 234.28125 310.660156 229.78125 310.660156 L 145.574219 310.660156 C 141.074219 310.660156 137.40625 307.011719 137.40625 302.503906 C 137.40625 298 141.074219 294.347656 145.574219 294.347656 L 229.78125 294.347656 C 234.28125 294.347656 237.925781 298 237.925781 302.503906 "/>
<path style=" stroke:none;fill-rule:nonzero;fill:rgb(21.958923%,20.779419%,21.179199%);fill-opacity:1;" d="M 237.925781 345.851562 C 237.925781 350.355469 234.28125 354.007812 229.78125 354.007812 L 145.574219 354.007812 C 141.074219 354.007812 137.40625 350.355469 137.40625 345.851562 C 137.40625 341.34375 141.074219 337.675781 145.574219 337.675781 L 229.78125 337.675781 C 234.28125 337.675781 237.925781 341.34375 237.925781 345.851562 "/>
<path style=" stroke:none;fill-rule:nonzero;fill:rgb(91.758728%,69.018555%,45.878601%);fill-opacity:1;" d="M 209.199219 52.007812 C 214.339844 52.007812 218.9375 54.238281 221.941406 57.753906 C 223.960938 57.152344 226.074219 56.824219 228.304688 56.824219 C 239.011719 56.824219 247.703125 64.28125 247.703125 73.484375 C 247.703125 73.640625 247.683594 73.796875 247.664062 73.933594 C 253.40625 76.476562 257.324219 81.582031 257.324219 87.488281 C 257.324219 90.769531 256.101562 93.796875 254.066406 96.285156 C 259.515625 99.972656 263.027344 105.664062 263.027344 112.09375 C 263.027344 115.453125 262.058594 118.597656 260.390625 121.375 C 269.566406 125.355469 275.867188 133.53125 275.867188 142.988281 C 275.867188 152.195312 269.914062 160.195312 261.125 164.292969 C 262.347656 166.738281 263.027344 169.421875 263.027344 172.253906 C 263.027344 177.945312 260.253906 183.089844 255.832031 186.761719 C 256.78125 188.625 257.324219 190.703125 257.324219 192.878906 C 257.324219 199.25 252.765625 204.707031 246.289062 206.976562 C 247.199219 208.902344 247.703125 211 247.703125 213.210938 C 247.703125 222.417969 239.011719 229.875 228.304688 229.875 C 225.164062 229.875 222.195312 229.214844 219.558594 228.070312 C 216.726562 230.242188 213.117188 231.542969 209.199219 231.542969 C 200.101562 231.542969 192.710938 224.574219 192.710938 215.96875 L 192.710938 67.582031 C 192.710938 58.980469 200.101562 52.007812 209.199219 52.007812 "/>
<path style="fill:none;stroke-width:20;stroke-linecap:round;stroke-linejoin:round;stroke:rgb(98.039246%,79.60968%,63.139343%);stroke-opacity:1;stroke-miterlimit:10;" d="M 2304.391289 2785.594812 C 2304.391289 2785.594812 2341.101904 2749.408672 2295.490525 2713.202418 " transform="matrix(0.193979,0,0,-0.1942,-225.101508,600.466065)"/>
<path style="fill:none;stroke-width:20;stroke-linecap:round;stroke-linejoin:round;stroke:rgb(98.039246%,79.60968%,63.139343%);stroke-opacity:1;stroke-miterlimit:10;" d="M 2308.499334 1999.798404 C 2308.499334 1999.798404 2341.303279 1960.494504 2292.208117 1928.592771 " transform="matrix(0.193979,0,0,-0.1942,-225.101508,600.466065)"/>
<path style="fill:none;stroke-width:20;stroke-linecap:round;stroke-linejoin:round;stroke:rgb(98.039246%,79.60968%,63.139343%);stroke-opacity:1;stroke-miterlimit:10;" d="M 2427.592355 2713.805855 C 2427.592355 2713.805855 2389.190192 2735.610066 2363.595463 2708.294459 " transform="matrix(0.193979,0,0,-0.1942,-225.101508,600.466065)"/>
<path style="fill:none;stroke-width:20;stroke-linecap:round;stroke-linejoin:round;stroke:rgb(98.039246%,79.60968%,63.139343%);stroke-opacity:1;stroke-miterlimit:10;" d="M 2473.203734 2136.396556 C 2464.806407 2151.603183 2447.991617 2166.990841 2415.107121 2169.505164 " transform="matrix(0.193979,0,0,-0.1942,-225.101508,600.466065)"/>
<path style="fill:none;stroke-width:20;stroke-linecap:round;stroke-linejoin:round;stroke:rgb(98.039246%,79.60968%,63.139343%);stroke-opacity:1;stroke-miterlimit:10;" d="M 2558.002637 2286.290449 C 2558.002637 2286.290449 2497.509665 2197.001803 2385.907784 2265.290822 " transform="matrix(0.193979,0,0,-0.1942,-225.101508,600.466065)"/>
<path style="fill:none;stroke-width:20;stroke-linecap:round;stroke-linejoin:round;stroke:rgb(98.039246%,79.60968%,63.139343%);stroke-opacity:1;stroke-miterlimit:10;" d="M 2430.391464 1962.606535 C 2430.391464 1962.606535 2465.10847 2034.596638 2368.307632 2087.296852 " transform="matrix(0.193979,0,0,-0.1942,-225.101508,600.466065)"/>
<path style="fill:none;stroke-width:20;stroke-linecap:round;stroke-linejoin:round;stroke:rgb(98.039246%,79.60968%,63.139343%);stroke-opacity:1;stroke-miterlimit:10;" d="M 2511.50521 2544.099095 C 2511.50521 2544.099095 2486.796529 2636.606075 2368.307632 2596.79931 " transform="matrix(0.193979,0,0,-0.1942,-225.101508,600.466065)"/>
<path style="fill:none;stroke-width:20;stroke-linecap:round;stroke-linejoin:round;stroke:rgb(98.039246%,79.60968%,63.139343%);stroke-opacity:1;stroke-miterlimit:10;" d="M 2482.205185 2446.804844 C 2482.205185 2446.804844 2450.609488 2411.805465 2398.69508 2430.190196 " transform="matrix(0.193979,0,0,-0.1942,-225.101508,600.466065)"/>
<path style=" stroke:none;fill-rule:nonzero;fill:rgb(91.758728%,69.018555%,45.878601%);fill-opacity:1;" d="M 165.417969 52.007812 C 160.257812 52.007812 155.660156 54.238281 152.632812 57.753906 C 150.65625 57.152344 148.523438 56.824219 146.289062 56.824219 C 135.582031 56.824219 126.894531 64.28125 126.894531 73.484375 C 126.894531 73.640625 126.914062 73.796875 126.933594 73.933594 C 121.191406 76.476562 117.273438 81.582031 117.273438 87.488281 C 117.273438 90.769531 118.472656 93.796875 120.53125 96.285156 C 115.078125 99.972656 111.570312 105.664062 111.570312 112.09375 C 111.570312 115.453125 112.519531 118.597656 114.207031 121.375 C 105.03125 125.355469 98.726562 133.53125 98.726562 142.988281 C 98.726562 152.195312 104.683594 160.195312 113.46875 164.292969 C 112.246094 166.738281 111.570312 169.421875 111.570312 172.253906 C 111.570312 177.945312 114.34375 183.089844 118.765625 186.761719 C 117.816406 188.625 117.273438 190.703125 117.273438 192.878906 C 117.273438 199.25 121.832031 204.707031 128.308594 206.976562 C 127.417969 208.902344 126.894531 211 126.894531 213.210938 C 126.894531 222.417969 135.582031 229.875 146.292969 229.875 C 149.433594 229.875 152.402344 229.214844 155.039062 228.070312 C 157.871094 230.242188 161.480469 231.542969 165.417969 231.542969 C 174.496094 231.542969 181.867188 224.574219 181.867188 215.96875 L 181.867188 67.582031 C 181.867188 58.980469 174.496094 52.007812 165.417969 52.007812 "/>
<path style="fill:none;stroke-width:20;stroke-linecap:round;stroke-linejoin:round;stroke:rgb(98.039246%,79.60968%,63.139343%);stroke-opacity:1;stroke-miterlimit:10;" d="M 1947.595523 2785.594812 C 1947.595523 2785.594812 1911.005733 2749.408672 1956.596974 2713.202418 " transform="matrix(0.193979,0,0,-0.1942,-225.101508,600.466065)"/>
<path style="fill:none;stroke-width:20;stroke-linecap:round;stroke-linejoin:round;stroke:rgb(98.039246%,79.60968%,63.139343%);stroke-opacity:1;stroke-miterlimit:10;" d="M 1943.507616 1999.798404 C 1943.507616 1999.798404 1910.703671 1960.494504 1959.798833 1928.592771 " transform="matrix(0.193979,0,0,-0.1942,-225.101508,600.466065)"/>
<path style="fill:none;stroke-width:20;stroke-linecap:round;stroke-linejoin:round;stroke:rgb(98.039246%,79.60968%,63.139343%);stroke-opacity:1;stroke-miterlimit:10;" d="M 1824.495144 2713.805855 C 1824.495144 2713.805855 1862.79662 2735.610066 1888.39135 2708.294459 " transform="matrix(0.193979,0,0,-0.1942,-225.101508,600.466065)"/>
<path style="fill:none;stroke-width:20;stroke-linecap:round;stroke-linejoin:round;stroke:rgb(98.039246%,79.60968%,63.139343%);stroke-opacity:1;stroke-miterlimit:10;" d="M 1778.803216 2136.396556 C 1787.200542 2151.603183 1803.894508 2166.990841 1836.899828 2169.505164 " transform="matrix(0.193979,0,0,-0.1942,-225.101508,600.466065)"/>
<path style="fill:none;stroke-width:20;stroke-linecap:round;stroke-linejoin:round;stroke:rgb(98.039246%,79.60968%,63.139343%);stroke-opacity:1;stroke-miterlimit:10;" d="M 1693.903625 2286.290449 C 1693.903625 2286.290449 1754.497285 2197.001803 1866.199853 2265.290822 " transform="matrix(0.193979,0,0,-0.1942,-225.101508,600.466065)"/>
<path style="fill:none;stroke-width:20;stroke-linecap:round;stroke-linejoin:round;stroke:rgb(98.039246%,79.60968%,63.139343%);stroke-opacity:1;stroke-miterlimit:10;" d="M 1821.595348 1962.606535 C 1821.595348 1962.606535 1786.89848 2034.596638 1883.699318 2087.296852 " transform="matrix(0.193979,0,0,-0.1942,-225.101508,600.466065)"/>
<path style="fill:none;stroke-width:20;stroke-linecap:round;stroke-linejoin:round;stroke:rgb(98.039246%,79.60968%,63.139343%);stroke-opacity:1;stroke-miterlimit:10;" d="M 1740.50174 2544.099095 C 1740.50174 2544.099095 1765.190283 2636.606075 1883.699318 2596.79931 " transform="matrix(0.193979,0,0,-0.1942,-225.101508,600.466065)"/>
<path style="fill:none;stroke-width:20;stroke-linecap:round;stroke-linejoin:round;stroke:rgb(98.039246%,79.60968%,63.139343%);stroke-opacity:1;stroke-miterlimit:10;" d="M 1769.801765 2446.804844 C 1769.801765 2446.804844 1801.397462 2411.805465 1853.291732 2430.190196 " transform="matrix(0.193979,0,0,-0.1942,-225.101508,600.466065)"/>
<path style="fill:none;stroke-width:40;stroke-linecap:round;stroke-linejoin:round;stroke:rgb(96.078491%,52.549744%,6.669617%);stroke-opacity:1;stroke-miterlimit:10;" d="M 2125.993406 2942.709842 L 2125.993406 2855.191279 " transform="matrix(0.193979,0,0,-0.1942,-225.101508,600.466065)"/>
<path style="fill:none;stroke-width:40;stroke-linecap:round;stroke-linejoin:round;stroke:rgb(96.078491%,52.549744%,6.669617%);stroke-opacity:1;stroke-miterlimit:10;" d="M 1590.497696 2567.19064 L 1677.995021 2567.19064 " transform="matrix(0.193979,0,0,-0.1942,-225.101508,600.466065)"/>
<path style="fill:none;stroke-width:40;stroke-linecap:round;stroke-linejoin:round;stroke:rgb(96.078491%,52.549744%,6.669617%);stroke-opacity:1;stroke-miterlimit:10;" d="M 1708.704669 2828.298078 L 1771.191251 2767.109508 " transform="matrix(0.193979,0,0,-0.1942,-225.101508,600.466065)"/>
<path style="fill:none;stroke-width:40;stroke-linecap:round;stroke-linejoin:round;stroke:rgb(96.078491%,52.549744%,6.669617%);stroke-opacity:1;stroke-miterlimit:10;" d="M 2662.89874 2567.19064 L 2575.401415 2567.19064 " transform="matrix(0.193979,0,0,-0.1942,-225.101508,600.466065)"/>
<path style="fill:none;stroke-width:40;stroke-linecap:round;stroke-linejoin:round;stroke:rgb(96.078491%,52.549744%,6.669617%);stroke-opacity:1;stroke-miterlimit:10;" d="M 2544.691767 2828.298078 L 2482.205185 2767.109508 " transform="matrix(0.193979,0,0,-0.1942,-225.101508,600.466065)"/>
<path style="fill:none;stroke-width:30;stroke-linecap:round;stroke-linejoin:round;stroke:rgb(90.979004%,90.979004%,90.979004%);stroke-opacity:1;stroke-miterlimit:10;" d="M 2135.699669 1201.309693 C 2135.699669 1201.309693 2186.305141 1209.999194 2219.995135 1248.196792 " transform="matrix(0.193979,0,0,-0.1942,-225.101508,600.466065)"/>
</g>
</svg>
