<?xml version="1.0" encoding="UTF-8"?>
<svg xmlns="http://www.w3.org/2000/svg" xmlns:xlink="http://www.w3.org/1999/xlink" width="375pt" height="374.999991pt" viewBox="0 0 375 374.999991" version="1.2">
<defs>
<clipPath id="clip1">
  <path d="M 0 37.949219 L 177 37.949219 L 177 322.949219 L 0 322.949219 Z M 0 37.949219 "/>
</clipPath>
<clipPath id="clip2">
  <path d="M 194 37.949219 L 375 37.949219 L 375 322.949219 L 194 322.949219 Z M 194 37.949219 "/>
</clipPath>
</defs>
<g id="surface1">
<g clip-path="url(#clip1)" clip-rule="nonzero">
<path style=" stroke:none;fill-rule:nonzero;fill:rgb(19.219971%,54.508972%,63.529968%);fill-opacity:1;" d="M 97.039062 159.929688 C 79.300781 159.929688 62.976562 165.839844 49.785156 175.683594 C 51.082031 134.59375 82.84375 93.488281 145.515625 52.378906 L 136.214844 37.949219 C 45.410156 94.367188 0 156.285156 0 223.695312 C 0 254.652344 8.421875 278.910156 25.28125 296.433594 C 42.132812 313.992188 63.464844 322.75 89.261719 322.75 C 115.074219 322.75 135.871094 315.707031 151.699219 301.597656 C 167.515625 287.511719 175.4375 270.464844 175.4375 250.527344 C 175.4375 250.304688 175.394531 250.136719 175.394531 249.898438 C 175.878906 246.363281 176.21875 242.789062 176.21875 239.09375 C 176.21875 195.382812 140.757812 159.929688 97.039062 159.929688 Z M 97.039062 159.929688 "/>
</g>
<g clip-path="url(#clip2)" clip-rule="nonzero">
<path style=" stroke:none;fill-rule:nonzero;fill:rgb(19.219971%,54.508972%,63.529968%);fill-opacity:1;" d="M 353.046875 293.757812 C 354.070312 292.574219 355.3125 291.445312 356.253906 290.207031 C 367.917969 276.410156 375 258.601562 375 239.097656 C 375 195.386719 339.542969 159.921875 295.828125 159.921875 C 275.800781 159.921875 257.574219 167.414062 243.621094 179.683594 C 243.621094 179.195312 243.542969 178.78125 243.542969 178.28125 C 243.542969 136.320312 275.527344 94.339844 339.519531 52.371094 L 330.230469 37.949219 C 239.410156 94.367188 194.003906 156.285156 194.003906 223.710938 C 194.003906 254.667969 202.425781 278.921875 219.292969 296.445312 C 236.136719 314.003906 257.46875 322.773438 283.265625 322.773438 C 309.058594 322.773438 329.882812 315.71875 345.703125 301.601562 C 347.941406 299.632812 349.675781 297.421875 351.59375 295.308594 C 352.097656 294.808594 352.550781 294.28125 353.046875 293.757812 Z M 353.046875 293.757812 "/>
</g>
</g>
</svg>
