<?xml version="1.0" encoding="UTF-8"?>
<svg xmlns="http://www.w3.org/2000/svg" xmlns:xlink="http://www.w3.org/1999/xlink" width="375pt" height="374.999991pt" viewBox="0 0 375 374.999991" version="1.2">
<defs>
<clipPath id="clip1">
  <path d="M 67.785156 68 L 306.351562 68 L 306.351562 306.351562 L 67.785156 306.351562 Z M 67.785156 68 "/>
</clipPath>
</defs>
<g id="surface1">
<path style=" stroke:none;fill-rule:nonzero;fill:rgb(9.01947%,45.878601%,66.668701%);fill-opacity:1;" d="M 187.5 0 C 184.429688 0 181.363281 0.0742188 178.300781 0.226562 C 175.234375 0.375 172.175781 0.601562 169.121094 0.902344 C 166.066406 1.203125 163.023438 1.578125 159.988281 2.03125 C 156.953125 2.480469 153.929688 3.003906 150.921875 3.601562 C 147.910156 4.203125 144.917969 4.875 141.941406 5.617188 C 138.964844 6.363281 136.007812 7.183594 133.070312 8.074219 C 130.136719 8.964844 127.222656 9.925781 124.332031 10.960938 C 121.445312 11.996094 118.582031 13.097656 115.746094 14.273438 C 112.910156 15.445312 110.105469 16.691406 107.332031 18.003906 C 104.558594 19.3125 101.820312 20.691406 99.113281 22.140625 C 96.40625 23.585938 93.738281 25.097656 91.105469 26.675781 C 88.472656 28.253906 85.882812 29.894531 83.332031 31.597656 C 80.777344 33.304688 78.269531 35.070312 75.804688 36.898438 C 73.339844 38.726562 70.921875 40.613281 68.550781 42.558594 C 66.179688 44.507812 63.855469 46.511719 61.582031 48.570312 C 59.308594 50.632812 57.085938 52.746094 54.917969 54.917969 C 52.746094 57.085938 50.632812 59.308594 48.570312 61.582031 C 46.511719 63.855469 44.507812 66.179688 42.558594 68.550781 C 40.613281 70.921875 38.726562 73.339844 36.898438 75.804688 C 35.070312 78.269531 33.304688 80.777344 31.597656 83.332031 C 29.894531 85.882812 28.253906 88.472656 26.675781 91.105469 C 25.097656 93.738281 23.585938 96.40625 22.140625 99.113281 C 20.691406 101.820312 19.3125 104.558594 18.003906 107.332031 C 16.691406 110.105469 15.445312 112.910156 14.273438 115.746094 C 13.097656 118.582031 11.996094 121.445312 10.960938 124.332031 C 9.925781 127.222656 8.964844 130.136719 8.074219 133.070312 C 7.183594 136.007812 6.363281 138.964844 5.621094 141.941406 C 4.875 144.917969 4.203125 147.910156 3.601562 150.921875 C 3.003906 153.929688 2.480469 156.953125 2.03125 159.988281 C 1.578125 163.023438 1.203125 166.066406 0.902344 169.121094 C 0.601562 172.175781 0.375 175.234375 0.226562 178.300781 C 0.0742188 181.363281 0 184.429688 0 187.5 C 0 190.570312 0.0742188 193.636719 0.226562 196.699219 C 0.375 199.765625 0.601562 202.824219 0.902344 205.878906 C 1.203125 208.933594 1.578125 211.976562 2.03125 215.011719 C 2.480469 218.046875 3.003906 221.070312 3.601562 224.078125 C 4.203125 227.089844 4.875 230.082031 5.621094 233.058594 C 6.363281 236.035156 7.183594 238.992188 8.074219 241.929688 C 8.964844 244.863281 9.925781 247.777344 10.960938 250.667969 C 11.996094 253.554688 13.097656 256.417969 14.273438 259.253906 C 15.445312 262.089844 16.691406 264.890625 18.003906 267.667969 C 19.3125 270.441406 20.691406 273.179688 22.140625 275.886719 C 23.585938 278.59375 25.097656 281.261719 26.675781 283.894531 C 28.253906 286.527344 29.894531 289.117188 31.597656 291.667969 C 33.304688 294.222656 35.070312 296.730469 36.898438 299.195312 C 38.726562 301.660156 40.613281 304.078125 42.558594 306.449219 C 44.507812 308.820312 46.511719 311.144531 48.570312 313.417969 C 50.632812 315.691406 52.746094 317.914062 54.917969 320.082031 C 57.085938 322.253906 59.308594 324.367188 61.582031 326.429688 C 63.855469 328.488281 66.179688 330.492188 68.550781 332.4375 C 70.921875 334.386719 73.339844 336.273438 75.804688 338.101562 C 78.269531 339.929688 80.777344 341.695312 83.332031 343.402344 C 85.882812 345.105469 88.472656 346.746094 91.105469 348.324219 C 93.738281 349.902344 96.40625 351.414062 99.113281 352.859375 C 101.820312 354.308594 104.558594 355.6875 107.332031 356.996094 C 110.105469 358.308594 112.910156 359.554688 115.746094 360.726562 C 118.582031 361.902344 121.445312 363.003906 124.332031 364.039062 C 127.222656 365.074219 130.136719 366.035156 133.070312 366.925781 C 136.007812 367.816406 138.964844 368.636719 141.941406 369.378906 C 144.917969 370.125 147.910156 370.796875 150.921875 371.398438 C 153.929688 371.996094 156.953125 372.519531 159.988281 372.96875 C 163.023438 373.421875 166.066406 373.796875 169.121094 374.097656 C 172.175781 374.398438 175.234375 374.625 178.300781 374.773438 C 181.363281 374.925781 184.429688 375 187.5 375 C 190.570312 375 193.636719 374.925781 196.699219 374.773438 C 199.765625 374.625 202.824219 374.398438 205.878906 374.097656 C 208.933594 373.796875 211.976562 373.421875 215.011719 372.96875 C 218.046875 372.519531 221.070312 371.996094 224.078125 371.398438 C 227.089844 370.796875 230.082031 370.125 233.058594 369.378906 C 236.035156 368.636719 238.992188 367.816406 241.929688 366.925781 C 244.863281 366.035156 247.777344 365.074219 250.667969 364.039062 C 253.554688 363.003906 256.417969 361.902344 259.253906 360.726562 C 262.089844 359.554688 264.890625 358.308594 267.667969 356.996094 C 270.441406 355.6875 273.179688 354.308594 275.886719 352.859375 C 278.59375 351.414062 281.261719 349.902344 283.894531 348.324219 C 286.527344 346.746094 289.117188 345.105469 291.667969 343.402344 C 294.222656 341.695312 296.730469 339.929688 299.195312 338.101562 C 301.660156 336.273438 304.078125 334.386719 306.449219 332.4375 C 308.820312 330.492188 311.144531 328.488281 313.417969 326.429688 C 315.691406 324.367188 317.914062 322.253906 320.082031 320.082031 C 322.253906 317.914062 324.367188 315.691406 326.429688 313.417969 C 328.488281 311.144531 330.492188 308.820312 332.4375 306.449219 C 334.386719 304.078125 336.273438 301.660156 338.101562 299.195312 C 339.929688 296.730469 341.695312 294.222656 343.402344 291.667969 C 345.105469 289.117188 346.746094 286.527344 348.324219 283.894531 C 349.902344 281.261719 351.414062 278.59375 352.859375 275.886719 C 354.308594 273.179688 355.6875 270.441406 356.996094 267.667969 C 358.308594 264.890625 359.554688 262.089844 360.726562 259.253906 C 361.902344 256.417969 363.003906 253.554688 364.039062 250.667969 C 365.074219 247.777344 366.035156 244.863281 366.925781 241.929688 C 367.816406 238.992188 368.636719 236.035156 369.378906 233.058594 C 370.125 230.082031 370.796875 227.089844 371.398438 224.078125 C 371.996094 221.070312 372.519531 218.046875 372.96875 215.011719 C 373.421875 211.976562 373.796875 208.933594 374.097656 205.878906 C 374.398438 202.824219 374.625 199.765625 374.773438 196.699219 C 374.925781 193.636719 375 190.570312 375 187.5 C 375 184.429688 374.925781 181.363281 374.773438 178.300781 C 374.625 175.234375 374.398438 172.175781 374.097656 169.121094 C 373.796875 166.066406 373.421875 163.023438 372.96875 159.988281 C 372.519531 156.953125 371.996094 153.929688 371.398438 150.921875 C 370.796875 147.910156 370.125 144.917969 369.378906 141.941406 C 368.636719 138.964844 367.816406 136.007812 366.925781 133.070312 C 366.035156 130.136719 365.074219 127.222656 364.039062 124.332031 C 363.003906 121.445312 361.902344 118.582031 360.726562 115.746094 C 359.554688 112.910156 358.308594 110.105469 356.996094 107.332031 C 355.6875 104.558594 354.308594 101.820312 352.859375 99.113281 C 351.414062 96.40625 349.902344 93.738281 348.324219 91.105469 C 346.746094 88.472656 345.105469 85.882812 343.402344 83.332031 C 341.695312 80.777344 339.929688 78.269531 338.101562 75.804688 C 336.273438 73.339844 334.386719 70.921875 332.4375 68.550781 C 330.492188 66.179688 328.488281 63.855469 326.429688 61.582031 C 324.367188 59.308594 322.253906 57.085938 320.082031 54.917969 C 317.914062 52.746094 315.691406 50.632812 313.417969 48.570312 C 311.144531 46.511719 308.820312 44.507812 306.449219 42.558594 C 304.078125 40.613281 301.660156 38.726562 299.195312 36.898438 C 296.730469 35.070312 294.222656 33.304688 291.667969 31.597656 C 289.117188 29.894531 286.527344 28.253906 283.894531 26.675781 C 281.261719 25.097656 278.59375 23.585938 275.886719 22.140625 C 273.179688 20.691406 270.441406 19.3125 267.667969 18.003906 C 264.890625 16.691406 262.089844 15.445312 259.253906 14.273438 C 256.417969 13.097656 253.554688 11.996094 250.667969 10.960938 C 247.777344 9.925781 244.863281 8.964844 241.929688 8.074219 C 238.992188 7.183594 236.035156 6.363281 233.058594 5.617188 C 230.082031 4.875 227.089844 4.203125 224.078125 3.601562 C 221.070312 3.003906 218.046875 2.480469 215.011719 2.03125 C 211.976562 1.578125 208.933594 1.203125 205.878906 0.902344 C 202.824219 0.601562 199.765625 0.375 196.699219 0.226562 C 193.636719 0.0742188 190.570312 0 187.5 0 Z M 187.5 0 "/>
<path style=" stroke:none;fill-rule:nonzero;fill:rgb(100%,100%,100%);fill-opacity:1;" d="M 152.210938 182.707031 L 194.679688 114.449219 C 195.660156 112.886719 197.222656 111.984375 198.976562 111.984375 C 200.730469 111.984375 202.292969 112.886719 203.273438 114.4375 L 245.742188 182.691406 C 246.875 184.539062 246.921875 186.769531 245.867188 188.660156 C 245.417969 189.46875 244.066406 191.359375 241.445312 191.359375 L 156.507812 191.359375 C 153.886719 191.359375 152.535156 189.46875 152.085938 188.660156 C 151.03125 186.769531 151.078125 184.539062 152.210938 182.707031 Z M 156.507812 199.300781 L 241.445312 199.300781 C 246.191406 199.300781 250.441406 196.773438 252.796875 192.539062 C 255.230469 188.148438 255.125 182.769531 252.472656 178.503906 L 210 110.234375 C 207.566406 106.355469 203.457031 104.046875 198.976562 104.046875 C 194.496094 104.046875 190.386719 106.355469 187.953125 110.234375 L 145.464844 178.519531 C 142.828125 182.769531 142.722656 188.148438 145.15625 192.539062 C 147.511719 196.773438 151.761719 199.300781 156.507812 199.300781 "/>
<g clip-path="url(#clip1)" clip-rule="nonzero">
<path style=" stroke:none;fill-rule:nonzero;fill:rgb(100%,100%,100%);fill-opacity:1;" d="M 221.460938 250.777344 L 208.28125 258.222656 C 207.070312 258.886719 205.613281 258.886719 204.527344 258.285156 L 192.449219 250.777344 Z M 296.445312 228.078125 L 211.816406 295.914062 C 208.792969 298.273438 204.761719 299 201.132812 297.929688 L 120.332031 272.082031 C 118.84375 271.617188 117.292969 271.386719 115.726562 271.386719 C 115.695312 271.386719 115.648438 271.386719 115.617188 271.386719 L 115.617188 228.976562 L 134.457031 220.820312 C 139.449219 219.023438 144.875 218.511719 150.164062 219.363281 L 238.75 233.707031 C 240.964844 234.0625 242.640625 236.015625 242.640625 238.234375 C 242.640625 238.824219 242.515625 239.429688 242.300781 239.988281 C 242.300781 239.988281 242.285156 240 242.285156 240.015625 C 242.050781 240.574219 241.726562 241.070312 241.339844 241.460938 C 240.4375 242.359375 239.261719 242.839844 238.035156 242.839844 L 162.644531 242.839844 C 160.460938 242.839844 158.675781 244.621094 158.675781 246.808594 C 158.675781 248.996094 160.460938 250.777344 162.644531 250.777344 L 177.40625 250.777344 L 200.496094 265.121094 C 204.15625 267.152344 208.511719 267.183594 212.171875 265.152344 L 237.601562 250.777344 L 238.035156 250.777344 C 241.339844 250.777344 244.484375 249.492188 246.921875 247.117188 C 247.742188 246.28125 248.441406 245.367188 249.015625 244.34375 L 291.375 220.386719 C 293.59375 219.148438 296.398438 219.953125 297.625 222.15625 C 298.011719 222.851562 298.214844 223.644531 298.214844 224.417969 C 298.214844 225.828125 297.5625 227.179688 296.445312 228.078125 Z M 107.679688 278.566406 C 107.679688 280.75 105.894531 282.535156 103.707031 282.535156 L 79.890625 282.535156 C 77.707031 282.535156 75.921875 280.75 75.921875 278.566406 L 75.921875 222.992188 C 75.921875 220.804688 77.707031 219.023438 79.890625 219.023438 L 103.707031 219.023438 C 105.894531 219.023438 107.679688 220.804688 107.679688 222.992188 Z M 130.9375 184.042969 L 110.5 181.390625 C 109.445312 181.25 108.578125 180.460938 108.4375 179.542969 C 107.847656 175.542969 107.554688 171.480469 107.554688 167.496094 C 107.554688 163.511719 107.847656 159.449219 108.421875 155.480469 C 108.578125 154.519531 109.445312 153.710938 110.5 153.574219 L 130.9375 150.90625 C 132.488281 150.703125 133.773438 149.617188 134.222656 148.128906 C 135.621094 143.523438 137.386719 139.246094 139.464844 135.414062 C 140.226562 134.035156 140.085938 132.34375 139.125 131.089844 L 126.59375 114.839844 C 125.914062 113.953125 125.851562 112.808594 126.410156 112.046875 C 128.984375 108.605469 131.632812 105.519531 134.300781 102.867188 C 137.0625 100.09375 140.148438 97.441406 143.449219 95.007812 C 144.210938 94.449219 145.386719 94.496094 146.226562 95.144531 L 162.539062 107.691406 C 163.777344 108.636719 165.46875 108.777344 166.847656 108.03125 C 170.679688 105.953125 174.957031 104.1875 179.578125 102.773438 C 181.066406 102.324219 182.152344 101.039062 182.355469 99.503906 L 185.003906 79.082031 C 185.144531 78.027344 185.921875 77.175781 186.882812 77.019531 C 194.679688 75.824219 203.054688 75.8125 210.960938 77.035156 C 211.925781 77.175781 212.683594 78.011719 212.824219 79.097656 L 215.488281 99.503906 C 215.691406 101.039062 216.777344 102.324219 218.265625 102.773438 C 222.871094 104.1875 227.152344 105.953125 230.980469 108.03125 C 232.359375 108.777344 234.066406 108.652344 235.308594 107.691406 L 251.558594 95.144531 C 252.425781 94.496094 253.605469 94.433594 254.347656 94.976562 C 257.851562 97.597656 260.84375 100.171875 263.527344 102.867188 C 266.226562 105.550781 268.800781 108.542969 271.375 111.984375 C 271.960938 112.792969 271.902344 113.96875 271.25 114.824219 L 258.703125 131.089844 C 257.742188 132.34375 257.621094 134.035156 258.363281 135.414062 C 260.441406 139.246094 262.210938 143.523438 263.621094 148.128906 C 264.070312 149.617188 265.355469 150.703125 266.890625 150.90625 L 287.296875 153.574219 C 288.382812 153.710938 289.21875 154.472656 289.375 155.480469 C 289.964844 159.386719 290.273438 163.433594 290.273438 167.496094 C 290.273438 171.558594 289.964844 175.605469 289.359375 179.558594 C 289.21875 180.476562 288.367188 181.25 287.296875 181.390625 L 266.890625 184.042969 C 265.355469 184.242188 264.070312 185.328125 263.621094 186.816406 C 262.210938 191.4375 260.441406 195.71875 258.363281 199.546875 C 257.621094 200.925781 257.742188 202.617188 258.703125 203.859375 L 271.265625 220.183594 C 271.792969 220.851562 271.824219 221.734375 271.542969 222.480469 L 250.050781 234.621094 C 248.71875 230.125 244.90625 226.652344 240.050781 225.859375 L 233.261719 224.714844 C 233.167969 224.699219 233.058594 224.683594 232.949219 224.683594 L 151.421875 211.53125 C 144.90625 210.496094 138.226562 211.097656 131.835938 213.347656 L 139.125 203.859375 C 140.085938 202.617188 140.226562 200.925781 139.464844 199.546875 C 137.386719 195.71875 135.621094 191.421875 134.222656 186.832031 C 133.773438 185.328125 132.488281 184.242188 130.9375 184.042969 Z M 297.050781 212.355469 C 293.824219 211.441406 290.429688 211.8125 287.484375 213.457031 L 279.109375 218.199219 C 278.753906 217.175781 278.226562 216.199219 277.527344 215.316406 L 266.535156 201.019531 C 267.992188 198.058594 269.296875 194.910156 270.410156 191.59375 L 288.320312 189.265625 C 292.910156 188.660156 296.570312 185.140625 297.207031 180.722656 C 297.871094 176.414062 298.214844 171.960938 298.214844 167.496094 C 298.214844 163.03125 297.871094 158.582031 297.222656 154.316406 C 296.585938 149.835938 292.925781 146.285156 288.320312 145.695312 L 270.410156 143.371094 C 269.296875 140.050781 267.992188 136.886719 266.535156 133.941406 L 277.542969 119.660156 C 280.320312 116.03125 280.429688 110.976562 277.761719 107.289062 C 274.925781 103.488281 272.101562 100.203125 269.140625 97.253906 C 266.195312 94.292969 262.90625 91.472656 259.0625 88.585938 C 255.417969 85.96875 250.363281 86.074219 246.734375 88.851562 L 232.453125 99.859375 C 229.507812 98.402344 226.34375 97.101562 223.027344 95.984375 L 220.699219 78.074219 C 220.109375 73.46875 216.558594 69.808594 212.125 69.191406 C 203.503906 67.855469 194.246094 67.855469 185.703125 69.175781 C 181.253906 69.824219 177.734375 73.484375 177.144531 78.074219 L 174.804688 95.984375 C 171.484375 97.101562 168.335938 98.402344 165.375 99.859375 L 151.078125 88.867188 C 147.464844 86.042969 142.394531 85.9375 138.738281 88.617188 C 135.109375 91.300781 131.726562 94.214844 128.6875 97.253906 C 125.757812 100.171875 122.859375 103.550781 120.035156 107.304688 C 117.386719 110.914062 117.476562 116 120.285156 119.660156 L 131.292969 133.941406 C 129.835938 136.902344 128.535156 140.050781 127.417969 143.371094 L 109.460938 145.695312 C 104.933594 146.300781 101.273438 149.820312 100.578125 154.300781 C 99.941406 158.6875 99.613281 163.125 99.613281 167.496094 C 99.613281 171.871094 99.941406 176.304688 100.578125 180.738281 C 101.289062 185.15625 104.933594 188.660156 109.476562 189.25 L 127.417969 191.59375 C 128.535156 194.894531 129.835938 198.058594 131.292969 201.019531 L 120.285156 215.347656 C 119.429688 216.464844 118.84375 217.75 118.484375 219.085938 L 115.324219 220.449219 C 114.160156 215.097656 109.398438 211.082031 103.707031 211.082031 L 79.890625 211.082031 C 73.316406 211.082031 67.984375 216.417969 67.984375 222.992188 L 67.984375 278.566406 C 67.984375 285.140625 73.316406 290.472656 79.890625 290.472656 L 103.707031 290.472656 C 110.019531 290.472656 115.136719 285.542969 115.539062 279.339844 C 116.363281 279.308594 117.183594 279.402344 117.941406 279.648438 L 198.789062 305.515625 C 200.667969 306.070312 202.589844 306.335938 204.496094 306.335938 C 208.871094 306.335938 213.195312 304.910156 216.746094 302.148438 L 301.390625 234.28125 C 304.371094 231.921875 306.152344 228.234375 306.152344 224.417969 C 306.152344 222.324219 305.609375 220.214844 304.570312 218.324219 C 302.957031 215.394531 300.277344 213.269531 297.050781 212.355469 "/>
</g>
<path style=" stroke:none;fill-rule:nonzero;fill:rgb(100%,100%,100%);fill-opacity:1;" d="M 95.769531 226.960938 L 87.832031 226.960938 C 85.644531 226.960938 83.859375 228.746094 83.859375 230.929688 C 83.859375 233.117188 85.644531 234.902344 87.832031 234.902344 L 95.769531 234.902344 C 97.957031 234.902344 99.738281 233.117188 99.738281 230.929688 C 99.738281 228.746094 97.957031 226.960938 95.769531 226.960938 "/>
<path style=" stroke:none;fill-rule:nonzero;fill:rgb(100%,100%,100%);fill-opacity:1;" d="M 95.769531 266.65625 L 87.832031 266.65625 C 85.644531 266.65625 83.859375 268.441406 83.859375 270.625 C 83.859375 272.8125 85.644531 274.59375 87.832031 274.59375 L 95.769531 274.59375 C 97.957031 274.59375 99.738281 272.8125 99.738281 270.625 C 99.738281 268.441406 97.957031 266.65625 95.769531 266.65625 "/>
<path style=" stroke:none;fill-rule:nonzero;fill:rgb(100%,100%,100%);fill-opacity:1;" d="M 198.976562 163.574219 C 201.164062 163.574219 202.945312 161.804688 202.945312 159.605469 L 202.945312 127.847656 C 202.945312 125.660156 201.164062 123.878906 198.976562 123.878906 C 196.789062 123.878906 195.007812 125.660156 195.007812 127.847656 L 195.007812 159.605469 C 195.007812 161.804688 196.789062 163.574219 198.976562 163.574219 "/>
<path style=" stroke:none;fill-rule:nonzero;fill:rgb(100%,100%,100%);fill-opacity:1;" d="M 198.976562 183.421875 C 201.164062 183.421875 202.945312 181.652344 202.945312 179.453125 L 202.945312 175.480469 C 202.945312 173.296875 201.164062 171.511719 198.976562 171.511719 C 196.789062 171.511719 195.007812 173.296875 195.007812 175.480469 L 195.007812 179.453125 C 195.007812 181.652344 196.789062 183.421875 198.976562 183.421875 "/>
</g>
</svg>
