<?xml version="1.0" encoding="UTF-8"?>
<svg xmlns="http://www.w3.org/2000/svg" xmlns:xlink="http://www.w3.org/1999/xlink" width="375pt" height="374.999991pt" viewBox="0 0 375 374.999991" version="1.2">
<defs>
<clipPath id="clip1">
  <path d="M 53 5.859375 L 289 5.859375 L 289 317 L 53 317 Z M 53 5.859375 "/>
</clipPath>
<clipPath id="clip2">
  <path d="M 51 5.859375 L 293 5.859375 L 293 321 L 51 321 Z M 51 5.859375 "/>
</clipPath>
<clipPath id="clip3">
  <path d="M 48 5.859375 L 298 5.859375 L 298 323 L 48 323 Z M 48 5.859375 "/>
</clipPath>
</defs>
<g id="surface1">
<path style=" stroke:none;fill-rule:nonzero;fill:rgb(100%,59.999084%,0%);fill-opacity:1;" d="M 253.445312 278.082031 C 214.175781 303.007812 163.636719 305.066406 124.21875 277.171875 C 81.042969 245.558594 64 195.144531 73.171875 144.644531 C 87.929688 84.773438 132.691406 39.746094 188.800781 24.582031 C 95.265625 43.621094 41.398438 157.847656 88.515625 241.789062 C 105.464844 269.761719 129.871094 286.5 159.863281 297.601562 C 204.835938 308.652344 260.941406 293.488281 277.933594 247.949219 C 277.460938 247.226562 268.605469 261.625 253.445312 278.082031 "/>
<path style=" stroke:none;fill-rule:nonzero;fill:rgb(100%,59.999084%,0%);fill-opacity:1;" d="M 252.816406 282.792969 C 219.796875 304.855469 174.878906 308.761719 137.371094 290.210938 C 90.476562 266.082031 64.070312 213.839844 67.621094 161.488281 C 74.847656 90.433594 127.070312 37.898438 194.394531 18.957031 C 121.433594 32.3125 71.128906 97.921875 65.785156 170.839844 C 64.109375 225.058594 97.992188 273.535156 146.75 295.78125 C 195.496094 314.292969 257.230469 300.976562 279.425781 252.140625 C 278.949219 251.53125 269.175781 266.273438 252.816406 282.792969 "/>
<path style=" stroke:none;fill-rule:nonzero;fill:rgb(100%,59.999084%,0%);fill-opacity:1;" d="M 252.445312 287.035156 C 219.796875 304.855469 178.640625 312.484375 143.011719 295.796875 C 84.878906 271.707031 56.570312 210.128906 67.578125 150.277344 C 78.546875 79.199219 128.917969 32.28125 194.382812 15.21875 C 136.390625 28.515625 89.738281 67.945312 71.230469 124.089844 C 49 187.726562 73.605469 260.535156 133.640625 293.960938 C 182.410156 319.945312 255.390625 310.332031 281.003906 255.710938 C 280.472656 255.28125 269.859375 270.421875 252.445312 287.035156 "/>
<path style=" stroke:none;fill-rule:nonzero;fill:rgb(100%,59.999084%,0%);fill-opacity:1;" d="M 252.707031 290.613281 C 221.679688 306.71875 184.265625 314.335938 150.523438 303.242188 C 101.777344 284.734375 67.910156 240 62.09375 185.808594 C 52.410156 97.988281 119.550781 30.445312 196.234375 9.605469 C 134.515625 26.65625 80.386719 69.851562 63.777344 135.335938 C 52.714844 180.238281 64.109375 225.058594 92.34375 264.203125 C 139.375 325.714844 242.351562 327.203125 282.90625 258.355469 C 282.261719 258.179688 270.953125 273.800781 252.707031 290.613281 "/>
<path style=" stroke:none;fill-rule:nonzero;fill:rgb(100%,59.999084%,0%);fill-opacity:1;" d="M 253.980469 293.34375 C 210.484375 317.976562 158.066406 318.171875 116.769531 288.417969 C 73.589844 256.796875 54.691406 208.265625 58.238281 155.917969 C 67.328125 82.984375 123.285156 26.695312 192.488281 9.617188 C 87.71875 28.699219 18.917969 154.191406 77.308594 249.308594 C 101.792969 288.46875 143.078125 314.488281 191.75 314.308594 C 231.058594 312.289062 266.554688 291.597656 285.351562 259.804688 C 284.5625 259.929688 272.769531 276.167969 253.980469 293.34375 "/>
<g clip-path="url(#clip1)" clip-rule="nonzero">
<path style=" stroke:none;fill-rule:nonzero;fill:rgb(100%,59.999084%,0%);fill-opacity:1;" d="M 256.578125 295.042969 C 204.90625 327.339844 139.347656 318.242188 98.003906 277.265625 C 56.664062 236.296875 45.207031 176.527344 61.859375 122.253906 C 82.234375 64.230469 130.757812 22.929688 188.730469 5.894531 C 89.585938 26.824219 24.484375 141.089844 66.023438 234.394531 C 86.773438 277.3125 126.207031 308.9375 174.910156 316.238281 C 219.851562 319.8125 268.476562 304.671875 288.496094 259.78125 C 287.535156 260.285156 275.554688 277.277344 256.578125 295.042969 "/>
</g>
<g clip-path="url(#clip2)" clip-rule="nonzero">
<path style=" stroke:none;fill-rule:nonzero;fill:rgb(100%,59.999084%,0%);fill-opacity:1;" d="M 260.742188 295.476562 C 195.59375 340.460938 105.621094 310.886719 69.804688 245.597656 C 20.785156 152.316406 80.246094 32.464844 181.242188 5.921875 C 80.230469 28.726562 22.648438 150.441406 66.050781 241.875 C 92.453125 294.117188 148.753906 331.289062 210.484375 317.976562 C 246.023438 308.5 277.789062 291.558594 292.40625 258.011719 C 291.285156 258.953125 279.476562 276.867188 260.742188 295.476562 "/>
</g>
<g clip-path="url(#clip3)" clip-rule="nonzero">
<path style=" stroke:none;fill-rule:nonzero;fill:rgb(100%,59.999084%,0%);fill-opacity:1;" d="M 266.585938 294.332031 C 210.558594 336.667969 128.140625 325.757812 84.878906 271.707031 C 47.257812 223.25 37.652344 157.859375 63.65625 101.691406 C 84.074219 54.878906 125.148438 24.820312 170.007812 5.960938 C 102.699219 28.644531 56.109375 86.761719 48.886719 157.820312 C 41.664062 228.875 83.113281 299.757812 154.324219 318.179688 C 210.539062 332.925781 275.976562 308.382812 297.007812 254.199219 C 295.769531 255.648438 284.578125 274.636719 266.585938 294.332031 "/>
</g>
<path style=" stroke:none;fill-rule:nonzero;fill:rgb(100%,59.999084%,0%);fill-opacity:1;" d="M 274.082031 291.230469 C 238.5625 316 199.3125 332.972656 156.199219 320.046875 C 75.625 299.785156 36.023438 223.292969 46.964844 144.738281 C 57.960938 81.148438 97.105469 34.269531 151.304688 9.769531 C 67.1875 45.597656 20.785156 152.316406 56.664062 236.296875 C 81.207031 290.414062 137.519531 331.328125 199.285156 325.492188 C 246.0625 319.710938 287.15625 293.390625 301.964844 248.476562 C 298.234375 252.226562 296.378906 257.839844 294.007812 262.457031 C 289.339844 270.339844 282.566406 280.691406 274.082031 291.230469 "/>
<path style=" stroke:none;fill-rule:nonzero;fill:rgb(100%,59.999084%,0%);fill-opacity:1;" d="M 282.988281 285.707031 C 242.351562 327.203125 176.859375 336.792969 124.339844 310.820312 C 83.070312 288.539062 54.84375 249.390625 45.308594 202.695312 C 30.039062 124.242188 70.980469 56.796875 130.730469 15.453125 C 95.25 39.890625 61.675781 73.65625 50.613281 118.558594 C 28.382812 182.199219 47.371094 253.15625 98.078125 295.964844 C 146.886719 333.164062 218.058594 340.378906 268.460938 300.933594 C 288.988281 284.035156 300.140625 261.5625 307.546875 239.105469 C 305.691406 244.71875 303.839844 250.339844 300.285156 255.03125 C 296.3125 263.460938 290.476562 274.460938 282.988281 285.707031 "/>
<path style=" stroke:none;fill-rule:nonzero;fill:rgb(100%,59.999084%,0%);fill-opacity:1;" d="M 292.816406 277.273438 C 238.699219 353.386719 124.453125 340.726562 71.769531 269.890625 C 13.449219 193.46875 39.253906 84.953125 108.304688 26.753906 C 33.644531 86.84375 11.625 206.558594 79.300781 281.078125 C 116.90625 325.796875 184.375 344.246094 240.457031 321.605469 C 277.828125 302.769531 309.535156 270.875 311.246094 227.875 C 309.398438 233.492188 307.546875 239.105469 306.519531 244.8125 C 303.507812 253.734375 298.953125 265.34375 292.816406 277.273438 "/>
<path style=" stroke:none;fill-rule:nonzero;fill:rgb(100%,59.999084%,0%);fill-opacity:1;" d="M 302.808594 265.488281 C 257.40625 349.574219 135.726562 351.898438 75.558594 281.089844 C 19.140625 214.007812 24.371094 111.183594 84.046875 47.40625 C 9.4375 122.449219 19.292969 255.132812 111.246094 312.738281 C 160.027344 342.464844 221.8125 344.101562 266.621094 310.289062 C 298.355469 285.871094 316.953125 252.160156 314.9375 212.910156 C 314.964844 220.386719 313.113281 226 311.914062 231.644531 C 310.148438 240.941406 307.214844 253.007812 302.808594 265.488281 "/>
<path style=" stroke:none;fill-rule:nonzero;fill:rgb(100%,59.999084%,0%);fill-opacity:1;" d="M 311.898438 250.066406 C 289.074219 306.46875 233.050781 344.0625 171.234375 334.945312 C 130.019531 327.625 94.386719 310.929688 69.929688 279.242188 C 22.902344 217.734375 22.59375 135.484375 59.800781 71.792969 C 0.226562 161.738281 36.300781 298.058594 145.011719 331.300781 C 188.121094 344.226562 234.898438 338.445312 268.488281 308.410156 C 300.222656 283.996094 328.144531 240.898438 314.882812 197.957031 C 318.648438 205.417969 316.804688 211.035156 315.476562 215.589844 C 315.214844 225.046875 314.238281 237.296875 311.898438 250.066406 "/>
<path style=" stroke:none;fill-rule:nonzero;fill:rgb(100%,59.999084%,0%);fill-opacity:1;" d="M 318.761719 231.035156 C 307.714844 283.96875 272.289062 323.351562 218.046875 336.636719 C 173.140625 344.28125 130.046875 335.097656 96.253906 309.050781 C 36.164062 260.675781 13.394531 178.515625 39.335938 107.386719 C 4.109375 199.105469 53.199219 311.082031 154.394531 336.878906 C 197.488281 346.0625 240.511719 336.554688 274.109375 310.265625 C 313.304688 278.339844 333.695312 224.054688 312.929688 177.402344 C 312.960938 184.875 314.855469 190.480469 316.085938 197.046875 C 317.53125 206.339844 318.761719 218.367188 318.761719 231.035156 "/>
<path style=" stroke:none;fill-rule:nonzero;fill:rgb(100%,59.999084%,0%);fill-opacity:1;" d="M 321.925781 208.855469 C 326.515625 306.324219 216.292969 368.421875 130.035156 331.355469 C 60.648438 299.839844 19.183594 225.226562 26.390625 150.425781 C 11.765625 243.941406 81.375 335.28125 176.886719 344.265625 C 233.058594 347.800781 281.644531 321.449219 307.667969 272.75 C 328.128906 237.15625 329.84375 194.164062 305.375 158.734375 C 307.265625 164.339844 311.035156 171.800781 312.609375 176.855469 C 315.886719 185.546875 319.441406 196.832031 321.925781 208.855469 "/>
<path style=" stroke:none;fill-rule:nonzero;fill:rgb(100%,59.999084%,0%);fill-opacity:1;" d="M 319.949219 184.59375 C 337.550781 253.949219 294.75 323.269531 225.546875 340.351562 C 128.292969 366.882812 38.152344 292.445312 22.828125 199.039062 C 30.527344 255.089844 66.285156 305.425781 118.800781 331.402344 C 190.082031 368.519531 285.457031 340.128906 315.132812 265.25 C 333.695312 224.054688 327.894531 173.609375 294.066406 140.085938 C 294.066406 140.085938 292.207031 141.964844 293.0625 141.199219 C 296.636719 145.367188 310.019531 163.324219 319.949219 184.59375 "/>
<path style=" stroke:none;fill-rule:nonzero;fill:rgb(100%,59.999084%,0%);fill-opacity:1;" d="M 311.675781 159.921875 C 348.691406 227.738281 311.570312 313.859375 242.390625 338.417969 C 160.128906 368.632812 70.101562 324.105469 34.242188 247.597656 C 62.566406 312.917969 126.375 353.804688 197.5 349.804688 C 257.398438 345.84375 313.421875 308.246094 326.292969 246.511719 C 335.480469 199.75 320.292969 143.730469 275.789062 125.34375 C 280.503906 128.632812 297.429688 142.46875 311.675781 159.921875 "/>
<path style=" stroke:none;fill-rule:nonzero;fill:rgb(100%,59.999084%,0%);fill-opacity:1;" d="M 296.574219 137.082031 C 324.105469 162.410156 333.601562 197.886719 329.996094 235.289062 C 320.847656 293.265625 279.832031 338.28125 219.964844 349.714844 C 156.355469 361.171875 100.109375 338.945312 58.753906 294.238281 C 98.242188 340.820312 156.355469 361.171875 218.101562 351.59375 C 277.964844 340.15625 324.59375 293.25 331.863281 233.40625 C 337.273438 179.179688 305.246094 125.089844 254.035156 113.996094 C 259.648438 115.976562 279.027344 124.625 296.574219 137.082031 "/>
<path style=" stroke:none;fill-rule:nonzero;fill:rgb(100%,59.999084%,0%);fill-opacity:1;" d="M 274.988281 118.609375 C 350.320312 162.308594 350.71875 270.722656 283.523438 323.3125 C 229.386719 366.507812 156.367188 364.910156 98.214844 333.347656 C 143.242188 359.351562 195.6875 366.628906 244.292969 347.757812 C 300.375 325.117188 339.488281 270.765625 335.507812 207.222656 C 329.6875 153.039062 284.578125 104.609375 229.25 108.929688 C 235.316406 109.238281 255.617188 111.992188 274.988281 118.609375 "/>
<path style=" stroke:none;fill-rule:nonzero;fill:rgb(100%,59.999084%,0%);fill-opacity:1;" d="M 248.34375 106.949219 C 286.5 117.683594 318.425781 145.605469 331.667969 181.070312 C 346.796875 222.136719 335.730469 267.039062 309.648438 300.785156 C 270.519531 351.402344 208.800781 368.453125 148.855469 357.457031 C 208.800781 368.453125 272.398438 353.257812 311.527344 302.648438 C 339.460938 263.289062 346.769531 214.664062 327.882812 169.871094 C 307.113281 123.214844 252.703125 91.636719 203.625 111.355469 C 209.550781 109.816406 228.949219 106.515625 248.34375 106.949219 "/>
<path style=" stroke:none;fill-rule:nonzero;fill:rgb(100%,59.999084%,0%);fill-opacity:1;" d="M 219.128906 103.953125 C 290.15625 95.238281 346.558594 158.585938 341.203125 227.765625 C 333.988281 302.566406 274.277344 355.125 205.046875 364.726562 C 294.878906 356.914062 371.277344 261.300781 335.382812 173.582031 C 324.050781 147.453125 303.386719 126.964844 280.859375 112.097656 C 248.972656 95.394531 207.785156 95.542969 179.882812 121.539062 C 185.007812 118.238281 201.613281 109.40625 219.128906 103.953125 "/>
<path style=" stroke:none;fill-rule:nonzero;fill:rgb(100%,59.999084%,0%);fill-opacity:1;" d="M 190.578125 110.386719 C 254.523438 78.550781 331.457031 124.996094 342.953125 195.984375 C 354.4375 263.230469 315.335938 321.328125 261.164062 353.304688 C 332.179688 319.394531 374.898438 227.636719 329.6875 153.039062 C 305.21875 117.613281 269.546875 89.707031 224.640625 97.351562 C 200.328125 103.050781 168.535156 112.511719 160.8125 138.621094 C 164.523438 133.910156 176.6875 120.75 190.578125 110.386719 "/>
<path style=" stroke:none;fill-rule:nonzero;fill:rgb(100%,59.999084%,0%);fill-opacity:1;" d="M 166.128906 125.601562 C 207.730469 80.59375 284.523438 89.652344 320.265625 136.25 C 365.40625 192.160156 354.464844 270.710938 309.730469 323.214844 C 360.074219 268.820312 365.367188 180.945312 314.613281 126.925781 C 293.945312 106.4375 267.691406 95.320312 239.605469 93.558594 C 198.417969 93.710938 149.84375 120.058594 148.128906 163.058594 C 148.128906 163.058594 148.117188 159.320312 148.722656 160.554688 C 150.578125 155.035156 157.167969 139.324219 166.128906 125.601562 "/>
<path style=" stroke:none;fill-rule:nonzero;fill:rgb(100%,59.999084%,0%);fill-opacity:1;" d="M 148.734375 147.484375 C 162.921875 114.40625 198.417969 93.710938 233.984375 91.710938 C 273.292969 89.695312 307.070312 111.996094 329.648438 141.820312 C 361.632812 184.699219 358.085938 237.046875 343.273438 281.964844 C 371.109375 216.4375 352.070312 130.527344 282.683594 99.003906 C 254.558594 86.023438 220.851562 86.152344 192.820312 99.335938 C 162.921875 114.40625 134.976562 150.027344 144.886719 184.449219 C 144.753906 178.859375 145.375 162.679688 148.734375 147.484375 "/>
<path style=" stroke:none;fill-rule:nonzero;fill:rgb(100%,59.999084%,0%);fill-opacity:1;" d="M 140.175781 172.882812 C 147.894531 99.503906 232.003906 63.675781 293.929688 102.699219 C 340.851562 134.304688 361.621094 180.960938 359.949219 235.171875 C 369.054688 165.976562 321.976562 93.25 247.066406 86.050781 C 200.238281 80.621094 159.152344 106.945312 142.464844 149.992188 C 136.925781 170.582031 135.132812 191.144531 149.253906 207.117188 C 147.308594 202.183594 142.375 187.589844 140.175781 172.882812 "/>
<path style=" stroke:none;fill-rule:nonzero;fill:rgb(100%,59.999084%,0%);fill-opacity:1;" d="M 140.6875 198.21875 C 129.410156 163.128906 146.109375 123.8125 174.113281 103.148438 C 203.984375 80.601562 241.417969 76.726562 277.03125 89.679688 C 320.15625 106.34375 350.246094 143.617188 359.769531 186.574219 C 352.101562 138.003906 312.636719 98.894531 267.652344 84.109375 C 235.789062 74.878906 202.105469 78.746094 174.101562 99.410156 C 157.300781 112.558594 146.128906 127.554688 138.703125 146.269531 C 127.585938 176.222656 135.199219 209.839844 161.480469 228.4375 C 161.480469 228.4375 159.601562 226.574219 160.382812 225.785156 C 157.113281 222.0625 147.734375 210.710938 140.6875 198.21875 "/>
<path style=" stroke:none;fill-rule:nonzero;fill:rgb(100%,59.999084%,0%);fill-opacity:1;" d="M 148.945312 220.347656 C 123.878906 187.449219 131.203125 142.558594 155.433594 114.433594 C 175.9375 90.054688 207.71875 76.851562 239.550781 78.605469 C 286.359375 80.296875 323.898438 106.328125 348.367188 141.753906 C 323.886719 102.589844 288.226562 78.421875 241.417969 76.726562 C 198.351562 75.015625 157.234375 93.863281 138.664062 135.058594 C 121.945312 170.636719 133.402344 230.40625 175.875 238.683594 C 171.902344 236.4375 159.652344 229.367188 148.945312 220.347656 "/>
<path style=" stroke:none;fill-rule:nonzero;fill:rgb(100%,59.999084%,0%);fill-opacity:1;" d="M 162.527344 237.21875 C 120.21875 209.890625 119.984375 146.34375 151.675781 110.703125 C 196.429688 61.941406 278.816406 65.375 325.777344 108.191406 C 290.0625 69.070312 235.75 63.667969 189.011719 80.664062 C 151.621094 95.753906 127.417969 131.359375 125.691406 170.621094 C 125.828125 208.003906 154.074219 250.894531 192.992188 245.394531 C 188.949219 244.558594 175.484375 242.105469 162.527344 237.21875 "/>
<path style=" stroke:none;fill-rule:nonzero;fill:rgb(100%,59.999084%,0%);fill-opacity:1;" d="M 178.636719 248.207031 C 135.28125 232.269531 112.632812 183.757812 129.324219 140.695312 C 153.40625 71.449219 241.332031 54.296875 301.351562 83.980469 C 263.824219 61.691406 217.015625 59.992188 177.777344 80.703125 C 144.148438 99.519531 119.929688 131.386719 120.085938 172.511719 C 122.113281 215.496094 163.496094 267.679688 209.378906 246.765625 C 205.722656 247.023438 192.5 248.851562 178.636719 248.207031 "/>
<path style=" stroke:none;fill-rule:nonzero;fill:rgb(100%,59.999084%,0%);fill-opacity:1;" d="M 194.8125 253.949219 C 125.984375 249.125 97.585938 165.117188 138.582031 112.625 C 172.125 71.378906 224.488281 56.226562 273.203125 67.261719 C 205.730469 45.082031 123.519531 90.25 116.3125 165.050781 C 112.707031 202.445312 131.5625 239.761719 169.050781 250.839844 C 185.921875 256.378906 208.402344 260.035156 223.535156 244.414062 C 220.496094 245.347656 208.511719 250.707031 194.8125 253.949219 "/>
<path style=" stroke:none;fill-rule:nonzero;fill:rgb(100%,59.999084%,0%);fill-opacity:1;" d="M 209.390625 255.910156 C 152.261719 267.71875 105.261719 213.691406 114.402344 155.707031 C 127.261719 90.234375 188.925781 58.230469 248.835938 58.007812 C 179.53125 48.921875 110.460938 103.382812 110.726562 174.414062 C 110.855469 208.058594 131.5625 239.761719 161.574219 254.601562 C 185.949219 263.859375 219.648438 263.738281 234.953125 240.203125 C 232.566406 241.390625 222.277344 249.375 209.390625 255.910156 "/>
<path style=" stroke:none;fill-rule:nonzero;fill:rgb(100%,59.999084%,0%);fill-opacity:1;" d="M 221.609375 255.753906 C 182.242188 275.085938 133.46875 249.097656 116.480469 209.90625 C 101.359375 172.578125 110.5625 129.554688 136.660156 99.546875 C 159.027344 73.296875 192.671875 58.21875 226.355469 54.351562 C 143.964844 50.921875 78.796875 146.492188 118.382812 219.25 C 133.441406 241.625 154.117188 262.105469 182.203125 263.871094 C 206.546875 265.652344 234.609375 259.9375 243.878906 235.6875 C 242.011719 236.832031 233.425781 246.605469 221.609375 255.753906 "/>
<path style=" stroke:none;fill-rule:nonzero;fill:rgb(100%,59.999084%,0%);fill-opacity:1;" d="M 231.371094 254.945312 C 182.269531 282.566406 118.507812 252.890625 107.066406 196.859375 C 93.703125 127.746094 144.011719 62.136719 209.496094 52.542969 C 153.359375 60.230469 108.601562 105.257812 103.199219 163.222656 C 99.605469 204.359375 120.347656 243.539062 157.855469 262.09375 C 191.609375 276.921875 238.382812 267.402344 250.875 231.953125 C 249.390625 232.847656 242.21875 243.796875 231.371094 254.945312 "/>
<path style=" stroke:none;fill-rule:nonzero;fill:rgb(100%,59.999084%,0%);fill-opacity:1;" d="M 238.9375 254.523438 C 210.320312 273.113281 176.636719 276.980469 146.609375 258.394531 C 114.710938 237.957031 99.605469 204.359375 99.464844 166.980469 C 103.003906 110.886719 142.144531 64.011719 196.382812 50.722656 C 149.617188 60.25 116.054688 97.757812 101.25 142.671875 C 84.613281 200.683594 118.5625 267.847656 184.109375 273.210938 C 215.941406 274.960938 247.71875 261.761719 256.535156 229.574219 C 255.308594 230.144531 249.113281 241.867188 238.9375 254.523438 "/>
<path style=" stroke:none;fill-rule:nonzero;fill:rgb(100%,59.999084%,0%);fill-opacity:1;" d="M 244.644531 255.070312 C 204.769531 289.953125 142.9375 277.101562 114.695312 234.210938 C 67.632812 165.226562 114.09375 73.464844 187.019531 48.894531 C 115.949219 67.847656 73.203125 152.125 103.40625 219.300781 C 116.617188 247.292969 139.152344 265.898438 167.269531 275.144531 C 202.871094 284.355469 251.492188 269.222656 261.300781 228.78125 C 260.246094 228.996094 254.570312 241.261719 244.644531 255.070312 "/>
<path style=" stroke:none;fill-rule:nonzero;fill:rgb(100%,59.999084%,0%);fill-opacity:1;" d="M 248.800781 256.824219 C 204.804688 301.171875 126.078125 275.296875 101.542969 221.179688 C 73.203125 152.125 115.960938 71.589844 183.257812 45.164062 C 138.386719 60.289062 108.554688 94.046875 93.75 138.957031 C 80.828125 189.476562 96.003906 241.761719 142.910156 269.628906 C 186.058594 293.765625 253.414062 282.300781 265.398438 229.542969 C 264.480469 229.4375 258.902344 242.132812 248.800781 256.824219 "/>
<path style=" stroke:none;fill-rule:nonzero;fill:rgb(100%,59.999084%,0%);fill-opacity:1;" d="M 251.625 259.746094 C 214.148438 295.53125 148.605469 290.164062 114.75 249.167969 C 94.054688 221.207031 80.820312 185.742188 88.164062 148.328125 C 102.960938 99.671875 132.773438 62.179688 179.503906 41.441406 C 127.167969 64.066406 84.28125 110.960938 84.503906 170.773438 C 84.6875 219.371094 112.929688 262.261719 157.929688 280.785156 C 201.050781 297.449219 257.140625 278.550781 268.914062 231.695312 C 268.121094 231.3125 262.292969 244.386719 251.625 259.746094 "/>
<path style=" stroke:none;fill-rule:nonzero;fill:rgb(100%,59.999084%,0%);fill-opacity:1;" d="M 253.296875 263.636719 C 208.550781 301.160156 139.25 292.070312 105.371094 243.59375 C 52.671875 169.023438 99.09375 66.039062 179.488281 37.703125 C 129.019531 58.453125 91.730469 99.714844 82.585938 157.691406 C 77.128906 200.710938 96.003906 241.761719 127.929688 269.683594 C 173.003906 306.898438 255.320312 291.640625 271.882812 234.957031 C 271.199219 234.367188 264.847656 247.796875 253.296875 263.636719 "/>
<path style=" stroke:none;fill-rule:nonzero;fill:rgb(100%,59.999084%,0%);fill-opacity:1;" d="M 253.996094 268.203125 C 208.566406 304.898438 143.011719 295.796875 107.277344 252.933594 C 47.09375 178.386719 93.453125 60.453125 183.21875 33.953125 C 99.050781 54.824219 52.632812 157.804688 92.230469 234.300781 C 114.835938 271.597656 154.253906 299.492188 201.035156 293.710938 C 232.839844 287.984375 264.601562 271.042969 274.320312 239 C 273.730469 238.277344 266.660156 252.042969 253.996094 268.203125 "/>
<path style=" stroke:none;fill-rule:nonzero;fill:rgb(100%,59.999084%,0%);fill-opacity:1;" d="M 253.953125 273.125 C 188.050781 325.539062 90.53125 281.035156 77.113281 196.972656 C 65.589844 118.503906 115.890625 52.894531 185.070312 28.339844 C 110.265625 51.046875 58.144531 129.746094 79.035156 210.046875 C 90.410156 247.386719 116.730469 277.199219 154.226562 292.011719 C 199.210938 306.804688 259.0625 291.625 276.292969 243.449219 C 275.78125 242.6875 267.847656 256.769531 253.953125 273.125 "/>
</g>
</svg>
