<?xml version="1.0" encoding="UTF-8"?>
<svg xmlns="http://www.w3.org/2000/svg" xmlns:xlink="http://www.w3.org/1999/xlink" width="375pt" height="374.999991pt" viewBox="0 0 375 374.999991" version="1.2">
<defs>
<clipPath id="clip1">
  <path d="M 97.449219 87.164062 L 277.449219 87.164062 L 277.449219 288.164062 L 97.449219 288.164062 Z M 97.449219 87.164062 "/>
</clipPath>
</defs>
<g id="surface1">
<path style=" stroke:none;fill-rule:nonzero;fill:rgb(100%,100%,100%);fill-opacity:1;" d="M 125.089844 202.351562 L 149.042969 202.351562 L 149.042969 178.347656 L 125.089844 178.347656 L 125.089844 202.351562 "/>
<path style=" stroke:none;fill-rule:nonzero;fill:rgb(100%,100%,100%);fill-opacity:1;" d="M 234.117188 178.347656 L 210.164062 178.347656 L 210.164062 202.351562 L 234.117188 202.351562 L 234.117188 178.347656 "/>
<path style=" stroke:none;fill-rule:nonzero;fill:rgb(100%,100%,100%);fill-opacity:1;" d="M 167.628906 202.351562 L 191.578125 202.351562 L 191.578125 178.347656 L 167.628906 178.347656 L 167.628906 202.351562 "/>
<path style=" stroke:none;fill-rule:nonzero;fill:rgb(100%,100%,100%);fill-opacity:1;" d="M 125.089844 246.589844 L 149.042969 246.589844 L 149.042969 222.585938 L 125.089844 222.585938 L 125.089844 246.589844 "/>
<path style=" stroke:none;fill-rule:nonzero;fill:rgb(100%,100%,100%);fill-opacity:1;" d="M 167.628906 246.589844 L 191.578125 246.589844 L 191.578125 222.585938 L 167.628906 222.585938 L 167.628906 246.589844 "/>
<g clip-path="url(#clip1)" clip-rule="nonzero">
<path style=" stroke:none;fill-rule:nonzero;fill:rgb(100%,100%,100%);fill-opacity:1;" d="M 239.789062 278.773438 C 224.238281 278.773438 211.589844 266.09375 211.589844 250.511719 C 211.589844 234.933594 224.238281 222.25 239.789062 222.25 C 255.335938 222.25 267.988281 234.933594 267.988281 250.511719 C 267.988281 266.09375 255.335938 278.773438 239.789062 278.773438 Z M 106.953125 268.640625 L 106.953125 163.820312 L 252.253906 163.820312 L 252.253906 215.015625 C 248.347656 213.632812 244.164062 212.84375 239.789062 212.84375 C 219.0625 212.84375 202.203125 229.742188 202.203125 250.511719 C 202.203125 257.539062 204.167969 264.105469 207.527344 269.742188 L 108.050781 269.742188 C 107.445312 269.742188 106.953125 269.246094 106.953125 268.640625 Z M 217.601562 120.851562 L 217.601562 125.414062 C 217.601562 129.3125 220.753906 132.46875 224.640625 132.46875 C 228.53125 132.46875 231.679688 129.3125 231.679688 125.414062 L 231.679688 120.851562 C 234.167969 122.898438 235.789062 125.96875 235.789062 129.449219 C 235.789062 135.617188 230.796875 140.621094 224.640625 140.621094 C 218.484375 140.621094 213.492188 135.617188 213.492188 129.449219 C 213.492188 125.96875 215.113281 122.902344 217.601562 120.851562 Z M 172.5625 121.03125 L 172.5625 125.414062 C 172.5625 129.3125 175.714844 132.46875 179.605469 132.46875 C 183.492188 132.46875 186.644531 129.3125 186.644531 125.414062 L 186.644531 120.675781 C 189.257812 122.71875 190.96875 125.867188 190.96875 129.449219 C 190.96875 135.617188 185.980469 140.621094 179.820312 140.621094 C 173.664062 140.621094 168.671875 135.617188 168.671875 129.449219 C 168.671875 126.070312 170.199219 123.082031 172.5625 121.03125 Z M 127.527344 120.851562 L 127.527344 125.414062 C 127.527344 129.3125 130.679688 132.46875 134.566406 132.46875 C 138.457031 132.46875 141.605469 129.3125 141.605469 125.414062 L 141.605469 120.851562 C 144.09375 122.902344 145.714844 125.96875 145.714844 129.449219 C 145.714844 135.617188 140.722656 140.621094 134.566406 140.621094 C 128.410156 140.621094 123.417969 135.617188 123.417969 129.449219 C 123.417969 125.96875 125.039062 122.898438 127.527344 120.851562 Z M 261.640625 219.921875 L 261.640625 116.910156 C 261.640625 111.117188 256.9375 106.402344 251.15625 106.402344 L 231.679688 106.402344 L 231.679688 94.246094 C 231.679688 90.351562 228.53125 87.191406 224.640625 87.191406 C 220.753906 87.191406 217.601562 90.351562 217.601562 94.246094 L 217.601562 106.402344 L 186.644531 106.402344 L 186.644531 94.246094 C 186.644531 90.351562 183.492188 87.191406 179.605469 87.191406 C 175.714844 87.191406 172.5625 90.351562 172.5625 94.246094 L 172.5625 106.402344 L 141.605469 106.402344 L 141.605469 94.246094 C 141.605469 90.351562 138.457031 87.191406 134.566406 87.191406 C 130.679688 87.191406 127.527344 90.351562 127.527344 94.246094 L 127.527344 106.402344 L 108.050781 106.402344 C 102.269531 106.402344 97.566406 111.117188 97.566406 116.910156 L 97.566406 268.640625 C 97.566406 274.433594 102.269531 279.148438 108.050781 279.148438 L 215.433594 279.148438 C 222 284.765625 230.496094 288.183594 239.789062 288.183594 C 260.515625 288.183594 277.375 271.285156 277.375 250.511719 C 277.375 237.914062 271.148438 226.765625 261.640625 219.921875 "/>
</g>
<path style=" stroke:none;fill-rule:nonzero;fill:rgb(100%,100%,100%);fill-opacity:1;" d="M 257.25 256.972656 L 242.136719 249.085938 L 242.136719 234.035156 C 242.136719 232.738281 241.085938 231.6875 239.789062 231.6875 C 238.492188 231.6875 237.441406 232.738281 237.441406 234.035156 L 237.441406 250.511719 C 237.441406 251.390625 237.929688 252.195312 238.703125 252.597656 L 255.085938 261.144531 C 255.429688 261.324219 255.800781 261.410156 256.164062 261.410156 C 257.015625 261.410156 257.832031 260.949219 258.25 260.144531 C 258.847656 258.992188 258.402344 257.574219 257.25 256.972656 "/>
</g>
</svg>
