<?xml version="1.0" encoding="UTF-8"?>
<svg xmlns="http://www.w3.org/2000/svg" xmlns:xlink="http://www.w3.org/1999/xlink" width="375pt" height="374.999991pt" viewBox="0 0 375 374.999991" version="1.2">
<defs>
<clipPath id="clip1">
  <path d="M 152.371094 152.371094 L 222.871094 152.371094 L 222.871094 222.871094 L 152.371094 222.871094 Z M 152.371094 152.371094 "/>
</clipPath>
<clipPath id="clip2">
  <path d="M 159 155 L 222.871094 155 L 222.871094 222.871094 L 159 222.871094 Z M 159 155 "/>
</clipPath>
<clipPath id="clip3">
  <path d="M 158 154 L 222.871094 154 L 222.871094 222.871094 L 158 222.871094 Z M 158 154 "/>
</clipPath>
</defs>
<g id="surface1">
<g clip-path="url(#clip1)" clip-rule="nonzero">
<path style=" stroke:none;fill-rule:nonzero;fill:rgb(36.468506%,30.589294%,66.668701%);fill-opacity:1;" d="M 222.605469 187.734375 C 222.605469 206.996094 206.996094 222.605469 187.734375 222.605469 C 168.476562 222.605469 152.863281 206.996094 152.863281 187.734375 C 152.863281 168.476562 168.476562 152.863281 187.734375 152.863281 C 206.996094 152.863281 222.605469 168.476562 222.605469 187.734375 "/>
<path style=" stroke:none;fill-rule:nonzero;fill:rgb(0%,0%,0%);fill-opacity:1;" d="M 222.605469 187.734375 L 222.105469 187.734375 C 222.105469 197.230469 218.257812 205.816406 212.039062 212.039062 C 205.816406 218.257812 197.230469 222.105469 187.734375 222.105469 C 178.242188 222.105469 169.652344 218.257812 163.429688 212.039062 C 157.210938 205.816406 153.363281 197.230469 153.363281 187.734375 C 153.363281 178.242188 157.210938 169.652344 163.429688 163.429688 C 169.652344 157.210938 178.242188 153.367188 187.734375 153.363281 C 197.230469 153.367188 205.816406 157.210938 212.039062 163.429688 C 218.257812 169.652344 222.105469 178.242188 222.105469 187.734375 L 223.105469 187.734375 C 223.105469 168.199219 207.269531 152.363281 187.734375 152.363281 C 168.199219 152.363281 152.363281 168.199219 152.363281 187.734375 C 152.363281 207.269531 168.199219 223.105469 187.734375 223.105469 C 207.269531 223.105469 223.105469 207.269531 223.105469 187.734375 L 222.605469 187.734375 "/>
</g>
<path style=" stroke:none;fill-rule:nonzero;fill:rgb(100%,100%,100%);fill-opacity:1;" d="M 212.742188 187.734375 C 212.742188 201.546875 201.546875 212.742188 187.734375 212.742188 C 173.921875 212.742188 162.730469 201.546875 162.730469 187.734375 C 162.730469 173.925781 173.921875 162.726562 187.734375 162.726562 C 201.546875 162.726562 212.742188 173.925781 212.742188 187.734375 "/>
<path style=" stroke:none;fill-rule:nonzero;fill:rgb(0%,0%,0%);fill-opacity:1;" d="M 212.742188 187.734375 L 212.242188 187.734375 C 212.242188 194.503906 209.5 200.628906 205.0625 205.0625 C 200.628906 209.5 194.503906 212.242188 187.734375 212.242188 C 180.964844 212.242188 174.84375 209.5 170.40625 205.0625 C 165.96875 200.628906 163.230469 194.503906 163.230469 187.734375 C 163.230469 180.96875 165.96875 174.84375 170.40625 170.40625 C 174.84375 165.96875 180.964844 163.226562 187.734375 163.226562 C 194.503906 163.226562 200.628906 165.96875 205.0625 170.40625 C 209.5 174.84375 212.242188 180.96875 212.242188 187.734375 L 213.242188 187.734375 C 213.242188 173.648438 201.824219 162.226562 187.734375 162.226562 C 173.648438 162.226562 162.226562 173.648438 162.226562 187.734375 C 162.226562 201.824219 173.648438 213.242188 187.734375 213.242188 C 201.824219 213.242188 213.242188 201.824219 213.242188 187.734375 L 212.742188 187.734375 "/>
<path style=" stroke:none;fill-rule:nonzero;fill:rgb(81.17981%,80.778503%,80.778503%);fill-opacity:1;" d="M 179.410156 210.789062 C 175.992188 209.554688 172.925781 207.582031 170.40625 205.0625 C 165.96875 200.628906 163.230469 194.503906 163.230469 187.734375 C 163.230469 180.96875 165.96875 174.84375 170.40625 170.40625 C 174.84375 165.96875 180.964844 163.226562 187.734375 163.226562 C 194.503906 163.226562 200.628906 165.96875 205.0625 170.40625 C 206.097656 171.441406 207.039062 172.5625 207.871094 173.765625 C 208.027344 175.054688 208.109375 176.363281 208.109375 177.6875 C 208.109375 178.386719 208.085938 179.082031 208.042969 179.773438 C 204.863281 171.667969 196.96875 165.925781 187.734375 165.925781 C 175.691406 165.925781 165.925781 175.691406 165.925781 187.734375 C 165.925781 198.914062 174.34375 208.132812 185.183594 209.394531 C 183.320312 210.027344 181.390625 210.5 179.410156 210.789062 "/>
<path style=" stroke:none;fill-rule:nonzero;fill:rgb(0%,0%,0%);fill-opacity:1;" d="M 178.363281 210.925781 C 169.195312 207.21875 162.730469 198.234375 162.730469 187.734375 C 162.730469 173.925781 173.921875 162.726562 187.734375 162.726562 C 195.90625 162.726562 203.164062 166.648438 207.726562 172.710938 C 207.78125 173.0625 207.832031 173.414062 207.871094 173.765625 C 207.039062 172.5625 206.097656 171.441406 205.0625 170.40625 C 200.628906 165.96875 194.503906 163.226562 187.734375 163.226562 C 180.964844 163.226562 174.84375 165.96875 170.40625 170.40625 C 165.96875 174.84375 163.230469 180.96875 163.230469 187.734375 C 163.230469 194.503906 165.96875 200.628906 170.40625 205.0625 C 172.925781 207.582031 175.992188 209.554688 179.410156 210.789062 C 179.0625 210.839844 178.714844 210.886719 178.363281 210.925781 "/>
<path style=" stroke:none;fill-rule:nonzero;fill:rgb(52.938843%,45.878601%,76.078796%);fill-opacity:1;" d="M 161.242188 191.175781 C 158.082031 187.382812 156.457031 182.292969 157.179688 176.96875 C 158.425781 167.824219 166.144531 161.175781 174.984375 161.175781 C 175.773438 161.175781 176.574219 161.230469 177.382812 161.339844 C 177.753906 161.390625 178.113281 161.460938 178.476562 161.535156 C 169.570312 165.464844 162.433594 172.359375 161.027344 182.667969 C 160.707031 185.027344 160.992188 188.898438 161.242188 191.175781 "/>
<g clip-path="url(#clip2)" clip-rule="nonzero">
<path style=" stroke:none;fill-rule:nonzero;fill:rgb(25.878906%,21.179199%,46.269226%);fill-opacity:1;" d="M 187.734375 222.105469 C 178.242188 222.105469 169.652344 218.257812 163.429688 212.039062 C 162.019531 210.628906 160.730469 209.09375 159.578125 207.453125 C 164.132812 209.804688 169.261719 211.136719 174.660156 211.136719 C 175.558594 211.136719 176.445312 211.101562 177.328125 211.027344 C 180.503906 212.453125 184.027344 213.242188 187.734375 213.242188 C 201.824219 213.242188 213.242188 201.824219 213.242188 187.734375 C 213.242188 181.648438 211.109375 176.058594 207.550781 171.671875 C 206.394531 165.523438 203.511719 159.921875 199.441406 155.410156 C 204.222656 157.140625 208.511719 159.90625 212.039062 163.429688 C 218.257812 169.652344 222.105469 178.242188 222.105469 187.734375 C 222.105469 197.230469 218.257812 205.816406 212.039062 212.039062 C 205.816406 218.257812 197.230469 222.105469 187.734375 222.105469 "/>
</g>
<g clip-path="url(#clip3)" clip-rule="nonzero">
<path style=" stroke:none;fill-rule:nonzero;fill:rgb(0%,0%,0%);fill-opacity:1;" d="M 187.734375 222.605469 C 175.574219 222.605469 164.871094 216.378906 158.628906 206.941406 C 158.941406 207.117188 159.257812 207.289062 159.578125 207.453125 C 160.730469 209.09375 162.019531 210.628906 163.429688 212.039062 C 169.652344 218.257812 178.242188 222.105469 187.734375 222.105469 C 197.230469 222.105469 205.816406 218.257812 212.039062 212.039062 C 218.257812 205.816406 222.105469 197.230469 222.105469 187.734375 C 222.105469 178.242188 218.257812 169.652344 212.039062 163.429688 C 208.511719 159.90625 204.222656 157.140625 199.441406 155.410156 C 199.203125 155.144531 198.960938 154.886719 198.714844 154.628906 C 212.59375 159.230469 222.605469 172.3125 222.605469 187.734375 C 222.605469 206.996094 206.996094 222.605469 187.734375 222.605469 "/>
</g>
<path style=" stroke:none;fill-rule:nonzero;fill:rgb(0%,0%,0%);fill-opacity:1;" d="M 187.734375 213.242188 C 184.027344 213.242188 180.503906 212.453125 177.328125 211.027344 C 177.675781 211 178.019531 210.964844 178.363281 210.925781 C 181.257812 212.097656 184.421875 212.742188 187.734375 212.742188 C 201.546875 212.742188 212.742188 201.546875 212.742188 187.734375 C 212.742188 182.097656 210.875 176.894531 207.726562 172.710938 C 207.675781 172.363281 207.613281 172.015625 207.550781 171.671875 C 211.109375 176.058594 213.242188 181.648438 213.242188 187.734375 C 213.242188 201.824219 201.824219 213.242188 187.734375 213.242188 "/>
<path style=" stroke:none;fill-rule:nonzero;fill:rgb(71.759033%,70.979309%,71.369934%);fill-opacity:1;" d="M 187.734375 209.542969 C 186.871094 209.542969 186.019531 209.492188 185.183594 209.394531 C 197.757812 205.121094 207.167969 193.457031 208.042969 179.773438 C 209.011719 182.238281 209.542969 184.925781 209.542969 187.734375 C 209.542969 199.78125 199.78125 209.542969 187.734375 209.542969 "/>
<path style=" stroke:none;fill-rule:nonzero;fill:rgb(58.81958%,58.039856%,58.039856%);fill-opacity:1;" d="M 187.734375 212.242188 C 184.8125 212.242188 182.007812 211.730469 179.410156 210.789062 C 181.390625 210.5 183.320312 210.027344 185.183594 209.394531 C 186.019531 209.492188 186.871094 209.542969 187.734375 209.542969 C 199.78125 209.542969 209.542969 199.78125 209.542969 187.734375 C 209.542969 184.925781 209.011719 182.238281 208.042969 179.773438 C 208.085938 179.082031 208.109375 178.386719 208.109375 177.6875 C 208.109375 176.363281 208.027344 175.054688 207.871094 173.765625 C 210.628906 177.730469 212.242188 182.542969 212.242188 187.734375 C 212.242188 194.503906 209.5 200.628906 205.0625 205.0625 C 200.628906 209.5 194.503906 212.242188 187.734375 212.242188 "/>
<path style=" stroke:none;fill-rule:nonzero;fill:rgb(0%,0%,0%);fill-opacity:1;" d="M 187.734375 212.742188 C 184.421875 212.742188 181.257812 212.097656 178.363281 210.925781 C 178.714844 210.886719 179.0625 210.839844 179.410156 210.789062 C 182.007812 211.730469 184.8125 212.242188 187.734375 212.242188 C 194.503906 212.242188 200.628906 209.5 205.0625 205.0625 C 209.5 200.628906 212.242188 194.503906 212.242188 187.734375 C 212.242188 182.542969 210.628906 177.730469 207.871094 173.765625 C 207.832031 173.414062 207.78125 173.0625 207.726562 172.710938 C 210.875 176.894531 212.742188 182.097656 212.742188 187.734375 C 212.742188 201.546875 201.546875 212.742188 187.734375 212.742188 "/>
<path style=" stroke:none;fill-rule:nonzero;fill:rgb(0%,0%,0%);fill-opacity:1;" d="M 196.847656 169.484375 L 178.625 169.484375 L 178.625 174.515625 L 179.925781 174.515625 C 181.125 174.535156 182.191406 174.601562 183.085938 174.726562 C 184.082031 174.863281 184.984375 175.140625 185.773438 175.550781 C 186.460938 175.90625 186.996094 176.429688 187.417969 177.128906 L 178.625 177.128906 L 178.625 182.164062 L 188.0625 182.164062 C 187.949219 182.75 187.769531 183.261719 187.519531 183.699219 C 187.066406 184.496094 186.457031 185.089844 185.664062 185.511719 C 184.84375 185.953125 183.925781 186.253906 182.929688 186.40625 C 181.902344 186.566406 180.71875 186.644531 179.40625 186.644531 L 178.878906 186.644531 L 178.878906 191.519531 L 190.0625 207.753906 L 196.59375 207.753906 L 184.695312 191 C 187.226562 190.585938 189.300781 189.496094 190.867188 187.765625 C 192.25 186.226562 193.09375 184.347656 193.394531 182.164062 L 196.847656 182.164062 L 196.847656 177.128906 L 193.167969 177.128906 C 192.980469 176.351562 192.71875 175.632812 192.375 174.988281 C 192.289062 174.824219 192.199219 174.671875 192.105469 174.515625 L 196.847656 174.515625 L 196.847656 169.484375 "/>
</g>
</svg>
