<?xml version="1.0" encoding="UTF-8"?>
<svg xmlns="http://www.w3.org/2000/svg" xmlns:xlink="http://www.w3.org/1999/xlink" width="375pt" height="374.999991pt" viewBox="0 0 375 374.999991" version="1.2">
<defs>
<clipPath id="clip1">
  <path d="M 178 165.65625 L 200 165.65625 L 200 188 L 178 188 Z M 178 165.65625 "/>
</clipPath>
<clipPath id="clip2">
  <path d="M 177 165.65625 L 200 165.65625 L 200 188 L 177 188 Z M 177 165.65625 "/>
</clipPath>
<clipPath id="clip3">
  <path d="M 189 175 L 211.199219 175 L 211.199219 198 L 189 198 Z M 189 175 "/>
</clipPath>
<clipPath id="clip4">
  <path d="M 178 187 L 201 187 L 201 208.980469 L 178 208.980469 Z M 178 187 "/>
</clipPath>
</defs>
<g id="surface1">
<path style=" stroke:none;fill-rule:nonzero;fill:rgb(9.01947%,45.878601%,66.668701%);fill-opacity:1;" d="M 187.5 149.773438 C 186.265625 149.773438 185.03125 149.835938 183.800781 149.957031 C 182.574219 150.078125 181.351562 150.257812 180.140625 150.5 C 178.929688 150.742188 177.730469 151.039062 176.550781 151.398438 C 175.367188 151.757812 174.203125 152.171875 173.0625 152.644531 C 171.921875 153.121094 170.804688 153.648438 169.714844 154.230469 C 168.625 154.8125 167.566406 155.445312 166.539062 156.132812 C 165.511719 156.820312 164.523438 157.554688 163.566406 158.339844 C 162.613281 159.121094 161.699219 159.949219 160.824219 160.824219 C 159.949219 161.699219 159.121094 162.613281 158.339844 163.566406 C 157.554688 164.523438 156.820312 165.511719 156.132812 166.539062 C 155.445312 167.566406 154.8125 168.625 154.230469 169.714844 C 153.648438 170.804688 153.121094 171.921875 152.644531 173.0625 C 152.171875 174.203125 151.757812 175.367188 151.398438 176.550781 C 151.039062 177.730469 150.742188 178.929688 150.5 180.140625 C 150.257812 181.351562 150.078125 182.574219 149.957031 183.800781 C 149.835938 185.03125 149.773438 186.265625 149.773438 187.5 C 149.773438 188.734375 149.835938 189.96875 149.957031 191.199219 C 150.078125 192.425781 150.257812 193.648438 150.5 194.859375 C 150.742188 196.070312 151.039062 197.269531 151.398438 198.449219 C 151.757812 199.632812 152.171875 200.796875 152.644531 201.9375 C 153.121094 203.078125 153.648438 204.195312 154.230469 205.285156 C 154.8125 206.375 155.445312 207.433594 156.132812 208.460938 C 156.820312 209.488281 157.554688 210.476562 158.339844 211.433594 C 159.121094 212.386719 159.949219 213.300781 160.824219 214.175781 C 161.699219 215.050781 162.613281 215.878906 163.566406 216.660156 C 164.523438 217.445312 165.511719 218.179688 166.539062 218.867188 C 167.566406 219.554688 168.625 220.1875 169.714844 220.769531 C 170.804688 221.351562 171.921875 221.878906 173.0625 222.355469 C 174.203125 222.828125 175.367188 223.242188 176.550781 223.601562 C 177.730469 223.960938 178.929688 224.257812 180.140625 224.5 C 181.351562 224.742188 182.574219 224.921875 183.800781 225.042969 C 185.03125 225.164062 186.265625 225.226562 187.5 225.226562 C 188.734375 225.226562 189.96875 225.164062 191.199219 225.042969 C 192.425781 224.921875 193.648438 224.742188 194.859375 224.5 C 196.070312 224.257812 197.269531 223.960938 198.449219 223.601562 C 199.632812 223.242188 200.796875 222.828125 201.9375 222.355469 C 203.078125 221.878906 204.195312 221.351562 205.285156 220.769531 C 206.375 220.1875 207.433594 219.554688 208.460938 218.867188 C 209.488281 218.179688 210.476562 217.445312 211.433594 216.660156 C 212.386719 215.878906 213.300781 215.050781 214.175781 214.175781 C 215.050781 213.300781 215.878906 212.386719 216.660156 211.433594 C 217.445312 210.476562 218.179688 209.488281 218.867188 208.460938 C 219.554688 207.433594 220.1875 206.375 220.769531 205.285156 C 221.351562 204.195312 221.878906 203.078125 222.355469 201.9375 C 222.828125 200.796875 223.242188 199.632812 223.601562 198.449219 C 223.960938 197.269531 224.257812 196.070312 224.5 194.859375 C 224.742188 193.648438 224.921875 192.425781 225.042969 191.199219 C 225.164062 189.96875 225.226562 188.734375 225.226562 187.5 C 225.226562 186.265625 225.164062 185.03125 225.042969 183.800781 C 224.921875 182.574219 224.742188 181.351562 224.5 180.140625 C 224.257812 178.929688 223.960938 177.730469 223.601562 176.550781 C 223.242188 175.367188 222.828125 174.203125 222.355469 173.0625 C 221.878906 171.921875 221.351562 170.804688 220.769531 169.714844 C 220.1875 168.625 219.554688 167.566406 218.867188 166.539062 C 218.179688 165.511719 217.445312 164.523438 216.660156 163.566406 C 215.878906 162.613281 215.050781 161.699219 214.175781 160.824219 C 213.300781 159.949219 212.386719 159.121094 211.433594 158.339844 C 210.476562 157.554688 209.488281 156.820312 208.460938 156.132812 C 207.433594 155.445312 206.375 154.8125 205.285156 154.230469 C 204.195312 153.648438 203.078125 153.121094 201.9375 152.644531 C 200.796875 152.171875 199.632812 151.757812 198.449219 151.398438 C 197.269531 151.039062 196.070312 150.742188 194.859375 150.5 C 193.648438 150.257812 192.425781 150.078125 191.199219 149.957031 C 189.96875 149.835938 188.734375 149.773438 187.5 149.773438 Z M 187.5 149.773438 "/>
<g clip-path="url(#clip1)" clip-rule="nonzero">
<path style=" stroke:none;fill-rule:nonzero;fill:rgb(100%,100%,100%);fill-opacity:1;" d="M 182.015625 180.71875 L 178.035156 177.117188 L 188.410156 165.984375 L 192.390625 169.589844 C 192.585938 169.730469 193.257812 170.214844 193.554688 169.925781 C 193.851562 169.632812 193.855469 168.644531 193.855469 168.644531 L 193.855469 168.648438 C 193.859375 168.058594 194.070312 167.464844 194.507812 166.996094 C 195.4375 166.003906 197.007812 165.9375 198.015625 166.851562 C 199.023438 167.765625 199.089844 169.3125 198.164062 170.304688 C 197.726562 170.777344 197.148438 171.035156 196.550781 171.085938 L 196.554688 171.089844 C 196.554688 171.089844 195.554688 171.175781 195.285156 171.492188 C 195.015625 171.808594 195.566406 172.425781 195.722656 172.609375 L 199.703125 176.210938 L 196.046875 180.132812 C 195.863281 180.289062 195.234375 180.828125 194.914062 180.566406 C 194.597656 180.300781 194.503906 179.316406 194.503906 179.316406 C 194.453125 178.730469 194.1875 178.15625 193.710938 177.726562 C 192.703125 176.8125 191.132812 176.878906 190.207031 177.875 C 189.277344 178.867188 189.34375 180.417969 190.355469 181.332031 C 190.832031 181.761719 191.429688 181.972656 192.03125 181.972656 L 192.027344 181.972656 C 192.027344 181.972656 193.03125 181.980469 193.324219 182.269531 C 193.621094 182.5625 193.125 183.226562 192.984375 183.417969 L 189.328125 187.339844 L 185.351562 183.738281 C 185.152344 183.597656 184.480469 183.113281 184.183594 183.402344 C 183.890625 183.691406 183.882812 184.683594 183.882812 184.683594 L 183.878906 184.679688 C 183.878906 185.269531 183.667969 185.863281 183.230469 186.332031 C 182.300781 187.324219 180.730469 187.390625 179.722656 186.476562 C 178.714844 185.5625 178.644531 184.015625 179.574219 183.019531 C 180.011719 182.550781 180.589844 182.292969 181.1875 182.242188 L 181.183594 182.238281 C 181.183594 182.238281 182.183594 182.152344 182.453125 181.835938 C 182.722656 181.519531 182.171875 180.902344 182.015625 180.71875 "/>
</g>
<g clip-path="url(#clip2)" clip-rule="nonzero">
<path style=" stroke:none;fill-rule:nonzero;fill:rgb(13.729858%,12.159729%,12.548828%);fill-opacity:1;" d="M 182.015625 180.71875 L 182.214844 180.503906 L 178.453125 177.097656 L 188.425781 166.398438 L 192.1875 169.804688 L 192.214844 169.824219 C 192.292969 169.878906 192.449219 169.996094 192.640625 170.097656 C 192.734375 170.152344 192.839844 170.199219 192.949219 170.238281 C 193.0625 170.277344 193.179688 170.308594 193.308594 170.308594 C 193.382812 170.308594 193.464844 170.296875 193.542969 170.269531 C 193.621094 170.242188 193.699219 170.195312 193.761719 170.132812 C 193.828125 170.066406 193.878906 169.992188 193.914062 169.917969 C 193.984375 169.789062 194.023438 169.652344 194.058594 169.511719 C 194.105469 169.300781 194.125 169.089844 194.140625 168.925781 C 194.148438 168.765625 194.152344 168.652344 194.152344 168.648438 L 193.855469 168.644531 L 193.640625 168.84375 L 193.640625 168.847656 C 193.722656 168.933594 193.851562 168.964844 193.964844 168.917969 C 194.078125 168.875 194.152344 168.765625 194.152344 168.648438 C 194.15625 168.125 194.339844 167.605469 194.726562 167.195312 C 195.160156 166.730469 195.746094 166.496094 196.335938 166.496094 C 196.867188 166.496094 197.394531 166.683594 197.816406 167.066406 C 198.285156 167.492188 198.523438 168.070312 198.523438 168.652344 C 198.523438 169.171875 198.332031 169.695312 197.945312 170.109375 C 197.5625 170.523438 197.050781 170.75 196.523438 170.792969 C 196.40625 170.804688 196.308594 170.882812 196.269531 170.996094 C 196.230469 171.105469 196.265625 171.226562 196.355469 171.304688 L 196.359375 171.308594 L 196.554688 171.089844 L 196.527344 170.796875 C 196.519531 170.800781 196.261719 170.820312 195.957031 170.886719 C 195.804688 170.921875 195.640625 170.964844 195.484375 171.027344 C 195.40625 171.058594 195.332031 171.09375 195.261719 171.136719 C 195.1875 171.183594 195.121094 171.234375 195.058594 171.304688 C 195.007812 171.363281 194.972656 171.429688 194.949219 171.5 C 194.925781 171.566406 194.917969 171.636719 194.917969 171.703125 C 194.917969 171.839844 194.953125 171.960938 195 172.074219 C 195.074219 172.242188 195.171875 172.390625 195.269531 172.515625 C 195.363281 172.640625 195.453125 172.742188 195.5 172.796875 L 195.523438 172.824219 L 199.285156 176.226562 L 195.828125 179.9375 L 196.046875 180.132812 L 195.855469 179.914062 C 195.78125 179.976562 195.644531 180.09375 195.492188 180.1875 C 195.417969 180.238281 195.34375 180.277344 195.277344 180.308594 C 195.210938 180.335938 195.152344 180.347656 195.128906 180.34375 L 195.109375 180.34375 L 195.105469 180.339844 L 195.105469 180.34375 C 195.097656 180.335938 195.078125 180.316406 195.058594 180.28125 C 195.019531 180.222656 194.976562 180.125 194.945312 180.019531 C 194.890625 179.855469 194.855469 179.671875 194.832031 179.527344 C 194.820312 179.457031 194.8125 179.394531 194.808594 179.351562 C 194.804688 179.332031 194.804688 179.316406 194.800781 179.304688 L 194.800781 179.289062 C 194.789062 179.167969 194.703125 179.066406 194.582031 179.035156 C 194.464844 179.003906 194.335938 179.046875 194.265625 179.144531 L 194.261719 179.148438 L 194.503906 179.316406 L 194.796875 179.292969 C 194.742188 178.636719 194.445312 177.996094 193.914062 177.511719 C 193.378906 177.03125 192.703125 176.789062 192.035156 176.789062 C 191.285156 176.789062 190.535156 177.089844 189.988281 177.675781 C 189.5 178.203125 189.253906 178.867188 189.253906 179.527344 C 189.253906 180.265625 189.558594 181.003906 190.15625 181.546875 C 190.6875 182.027344 191.359375 182.261719 192.027344 182.265625 L 192.03125 181.972656 L 191.84375 181.746094 L 191.839844 181.746094 C 191.742188 181.824219 191.707031 181.953125 191.746094 182.070312 C 191.789062 182.1875 191.898438 182.265625 192.023438 182.265625 L 192.035156 182.265625 C 192.082031 182.265625 192.324219 182.273438 192.578125 182.308594 C 192.703125 182.328125 192.828125 182.355469 192.929688 182.386719 C 192.980469 182.402344 193.023438 182.421875 193.058594 182.4375 C 193.089844 182.453125 193.109375 182.46875 193.117188 182.476562 L 193.117188 182.480469 C 193.117188 182.484375 193.121094 182.492188 193.121094 182.511719 C 193.121094 182.542969 193.109375 182.601562 193.085938 182.671875 C 193.050781 182.773438 192.984375 182.894531 192.917969 182.996094 C 192.851562 183.101562 192.785156 183.191406 192.746094 183.25 L 192.984375 183.417969 L 192.765625 183.222656 L 189.3125 186.929688 L 185.550781 183.523438 L 185.523438 183.503906 C 185.445312 183.449219 185.289062 183.332031 185.097656 183.230469 C 185.003906 183.175781 184.898438 183.128906 184.789062 183.089844 C 184.679688 183.050781 184.558594 183.019531 184.429688 183.019531 C 184.355469 183.019531 184.273438 183.03125 184.195312 183.058594 C 184.117188 183.085938 184.039062 183.132812 183.976562 183.195312 C 183.910156 183.261719 183.863281 183.332031 183.824219 183.410156 C 183.757812 183.539062 183.714844 183.675781 183.683594 183.816406 C 183.636719 184.027344 183.613281 184.238281 183.601562 184.402344 C 183.589844 184.5625 183.585938 184.675781 183.585938 184.679688 L 183.882812 184.683594 L 184.097656 184.480469 L 184.09375 184.480469 C 184.011719 184.390625 183.882812 184.363281 183.769531 184.410156 C 183.660156 184.453125 183.585938 184.5625 183.585938 184.679688 C 183.585938 185.199219 183.398438 185.71875 183.011719 186.132812 C 182.578125 186.597656 181.992188 186.828125 181.402344 186.828125 C 180.871094 186.828125 180.34375 186.644531 179.921875 186.261719 C 179.453125 185.835938 179.214844 185.257812 179.214844 184.675781 C 179.214844 184.152344 179.40625 183.632812 179.792969 183.21875 C 180.175781 182.804688 180.6875 182.578125 181.214844 182.53125 C 181.335938 182.519531 181.4375 182.4375 181.472656 182.324219 C 181.503906 182.207031 181.464844 182.082031 181.367188 182.007812 L 181.363281 182.007812 L 181.183594 182.238281 L 181.210938 182.53125 C 181.21875 182.53125 181.476562 182.507812 181.78125 182.441406 C 181.933594 182.40625 182.097656 182.363281 182.253906 182.300781 C 182.332031 182.269531 182.40625 182.234375 182.476562 182.191406 C 182.550781 182.144531 182.621094 182.09375 182.679688 182.023438 C 182.730469 181.964844 182.765625 181.898438 182.789062 181.828125 C 182.8125 181.761719 182.820312 181.691406 182.820312 181.625 C 182.820312 181.488281 182.785156 181.367188 182.738281 181.253906 C 182.664062 181.085938 182.566406 180.9375 182.472656 180.8125 C 182.378906 180.6875 182.289062 180.585938 182.238281 180.53125 L 182.214844 180.503906 L 182.015625 180.71875 L 181.792969 180.910156 C 181.855469 180.984375 181.972656 181.117188 182.070312 181.265625 C 182.121094 181.339844 182.164062 181.414062 182.191406 181.480469 C 182.21875 181.546875 182.230469 181.601562 182.230469 181.625 L 182.226562 181.644531 L 182.226562 181.648438 C 182.21875 181.65625 182.199219 181.675781 182.164062 181.695312 C 182.105469 181.734375 182.007812 181.773438 181.898438 181.808594 C 181.734375 181.859375 181.546875 181.894531 181.402344 181.917969 C 181.328125 181.929688 181.265625 181.9375 181.222656 181.941406 C 181.203125 181.945312 181.183594 181.945312 181.175781 181.949219 L 181.160156 181.949219 C 181.035156 181.960938 180.933594 182.042969 180.902344 182.160156 C 180.867188 182.273438 180.910156 182.398438 181.007812 182.472656 L 181.1875 182.242188 L 181.164062 181.949219 C 180.496094 182.007812 179.84375 182.296875 179.355469 182.824219 C 178.867188 183.347656 178.625 184.015625 178.625 184.675781 C 178.625 185.414062 178.925781 186.152344 179.523438 186.691406 C 180.054688 187.175781 180.730469 187.414062 181.402344 187.414062 C 182.152344 187.414062 182.898438 187.113281 183.449219 186.527344 C 183.9375 186.003906 184.175781 185.339844 184.175781 184.679688 L 183.878906 184.679688 L 183.667969 184.878906 L 183.667969 184.882812 C 183.753906 184.96875 183.878906 184.996094 183.992188 184.953125 C 184.105469 184.910156 184.179688 184.800781 184.179688 184.683594 L 184.179688 184.675781 C 184.179688 184.628906 184.1875 184.386719 184.222656 184.140625 C 184.242188 184.015625 184.269531 183.890625 184.300781 183.792969 C 184.320312 183.742188 184.335938 183.699219 184.355469 183.667969 C 184.371094 183.636719 184.386719 183.617188 184.394531 183.609375 L 184.398438 183.609375 C 184.398438 183.605469 184.410156 183.605469 184.429688 183.605469 C 184.460938 183.601562 184.523438 183.613281 184.589844 183.636719 C 184.695312 183.671875 184.816406 183.738281 184.921875 183.804688 C 185.027344 183.867188 185.117188 183.933594 185.175781 183.972656 L 185.351562 183.738281 L 185.148438 183.953125 L 189.128906 187.554688 C 189.1875 187.609375 189.261719 187.636719 189.339844 187.632812 C 189.421875 187.628906 189.492188 187.597656 189.546875 187.539062 L 193.203125 183.617188 L 193.222656 183.589844 C 193.28125 183.515625 193.394531 183.359375 193.5 183.171875 C 193.554688 183.078125 193.605469 182.976562 193.644531 182.867188 C 193.683594 182.757812 193.710938 182.640625 193.710938 182.511719 C 193.710938 182.4375 193.703125 182.359375 193.675781 182.28125 C 193.644531 182.203125 193.597656 182.128906 193.535156 182.066406 C 193.46875 182 193.394531 181.953125 193.320312 181.914062 C 193.1875 181.847656 193.046875 181.808594 192.902344 181.777344 C 192.691406 181.730469 192.476562 181.707031 192.3125 181.695312 C 192.148438 181.683594 192.035156 181.683594 192.027344 181.683594 L 192.027344 181.972656 L 192.214844 182.203125 L 192.214844 182.199219 C 192.3125 182.121094 192.351562 181.992188 192.308594 181.875 C 192.265625 181.757812 192.15625 181.679688 192.03125 181.679688 C 191.5 181.679688 190.972656 181.496094 190.554688 181.117188 C 190.085938 180.691406 189.847656 180.109375 189.847656 179.527344 C 189.847656 179.007812 190.039062 178.484375 190.421875 178.070312 C 190.855469 177.609375 191.441406 177.375 192.035156 177.375 C 192.5625 177.375 193.089844 177.5625 193.511719 177.941406 C 193.933594 178.320312 194.164062 178.824219 194.207031 179.34375 C 194.21875 179.464844 194.304688 179.566406 194.425781 179.597656 C 194.546875 179.632812 194.671875 179.585938 194.742188 179.488281 L 194.746094 179.484375 L 194.503906 179.316406 L 194.210938 179.339844 C 194.210938 179.347656 194.234375 179.605469 194.300781 179.902344 C 194.335938 180.054688 194.378906 180.214844 194.441406 180.367188 C 194.472656 180.445312 194.511719 180.519531 194.554688 180.589844 C 194.601562 180.660156 194.652344 180.730469 194.726562 180.789062 C 194.785156 180.835938 194.851562 180.875 194.921875 180.898438 C 194.992188 180.917969 195.0625 180.929688 195.128906 180.929688 C 195.269531 180.925781 195.390625 180.890625 195.503906 180.84375 C 195.675781 180.773438 195.824219 180.675781 195.953125 180.582031 C 196.082031 180.488281 196.183594 180.402344 196.242188 180.355469 L 196.265625 180.332031 L 199.921875 176.40625 C 200.03125 176.289062 200.023438 176.105469 199.902344 175.996094 L 195.921875 172.394531 L 195.722656 172.609375 L 195.949219 172.417969 C 195.882812 172.34375 195.765625 172.210938 195.667969 172.0625 C 195.617188 171.988281 195.574219 171.914062 195.546875 171.847656 C 195.519531 171.78125 195.507812 171.726562 195.507812 171.703125 L 195.511719 171.683594 L 195.511719 171.679688 C 195.519531 171.671875 195.539062 171.652344 195.574219 171.632812 C 195.632812 171.59375 195.730469 171.554688 195.839844 171.519531 C 196.003906 171.46875 196.195312 171.433594 196.339844 171.410156 C 196.410156 171.398438 196.472656 171.390625 196.515625 171.386719 C 196.535156 171.382812 196.554688 171.382812 196.566406 171.378906 L 196.582031 171.378906 C 196.699219 171.367188 196.796875 171.289062 196.835938 171.179688 C 196.871094 171.070312 196.839844 170.945312 196.75 170.871094 L 196.746094 170.867188 L 196.550781 171.085938 L 196.574219 171.375 C 197.242188 171.320312 197.894531 171.027344 198.382812 170.503906 C 198.871094 169.980469 199.113281 169.3125 199.113281 168.652344 C 199.113281 167.914062 198.8125 167.175781 198.214844 166.636719 C 197.683594 166.152344 197.007812 165.914062 196.335938 165.914062 C 195.585938 165.914062 194.839844 166.210938 194.289062 166.800781 C 193.800781 167.324219 193.5625 167.988281 193.5625 168.648438 L 193.855469 168.648438 L 194.074219 168.449219 L 194.070312 168.445312 C 193.988281 168.359375 193.859375 168.328125 193.746094 168.375 C 193.632812 168.417969 193.558594 168.523438 193.558594 168.644531 L 193.558594 168.652344 C 193.558594 168.699219 193.554688 168.9375 193.515625 169.1875 C 193.496094 169.3125 193.46875 169.4375 193.4375 169.535156 C 193.421875 169.585938 193.402344 169.628906 193.386719 169.660156 C 193.367188 169.691406 193.351562 169.710938 193.347656 169.71875 L 193.34375 169.71875 C 193.339844 169.722656 193.328125 169.722656 193.308594 169.722656 C 193.277344 169.722656 193.21875 169.714844 193.148438 169.691406 C 193.046875 169.652344 192.925781 169.589844 192.816406 169.523438 C 192.710938 169.460938 192.621094 169.394531 192.5625 169.351562 L 192.390625 169.589844 L 192.589844 169.375 L 188.609375 165.769531 C 188.488281 165.660156 188.300781 165.667969 188.191406 165.789062 L 177.816406 176.917969 C 177.765625 176.976562 177.734375 177.050781 177.738281 177.128906 C 177.742188 177.207031 177.777344 177.277344 177.835938 177.332031 L 181.816406 180.933594 L 182.015625 180.71875 L 181.792969 180.910156 L 182.015625 180.71875 "/>
</g>
<path style=" stroke:none;fill-rule:nonzero;fill:rgb(100%,100%,100%);fill-opacity:1;" d="M 193.710938 177.726562 C 194.1875 178.15625 194.453125 178.730469 194.503906 179.316406 L 194.507812 179.3125 C 194.507812 179.3125 194.597656 180.300781 194.917969 180.5625 C 195.234375 180.828125 195.863281 180.289062 196.046875 180.132812 L 199.703125 176.210938 L 203.683594 179.8125 C 203.878906 179.953125 204.550781 180.441406 204.847656 180.148438 C 205.144531 179.859375 205.148438 178.871094 205.148438 178.871094 L 205.152344 178.871094 C 205.152344 178.28125 205.367188 177.691406 205.804688 177.222656 C 206.730469 176.226562 208.300781 176.160156 209.308594 177.074219 C 210.320312 177.988281 210.386719 179.535156 209.457031 180.53125 C 209.019531 181 208.441406 181.261719 207.84375 181.3125 L 207.847656 181.3125 C 207.847656 181.3125 206.847656 181.402344 206.578125 181.71875 C 206.3125 182.03125 206.859375 182.652344 207.019531 182.832031 L 210.996094 186.433594 L 207.339844 190.359375 C 207.160156 190.515625 206.527344 191.054688 206.210938 190.789062 C 205.890625 190.523438 205.800781 189.539062 205.800781 189.539062 L 205.796875 189.542969 C 205.746094 188.953125 205.480469 188.382812 205.003906 187.953125 C 203.996094 187.039062 202.425781 187.101562 201.5 188.097656 C 200.574219 189.09375 200.640625 190.640625 201.648438 191.554688 C 202.125 191.984375 202.722656 192.195312 203.324219 192.195312 L 203.320312 192.199219 C 203.320312 192.199219 204.324219 192.203125 204.621094 192.496094 C 204.914062 192.789062 204.421875 193.449219 204.277344 193.644531 L 200.621094 197.566406 L 196.644531 193.964844 C 196.484375 193.78125 195.9375 193.164062 196.203125 192.847656 C 196.472656 192.535156 197.472656 192.445312 197.472656 192.445312 L 197.46875 192.441406 C 198.066406 192.390625 198.648438 192.132812 199.082031 191.664062 C 200.011719 190.667969 199.945312 189.121094 198.933594 188.207031 C 197.925781 187.292969 196.355469 187.359375 195.429688 188.351562 C 194.992188 188.820312 194.777344 189.414062 194.777344 190.003906 L 194.773438 190 C 194.773438 190 194.769531 190.992188 194.472656 191.28125 C 194.179688 191.570312 193.503906 191.085938 193.308594 190.945312 L 189.328125 187.339844 L 192.984375 183.417969 C 193.128906 183.226562 193.621094 182.5625 193.324219 182.269531 C 193.03125 181.980469 192.027344 181.972656 192.027344 181.972656 L 192.03125 181.972656 C 191.429688 181.972656 190.832031 181.761719 190.355469 181.332031 C 189.34375 180.417969 189.277344 178.867188 190.207031 177.875 C 191.132812 176.878906 192.703125 176.8125 193.710938 177.726562 "/>
<g clip-path="url(#clip3)" clip-rule="nonzero">
<path style=" stroke:none;fill-rule:nonzero;fill:rgb(13.729858%,12.159729%,12.548828%);fill-opacity:1;" d="M 193.710938 177.726562 L 193.511719 177.941406 C 193.933594 178.320312 194.164062 178.824219 194.207031 179.34375 C 194.21875 179.460938 194.300781 179.5625 194.417969 179.597656 C 194.535156 179.632812 194.660156 179.59375 194.734375 179.5 L 194.738281 179.496094 L 194.507812 179.3125 L 194.210938 179.339844 C 194.210938 179.347656 194.234375 179.601562 194.300781 179.902344 C 194.335938 180.054688 194.378906 180.214844 194.445312 180.367188 C 194.476562 180.445312 194.511719 180.519531 194.554688 180.589844 C 194.601562 180.660156 194.65625 180.726562 194.726562 180.789062 C 194.785156 180.835938 194.851562 180.875 194.921875 180.894531 C 194.992188 180.917969 195.0625 180.925781 195.128906 180.925781 C 195.269531 180.925781 195.390625 180.890625 195.503906 180.84375 C 195.675781 180.773438 195.828125 180.675781 195.953125 180.582031 C 196.082031 180.488281 196.183594 180.402344 196.242188 180.351562 L 196.265625 180.328125 L 199.722656 176.621094 L 203.484375 180.027344 L 203.507812 180.050781 C 203.585938 180.105469 203.746094 180.21875 203.933594 180.324219 C 204.03125 180.375 204.132812 180.425781 204.242188 180.464844 C 204.355469 180.503906 204.472656 180.53125 204.601562 180.53125 C 204.679688 180.53125 204.757812 180.523438 204.835938 180.492188 C 204.914062 180.464844 204.992188 180.417969 205.054688 180.355469 C 205.125 180.292969 205.171875 180.21875 205.210938 180.144531 C 205.277344 180.015625 205.320312 179.875 205.351562 179.734375 C 205.398438 179.527344 205.421875 179.3125 205.433594 179.152344 C 205.445312 178.988281 205.445312 178.875 205.445312 178.871094 L 205.148438 178.871094 L 204.917969 179.054688 L 204.921875 179.054688 C 205 179.152344 205.132812 179.1875 205.25 179.148438 C 205.367188 179.105469 205.449219 178.996094 205.449219 178.871094 C 205.449219 178.351562 205.636719 177.832031 206.019531 177.417969 C 206.453125 176.957031 207.039062 176.722656 207.632812 176.722656 C 208.160156 176.722656 208.6875 176.910156 209.109375 177.289062 C 209.578125 177.714844 209.816406 178.292969 209.816406 178.875 C 209.816406 179.398438 209.625 179.917969 209.238281 180.332031 C 208.855469 180.746094 208.347656 180.976562 207.820312 181.019531 C 207.699219 181.03125 207.59375 181.113281 207.5625 181.226562 C 207.527344 181.339844 207.566406 181.464844 207.660156 181.539062 L 207.664062 181.542969 L 207.847656 181.3125 L 207.820312 181.023438 C 207.8125 181.023438 207.554688 181.046875 207.25 181.113281 C 207.097656 181.144531 206.933594 181.191406 206.78125 181.25 C 206.703125 181.28125 206.625 181.316406 206.554688 181.363281 C 206.484375 181.40625 206.414062 181.457031 206.351562 181.53125 C 206.304688 181.585938 206.265625 181.65625 206.242188 181.722656 C 206.21875 181.792969 206.210938 181.859375 206.210938 181.925781 C 206.210938 182.066406 206.25 182.1875 206.296875 182.296875 C 206.367188 182.464844 206.46875 182.613281 206.5625 182.742188 C 206.65625 182.867188 206.746094 182.96875 206.792969 183.023438 L 206.816406 183.046875 L 210.578125 186.453125 L 207.125 190.160156 L 207.339844 190.359375 L 207.148438 190.136719 C 207.074219 190.199219 206.9375 190.316406 206.789062 190.414062 C 206.714844 190.460938 206.636719 190.503906 206.570312 190.53125 C 206.503906 190.558594 206.449219 190.570312 206.421875 190.570312 L 206.402344 190.566406 C 206.390625 190.558594 206.375 190.539062 206.351562 190.503906 C 206.3125 190.445312 206.273438 190.351562 206.238281 190.242188 C 206.1875 190.082031 206.148438 189.894531 206.125 189.75 C 206.113281 189.679688 206.105469 189.621094 206.101562 189.578125 C 206.097656 189.554688 206.097656 189.539062 206.097656 189.527344 L 206.09375 189.515625 L 206.09375 189.511719 C 206.085938 189.398438 206.003906 189.296875 205.890625 189.261719 C 205.78125 189.226562 205.65625 189.257812 205.578125 189.347656 L 205.574219 189.347656 L 205.796875 189.542969 L 206.09375 189.515625 C 206.035156 188.859375 205.738281 188.21875 205.207031 187.738281 C 204.675781 187.253906 204 187.015625 203.328125 187.015625 C 202.578125 187.015625 201.828125 187.3125 201.28125 187.902344 C 200.792969 188.425781 200.550781 189.089844 200.550781 189.753906 C 200.550781 190.492188 200.851562 191.230469 201.449219 191.769531 C 201.980469 192.25 202.65625 192.488281 203.324219 192.488281 L 203.324219 192.195312 L 203.121094 191.984375 C 203.03125 192.066406 203 192.191406 203.046875 192.304688 C 203.089844 192.414062 203.199219 192.488281 203.320312 192.488281 L 203.328125 192.492188 C 203.375 192.492188 203.621094 192.496094 203.871094 192.535156 C 203.996094 192.550781 204.125 192.578125 204.226562 192.609375 C 204.277344 192.628906 204.320312 192.644531 204.351562 192.664062 C 204.382812 192.679688 204.402344 192.695312 204.410156 192.703125 C 204.414062 192.707031 204.414062 192.71875 204.414062 192.738281 C 204.417969 192.769531 204.40625 192.828125 204.382812 192.894531 C 204.34375 192.996094 204.277344 193.117188 204.214844 193.222656 C 204.148438 193.324219 204.082031 193.414062 204.039062 193.472656 L 204.277344 193.644531 L 204.0625 193.445312 L 200.605469 197.152344 L 196.84375 193.75 L 196.644531 193.964844 L 196.867188 193.773438 C 196.804688 193.699219 196.683594 193.566406 196.585938 193.417969 C 196.539062 193.34375 196.496094 193.269531 196.46875 193.203125 C 196.4375 193.136719 196.425781 193.082031 196.429688 193.058594 L 196.429688 193.035156 C 196.4375 193.027344 196.457031 193.007812 196.492188 192.988281 C 196.554688 192.949219 196.652344 192.910156 196.761719 192.875 C 196.921875 192.824219 197.113281 192.789062 197.257812 192.765625 C 197.332031 192.753906 197.390625 192.746094 197.433594 192.742188 C 197.457031 192.738281 197.472656 192.738281 197.484375 192.734375 L 197.5 192.734375 C 197.621094 192.722656 197.722656 192.640625 197.757812 192.527344 C 197.792969 192.414062 197.75 192.289062 197.65625 192.214844 L 197.652344 192.210938 L 197.46875 192.441406 L 197.496094 192.730469 C 198.160156 192.675781 198.8125 192.382812 199.300781 191.859375 C 199.792969 191.335938 200.035156 190.667969 200.035156 190.007812 C 200.035156 189.269531 199.730469 188.53125 199.136719 187.992188 C 198.601562 187.507812 197.925781 187.269531 197.257812 187.269531 C 196.507812 187.269531 195.757812 187.566406 195.210938 188.15625 C 194.722656 188.679688 194.480469 189.34375 194.480469 190.003906 L 194.777344 190.003906 L 195 189.8125 L 194.996094 189.808594 C 194.914062 189.71875 194.785156 189.6875 194.671875 189.726562 C 194.554688 189.769531 194.480469 189.878906 194.480469 190 L 194.480469 190.007812 C 194.476562 190.054688 194.472656 190.292969 194.433594 190.542969 C 194.417969 190.667969 194.390625 190.792969 194.355469 190.890625 C 194.339844 190.941406 194.320312 190.984375 194.304688 191.015625 C 194.289062 191.046875 194.273438 191.066406 194.265625 191.074219 L 194.261719 191.074219 C 194.257812 191.078125 194.25 191.082031 194.230469 191.082031 C 194.195312 191.082031 194.136719 191.070312 194.066406 191.046875 C 193.964844 191.007812 193.84375 190.945312 193.738281 190.878906 C 193.628906 190.816406 193.539062 190.75 193.484375 190.707031 L 193.308594 190.945312 L 193.507812 190.730469 L 189.746094 187.324219 L 193.203125 183.617188 L 193.222656 183.589844 C 193.28125 183.511719 193.398438 183.359375 193.5 183.171875 C 193.554688 183.078125 193.605469 182.976562 193.644531 182.867188 C 193.683594 182.757812 193.714844 182.640625 193.714844 182.511719 C 193.714844 182.4375 193.703125 182.359375 193.675781 182.28125 C 193.648438 182.203125 193.597656 182.128906 193.535156 182.066406 C 193.46875 182 193.394531 181.953125 193.320312 181.914062 C 193.1875 181.847656 193.046875 181.808594 192.90625 181.777344 C 192.691406 181.730469 192.476562 181.707031 192.3125 181.695312 C 192.148438 181.683594 192.035156 181.683594 192.03125 181.683594 L 192.027344 181.972656 L 192.246094 182.171875 L 192.246094 182.167969 C 192.328125 182.085938 192.347656 181.960938 192.300781 181.855469 C 192.253906 181.75 192.148438 181.679688 192.03125 181.679688 C 191.5 181.679688 190.972656 181.496094 190.554688 181.117188 C 190.085938 180.691406 189.847656 180.109375 189.847656 179.527344 C 189.847656 179.007812 190.039062 178.484375 190.421875 178.070312 C 190.855469 177.609375 191.441406 177.375 192.035156 177.375 C 192.5625 177.375 193.089844 177.5625 193.511719 177.941406 L 193.710938 177.726562 L 193.914062 177.511719 C 193.378906 177.03125 192.703125 176.789062 192.035156 176.789062 C 191.285156 176.789062 190.535156 177.089844 189.988281 177.675781 C 189.5 178.203125 189.253906 178.867188 189.257812 179.527344 C 189.253906 180.265625 189.558594 181.003906 190.15625 181.546875 C 190.6875 182.027344 191.359375 182.261719 192.027344 182.265625 L 192.03125 181.972656 L 191.8125 181.773438 L 191.808594 181.777344 C 191.730469 181.859375 191.710938 181.984375 191.757812 182.089844 C 191.804688 182.195312 191.910156 182.265625 192.027344 182.265625 L 192.035156 182.265625 C 192.082031 182.265625 192.324219 182.273438 192.578125 182.308594 C 192.703125 182.328125 192.832031 182.351562 192.929688 182.386719 C 192.980469 182.402344 193.023438 182.421875 193.058594 182.4375 C 193.089844 182.453125 193.109375 182.46875 193.117188 182.476562 L 193.117188 182.480469 C 193.121094 182.484375 193.121094 182.492188 193.121094 182.511719 C 193.121094 182.542969 193.113281 182.601562 193.085938 182.671875 C 193.050781 182.773438 192.984375 182.890625 192.917969 182.996094 C 192.851562 183.101562 192.785156 183.191406 192.746094 183.246094 L 192.984375 183.417969 L 192.765625 183.222656 L 189.109375 187.144531 C 189 187.261719 189.007812 187.445312 189.128906 187.554688 L 193.109375 191.160156 L 193.136719 191.179688 C 193.210938 191.234375 193.371094 191.351562 193.558594 191.453125 C 193.65625 191.507812 193.757812 191.554688 193.871094 191.59375 C 193.980469 191.632812 194.097656 191.664062 194.230469 191.664062 C 194.304688 191.664062 194.382812 191.652344 194.460938 191.625 C 194.542969 191.597656 194.617188 191.550781 194.683594 191.488281 C 194.75 191.421875 194.796875 191.347656 194.835938 191.277344 C 194.902344 191.144531 194.945312 191.007812 194.976562 190.867188 C 195.023438 190.65625 195.046875 190.445312 195.058594 190.28125 C 195.070312 190.121094 195.070312 190.007812 195.070312 190.003906 L 194.773438 190 L 194.550781 190.195312 L 194.554688 190.195312 C 194.636719 190.289062 194.765625 190.320312 194.882812 190.277344 C 194.996094 190.234375 195.074219 190.125 195.074219 190.003906 C 195.074219 189.480469 195.261719 188.964844 195.644531 188.550781 C 196.078125 188.085938 196.664062 187.851562 197.257812 187.851562 C 197.785156 187.851562 198.3125 188.039062 198.734375 188.421875 C 199.203125 188.847656 199.441406 189.425781 199.441406 190.007812 C 199.441406 190.527344 199.253906 191.050781 198.867188 191.464844 C 198.480469 191.878906 197.972656 192.105469 197.445312 192.152344 C 197.324219 192.160156 197.222656 192.242188 197.1875 192.359375 C 197.152344 192.472656 197.191406 192.597656 197.285156 192.671875 L 197.289062 192.671875 L 197.472656 192.445312 L 197.445312 192.152344 C 197.4375 192.15625 197.179688 192.175781 196.875 192.242188 C 196.722656 192.277344 196.558594 192.320312 196.40625 192.382812 C 196.328125 192.414062 196.25 192.449219 196.179688 192.492188 C 196.109375 192.539062 196.039062 192.589844 195.976562 192.660156 C 195.929688 192.71875 195.890625 192.785156 195.867188 192.855469 C 195.84375 192.921875 195.835938 192.992188 195.835938 193.058594 C 195.835938 193.195312 195.875 193.316406 195.921875 193.429688 C 195.992188 193.597656 196.09375 193.746094 196.1875 193.871094 C 196.28125 193.996094 196.371094 194.097656 196.417969 194.152344 L 196.441406 194.179688 L 200.421875 197.78125 C 200.480469 197.832031 200.554688 197.859375 200.636719 197.859375 C 200.714844 197.855469 200.789062 197.820312 200.839844 197.761719 L 204.496094 193.839844 L 204.519531 193.816406 C 204.574219 193.738281 204.691406 193.582031 204.796875 193.394531 C 204.847656 193.300781 204.898438 193.199219 204.9375 193.089844 C 204.976562 192.980469 205.007812 192.867188 205.007812 192.738281 C 205.007812 192.664062 204.996094 192.585938 204.96875 192.507812 C 204.941406 192.429688 204.894531 192.351562 204.828125 192.289062 C 204.761719 192.222656 204.6875 192.179688 204.613281 192.140625 C 204.480469 192.074219 204.339844 192.03125 204.199219 192 C 203.984375 191.953125 203.769531 191.929688 203.605469 191.917969 C 203.441406 191.90625 203.328125 191.90625 203.324219 191.90625 L 203.320312 192.199219 L 203.523438 192.414062 L 203.523438 192.410156 C 203.613281 192.328125 203.644531 192.203125 203.597656 192.089844 C 203.554688 191.980469 203.445312 191.90625 203.324219 191.90625 C 202.792969 191.902344 202.269531 191.71875 201.847656 191.339844 C 201.378906 190.914062 201.140625 190.335938 201.140625 189.753906 C 201.140625 189.230469 201.332031 188.710938 201.71875 188.296875 C 202.148438 187.832031 202.734375 187.597656 203.328125 187.597656 C 203.855469 187.597656 204.386719 187.785156 204.804688 188.167969 C 205.226562 188.546875 205.457031 189.046875 205.503906 189.566406 C 205.511719 189.683594 205.59375 189.78125 205.703125 189.820312 C 205.816406 189.855469 205.941406 189.824219 206.019531 189.734375 L 206.023438 189.734375 L 205.800781 189.539062 L 205.503906 189.566406 C 205.507812 189.574219 205.53125 189.828125 205.597656 190.128906 C 205.628906 190.277344 205.675781 190.441406 205.738281 190.59375 C 205.769531 190.667969 205.804688 190.742188 205.847656 190.8125 C 205.894531 190.882812 205.949219 190.953125 206.019531 191.011719 C 206.078125 191.0625 206.148438 191.097656 206.214844 191.121094 C 206.285156 191.144531 206.355469 191.152344 206.421875 191.152344 C 206.5625 191.152344 206.6875 191.117188 206.800781 191.070312 C 206.96875 191 207.121094 190.898438 207.25 190.808594 C 207.375 190.714844 207.480469 190.625 207.535156 190.578125 L 207.558594 190.554688 L 211.214844 186.632812 C 211.324219 186.515625 211.316406 186.328125 211.195312 186.21875 L 207.21875 182.617188 L 207.019531 182.832031 L 207.242188 182.640625 C 207.179688 182.570312 207.058594 182.433594 206.960938 182.289062 C 206.914062 182.214844 206.867188 182.136719 206.839844 182.074219 C 206.8125 182.007812 206.800781 181.953125 206.800781 181.925781 L 206.804688 181.90625 C 206.8125 181.898438 206.832031 181.878906 206.867188 181.855469 C 206.925781 181.820312 207.023438 181.777344 207.132812 181.746094 C 207.296875 181.695312 207.488281 181.65625 207.632812 181.636719 C 207.703125 181.625 207.765625 181.617188 207.808594 181.609375 C 207.832031 181.609375 207.847656 181.605469 207.859375 181.605469 L 207.875 181.605469 C 207.996094 181.59375 208.097656 181.511719 208.128906 181.394531 C 208.167969 181.28125 208.125 181.160156 208.03125 181.085938 L 208.027344 181.082031 L 207.84375 181.3125 L 207.871094 181.601562 C 208.535156 181.546875 209.1875 181.253906 209.675781 180.730469 C 210.164062 180.203125 210.410156 179.539062 210.40625 178.875 C 210.410156 178.136719 210.105469 177.398438 209.511719 176.859375 C 208.976562 176.378906 208.300781 176.136719 207.632812 176.136719 C 206.882812 176.136719 206.132812 176.4375 205.585938 177.023438 C 205.09375 177.550781 204.855469 178.214844 204.855469 178.871094 L 205.152344 178.871094 L 205.382812 178.6875 L 205.378906 178.6875 C 205.300781 178.589844 205.167969 178.554688 205.050781 178.59375 C 204.933594 178.636719 204.855469 178.746094 204.855469 178.867188 L 204.851562 178.875 C 204.851562 178.925781 204.847656 179.164062 204.808594 179.414062 C 204.789062 179.535156 204.765625 179.660156 204.730469 179.761719 C 204.714844 179.8125 204.695312 179.855469 204.679688 179.886719 C 204.664062 179.917969 204.644531 179.9375 204.640625 179.941406 L 204.636719 179.945312 C 204.632812 179.945312 204.625 179.949219 204.601562 179.949219 C 204.570312 179.949219 204.511719 179.9375 204.441406 179.914062 C 204.339844 179.878906 204.21875 179.816406 204.113281 179.75 C 204.003906 179.683594 203.914062 179.617188 203.859375 179.578125 L 203.683594 179.8125 L 203.882812 179.597656 L 199.902344 175.996094 C 199.785156 175.886719 199.597656 175.894531 199.484375 176.011719 L 195.828125 179.933594 L 196.046875 180.132812 L 195.855469 179.910156 C 195.78125 179.972656 195.644531 180.089844 195.496094 180.1875 C 195.417969 180.238281 195.34375 180.277344 195.277344 180.304688 C 195.210938 180.335938 195.15625 180.34375 195.128906 180.34375 L 195.109375 180.34375 L 195.105469 180.339844 C 195.097656 180.335938 195.078125 180.3125 195.058594 180.28125 C 195.019531 180.222656 194.980469 180.125 194.945312 180.019531 C 194.894531 179.855469 194.855469 179.667969 194.832031 179.527344 C 194.820312 179.457031 194.8125 179.394531 194.808594 179.351562 C 194.804688 179.332031 194.804688 179.3125 194.800781 179.304688 L 194.800781 179.289062 C 194.789062 179.167969 194.707031 179.070312 194.589844 179.035156 C 194.472656 179 194.347656 179.039062 194.273438 179.132812 L 194.269531 179.136719 L 194.503906 179.316406 L 194.796875 179.292969 C 194.742188 178.636719 194.445312 177.996094 193.914062 177.511719 L 193.710938 177.726562 "/>
</g>
<g clip-path="url(#clip4)" clip-rule="nonzero">
<path style=" stroke:none;fill-rule:nonzero;fill:rgb(100%,100%,100%);fill-opacity:1;" d="M 183.335938 188.859375 C 183.8125 189.289062 184.078125 189.863281 184.128906 190.449219 L 184.128906 190.445312 C 184.128906 190.445312 184.222656 191.433594 184.542969 191.695312 C 184.859375 191.960938 185.488281 191.421875 185.671875 191.265625 L 189.328125 187.34375 L 193.308594 190.945312 C 193.503906 191.085938 194.175781 191.570312 194.472656 191.28125 C 194.769531 190.992188 194.773438 190.003906 194.773438 190.003906 L 194.777344 190.003906 C 194.777344 189.414062 194.988281 188.824219 195.425781 188.351562 C 196.355469 187.359375 197.925781 187.292969 198.933594 188.207031 C 199.941406 189.121094 200.011719 190.667969 199.082031 191.664062 C 198.644531 192.132812 198.066406 192.390625 197.46875 192.441406 L 197.472656 192.445312 C 197.472656 192.445312 196.472656 192.535156 196.203125 192.847656 C 195.9375 193.164062 196.484375 193.785156 196.640625 193.964844 L 200.621094 197.566406 L 190.246094 208.699219 L 186.269531 205.09375 C 186.109375 204.914062 185.5625 204.296875 185.828125 203.980469 C 186.097656 203.664062 187.097656 203.574219 187.097656 203.574219 L 187.09375 203.574219 C 187.691406 203.523438 188.269531 203.261719 188.707031 202.792969 C 189.636719 201.800781 189.570312 200.25 188.558594 199.339844 C 187.550781 198.421875 185.980469 198.488281 185.054688 199.484375 C 184.617188 199.953125 184.402344 200.546875 184.402344 201.136719 L 184.398438 201.132812 C 184.398438 201.132812 184.394531 202.121094 184.097656 202.414062 C 183.800781 202.703125 183.128906 202.21875 182.933594 202.078125 L 178.953125 198.472656 L 182.609375 194.550781 C 182.753906 194.355469 183.246094 193.695312 182.949219 193.402344 C 182.65625 193.113281 181.652344 193.105469 181.652344 193.105469 C 181.054688 193.101562 180.453125 192.894531 179.980469 192.460938 C 178.96875 191.546875 178.902344 190 179.832031 189.007812 C 180.757812 188.011719 182.328125 187.945312 183.335938 188.859375 "/>
<path style=" stroke:none;fill-rule:nonzero;fill:rgb(13.729858%,12.159729%,12.548828%);fill-opacity:1;" d="M 183.335938 188.859375 L 183.136719 189.074219 C 183.554688 189.453125 183.789062 189.953125 183.832031 190.476562 C 183.84375 190.59375 183.925781 190.695312 184.042969 190.730469 C 184.160156 190.761719 184.285156 190.726562 184.359375 190.628906 L 184.363281 190.628906 L 184.128906 190.445312 L 183.835938 190.472656 C 183.835938 190.480469 183.859375 190.734375 183.925781 191.035156 C 183.960938 191.183594 184.003906 191.347656 184.066406 191.5 C 184.097656 191.574219 184.136719 191.648438 184.179688 191.722656 C 184.226562 191.792969 184.277344 191.859375 184.351562 191.917969 C 184.410156 191.96875 184.476562 192.003906 184.546875 192.027344 C 184.617188 192.050781 184.6875 192.058594 184.753906 192.058594 C 184.894531 192.058594 185.015625 192.023438 185.128906 191.976562 C 185.300781 191.90625 185.453125 191.804688 185.578125 191.714844 C 185.707031 191.621094 185.808594 191.53125 185.867188 191.484375 L 185.890625 191.460938 L 189.347656 187.753906 L 193.109375 191.160156 L 193.132812 191.183594 C 193.210938 191.238281 193.371094 191.351562 193.558594 191.457031 C 193.65625 191.507812 193.757812 191.558594 193.867188 191.597656 C 193.980469 191.636719 194.097656 191.664062 194.226562 191.664062 C 194.304688 191.664062 194.382812 191.652344 194.460938 191.625 C 194.539062 191.597656 194.617188 191.550781 194.679688 191.488281 C 194.746094 191.421875 194.796875 191.351562 194.835938 191.277344 C 194.902344 191.144531 194.941406 191.007812 194.976562 190.867188 C 195.023438 190.65625 195.046875 190.445312 195.058594 190.28125 C 195.070312 190.121094 195.070312 190.007812 195.070312 190.003906 L 194.773438 190.003906 L 194.550781 190.195312 C 194.632812 190.289062 194.765625 190.320312 194.878906 190.277344 C 194.996094 190.234375 195.070312 190.125 195.070312 190.003906 C 195.074219 189.484375 195.261719 188.964844 195.644531 188.550781 C 196.078125 188.085938 196.664062 187.855469 197.253906 187.855469 C 197.785156 187.855469 198.3125 188.042969 198.734375 188.421875 C 199.203125 188.847656 199.441406 189.425781 199.441406 190.007812 C 199.441406 190.53125 199.25 191.050781 198.863281 191.464844 C 198.480469 191.878906 197.972656 192.105469 197.445312 192.152344 C 197.324219 192.164062 197.21875 192.246094 197.183594 192.359375 C 197.152344 192.472656 197.191406 192.597656 197.285156 192.671875 L 197.289062 192.675781 L 197.472656 192.445312 L 197.445312 192.15625 C 197.4375 192.15625 197.179688 192.179688 196.875 192.246094 C 196.722656 192.277344 196.558594 192.320312 196.402344 192.382812 C 196.324219 192.414062 196.25 192.449219 196.179688 192.492188 C 196.105469 192.539062 196.039062 192.589844 195.976562 192.660156 C 195.925781 192.71875 195.890625 192.789062 195.867188 192.855469 C 195.84375 192.925781 195.835938 192.992188 195.835938 193.058594 C 195.835938 193.195312 195.871094 193.316406 195.921875 193.429688 C 195.992188 193.597656 196.089844 193.746094 196.1875 193.871094 C 196.28125 194 196.371094 194.101562 196.417969 194.15625 L 196.441406 194.179688 L 200.203125 197.585938 L 190.230469 208.285156 L 186.46875 204.878906 L 186.269531 205.09375 L 186.492188 204.90625 C 186.429688 204.832031 186.308594 204.699219 186.210938 204.550781 C 186.164062 204.476562 186.121094 204.402344 186.089844 204.335938 C 186.0625 204.269531 186.050781 204.214844 186.050781 204.1875 L 186.054688 204.167969 C 186.0625 204.160156 186.082031 204.140625 186.117188 204.121094 C 186.175781 204.082031 186.273438 204.042969 186.382812 204.007812 C 186.546875 203.957031 186.738281 203.921875 186.882812 203.898438 C 186.953125 203.886719 187.015625 203.878906 187.058594 203.875 C 187.082031 203.871094 187.097656 203.867188 187.109375 203.867188 L 187.125 203.867188 C 187.246094 203.855469 187.347656 203.773438 187.378906 203.660156 C 187.414062 203.546875 187.378906 203.425781 187.285156 203.347656 L 187.28125 203.347656 L 187.09375 203.574219 L 187.121094 203.863281 C 187.785156 203.808594 188.4375 203.515625 188.925781 202.992188 C 189.414062 202.464844 189.660156 201.800781 189.660156 201.140625 C 189.660156 200.402344 189.355469 199.664062 188.757812 199.121094 C 188.226562 198.640625 187.550781 198.402344 186.882812 198.402344 C 186.132812 198.402344 185.382812 198.699219 184.835938 199.285156 C 184.347656 199.8125 184.105469 200.476562 184.105469 201.136719 L 184.402344 201.136719 L 184.617188 200.9375 L 184.617188 200.933594 C 184.535156 200.847656 184.40625 200.816406 184.292969 200.863281 C 184.179688 200.90625 184.105469 201.011719 184.105469 201.132812 L 184.105469 201.140625 C 184.101562 201.1875 184.097656 201.425781 184.058594 201.675781 C 184.042969 201.800781 184.015625 201.925781 183.980469 202.023438 C 183.964844 202.074219 183.945312 202.117188 183.929688 202.148438 C 183.914062 202.179688 183.898438 202.199219 183.890625 202.207031 L 183.886719 202.207031 C 183.882812 202.210938 183.871094 202.210938 183.855469 202.210938 C 183.820312 202.210938 183.761719 202.203125 183.691406 202.175781 C 183.589844 202.140625 183.46875 202.078125 183.363281 202.011719 C 183.253906 201.945312 183.164062 201.882812 183.109375 201.839844 L 182.933594 202.078125 L 183.132812 201.863281 L 179.371094 198.457031 L 182.828125 194.746094 L 182.847656 194.722656 C 182.90625 194.644531 183.019531 194.488281 183.125 194.304688 C 183.179688 194.210938 183.230469 194.105469 183.269531 194 C 183.308594 193.890625 183.335938 193.773438 183.339844 193.644531 C 183.339844 193.570312 183.328125 193.492188 183.300781 193.414062 C 183.269531 193.335938 183.222656 193.261719 183.160156 193.199219 C 183.09375 193.132812 183.019531 193.085938 182.945312 193.046875 C 182.8125 192.980469 182.671875 192.9375 182.53125 192.90625 C 182.316406 192.859375 182.101562 192.839844 181.9375 192.828125 C 181.773438 192.816406 181.660156 192.8125 181.652344 192.8125 L 181.652344 193.105469 L 181.863281 193.3125 L 181.863281 193.308594 C 181.949219 193.226562 181.972656 193.101562 181.925781 192.992188 C 181.882812 192.882812 181.773438 192.8125 181.65625 192.8125 C 181.125 192.8125 180.597656 192.625 180.179688 192.246094 C 179.710938 191.820312 179.472656 191.242188 179.472656 190.660156 C 179.472656 190.136719 179.660156 189.617188 180.046875 189.203125 C 180.480469 188.738281 181.066406 188.507812 181.660156 188.507812 C 182.1875 188.507812 182.714844 188.691406 183.136719 189.074219 L 183.539062 188.644531 C 183.003906 188.160156 182.328125 187.921875 181.660156 187.921875 C 180.910156 187.921875 180.160156 188.222656 179.613281 188.808594 C 179.125 189.332031 178.878906 190 178.878906 190.660156 C 178.878906 191.398438 179.183594 192.136719 179.777344 192.675781 C 180.3125 193.160156 180.984375 193.394531 181.652344 193.394531 L 181.652344 193.105469 L 181.445312 192.898438 L 181.441406 192.898438 C 181.359375 192.984375 181.332031 193.105469 181.378906 193.214844 C 181.425781 193.324219 181.53125 193.398438 181.652344 193.398438 L 181.660156 193.398438 C 181.707031 193.398438 181.949219 193.402344 182.203125 193.441406 C 182.328125 193.460938 182.457031 193.484375 182.554688 193.519531 C 182.605469 193.535156 182.648438 193.554688 182.683594 193.570312 C 182.714844 193.585938 182.734375 193.601562 182.742188 193.609375 L 182.742188 193.613281 C 182.742188 193.613281 182.746094 193.625 182.746094 193.644531 C 182.746094 193.675781 182.734375 193.734375 182.710938 193.804688 C 182.675781 193.90625 182.609375 194.023438 182.542969 194.128906 C 182.476562 194.234375 182.410156 194.324219 182.371094 194.378906 L 182.609375 194.550781 L 182.390625 194.351562 L 178.734375 198.277344 C 178.683594 198.332031 178.65625 198.410156 178.65625 198.484375 C 178.660156 198.5625 178.695312 198.636719 178.753906 198.6875 L 182.734375 202.292969 L 182.761719 202.3125 C 182.835938 202.367188 182.996094 202.484375 183.183594 202.585938 C 183.28125 202.636719 183.382812 202.6875 183.496094 202.726562 C 183.605469 202.765625 183.722656 202.792969 183.855469 202.796875 C 183.929688 202.796875 184.007812 202.785156 184.085938 202.757812 C 184.164062 202.730469 184.242188 202.683594 184.308594 202.621094 L 184.308594 202.617188 C 184.375 202.554688 184.421875 202.480469 184.460938 202.40625 C 184.527344 202.277344 184.570312 202.136719 184.601562 201.996094 C 184.648438 201.789062 184.671875 201.578125 184.683594 201.414062 C 184.695312 201.253906 184.695312 201.140625 184.695312 201.132812 L 184.398438 201.132812 L 184.183594 201.332031 L 184.183594 201.335938 C 184.269531 201.421875 184.398438 201.449219 184.511719 201.40625 C 184.621094 201.363281 184.695312 201.253906 184.699219 201.136719 C 184.699219 200.613281 184.886719 200.09375 185.269531 199.679688 C 185.703125 199.21875 186.289062 198.984375 186.882812 198.984375 C 187.410156 198.984375 187.9375 199.171875 188.359375 199.554688 C 188.828125 199.976562 189.066406 200.558594 189.066406 201.140625 C 189.066406 201.660156 188.875 202.183594 188.492188 202.597656 C 188.105469 203.011719 187.597656 203.238281 187.070312 203.28125 C 186.949219 203.292969 186.847656 203.375 186.8125 203.488281 C 186.777344 203.601562 186.8125 203.726562 186.910156 203.800781 L 186.910156 203.804688 L 187.097656 203.574219 L 187.070312 203.285156 C 187.0625 203.285156 186.804688 203.308594 186.5 203.375 C 186.347656 203.410156 186.183594 203.453125 186.03125 203.515625 C 185.953125 203.542969 185.875 203.582031 185.804688 203.625 C 185.734375 203.667969 185.664062 203.722656 185.601562 203.792969 C 185.554688 203.851562 185.515625 203.917969 185.492188 203.988281 C 185.46875 204.054688 185.460938 204.125 185.460938 204.1875 C 185.460938 204.328125 185.5 204.449219 185.546875 204.5625 C 185.617188 204.726562 185.71875 204.878906 185.8125 205.003906 C 185.90625 205.128906 185.996094 205.230469 186.042969 205.285156 L 186.066406 205.308594 L 190.046875 208.914062 C 190.105469 208.964844 190.183594 208.992188 190.261719 208.988281 C 190.335938 208.988281 190.414062 208.953125 190.464844 208.894531 L 200.839844 197.765625 C 200.949219 197.644531 200.941406 197.460938 200.820312 197.351562 L 196.84375 193.75 L 196.640625 193.964844 L 196.867188 193.773438 C 196.800781 193.703125 196.683594 193.566406 196.585938 193.417969 C 196.535156 193.34375 196.492188 193.269531 196.464844 193.203125 C 196.4375 193.140625 196.425781 193.082031 196.425781 193.058594 L 196.429688 193.039062 C 196.4375 193.03125 196.457031 193.011719 196.492188 192.988281 C 196.550781 192.953125 196.648438 192.910156 196.757812 192.878906 C 196.921875 192.824219 197.113281 192.789062 197.257812 192.765625 C 197.328125 192.753906 197.390625 192.746094 197.433594 192.742188 C 197.457031 192.738281 197.472656 192.738281 197.484375 192.738281 L 197.496094 192.734375 L 197.5 192.734375 C 197.621094 192.726562 197.722656 192.644531 197.753906 192.527344 C 197.789062 192.414062 197.75 192.289062 197.65625 192.214844 L 197.652344 192.214844 L 197.46875 192.441406 L 197.496094 192.734375 C 198.160156 192.675781 198.8125 192.386719 199.300781 191.859375 C 199.789062 191.335938 200.03125 190.671875 200.03125 190.007812 C 200.03125 189.269531 199.730469 188.53125 199.132812 187.992188 C 198.601562 187.507812 197.925781 187.269531 197.253906 187.269531 C 196.507812 187.269531 195.757812 187.570312 195.210938 188.15625 C 194.71875 188.679688 194.480469 189.34375 194.480469 190.003906 L 194.777344 190.003906 L 195 189.8125 L 194.996094 189.8125 C 194.917969 189.71875 194.785156 189.6875 194.671875 189.730469 C 194.554688 189.769531 194.480469 189.878906 194.476562 190 L 194.476562 190.007812 C 194.476562 190.054688 194.472656 190.296875 194.433594 190.542969 C 194.414062 190.667969 194.386719 190.792969 194.355469 190.894531 C 194.339844 190.941406 194.320312 190.984375 194.304688 191.015625 C 194.285156 191.050781 194.269531 191.070312 194.261719 191.074219 L 194.261719 191.078125 C 194.257812 191.078125 194.246094 191.082031 194.226562 191.082031 C 194.195312 191.082031 194.136719 191.070312 194.066406 191.046875 C 193.964844 191.011719 193.84375 190.945312 193.738281 190.882812 C 193.628906 190.816406 193.539062 190.75 193.480469 190.710938 L 193.308594 190.945312 L 193.507812 190.730469 L 189.527344 187.128906 C 189.46875 187.074219 189.394531 187.046875 189.316406 187.050781 C 189.238281 187.054688 189.164062 187.089844 189.109375 187.144531 L 185.453125 191.066406 L 185.671875 191.265625 L 185.480469 191.042969 C 185.40625 191.105469 185.269531 191.222656 185.117188 191.320312 C 185.042969 191.367188 184.96875 191.410156 184.902344 191.4375 C 184.835938 191.464844 184.777344 191.476562 184.753906 191.476562 L 184.734375 191.472656 L 184.730469 191.472656 C 184.722656 191.464844 184.703125 191.445312 184.683594 191.414062 C 184.644531 191.351562 184.605469 191.257812 184.570312 191.148438 C 184.515625 190.988281 184.480469 190.800781 184.457031 190.660156 C 184.445312 190.589844 184.4375 190.527344 184.433594 190.484375 C 184.429688 190.464844 184.429688 190.445312 184.425781 190.4375 L 184.425781 190.421875 C 184.414062 190.300781 184.332031 190.199219 184.214844 190.167969 C 184.097656 190.132812 183.972656 190.171875 183.898438 190.265625 L 183.894531 190.269531 L 184.128906 190.449219 L 184.421875 190.425781 C 184.367188 189.769531 184.070312 189.125 183.539062 188.644531 L 183.335938 188.859375 "/>
</g>
<path style=" stroke:none;fill-rule:nonzero;fill:rgb(100%,100%,100%);fill-opacity:1;" d="M 167.980469 180.949219 C 168.546875 181.253906 168.945312 181.742188 169.144531 182.300781 L 169.144531 182.296875 C 169.144531 182.296875 169.480469 183.230469 169.855469 183.410156 C 170.230469 183.585938 170.707031 182.910156 170.84375 182.714844 L 173.40625 178.027344 L 178.164062 180.550781 C 178.363281 180.6875 179.046875 181.15625 178.867188 181.527344 C 178.6875 181.898438 177.738281 182.226562 177.738281 182.226562 L 177.742188 182.230469 C 177.179688 182.421875 176.679688 182.816406 176.375 183.375 C 175.722656 184.566406 176.175781 186.046875 177.382812 186.6875 C 178.589844 187.332031 180.09375 186.886719 180.742188 185.695312 C 181.050781 185.136719 181.109375 184.511719 180.960938 183.9375 L 180.964844 183.9375 C 180.964844 183.9375 180.722656 182.980469 180.9375 182.625 C 181.152344 182.273438 181.925781 182.578125 182.148438 182.667969 L 186.90625 185.195312 L 184.34375 189.882812 C 184.207031 190.078125 183.730469 190.753906 183.355469 190.578125 C 182.980469 190.398438 182.648438 189.464844 182.648438 189.464844 L 182.644531 189.46875 C 182.449219 188.910156 182.050781 188.421875 181.480469 188.117188 C 180.273438 187.476562 178.769531 187.921875 178.121094 189.113281 C 177.46875 190.300781 177.921875 191.785156 179.125 192.425781 C 179.695312 192.726562 180.328125 192.785156 180.910156 192.640625 L 180.910156 192.644531 C 180.910156 192.644531 181.882812 192.40625 182.242188 192.617188 C 182.601562 192.828125 182.289062 193.589844 182.199219 193.8125 L 179.632812 198.5 L 174.875 195.976562 C 174.652344 195.886719 173.878906 195.578125 173.664062 195.933594 C 173.449219 196.285156 173.691406 197.246094 173.691406 197.246094 L 173.691406 197.242188 C 173.835938 197.816406 173.777344 198.441406 173.472656 199.003906 C 172.820312 200.191406 171.316406 200.636719 170.109375 199.996094 C 168.902344 199.355469 168.449219 197.871094 169.101562 196.683594 C 169.40625 196.121094 169.90625 195.730469 170.46875 195.535156 L 170.464844 195.53125 C 170.464844 195.53125 171.414062 195.203125 171.59375 194.832031 C 171.777344 194.464844 171.089844 193.996094 170.890625 193.859375 L 166.132812 191.332031 L 168.699219 186.644531 C 168.785156 186.421875 169.097656 185.660156 168.742188 185.449219 C 168.382812 185.238281 167.410156 185.476562 167.410156 185.476562 L 167.410156 185.472656 C 166.828125 185.617188 166.195312 185.558594 165.625 185.257812 C 164.417969 184.617188 163.96875 183.132812 164.617188 181.945312 C 165.269531 180.753906 166.773438 180.308594 167.980469 180.949219 "/>
<path style=" stroke:none;fill-rule:nonzero;fill:rgb(13.729858%,12.159729%,12.548828%);fill-opacity:1;" d="M 167.980469 180.949219 L 167.839844 181.207031 C 168.339844 181.472656 168.691406 181.902344 168.863281 182.398438 C 168.902344 182.507812 169.007812 182.585938 169.128906 182.59375 C 169.25 182.597656 169.363281 182.53125 169.414062 182.421875 L 169.414062 182.417969 L 169.144531 182.296875 L 168.867188 182.394531 C 168.871094 182.402344 168.957031 182.644531 169.09375 182.917969 C 169.164062 183.054688 169.25 183.199219 169.347656 183.332031 C 169.398438 183.398438 169.453125 183.460938 169.511719 183.519531 C 169.574219 183.578125 169.640625 183.632812 169.726562 183.671875 C 169.808594 183.710938 169.902344 183.730469 169.988281 183.730469 C 170.15625 183.730469 170.292969 183.667969 170.410156 183.597656 C 170.582031 183.488281 170.722656 183.34375 170.835938 183.207031 C 170.953125 183.074219 171.039062 182.949219 171.085938 182.882812 L 171.105469 182.851562 L 173.527344 178.421875 L 178.023438 180.808594 L 178.164062 180.550781 L 177.996094 180.792969 C 178.039062 180.820312 178.101562 180.867188 178.171875 180.917969 C 178.28125 181 178.402344 181.101562 178.488281 181.199219 C 178.53125 181.25 178.5625 181.296875 178.582031 181.332031 C 178.597656 181.367188 178.601562 181.390625 178.601562 181.394531 L 178.601562 181.398438 C 178.597656 181.410156 178.582031 181.433594 178.554688 181.460938 C 178.503906 181.511719 178.421875 181.574219 178.324219 181.632812 C 178.175781 181.722656 178.003906 181.804688 177.867188 181.863281 C 177.800781 181.890625 177.742188 181.914062 177.703125 181.929688 C 177.683594 181.9375 177.664062 181.941406 177.65625 181.945312 L 177.644531 181.949219 L 177.640625 181.953125 C 177.527344 181.992188 177.449219 182.097656 177.445312 182.214844 C 177.4375 182.335938 177.507812 182.445312 177.621094 182.492188 L 177.625 182.496094 L 177.742188 182.230469 L 177.644531 181.953125 C 177.015625 182.167969 176.457031 182.609375 176.113281 183.238281 C 175.886719 183.648438 175.78125 184.09375 175.78125 184.535156 C 175.78125 185.507812 176.308594 186.453125 177.242188 186.945312 C 177.660156 187.167969 178.113281 187.273438 178.558594 187.273438 C 179.542969 187.273438 180.503906 186.753906 181.003906 185.835938 C 181.230469 185.421875 181.335938 184.980469 181.335938 184.542969 C 181.335938 184.3125 181.304688 184.085938 181.25 183.867188 L 180.960938 183.9375 L 180.8125 184.191406 L 180.816406 184.191406 C 180.917969 184.25 181.046875 184.242188 181.144531 184.171875 C 181.238281 184.101562 181.28125 183.984375 181.253906 183.867188 L 181.25 183.867188 C 181.246094 183.84375 181.21875 183.730469 181.195312 183.578125 C 181.167969 183.429688 181.144531 183.238281 181.144531 183.078125 C 181.144531 183 181.148438 182.929688 181.160156 182.875 C 181.167969 182.824219 181.183594 182.785156 181.191406 182.777344 C 181.195312 182.773438 181.1875 182.777344 181.207031 182.765625 C 181.222656 182.761719 181.261719 182.75 181.316406 182.753906 C 181.421875 182.75 181.574219 182.78125 181.707031 182.820312 C 181.84375 182.863281 181.96875 182.910156 182.039062 182.941406 L 182.148438 182.667969 L 182.007812 182.925781 L 186.507812 185.3125 L 184.085938 189.746094 L 184.34375 189.882812 L 184.101562 189.714844 C 184.070312 189.761719 184.027344 189.824219 183.972656 189.890625 C 183.894531 189.996094 183.789062 190.117188 183.6875 190.203125 C 183.636719 190.242188 183.589844 190.277344 183.554688 190.292969 C 183.515625 190.3125 183.496094 190.316406 183.488281 190.316406 L 183.484375 190.3125 C 183.476562 190.308594 183.453125 190.292969 183.421875 190.265625 C 183.371094 190.21875 183.308594 190.136719 183.246094 190.039062 C 183.15625 189.894531 183.074219 189.726562 183.015625 189.59375 C 182.988281 189.527344 182.964844 189.46875 182.949219 189.429688 C 182.941406 189.410156 182.933594 189.394531 182.929688 189.382812 L 182.925781 189.371094 L 182.925781 189.367188 C 182.882812 189.253906 182.773438 189.175781 182.648438 189.171875 C 182.527344 189.171875 182.414062 189.246094 182.371094 189.363281 L 182.367188 189.367188 L 182.644531 189.46875 L 182.925781 189.375 C 182.707031 188.75 182.257812 188.199219 181.621094 187.863281 C 181.203125 187.640625 180.75 187.535156 180.304688 187.535156 C 179.316406 187.535156 178.359375 188.054688 177.859375 188.972656 C 177.632812 189.386719 177.527344 189.832031 177.527344 190.269531 C 177.523438 191.246094 178.054688 192.1875 178.984375 192.683594 C 179.402344 192.902344 179.851562 193.007812 180.296875 193.007812 C 180.527344 193.007812 180.757812 192.980469 180.984375 192.925781 L 180.910156 192.640625 L 180.644531 192.511719 L 180.644531 192.515625 C 180.59375 192.617188 180.605469 192.738281 180.679688 192.828125 C 180.75 192.914062 180.871094 192.953125 180.980469 192.925781 L 180.984375 192.925781 C 181.003906 192.921875 181.121094 192.894531 181.273438 192.871094 C 181.429688 192.84375 181.621094 192.820312 181.785156 192.820312 C 181.859375 192.820312 181.933594 192.828125 181.988281 192.835938 C 182.042969 192.84375 182.078125 192.859375 182.089844 192.867188 C 182.09375 192.871094 182.089844 192.863281 182.097656 192.878906 C 182.105469 192.898438 182.113281 192.9375 182.113281 192.992188 C 182.113281 193.09375 182.082031 193.242188 182.042969 193.375 C 182 193.511719 181.953125 193.632812 181.921875 193.703125 L 182.199219 193.8125 L 181.9375 193.671875 L 179.515625 198.105469 L 175.015625 195.71875 L 174.984375 195.703125 C 174.914062 195.675781 174.769531 195.621094 174.605469 195.570312 C 174.4375 195.519531 174.246094 195.476562 174.042969 195.476562 C 173.9375 195.476562 173.824219 195.488281 173.710938 195.53125 C 173.597656 195.578125 173.480469 195.664062 173.410156 195.78125 C 173.351562 195.882812 173.320312 195.980469 173.304688 196.082031 C 173.285156 196.179688 173.28125 196.28125 173.28125 196.382812 C 173.28125 196.609375 173.3125 196.839844 173.34375 197.015625 C 173.375 197.1875 173.402344 197.3125 173.40625 197.316406 L 173.691406 197.246094 L 173.859375 197.003906 L 173.855469 197.003906 C 173.753906 196.933594 173.621094 196.9375 173.519531 197.003906 C 173.417969 197.074219 173.375 197.199219 173.402344 197.316406 C 173.445312 197.488281 173.46875 197.667969 173.46875 197.847656 C 173.46875 198.191406 173.386719 198.539062 173.210938 198.863281 C 172.816406 199.585938 172.0625 199.996094 171.28125 199.996094 C 170.933594 199.996094 170.578125 199.914062 170.25 199.738281 C 169.515625 199.347656 169.097656 198.605469 169.097656 197.839844 C 169.097656 197.496094 169.183594 197.144531 169.363281 196.820312 C 169.632812 196.324219 170.066406 195.980469 170.566406 195.808594 C 170.683594 195.769531 170.761719 195.664062 170.765625 195.546875 C 170.769531 195.425781 170.699219 195.316406 170.589844 195.265625 L 170.585938 195.265625 L 170.464844 195.53125 L 170.566406 195.808594 C 170.570312 195.804688 170.816406 195.71875 171.09375 195.582031 C 171.234375 195.511719 171.382812 195.429688 171.515625 195.335938 C 171.585938 195.285156 171.648438 195.230469 171.707031 195.171875 C 171.765625 195.113281 171.820312 195.042969 171.859375 194.960938 C 171.902344 194.878906 171.921875 194.789062 171.921875 194.703125 C 171.917969 194.539062 171.855469 194.402344 171.785156 194.289062 C 171.671875 194.117188 171.527344 193.980469 171.390625 193.867188 C 171.253906 193.753906 171.125 193.664062 171.058594 193.621094 L 171.03125 193.601562 L 166.535156 191.214844 L 168.957031 186.78125 L 168.972656 186.75 C 169 186.679688 169.058594 186.539062 169.109375 186.375 C 169.15625 186.210938 169.203125 186.023438 169.203125 185.824219 C 169.203125 185.71875 169.191406 185.605469 169.144531 185.492188 C 169.101562 185.382812 169.015625 185.269531 168.890625 185.199219 L 168.894531 185.199219 C 168.792969 185.140625 168.691406 185.113281 168.589844 185.09375 C 168.488281 185.074219 168.382812 185.070312 168.28125 185.070312 C 168.050781 185.070312 167.820312 185.101562 167.640625 185.128906 C 167.464844 185.160156 167.34375 185.191406 167.335938 185.191406 L 167.410156 185.476562 L 167.679688 185.589844 C 167.726562 185.488281 167.707031 185.367188 167.632812 185.285156 C 167.5625 185.199219 167.445312 185.164062 167.335938 185.191406 C 167.160156 185.234375 166.976562 185.257812 166.792969 185.257812 C 166.445312 185.257812 166.09375 185.175781 165.765625 185 C 165.03125 184.613281 164.617188 183.871094 164.617188 183.101562 C 164.617188 182.757812 164.699219 182.410156 164.878906 182.082031 C 165.273438 181.359375 166.027344 180.949219 166.804688 180.949219 C 167.15625 180.949219 167.507812 181.03125 167.839844 181.207031 L 167.980469 180.949219 L 168.121094 180.695312 C 167.703125 180.472656 167.25 180.367188 166.804688 180.367188 C 165.816406 180.367188 164.859375 180.886719 164.355469 181.804688 C 164.132812 182.21875 164.023438 182.664062 164.023438 183.101562 C 164.023438 184.074219 164.554688 185.019531 165.484375 185.515625 C 165.902344 185.734375 166.351562 185.839844 166.792969 185.839844 C 167.027344 185.839844 167.257812 185.8125 167.480469 185.753906 L 167.410156 185.472656 L 167.136719 185.359375 C 167.09375 185.460938 167.109375 185.578125 167.183594 185.664062 C 167.253906 185.75 167.371094 185.785156 167.480469 185.757812 L 167.484375 185.757812 C 167.503906 185.753906 167.621094 185.726562 167.773438 185.699219 C 167.925781 185.675781 168.117188 185.652344 168.28125 185.652344 C 168.359375 185.652344 168.429688 185.65625 168.484375 185.667969 C 168.539062 185.675781 168.578125 185.691406 168.589844 185.699219 C 168.589844 185.703125 168.589844 185.695312 168.597656 185.710938 C 168.605469 185.730469 168.613281 185.769531 168.613281 185.824219 C 168.613281 185.925781 168.582031 186.074219 168.542969 186.207031 C 168.5 186.34375 168.453125 186.464844 168.421875 186.535156 L 168.699219 186.644531 L 168.4375 186.503906 L 165.875 191.195312 C 165.835938 191.261719 165.828125 191.34375 165.851562 191.417969 C 165.871094 191.492188 165.925781 191.554688 165.992188 191.589844 L 170.75 194.117188 L 170.890625 193.859375 L 170.722656 194.097656 C 170.765625 194.128906 170.828125 194.171875 170.902344 194.226562 C 171.007812 194.304688 171.128906 194.410156 171.214844 194.507812 C 171.257812 194.554688 171.289062 194.601562 171.308594 194.636719 C 171.324219 194.675781 171.328125 194.695312 171.328125 194.703125 L 171.328125 194.707031 C 171.324219 194.714844 171.308594 194.738281 171.28125 194.769531 C 171.230469 194.820312 171.148438 194.882812 171.050781 194.941406 C 170.902344 195.03125 170.730469 195.113281 170.59375 195.167969 C 170.527344 195.199219 170.46875 195.21875 170.429688 195.234375 C 170.410156 195.242188 170.394531 195.25 170.382812 195.253906 L 170.371094 195.257812 L 170.367188 195.257812 C 170.253906 195.296875 170.175781 195.402344 170.171875 195.523438 C 170.167969 195.640625 170.238281 195.75 170.347656 195.800781 L 170.351562 195.800781 L 170.46875 195.535156 L 170.371094 195.257812 C 169.742188 195.476562 169.183594 195.914062 168.839844 196.542969 C 168.613281 196.957031 168.507812 197.402344 168.507812 197.839844 C 168.507812 198.8125 169.039062 199.757812 169.96875 200.253906 C 170.386719 200.472656 170.839844 200.582031 171.28125 200.582031 C 172.269531 200.582031 173.230469 200.058594 173.730469 199.140625 C 173.957031 198.730469 174.0625 198.285156 174.0625 197.847656 C 174.0625 197.621094 174.03125 197.394531 173.976562 197.171875 L 173.691406 197.242188 L 173.523438 197.484375 L 173.527344 197.488281 C 173.628906 197.554688 173.761719 197.554688 173.863281 197.484375 C 173.960938 197.414062 174.007812 197.292969 173.980469 197.175781 L 173.976562 197.171875 C 173.972656 197.152344 173.945312 197.035156 173.921875 196.886719 C 173.894531 196.734375 173.871094 196.546875 173.871094 196.382812 C 173.871094 196.308594 173.878906 196.238281 173.886719 196.183594 C 173.894531 196.128906 173.910156 196.09375 173.917969 196.082031 C 173.921875 196.078125 173.914062 196.082031 173.933594 196.074219 C 173.949219 196.066406 173.988281 196.058594 174.042969 196.058594 C 174.148438 196.058594 174.300781 196.085938 174.433594 196.128906 C 174.570312 196.167969 174.695312 196.21875 174.765625 196.246094 L 174.875 195.976562 L 174.738281 196.230469 L 179.496094 198.757812 C 179.5625 198.792969 179.644531 198.804688 179.71875 198.78125 C 179.792969 198.757812 179.859375 198.707031 179.894531 198.640625 L 182.457031 193.949219 L 182.472656 193.921875 C 182.503906 193.847656 182.558594 193.707031 182.609375 193.542969 C 182.660156 193.378906 182.703125 193.191406 182.707031 192.992188 C 182.703125 192.886719 182.691406 192.773438 182.648438 192.660156 C 182.601562 192.550781 182.515625 192.4375 182.394531 192.367188 C 182.292969 192.308594 182.191406 192.28125 182.089844 192.261719 C 181.988281 192.242188 181.886719 192.238281 181.785156 192.238281 C 181.554688 192.238281 181.320312 192.269531 181.144531 192.300781 C 180.964844 192.328125 180.84375 192.359375 180.839844 192.359375 L 180.910156 192.644531 L 181.175781 192.773438 C 181.226562 192.667969 181.214844 192.546875 181.140625 192.457031 C 181.070312 192.371094 180.949219 192.332031 180.839844 192.359375 C 180.660156 192.402344 180.480469 192.425781 180.296875 192.425781 C 179.949219 192.425781 179.597656 192.34375 179.265625 192.167969 C 178.535156 191.78125 178.117188 191.039062 178.117188 190.269531 C 178.117188 189.925781 178.203125 189.578125 178.378906 189.25 C 178.773438 188.527344 179.527344 188.117188 180.304688 188.117188 C 180.65625 188.117188 181.007812 188.199219 181.339844 188.375 C 181.84375 188.640625 182.191406 189.070312 182.367188 189.566406 C 182.40625 189.679688 182.515625 189.757812 182.640625 189.761719 C 182.765625 189.761719 182.878906 189.6875 182.921875 189.570312 L 182.921875 189.566406 L 182.648438 189.464844 L 182.367188 189.5625 C 182.371094 189.570312 182.457031 189.8125 182.597656 190.085938 C 182.667969 190.222656 182.75 190.367188 182.847656 190.5 C 182.898438 190.566406 182.953125 190.628906 183.011719 190.6875 C 183.074219 190.746094 183.144531 190.800781 183.226562 190.839844 L 183.230469 190.839844 C 183.3125 190.878906 183.402344 190.898438 183.488281 190.898438 C 183.65625 190.898438 183.796875 190.835938 183.910156 190.765625 C 184.082031 190.65625 184.222656 190.511719 184.339844 190.375 C 184.453125 190.242188 184.542969 190.117188 184.589844 190.050781 L 184.605469 190.023438 L 187.167969 185.332031 C 187.246094 185.191406 187.191406 185.015625 187.046875 184.9375 L 182.289062 182.410156 L 182.261719 182.398438 C 182.1875 182.367188 182.042969 182.3125 181.878906 182.261719 C 181.710938 182.214844 181.519531 182.167969 181.316406 182.167969 C 181.210938 182.167969 181.097656 182.183594 180.984375 182.226562 C 180.871094 182.269531 180.753906 182.355469 180.683594 182.476562 C 180.625 182.574219 180.597656 182.675781 180.578125 182.773438 C 180.558594 182.875 180.554688 182.976562 180.554688 183.078125 C 180.554688 183.304688 180.585938 183.53125 180.617188 183.707031 C 180.644531 183.882812 180.675781 184.003906 180.679688 184.007812 L 180.964844 183.9375 L 181.113281 183.6875 C 181.007812 183.628906 180.878906 183.632812 180.785156 183.703125 C 180.691406 183.773438 180.644531 183.894531 180.675781 184.007812 C 180.71875 184.183594 180.742188 184.363281 180.742188 184.542969 C 180.742188 184.886719 180.660156 185.234375 180.484375 185.558594 C 180.089844 186.28125 179.335938 186.691406 178.558594 186.691406 C 178.207031 186.691406 177.851562 186.609375 177.523438 186.433594 C 176.789062 186.042969 176.371094 185.300781 176.371094 184.535156 C 176.371094 184.1875 176.457031 183.839844 176.632812 183.515625 C 176.90625 183.019531 177.339844 182.675781 177.839844 182.503906 C 177.957031 182.464844 178.035156 182.359375 178.039062 182.238281 C 178.042969 182.121094 177.972656 182.007812 177.863281 181.960938 L 177.859375 181.960938 L 177.738281 182.226562 L 177.835938 182.503906 C 177.84375 182.5 178.089844 182.414062 178.367188 182.277344 C 178.507812 182.207031 178.65625 182.125 178.789062 182.027344 C 178.855469 181.976562 178.921875 181.925781 178.980469 181.863281 C 179.039062 181.804688 179.09375 181.738281 179.132812 181.652344 C 179.175781 181.570312 179.195312 181.480469 179.195312 181.394531 C 179.191406 181.230469 179.128906 181.09375 179.058594 180.980469 C 178.945312 180.808594 178.800781 180.671875 178.664062 180.558594 C 178.527344 180.445312 178.398438 180.359375 178.332031 180.3125 L 178.304688 180.296875 L 173.546875 177.769531 C 173.402344 177.695312 173.222656 177.746094 173.148438 177.886719 L 170.582031 182.578125 L 170.84375 182.714844 L 170.601562 182.546875 C 170.570312 182.59375 170.527344 182.652344 170.472656 182.722656 C 170.390625 182.828125 170.285156 182.949219 170.1875 183.035156 C 170.136719 183.074219 170.089844 183.109375 170.054688 183.125 C 170.015625 183.144531 169.992188 183.148438 169.988281 183.148438 L 169.984375 183.144531 C 169.972656 183.140625 169.949219 183.125 169.921875 183.097656 C 169.871094 183.050781 169.804688 182.96875 169.746094 182.871094 C 169.65625 182.726562 169.574219 182.558594 169.515625 182.425781 C 169.484375 182.355469 169.464844 182.300781 169.449219 182.261719 C 169.441406 182.242188 169.433594 182.222656 169.429688 182.214844 L 169.425781 182.203125 L 169.425781 182.199219 C 169.386719 182.085938 169.28125 182.011719 169.160156 182.003906 C 169.039062 182 168.925781 182.066406 168.878906 182.175781 L 168.875 182.179688 L 169.144531 182.300781 L 169.421875 182.203125 C 169.203125 181.582031 168.757812 181.03125 168.121094 180.695312 L 167.980469 180.949219 "/>
</g>
</svg>
