<?xml version="1.0" encoding="UTF-8"?>
<svg xmlns="http://www.w3.org/2000/svg" xmlns:xlink="http://www.w3.org/1999/xlink" width="375pt" height="374.999991pt" viewBox="0 0 375 374.999991" version="1.2">
<defs>
<clipPath id="clip1">
  <path d="M 176 184 L 198 184 L 198 211.773438 L 176 211.773438 Z M 176 184 "/>
</clipPath>
<clipPath id="clip2">
  <path d="M 197 166 L 210.105469 166 L 210.105469 176 L 197 176 Z M 197 166 "/>
</clipPath>
<clipPath id="clip3">
  <path d="M 205 163.023438 L 209 163.023438 L 209 165 L 205 165 Z M 205 163.023438 "/>
</clipPath>
<clipPath id="clip4">
  <path d="M 166 163.023438 L 171 163.023438 L 171 165 L 166 165 Z M 166 163.023438 "/>
</clipPath>
<clipPath id="clip5">
  <path d="M 165.105469 166 L 179 166 L 179 176 L 165.105469 176 Z M 165.105469 166 "/>
</clipPath>
</defs>
<g id="surface1">
<path style=" stroke:none;fill-rule:nonzero;fill:rgb(9.01947%,45.878601%,66.668701%);fill-opacity:1;" d="M 187.5 149.773438 C 186.265625 149.773438 185.03125 149.835938 183.800781 149.957031 C 182.574219 150.078125 181.351562 150.257812 180.140625 150.5 C 178.929688 150.742188 177.730469 151.039062 176.550781 151.398438 C 175.367188 151.757812 174.203125 152.171875 173.0625 152.644531 C 171.921875 153.121094 170.804688 153.648438 169.714844 154.230469 C 168.625 154.8125 167.566406 155.445312 166.539062 156.132812 C 165.511719 156.820312 164.523438 157.554688 163.566406 158.339844 C 162.613281 159.121094 161.699219 159.949219 160.824219 160.824219 C 159.949219 161.699219 159.121094 162.613281 158.339844 163.566406 C 157.554688 164.523438 156.820312 165.511719 156.132812 166.539062 C 155.445312 167.566406 154.8125 168.625 154.230469 169.714844 C 153.648438 170.804688 153.121094 171.921875 152.644531 173.0625 C 152.171875 174.203125 151.757812 175.367188 151.398438 176.550781 C 151.039062 177.730469 150.742188 178.929688 150.5 180.140625 C 150.257812 181.351562 150.078125 182.574219 149.957031 183.800781 C 149.835938 185.03125 149.773438 186.265625 149.773438 187.5 C 149.773438 188.734375 149.835938 189.96875 149.957031 191.199219 C 150.078125 192.425781 150.257812 193.648438 150.5 194.859375 C 150.742188 196.070312 151.039062 197.269531 151.398438 198.449219 C 151.757812 199.632812 152.171875 200.796875 152.644531 201.9375 C 153.121094 203.078125 153.648438 204.195312 154.230469 205.285156 C 154.8125 206.375 155.445312 207.433594 156.132812 208.460938 C 156.820312 209.488281 157.554688 210.476562 158.339844 211.433594 C 159.121094 212.386719 159.949219 213.300781 160.824219 214.175781 C 161.699219 215.050781 162.613281 215.878906 163.566406 216.660156 C 164.523438 217.445312 165.511719 218.179688 166.539062 218.867188 C 167.566406 219.554688 168.625 220.1875 169.714844 220.769531 C 170.804688 221.351562 171.921875 221.878906 173.0625 222.355469 C 174.203125 222.828125 175.367188 223.242188 176.550781 223.601562 C 177.730469 223.960938 178.929688 224.257812 180.140625 224.5 C 181.351562 224.742188 182.574219 224.921875 183.800781 225.042969 C 185.03125 225.164062 186.265625 225.226562 187.5 225.226562 C 188.734375 225.226562 189.96875 225.164062 191.199219 225.042969 C 192.425781 224.921875 193.648438 224.742188 194.859375 224.5 C 196.070312 224.257812 197.269531 223.960938 198.449219 223.601562 C 199.632812 223.242188 200.796875 222.828125 201.9375 222.355469 C 203.078125 221.878906 204.195312 221.351562 205.285156 220.769531 C 206.375 220.1875 207.433594 219.554688 208.460938 218.867188 C 209.488281 218.179688 210.476562 217.445312 211.433594 216.660156 C 212.386719 215.878906 213.300781 215.050781 214.175781 214.175781 C 215.050781 213.300781 215.878906 212.386719 216.660156 211.433594 C 217.445312 210.476562 218.179688 209.488281 218.867188 208.460938 C 219.554688 207.433594 220.1875 206.375 220.769531 205.285156 C 221.351562 204.195312 221.878906 203.078125 222.355469 201.9375 C 222.828125 200.796875 223.242188 199.632812 223.601562 198.449219 C 223.960938 197.269531 224.257812 196.070312 224.5 194.859375 C 224.742188 193.648438 224.921875 192.425781 225.042969 191.199219 C 225.164062 189.96875 225.226562 188.734375 225.226562 187.5 C 225.226562 186.265625 225.164062 185.03125 225.042969 183.800781 C 224.921875 182.574219 224.742188 181.351562 224.5 180.140625 C 224.257812 178.929688 223.960938 177.730469 223.601562 176.550781 C 223.242188 175.367188 222.828125 174.203125 222.355469 173.0625 C 221.878906 171.921875 221.351562 170.804688 220.769531 169.714844 C 220.1875 168.625 219.554688 167.566406 218.867188 166.539062 C 218.179688 165.511719 217.445312 164.523438 216.660156 163.566406 C 215.878906 162.613281 215.050781 161.699219 214.175781 160.824219 C 213.300781 159.949219 212.386719 159.121094 211.433594 158.339844 C 210.476562 157.554688 209.488281 156.820312 208.460938 156.132812 C 207.433594 155.445312 206.375 154.8125 205.285156 154.230469 C 204.195312 153.648438 203.078125 153.121094 201.9375 152.644531 C 200.796875 152.171875 199.632812 151.757812 198.449219 151.398438 C 197.269531 151.039062 196.070312 150.742188 194.859375 150.5 C 193.648438 150.257812 192.425781 150.078125 191.199219 149.957031 C 189.96875 149.835938 188.734375 149.773438 187.5 149.773438 Z M 187.5 149.773438 "/>
<path style=" stroke:none;fill-rule:nonzero;fill:rgb(100%,100%,100%);fill-opacity:1;" d="M 186.773438 191.117188 L 186.773438 189.464844 L 188.4375 189.464844 L 188.4375 191.117188 L 190.9375 191.117188 L 190.9375 185.164062 C 189.5 184.230469 187.785156 183.683594 185.9375 183.683594 C 185.367188 183.683594 184.8125 183.742188 184.273438 183.839844 L 184.273438 191.117188 Z M 186.773438 186.160156 L 188.4375 186.160156 L 188.4375 187.8125 L 186.773438 187.8125 Z M 186.773438 186.160156 "/>
<g clip-path="url(#clip1)" clip-rule="nonzero">
<path style=" stroke:none;fill-rule:nonzero;fill:rgb(100%,100%,100%);fill-opacity:1;" d="M 195.105469 192.769531 C 195.105469 190.363281 194.148438 188.179688 192.605469 186.550781 L 192.605469 191.941406 C 192.605469 192.398438 192.234375 192.769531 191.773438 192.769531 L 188.4375 192.769531 L 188.4375 195.246094 C 188.4375 195.703125 188.066406 196.074219 187.605469 196.074219 L 183.4375 196.074219 C 182.976562 196.074219 182.605469 195.703125 182.605469 195.246094 L 182.605469 192.769531 L 180.9375 192.769531 L 180.9375 191.117188 L 182.605469 191.117188 L 182.605469 184.3125 C 179.195312 185.640625 176.773438 188.925781 176.773438 192.769531 L 176.773438 193.65625 C 176.773438 196.238281 177.308594 198.746094 178.367188 201.105469 C 179.519531 203.679688 180.105469 206.414062 180.105469 209.226562 L 180.105469 211.769531 L 190.105469 211.769531 L 190.105469 206.8125 C 190.105469 206.355469 190.476562 205.984375 190.9375 205.984375 L 195.105469 205.984375 L 195.105469 199.378906 C 195.105469 198.921875 195.476562 198.550781 195.9375 198.550781 L 197.921875 198.550781 L 195.191406 193.136719 C 195.136719 193.023438 195.105469 192.898438 195.105469 192.769531 Z M 179.273438 192.769531 L 177.605469 192.769531 L 177.605469 191.117188 L 179.273438 191.117188 Z M 179.273438 192.769531 "/>
</g>
<path style=" stroke:none;fill-rule:nonzero;fill:rgb(100%,100%,100%);fill-opacity:1;" d="M 184.273438 192.769531 L 186.773438 192.769531 L 186.773438 194.421875 L 184.273438 194.421875 Z M 184.273438 192.769531 "/>
<path style=" stroke:none;fill-rule:nonzero;fill:rgb(100%,100%,100%);fill-opacity:1;" d="M 191.773438 177.898438 C 192.691406 177.898438 193.4375 177.160156 193.4375 176.246094 C 193.4375 176.042969 193.402344 175.84375 193.328125 175.652344 C 193.238281 175.425781 193.253906 175.171875 193.375 174.957031 C 193.492188 174.746094 193.699219 174.59375 193.941406 174.546875 C 195.097656 174.3125 195.9375 173.292969 195.9375 172.117188 C 195.9375 170.945312 195.097656 169.925781 193.941406 169.691406 C 193.703125 169.640625 193.492188 169.488281 193.375 169.277344 C 193.257812 169.0625 193.238281 168.808594 193.324219 168.582031 C 193.402344 168.394531 193.4375 168.191406 193.4375 167.988281 C 193.4375 167.078125 192.691406 166.335938 191.773438 166.335938 C 190.851562 166.335938 190.105469 167.078125 190.105469 167.988281 L 190.105469 176.246094 C 190.105469 177.160156 190.851562 177.898438 191.773438 177.898438 Z M 191.773438 177.898438 "/>
<g clip-path="url(#clip2)" clip-rule="nonzero">
<path style=" stroke:none;fill-rule:nonzero;fill:rgb(100%,100%,100%);fill-opacity:1;" d="M 209.09375 167.589844 L 208.671875 166.335938 L 206.898438 166.335938 L 207.625 171.359375 C 207.671875 171.695312 207.507812 172.027344 207.210938 172.195312 C 207.085938 172.269531 206.941406 172.304688 206.800781 172.304688 C 206.613281 172.304688 206.429688 172.242188 206.277344 172.125 L 204.472656 170.691406 C 203.035156 169.546875 200.925781 169.328125 199.277344 170.148438 L 197.453125 171.050781 C 197.546875 171.394531 197.605469 171.75 197.605469 172.117188 C 197.605469 172.875 197.386719 173.585938 197.019531 174.207031 C 198.625 175 200.425781 175.421875 202.222656 175.421875 L 203.4375 175.421875 C 205.808594 175.421875 208.15625 174.6875 210.101562 173.351562 C 210.058594 171.390625 209.71875 169.453125 209.09375 167.589844 Z M 209.09375 167.589844 "/>
</g>
<g clip-path="url(#clip3)" clip-rule="nonzero">
<path style=" stroke:none;fill-rule:nonzero;fill:rgb(100%,100%,100%);fill-opacity:1;" d="M 208.4375 163.03125 L 205.9375 163.03125 C 205.476562 163.03125 205.105469 163.402344 205.105469 163.855469 L 205.105469 164.683594 L 208.4375 164.683594 Z M 208.4375 163.03125 "/>
</g>
<path style=" stroke:none;fill-rule:nonzero;fill:rgb(100%,100%,100%);fill-opacity:1;" d="M 181.269531 174.546875 C 181.511719 174.59375 181.71875 174.746094 181.835938 174.957031 C 181.953125 175.171875 181.972656 175.425781 181.882812 175.652344 C 181.808594 175.84375 181.773438 176.042969 181.773438 176.246094 C 181.773438 177.160156 182.519531 177.898438 183.4375 177.898438 C 184.359375 177.898438 185.105469 177.160156 185.105469 176.246094 L 185.105469 167.988281 C 185.105469 167.078125 184.359375 166.335938 183.4375 166.335938 C 182.519531 166.335938 181.773438 167.078125 181.773438 167.988281 C 181.773438 168.191406 181.808594 168.394531 181.882812 168.582031 C 181.972656 168.8125 181.953125 169.074219 181.828125 169.289062 C 181.703125 169.503906 181.488281 169.652344 181.242188 169.695312 C 180.109375 169.925781 179.273438 170.945312 179.273438 172.117188 C 179.273438 173.292969 180.113281 174.3125 181.269531 174.546875 Z M 181.269531 174.546875 "/>
<g clip-path="url(#clip4)" clip-rule="nonzero">
<path style=" stroke:none;fill-rule:nonzero;fill:rgb(100%,100%,100%);fill-opacity:1;" d="M 170.105469 163.855469 C 170.105469 163.402344 169.730469 163.03125 169.273438 163.03125 L 166.773438 163.03125 L 166.773438 164.683594 L 170.105469 164.683594 Z M 170.105469 163.855469 "/>
</g>
<g clip-path="url(#clip5)" clip-rule="nonzero">
<path style=" stroke:none;fill-rule:nonzero;fill:rgb(100%,100%,100%);fill-opacity:1;" d="M 177.605469 172.117188 C 177.605469 171.75 177.664062 171.394531 177.753906 171.050781 L 175.933594 170.148438 C 174.285156 169.328125 172.175781 169.546875 170.738281 170.691406 L 168.933594 172.125 C 168.78125 172.242188 168.597656 172.304688 168.410156 172.304688 C 168.269531 172.304688 168.125 172.269531 168 172.195312 C 167.703125 172.027344 167.539062 171.695312 167.585938 171.359375 L 168.3125 166.335938 L 166.539062 166.335938 L 166.117188 167.589844 C 165.488281 169.453125 165.152344 171.390625 165.109375 173.351562 C 167.054688 174.6875 169.402344 175.421875 171.773438 175.421875 L 172.988281 175.421875 C 174.785156 175.421875 176.582031 175 178.191406 174.207031 C 177.824219 173.585938 177.605469 172.875 177.605469 172.117188 Z M 177.605469 172.117188 "/>
</g>
<path style=" stroke:none;fill-rule:nonzero;fill:rgb(100%,100%,100%);fill-opacity:1;" d="M 192.605469 179.433594 C 192.335938 179.503906 192.0625 179.550781 191.773438 179.550781 C 191.484375 179.550781 191.207031 179.503906 190.9375 179.433594 L 190.9375 185.164062 C 191.550781 185.558594 192.105469 186.027344 192.605469 186.550781 Z M 192.605469 179.433594 "/>
<path style=" stroke:none;fill-rule:nonzero;fill:rgb(100%,100%,100%);fill-opacity:1;" d="M 184.273438 179.433594 C 184.003906 179.503906 183.726562 179.550781 183.4375 179.550781 C 183.148438 179.550781 182.875 179.503906 182.605469 179.433594 L 182.605469 184.3125 C 183.136719 184.105469 183.695312 183.945312 184.273438 183.839844 Z M 184.273438 179.433594 "/>
</g>
</svg>
