<?xml version="1.0" encoding="UTF-8"?>
<svg xmlns="http://www.w3.org/2000/svg" xmlns:xlink="http://www.w3.org/1999/xlink" width="375pt" height="374.999991pt" viewBox="0 0 375 374.999991" version="1.2">
<defs>
<clipPath id="clip1">
  <path d="M 167.679688 165.65625 L 198 165.65625 L 198 209.15625 L 167.679688 209.15625 Z M 167.679688 165.65625 "/>
</clipPath>
<clipPath id="clip2">
  <path d="M 204 178 L 207.429688 178 L 207.429688 181 L 204 181 Z M 204 178 "/>
</clipPath>
</defs>
<g id="surface1">
<path style=" stroke:none;fill-rule:nonzero;fill:rgb(9.01947%,45.878601%,66.668701%);fill-opacity:1;" d="M 187.5 149.773438 C 186.265625 149.773438 185.03125 149.835938 183.800781 149.957031 C 182.574219 150.078125 181.351562 150.257812 180.140625 150.5 C 178.929688 150.742188 177.730469 151.039062 176.550781 151.398438 C 175.367188 151.757812 174.203125 152.171875 173.0625 152.644531 C 171.921875 153.117188 170.804688 153.648438 169.714844 154.230469 C 168.625 154.8125 167.566406 155.445312 166.539062 156.132812 C 165.511719 156.820312 164.523438 157.554688 163.566406 158.339844 C 162.613281 159.121094 161.699219 159.949219 160.824219 160.824219 C 159.949219 161.699219 159.121094 162.613281 158.339844 163.566406 C 157.554688 164.523438 156.820312 165.511719 156.132812 166.539062 C 155.445312 167.566406 154.8125 168.625 154.230469 169.714844 C 153.648438 170.804688 153.121094 171.921875 152.644531 173.0625 C 152.171875 174.203125 151.757812 175.367188 151.398438 176.550781 C 151.039062 177.730469 150.742188 178.929688 150.5 180.140625 C 150.257812 181.351562 150.078125 182.574219 149.957031 183.800781 C 149.835938 185.03125 149.773438 186.265625 149.773438 187.5 C 149.773438 188.734375 149.835938 189.96875 149.957031 191.199219 C 150.078125 192.425781 150.257812 193.648438 150.5 194.859375 C 150.742188 196.070312 151.039062 197.269531 151.398438 198.449219 C 151.757812 199.632812 152.171875 200.796875 152.644531 201.9375 C 153.121094 203.078125 153.648438 204.195312 154.230469 205.285156 C 154.8125 206.375 155.445312 207.433594 156.132812 208.460938 C 156.820312 209.488281 157.554688 210.476562 158.339844 211.433594 C 159.121094 212.386719 159.949219 213.300781 160.824219 214.175781 C 161.699219 215.050781 162.613281 215.878906 163.566406 216.660156 C 164.523438 217.445312 165.511719 218.179688 166.539062 218.867188 C 167.566406 219.554688 168.625 220.1875 169.714844 220.769531 C 170.804688 221.351562 171.921875 221.878906 173.0625 222.355469 C 174.203125 222.828125 175.367188 223.242188 176.550781 223.601562 C 177.730469 223.960938 178.929688 224.257812 180.140625 224.5 C 181.351562 224.742188 182.574219 224.921875 183.800781 225.042969 C 185.03125 225.164062 186.265625 225.226562 187.5 225.226562 C 188.734375 225.226562 189.96875 225.164062 191.199219 225.042969 C 192.425781 224.921875 193.648438 224.742188 194.859375 224.5 C 196.070312 224.257812 197.269531 223.960938 198.449219 223.601562 C 199.632812 223.242188 200.796875 222.828125 201.9375 222.355469 C 203.078125 221.878906 204.195312 221.351562 205.285156 220.769531 C 206.375 220.1875 207.433594 219.554688 208.460938 218.867188 C 209.488281 218.179688 210.476562 217.445312 211.433594 216.660156 C 212.386719 215.878906 213.300781 215.050781 214.175781 214.175781 C 215.050781 213.300781 215.878906 212.386719 216.660156 211.433594 C 217.445312 210.476562 218.179688 209.488281 218.867188 208.460938 C 219.554688 207.433594 220.1875 206.375 220.769531 205.285156 C 221.351562 204.195312 221.878906 203.078125 222.355469 201.9375 C 222.828125 200.796875 223.242188 199.632812 223.601562 198.449219 C 223.960938 197.269531 224.257812 196.070312 224.5 194.859375 C 224.742188 193.648438 224.921875 192.425781 225.042969 191.199219 C 225.164062 189.96875 225.226562 188.734375 225.226562 187.5 C 225.226562 186.265625 225.164062 185.03125 225.042969 183.800781 C 224.921875 182.574219 224.742188 181.351562 224.5 180.140625 C 224.257812 178.929688 223.960938 177.730469 223.601562 176.550781 C 223.242188 175.367188 222.828125 174.203125 222.355469 173.0625 C 221.878906 171.921875 221.351562 170.804688 220.769531 169.714844 C 220.1875 168.625 219.554688 167.566406 218.867188 166.539062 C 218.179688 165.511719 217.445312 164.523438 216.660156 163.566406 C 215.878906 162.613281 215.050781 161.699219 214.175781 160.824219 C 213.300781 159.949219 212.386719 159.121094 211.433594 158.339844 C 210.476562 157.554688 209.488281 156.820312 208.460938 156.132812 C 207.433594 155.445312 206.375 154.8125 205.285156 154.230469 C 204.195312 153.648438 203.078125 153.117188 201.9375 152.644531 C 200.796875 152.171875 199.632812 151.757812 198.449219 151.398438 C 197.269531 151.039062 196.070312 150.742188 194.859375 150.5 C 193.648438 150.257812 192.425781 150.078125 191.199219 149.957031 C 189.96875 149.835938 188.734375 149.773438 187.5 149.773438 Z M 187.5 149.773438 "/>
<g clip-path="url(#clip1)" clip-rule="nonzero">
<path style=" stroke:none;fill-rule:nonzero;fill:rgb(100%,100%,100%);fill-opacity:1;" d="M 197.320312 194.035156 C 197.082031 194.070312 195.851562 194.035156 195.613281 194.035156 C 195.167969 195.734375 195.101562 197.53125 195.269531 199.054688 C 195.339844 199.667969 195.613281 200.480469 195.917969 201.429688 C 196.160156 202.109375 196.535156 203.226562 196.636719 203.90625 C 196.296875 203.972656 195.886719 204.039062 195.542969 204.074219 C 194.382812 204.246094 192.742188 204.480469 191.207031 204.921875 C 189.089844 205.5 186.871094 206.484375 185.402344 207.332031 C 185.300781 207.160156 185.195312 206.957031 185.128906 206.789062 C 184.035156 204.71875 183.113281 202.921875 179.460938 201.972656 C 179.355469 201.9375 178.914062 201.835938 178.160156 201.835938 C 177.207031 201.835938 176.214844 202.007812 175.226562 202.378906 C 175.226562 202.378906 175.15625 202.414062 175.019531 202.414062 C 174.40625 202.414062 173.585938 202.074219 173.347656 201.871094 C 173.175781 201.699219 173.210938 201.058594 173.210938 200.582031 C 173.246094 199.769531 173.277344 198.378906 172.320312 197.496094 C 172.425781 196.75 172.390625 195.9375 171.878906 195.324219 C 171.84375 195.257812 171.777344 195.222656 171.742188 195.191406 C 171.914062 194.070312 171.777344 193.085938 171.261719 192.207031 L 170.820312 191.390625 L 169.863281 191.460938 L 169.660156 191.492188 C 169.523438 191.527344 169.386719 191.527344 169.25 191.5625 C 169.386719 191.15625 169.691406 190.613281 169.863281 190.308594 C 170 190.070312 170.101562 189.867188 170.203125 189.664062 C 170.546875 188.984375 170.785156 188.273438 170.957031 187.558594 C 171.46875 185.457031 171.160156 183.558594 170.785156 181.355469 L 170.71875 180.878906 C 170.273438 178.066406 171.09375 175.082031 173.039062 172.46875 C 174.847656 170.027344 177.511719 168.230469 180.109375 167.722656 C 181.679688 167.382812 183.421875 167.007812 185.09375 167.007812 C 188.441406 167.007812 191.683594 168.027344 194.246094 169.246094 C 194.246094 168.910156 194.246094 167.890625 194.246094 167.550781 C 191.410156 166.363281 188.167969 165.6875 185.09375 165.6875 C 183.25 165.6875 181.441406 166.058594 179.835938 166.398438 C 173.859375 167.652344 168.328125 174.335938 169.386719 181.117188 C 169.761719 183.421875 170.101562 185.289062 169.625 187.253906 C 169.488281 187.832031 169.28125 188.441406 168.976562 189.050781 C 168.601562 189.832031 167.679688 191.121094 167.8125 192.035156 C 167.917969 192.714844 168.394531 192.882812 168.941406 192.882812 C 169.28125 192.882812 169.691406 192.816406 170 192.78125 C 170.476562 193.664062 170.476562 194.679688 170.035156 196.003906 C 170.136719 195.96875 170.238281 195.96875 170.339844 195.96875 C 171.230469 195.96875 170.886719 197.496094 170.71875 198.175781 C 172.730469 198.785156 170.957031 201.566406 172.320312 202.855469 C 172.835938 203.328125 173.996094 203.769531 174.917969 203.769531 C 175.15625 203.769531 175.394531 203.734375 175.566406 203.667969 C 176.589844 203.296875 177.480469 203.226562 178.058594 203.226562 C 178.675781 203.226562 179.015625 203.328125 179.015625 203.328125 C 183.011719 204.378906 183.046875 206.175781 184.890625 209.128906 C 185.605469 208.449219 188.441406 207.128906 191.515625 206.277344 C 194.449219 205.464844 197.625 205.363281 197.832031 204.957031 C 198.480469 203.871094 196.671875 200.242188 196.566406 198.953125 C 196.464844 197.328125 196.808594 195.664062 197.320312 194.035156 Z M 197.320312 194.035156 "/>
</g>
<path style=" stroke:none;fill-rule:nonzero;fill:rgb(100%,100%,100%);fill-opacity:1;" d="M 195.953125 172.808594 C 192.230469 172.808594 189.328125 175.828125 189.328125 179.523438 C 189.328125 182 190.730469 184.136719 192.742188 185.289062 L 192.742188 188.070312 L 199.230469 188.070312 L 199.230469 185.1875 C 201.246094 184.03125 202.988281 182.234375 202.988281 179.761719 C 202.988281 176.0625 200.257812 172.808594 195.953125 172.808594 Z M 198.855469 184.203125 L 197.867188 184.710938 L 197.867188 186.710938 L 194.109375 186.710938 L 194.109375 184.710938 L 193.527344 184.203125 C 191.855469 183.21875 190.867188 181.523438 190.867188 179.625 C 190.867188 176.675781 193.253906 174.300781 196.226562 174.300781 C 199.164062 174.300781 201.589844 176.675781 201.589844 179.625 C 201.554688 181.523438 200.53125 183.253906 198.855469 184.203125 Z M 198.855469 184.203125 "/>
<path style=" stroke:none;fill-rule:nonzero;fill:rgb(100%,100%,100%);fill-opacity:1;" d="M 192.742188 189.289062 C 192.742188 189.933594 193.050781 190.441406 193.835938 190.441406 L 198.140625 190.441406 C 198.925781 190.441406 199.230469 189.933594 199.230469 189.289062 L 199.230469 189.085938 L 192.742188 189.085938 Z M 192.742188 189.289062 "/>
<path style=" stroke:none;fill-rule:nonzero;fill:rgb(100%,100%,100%);fill-opacity:1;" d="M 197.867188 191.800781 L 194.65625 191.800781 C 194.28125 191.800781 194.007812 192.035156 194.007812 192.308594 C 194.007812 192.578125 194.3125 192.816406 194.65625 192.816406 L 197.867188 192.816406 C 198.242188 192.816406 198.515625 192.578125 198.515625 192.308594 C 198.515625 192.035156 198.242188 191.800781 197.867188 191.800781 Z M 197.867188 191.800781 "/>
<path style=" stroke:none;fill-rule:nonzero;fill:rgb(100%,100%,100%);fill-opacity:1;" d="M 188.988281 172.808594 C 189.261719 173.078125 189.703125 173.078125 189.976562 172.808594 C 190.25 172.535156 190.25 172.097656 189.976562 171.824219 L 188.988281 170.839844 C 188.714844 170.570312 188.269531 170.570312 187.996094 170.839844 C 187.722656 171.113281 187.722656 171.554688 187.996094 171.824219 Z M 188.988281 172.808594 "/>
<path style=" stroke:none;fill-rule:nonzero;fill:rgb(100%,100%,100%);fill-opacity:1;" d="M 187.210938 178.8125 L 185.8125 178.8125 C 185.433594 178.8125 185.128906 179.117188 185.128906 179.488281 C 185.128906 179.863281 185.433594 180.132812 185.8125 180.132812 L 187.210938 180.132812 C 187.585938 180.132812 187.894531 179.863281 187.894531 179.488281 C 187.894531 179.117188 187.585938 178.8125 187.210938 178.8125 Z M 187.210938 178.8125 "/>
<g clip-path="url(#clip2)" clip-rule="nonzero">
<path style=" stroke:none;fill-rule:nonzero;fill:rgb(100%,100%,100%);fill-opacity:1;" d="M 206.746094 178.8125 L 205.34375 178.8125 C 204.96875 178.8125 204.660156 179.117188 204.660156 179.488281 C 204.660156 179.863281 204.96875 180.132812 205.34375 180.132812 L 206.746094 180.132812 C 207.121094 180.132812 207.429688 179.863281 207.429688 179.488281 C 207.429688 179.117188 207.121094 178.8125 206.746094 178.8125 Z M 206.746094 178.8125 "/>
</g>
<path style=" stroke:none;fill-rule:nonzero;fill:rgb(100%,100%,100%);fill-opacity:1;" d="M 205.175781 171.960938 C 204.902344 171.6875 204.457031 171.6875 204.183594 171.960938 L 203.191406 172.945312 C 202.921875 173.214844 202.921875 173.65625 203.191406 173.925781 C 203.464844 174.199219 203.910156 174.199219 204.183594 173.925781 L 205.175781 172.945312 C 205.445312 172.671875 205.445312 172.230469 205.175781 171.960938 Z M 205.175781 171.960938 "/>
<path style=" stroke:none;fill-rule:nonzero;fill:rgb(100%,100%,100%);fill-opacity:1;" d="M 196.328125 171.042969 C 196.535156 171.042969 196.703125 170.976562 196.808594 170.839844 C 196.945312 170.707031 197.011719 170.535156 197.011719 170.367188 L 197.011719 168.941406 C 197.011719 168.570312 196.703125 168.265625 196.328125 168.265625 C 196.054688 168.265625 195.78125 168.433594 195.679688 168.703125 L 195.613281 168.976562 L 195.613281 170.367188 C 195.613281 170.738281 195.917969 171.042969 196.328125 171.042969 Z M 196.328125 171.042969 "/>
</g>
</svg>
