<?xml version="1.0" encoding="UTF-8"?>
<svg xmlns="http://www.w3.org/2000/svg" xmlns:xlink="http://www.w3.org/1999/xlink" width="375pt" height="374.999991pt" viewBox="0 0 375 374.999991" version="1.2">
<defs>
<clipPath id="clip1">
  <path d="M 167.90625 173 L 193 173 L 193 199 L 167.90625 199 Z M 167.90625 173 "/>
</clipPath>
<clipPath id="clip2">
  <path d="M 189 165.65625 L 204 165.65625 L 204 180 L 189 180 Z M 189 165.65625 "/>
</clipPath>
<clipPath id="clip3">
  <path d="M 188 190 L 206.90625 190 L 206.90625 209.15625 L 188 209.15625 Z M 188 190 "/>
</clipPath>
</defs>
<g id="surface1">
<path style=" stroke:none;fill-rule:nonzero;fill:rgb(9.01947%,45.878601%,66.668701%);fill-opacity:1;" d="M 187.5 149.773438 C 186.265625 149.773438 185.03125 149.835938 183.800781 149.957031 C 182.574219 150.078125 181.351562 150.257812 180.140625 150.5 C 178.929688 150.742188 177.730469 151.039062 176.550781 151.398438 C 175.367188 151.757812 174.203125 152.171875 173.0625 152.644531 C 171.921875 153.117188 170.804688 153.648438 169.714844 154.230469 C 168.625 154.8125 167.566406 155.445312 166.539062 156.132812 C 165.511719 156.820312 164.523438 157.554688 163.566406 158.339844 C 162.613281 159.121094 161.699219 159.949219 160.824219 160.824219 C 159.949219 161.699219 159.121094 162.613281 158.339844 163.566406 C 157.554688 164.523438 156.820312 165.511719 156.132812 166.539062 C 155.445312 167.566406 154.8125 168.625 154.230469 169.714844 C 153.648438 170.804688 153.121094 171.921875 152.644531 173.0625 C 152.171875 174.203125 151.757812 175.367188 151.398438 176.550781 C 151.039062 177.730469 150.742188 178.929688 150.5 180.140625 C 150.257812 181.351562 150.078125 182.574219 149.957031 183.800781 C 149.835938 185.03125 149.773438 186.265625 149.773438 187.5 C 149.773438 188.734375 149.835938 189.96875 149.957031 191.199219 C 150.078125 192.425781 150.257812 193.648438 150.5 194.859375 C 150.742188 196.070312 151.039062 197.269531 151.398438 198.449219 C 151.757812 199.632812 152.171875 200.796875 152.644531 201.9375 C 153.121094 203.078125 153.648438 204.195312 154.230469 205.285156 C 154.8125 206.375 155.445312 207.433594 156.132812 208.460938 C 156.820312 209.488281 157.554688 210.476562 158.339844 211.433594 C 159.121094 212.386719 159.949219 213.300781 160.824219 214.175781 C 161.699219 215.050781 162.613281 215.878906 163.566406 216.660156 C 164.523438 217.445312 165.511719 218.179688 166.539062 218.867188 C 167.566406 219.554688 168.625 220.1875 169.714844 220.769531 C 170.804688 221.351562 171.921875 221.878906 173.0625 222.355469 C 174.203125 222.828125 175.367188 223.242188 176.550781 223.601562 C 177.730469 223.960938 178.929688 224.257812 180.140625 224.5 C 181.351562 224.742188 182.574219 224.921875 183.800781 225.042969 C 185.03125 225.164062 186.265625 225.226562 187.5 225.226562 C 188.734375 225.226562 189.96875 225.164062 191.199219 225.042969 C 192.425781 224.921875 193.648438 224.742188 194.859375 224.5 C 196.070312 224.257812 197.269531 223.960938 198.449219 223.601562 C 199.632812 223.242188 200.796875 222.828125 201.9375 222.355469 C 203.078125 221.878906 204.195312 221.351562 205.285156 220.769531 C 206.375 220.1875 207.433594 219.554688 208.460938 218.867188 C 209.488281 218.179688 210.476562 217.445312 211.433594 216.660156 C 212.386719 215.878906 213.300781 215.050781 214.175781 214.175781 C 215.050781 213.300781 215.878906 212.386719 216.660156 211.433594 C 217.445312 210.476562 218.179688 209.488281 218.867188 208.460938 C 219.554688 207.433594 220.1875 206.375 220.769531 205.285156 C 221.351562 204.195312 221.878906 203.078125 222.355469 201.9375 C 222.828125 200.796875 223.242188 199.632812 223.601562 198.449219 C 223.960938 197.269531 224.257812 196.070312 224.5 194.859375 C 224.742188 193.648438 224.921875 192.425781 225.042969 191.199219 C 225.164062 189.96875 225.226562 188.734375 225.226562 187.5 C 225.226562 186.265625 225.164062 185.03125 225.042969 183.800781 C 224.921875 182.574219 224.742188 181.351562 224.5 180.140625 C 224.257812 178.929688 223.960938 177.730469 223.601562 176.550781 C 223.242188 175.367188 222.828125 174.203125 222.355469 173.0625 C 221.878906 171.921875 221.351562 170.804688 220.769531 169.714844 C 220.1875 168.625 219.554688 167.566406 218.867188 166.539062 C 218.179688 165.511719 217.445312 164.523438 216.660156 163.566406 C 215.878906 162.613281 215.050781 161.699219 214.175781 160.824219 C 213.300781 159.949219 212.386719 159.121094 211.433594 158.339844 C 210.476562 157.554688 209.488281 156.820312 208.460938 156.132812 C 207.433594 155.445312 206.375 154.8125 205.285156 154.230469 C 204.195312 153.648438 203.078125 153.117188 201.9375 152.644531 C 200.796875 152.171875 199.632812 151.757812 198.449219 151.398438 C 197.269531 151.039062 196.070312 150.742188 194.859375 150.5 C 193.648438 150.257812 192.425781 150.078125 191.199219 149.957031 C 189.96875 149.835938 188.734375 149.773438 187.5 149.773438 Z M 187.5 149.773438 "/>
<path style=" stroke:none;fill-rule:nonzero;fill:rgb(100%,100%,100%);fill-opacity:1;" d="M 187.261719 185.804688 C 187.261719 181.828125 184.0625 178.609375 180.113281 178.609375 C 176.167969 178.609375 172.96875 181.828125 172.96875 185.804688 C 172.96875 189.777344 176.167969 192.996094 180.113281 192.996094 C 184.058594 192.992188 187.257812 189.773438 187.261719 185.804688 Z M 174.03125 185.804688 C 174.03125 182.421875 176.753906 179.679688 180.113281 179.679688 C 183.476562 179.679688 186.199219 182.421875 186.199219 185.804688 C 186.199219 189.183594 183.476562 191.925781 180.113281 191.925781 C 176.757812 191.921875 174.035156 189.183594 174.03125 185.804688 Z M 174.03125 185.804688 "/>
<path style=" stroke:none;fill-rule:nonzero;fill:rgb(100%,100%,100%);fill-opacity:1;" d="M 181.035156 189.929688 C 181.253906 189.929688 181.449219 189.796875 181.53125 189.59375 C 181.609375 189.386719 181.558594 189.15625 181.402344 189.003906 L 179.308594 187.019531 C 180.363281 186.957031 181.25 186.210938 181.507812 185.179688 L 182.253906 185.179688 C 182.546875 185.179688 182.785156 184.9375 182.785156 184.644531 C 182.785156 184.347656 182.546875 184.109375 182.253906 184.109375 L 181.507812 184.109375 C 181.433594 183.828125 181.324219 183.558594 181.175781 183.308594 L 182.253906 183.308594 C 182.546875 183.308594 182.785156 183.066406 182.785156 182.773438 C 182.785156 182.476562 182.546875 182.238281 182.253906 182.238281 L 177.976562 182.238281 C 177.683594 182.238281 177.445312 182.476562 177.445312 182.773438 C 177.445312 183.066406 177.683594 183.308594 177.976562 183.308594 L 179.199219 183.308594 C 179.730469 183.308594 180.1875 183.664062 180.390625 184.109375 L 177.976562 184.109375 C 177.683594 184.109375 177.445312 184.347656 177.445312 184.644531 C 177.445312 184.9375 177.683594 185.179688 177.976562 185.179688 L 180.390625 185.179688 C 180.1875 185.625 179.730469 185.980469 179.199219 185.980469 L 177.976562 185.980469 C 177.761719 185.972656 177.5625 186.101562 177.480469 186.300781 C 177.398438 186.503906 177.453125 186.734375 177.609375 186.878906 L 180.671875 189.785156 C 180.769531 189.878906 180.898438 189.929688 181.035156 189.929688 Z M 181.035156 189.929688 "/>
<g clip-path="url(#clip1)" clip-rule="nonzero">
<path style=" stroke:none;fill-rule:nonzero;fill:rgb(100%,100%,100%);fill-opacity:1;" d="M 177.894531 197.597656 C 177.917969 197.878906 178.144531 198.09375 178.421875 198.105469 L 181.835938 198.105469 C 182.113281 198.09375 182.34375 197.878906 182.367188 197.597656 L 182.574219 195.421875 C 183.480469 195.183594 184.347656 194.8125 185.148438 194.324219 L 186.804688 195.699219 C 187.015625 195.875 187.324219 195.859375 187.515625 195.664062 L 189.925781 193.242188 C 190.121094 193.046875 190.132812 192.734375 189.960938 192.519531 L 188.585938 190.851562 C 189.070312 190.042969 189.433594 189.171875 189.671875 188.261719 L 191.796875 188.054688 C 192.066406 188.027344 192.273438 187.796875 192.273438 187.519531 L 192.273438 184.085938 C 192.273438 183.808594 192.066406 183.578125 191.792969 183.550781 L 189.644531 183.34375 C 189.40625 182.429688 189.042969 181.558594 188.558594 180.75 L 189.929688 179.085938 C 190.101562 178.875 190.089844 178.5625 189.898438 178.367188 L 187.519531 175.945312 C 187.324219 175.746094 187.015625 175.730469 186.800781 175.90625 L 185.144531 177.289062 C 184.34375 176.804688 183.476562 176.4375 182.574219 176.195312 L 182.367188 174.007812 C 182.339844 173.730469 182.113281 173.511719 181.835938 173.5 L 178.421875 173.5 C 178.144531 173.511719 177.917969 173.726562 177.894531 174.007812 L 177.6875 176.183594 C 176.78125 176.421875 175.914062 176.792969 175.109375 177.28125 L 173.457031 175.90625 C 173.246094 175.730469 172.9375 175.746094 172.742188 175.941406 L 170.335938 178.367188 C 170.140625 178.5625 170.125 178.871094 170.300781 179.085938 L 171.671875 180.753906 C 171.191406 181.5625 170.824219 182.433594 170.585938 183.34375 L 168.417969 183.550781 C 168.144531 183.578125 167.929688 183.804688 167.925781 184.085938 L 167.925781 187.519531 C 167.929688 187.800781 168.144531 188.027344 168.417969 188.054688 L 170.578125 188.261719 C 170.816406 189.175781 171.183594 190.046875 171.667969 190.855469 L 170.300781 192.519531 C 170.125 192.734375 170.140625 193.042969 170.335938 193.238281 L 172.742188 195.664062 C 172.9375 195.859375 173.246094 195.875 173.457031 195.699219 L 175.113281 194.316406 C 175.914062 194.804688 176.78125 195.175781 177.6875 195.421875 Z M 174.730469 193.246094 L 173.152344 194.5625 L 171.429688 192.828125 L 172.734375 191.238281 C 172.886719 191.054688 172.898438 190.796875 172.769531 190.601562 C 172.179688 189.703125 171.761719 188.703125 171.535156 187.652344 C 171.480469 187.425781 171.285156 187.257812 171.050781 187.234375 L 168.988281 187.035156 L 168.988281 184.570312 L 171.050781 184.371094 C 171.285156 184.347656 171.476562 184.179688 171.527344 183.953125 C 171.761719 182.898438 172.183594 181.898438 172.769531 181 C 172.894531 180.800781 172.882812 180.546875 172.734375 180.367188 L 171.425781 178.777344 L 173.152344 177.042969 L 174.730469 178.359375 C 174.910156 178.507812 175.167969 178.523438 175.363281 178.390625 C 176.253906 177.796875 177.246094 177.378906 178.292969 177.148438 C 178.519531 177.089844 178.6875 176.894531 178.707031 176.65625 L 178.90625 174.570312 L 181.355469 174.570312 L 181.550781 176.65625 C 181.574219 176.890625 181.742188 177.085938 181.96875 177.140625 C 183.011719 177.375 184.007812 177.796875 184.902344 178.390625 C 185.097656 178.519531 185.351562 178.503906 185.527344 178.355469 L 187.105469 177.042969 L 188.804688 178.777344 L 187.496094 180.367188 C 187.34375 180.550781 187.332031 180.808594 187.460938 181.003906 C 188.050781 181.902344 188.46875 182.902344 188.695312 183.953125 C 188.742188 184.179688 188.933594 184.347656 189.164062 184.371094 L 191.210938 184.570312 L 191.210938 187.035156 L 189.191406 187.234375 C 188.964844 187.257812 188.773438 187.425781 188.726562 187.652344 C 188.492188 188.703125 188.074219 189.707031 187.488281 190.605469 C 187.363281 190.804688 187.375 191.058594 187.523438 191.238281 L 188.832031 192.828125 L 187.109375 194.5625 L 185.527344 193.246094 C 185.347656 193.097656 185.089844 193.082031 184.894531 193.214844 C 184.003906 193.808594 183.011719 194.226562 181.96875 194.457031 C 181.742188 194.515625 181.574219 194.710938 181.550781 194.949219 L 181.355469 197.035156 L 178.90625 197.035156 L 178.707031 194.949219 C 178.6875 194.714844 178.519531 194.519531 178.292969 194.464844 C 177.246094 194.230469 176.253906 193.808594 175.359375 193.214844 C 175.164062 193.085938 174.910156 193.101562 174.730469 193.246094 Z M 174.730469 193.246094 "/>
</g>
<path style=" stroke:none;fill-rule:nonzero;fill:rgb(100%,100%,100%);fill-opacity:1;" d="M 196.292969 176.699219 C 198.570312 176.699219 200.414062 174.84375 200.414062 172.554688 C 200.414062 170.261719 198.570312 168.40625 196.292969 168.40625 C 194.019531 168.40625 192.175781 170.261719 192.175781 172.554688 C 192.175781 174.84375 194.019531 176.699219 196.292969 176.699219 Z M 196.292969 169.476562 C 197.984375 169.476562 199.351562 170.851562 199.351562 172.554688 C 199.351562 174.253906 197.984375 175.632812 196.292969 175.632812 C 194.605469 175.632812 193.238281 174.253906 193.238281 172.554688 C 193.238281 170.855469 194.605469 169.476562 196.292969 169.476562 Z M 196.292969 169.476562 "/>
<g clip-path="url(#clip2)" clip-rule="nonzero">
<path style=" stroke:none;fill-rule:nonzero;fill:rgb(100%,100%,100%);fill-opacity:1;" d="M 189.929688 174.019531 L 190.933594 174.113281 C 191.050781 174.515625 191.210938 174.90625 191.417969 175.269531 L 190.78125 176.042969 C 190.609375 176.253906 190.621094 176.566406 190.816406 176.761719 L 192.125 178.078125 C 192.316406 178.273438 192.625 178.285156 192.839844 178.109375 L 193.605469 177.46875 C 193.96875 177.671875 194.351562 177.835938 194.75 177.957031 L 194.847656 178.976562 C 194.875 179.253906 195.101562 179.46875 195.378906 179.472656 L 197.230469 179.472656 C 197.503906 179.46875 197.734375 179.253906 197.757812 178.976562 L 197.855469 177.964844 C 198.253906 177.84375 198.640625 177.679688 199.003906 177.472656 L 199.769531 178.113281 C 199.980469 178.289062 200.289062 178.273438 200.484375 178.078125 L 201.789062 176.761719 C 201.984375 176.566406 202 176.253906 201.824219 176.042969 L 201.1875 175.269531 C 201.390625 174.902344 201.554688 174.515625 201.671875 174.113281 L 202.671875 174.019531 C 202.945312 173.992188 203.160156 173.761719 203.167969 173.484375 L 203.167969 171.621094 C 203.160156 171.34375 202.945312 171.113281 202.671875 171.089844 L 201.664062 170.992188 C 201.542969 170.589844 201.382812 170.203125 201.175781 169.835938 L 201.808594 169.0625 C 201.984375 168.851562 201.96875 168.542969 201.777344 168.347656 L 200.488281 167.03125 C 200.292969 166.835938 199.980469 166.820312 199.769531 166.996094 L 199 167.636719 C 198.636719 167.433594 198.253906 167.269531 197.855469 167.148438 L 197.757812 166.140625 C 197.730469 165.867188 197.503906 165.65625 197.230469 165.65625 L 195.378906 165.65625 C 195.105469 165.65625 194.875 165.867188 194.847656 166.140625 L 194.75 167.148438 C 194.351562 167.265625 193.96875 167.429688 193.605469 167.632812 L 192.839844 166.996094 C 192.625 166.820312 192.316406 166.835938 192.125 167.03125 L 190.816406 168.34375 C 190.621094 168.539062 190.609375 168.851562 190.78125 169.0625 L 191.421875 169.839844 C 191.21875 170.203125 191.054688 170.589844 190.9375 170.992188 L 189.929688 171.089844 C 189.652344 171.113281 189.445312 171.34375 189.441406 171.621094 L 189.441406 173.484375 C 189.445312 173.761719 189.652344 173.992188 189.929688 174.019531 Z M 190.503906 172.105469 L 191.402344 172.019531 C 191.632812 171.996094 191.824219 171.828125 191.875 171.601562 C 191.996094 171.058594 192.210938 170.542969 192.515625 170.078125 C 192.640625 169.882812 192.625 169.628906 192.476562 169.449219 L 191.910156 168.757812 L 192.53125 168.128906 L 193.21875 168.703125 C 193.398438 168.851562 193.65625 168.867188 193.851562 168.734375 C 194.308594 168.429688 194.820312 168.214844 195.355469 168.097656 C 195.582031 168.046875 195.75 167.855469 195.773438 167.625 L 195.859375 166.726562 L 196.746094 166.726562 L 196.832031 167.625 C 196.855469 167.855469 197.023438 168.046875 197.25 168.097656 C 197.789062 168.21875 198.300781 168.433594 198.761719 168.738281 C 198.957031 168.867188 199.210938 168.851562 199.386719 168.703125 L 200.070312 168.132812 L 200.683594 168.753906 L 200.113281 169.449219 C 199.960938 169.628906 199.949219 169.890625 200.078125 170.085938 C 200.382812 170.546875 200.597656 171.058594 200.714844 171.601562 C 200.769531 171.828125 200.960938 171.996094 201.195312 172.019531 L 202.101562 172.105469 L 202.101562 173 L 201.210938 173.085938 C 200.980469 173.109375 200.789062 173.277344 200.738281 173.503906 C 200.617188 174.046875 200.398438 174.5625 200.09375 175.027344 C 199.96875 175.222656 199.984375 175.476562 200.128906 175.65625 L 200.699219 176.347656 L 200.074219 176.976562 L 199.386719 176.402344 C 199.207031 176.253906 198.949219 176.238281 198.753906 176.371094 C 198.296875 176.675781 197.785156 176.890625 197.25 177.007812 C 197.023438 177.0625 196.855469 177.257812 196.832031 177.492188 L 196.746094 178.402344 L 195.859375 178.402344 L 195.773438 177.492188 C 195.753906 177.261719 195.585938 177.066406 195.359375 177.015625 C 194.820312 176.894531 194.308594 176.675781 193.847656 176.371094 C 193.652344 176.242188 193.398438 176.257812 193.21875 176.40625 L 192.535156 176.976562 L 191.910156 176.347656 L 192.480469 175.660156 C 192.628906 175.476562 192.640625 175.21875 192.511719 175.019531 C 192.207031 174.558594 191.992188 174.046875 191.878906 173.507812 C 191.824219 173.277344 191.632812 173.109375 191.402344 173.085938 L 190.503906 173 Z M 190.503906 172.105469 "/>
</g>
<path style=" stroke:none;fill-rule:nonzero;fill:rgb(100%,100%,100%);fill-opacity:1;" d="M 197.640625 194.359375 C 194.617188 194.359375 192.167969 196.828125 192.167969 199.867188 C 192.167969 202.910156 194.617188 205.375 197.640625 205.375 C 200.660156 205.375 203.109375 202.910156 203.109375 199.867188 C 203.105469 196.828125 200.660156 194.363281 197.640625 194.359375 Z M 197.640625 204.304688 C 195.207031 204.304688 193.230469 202.320312 193.230469 199.867188 C 193.230469 197.417969 195.207031 195.429688 197.640625 195.429688 C 200.074219 195.429688 202.046875 197.417969 202.046875 199.867188 C 202.046875 202.316406 200.074219 204.304688 197.640625 204.304688 Z M 197.640625 204.304688 "/>
<g clip-path="url(#clip3)" clip-rule="nonzero">
<path style=" stroke:none;fill-rule:nonzero;fill:rgb(100%,100%,100%);fill-opacity:1;" d="M 206.390625 198.054688 L 204.867188 197.90625 C 204.695312 197.277344 204.441406 196.671875 204.113281 196.109375 L 205.074219 194.9375 C 205.246094 194.726562 205.234375 194.417969 205.042969 194.222656 L 203.265625 192.410156 C 203.070312 192.214844 202.761719 192.199219 202.546875 192.375 L 201.382812 193.347656 C 200.824219 193.015625 200.226562 192.761719 199.601562 192.585938 L 199.453125 191.082031 C 199.425781 190.8125 199.195312 190.609375 198.925781 190.617188 L 196.375 190.617188 C 196.105469 190.609375 195.875 190.8125 195.847656 191.082031 L 195.703125 192.597656 C 195.078125 192.765625 194.476562 193.019531 193.917969 193.347656 L 192.753906 192.378906 C 192.542969 192.203125 192.234375 192.214844 192.039062 192.410156 L 190.242188 194.21875 C 190.046875 194.414062 190.035156 194.726562 190.207031 194.9375 L 191.171875 196.109375 C 190.847656 196.675781 190.59375 197.277344 190.417969 197.90625 L 188.925781 198.054688 C 188.65625 198.082031 188.457031 198.3125 188.46875 198.585938 L 188.46875 201.152344 C 188.457031 201.421875 188.65625 201.65625 188.925781 201.683594 L 190.429688 201.832031 C 190.597656 202.460938 190.851562 203.066406 191.175781 203.628906 L 190.210938 204.796875 C 190.035156 205.011719 190.050781 205.320312 190.242188 205.519531 L 192.039062 207.328125 C 192.234375 207.523438 192.542969 207.539062 192.753906 207.363281 L 193.917969 206.390625 C 194.480469 206.71875 195.078125 206.976562 195.703125 207.148438 L 195.847656 208.671875 C 195.875 208.949219 196.101562 209.15625 196.375 209.15625 L 198.925781 209.15625 C 199.199219 209.15625 199.429688 208.949219 199.457031 208.671875 L 199.601562 207.148438 C 200.226562 206.976562 200.828125 206.722656 201.386719 206.394531 L 202.546875 207.363281 C 202.757812 207.539062 203.070312 207.523438 203.261719 207.328125 L 205.0625 205.515625 C 205.253906 205.320312 205.269531 205.011719 205.09375 204.796875 L 204.128906 203.625 C 204.457031 203.0625 204.710938 202.460938 204.882812 201.832031 L 206.390625 201.683594 C 206.664062 201.660156 206.878906 201.429688 206.886719 201.152344 L 206.886719 198.585938 C 206.878906 198.308594 206.664062 198.078125 206.390625 198.054688 Z M 205.824219 200.667969 L 204.421875 200.804688 C 204.191406 200.824219 204 200.992188 203.945312 201.222656 C 203.773438 201.992188 203.464844 202.722656 203.035156 203.382812 C 202.910156 203.578125 202.925781 203.832031 203.070312 204.011719 L 203.96875 205.105469 L 202.855469 206.226562 L 201.769531 205.324219 C 201.589844 205.171875 201.332031 205.160156 201.136719 205.289062 C 200.484375 205.722656 199.757812 206.03125 198.996094 206.199219 C 198.769531 206.246094 198.601562 206.4375 198.578125 206.667969 L 198.445312 208.085938 L 196.859375 208.085938 L 196.722656 206.667969 C 196.703125 206.4375 196.53125 206.246094 196.308594 206.199219 C 195.542969 206.027344 194.816406 205.71875 194.160156 205.285156 C 193.964844 205.160156 193.710938 205.175781 193.535156 205.324219 L 192.449219 206.226562 L 191.335938 205.105469 L 192.234375 204.015625 C 192.382812 203.832031 192.394531 203.574219 192.265625 203.375 C 191.835938 202.722656 191.53125 201.992188 191.363281 201.222656 C 191.324219 200.996094 191.144531 200.828125 190.917969 200.804688 L 189.53125 200.667969 L 189.53125 199.070312 L 190.917969 198.933594 C 191.144531 198.910156 191.332031 198.742188 191.375 198.515625 C 191.542969 197.746094 191.847656 197.015625 192.277344 196.355469 C 192.402344 196.160156 192.382812 195.902344 192.234375 195.722656 L 191.335938 194.632812 L 192.449219 193.511719 L 193.535156 194.414062 C 193.714844 194.5625 193.972656 194.578125 194.167969 194.445312 C 194.820312 194.011719 195.542969 193.707031 196.308594 193.539062 C 196.53125 193.496094 196.699219 193.3125 196.722656 193.085938 L 196.859375 191.6875 L 198.445312 191.6875 L 198.578125 193.085938 C 198.601562 193.316406 198.769531 193.503906 198.996094 193.546875 C 199.761719 193.71875 200.488281 194.027344 201.140625 194.457031 C 201.335938 194.582031 201.589844 194.566406 201.769531 194.417969 L 202.851562 193.511719 L 203.945312 194.628906 L 203.046875 195.722656 C 202.898438 195.90625 202.882812 196.164062 203.015625 196.363281 C 203.445312 197.015625 203.75 197.746094 203.914062 198.515625 C 203.972656 198.746094 204.164062 198.914062 204.398438 198.933594 L 205.824219 199.070312 Z M 205.824219 200.667969 "/>
</g>
</g>
</svg>
