<?xml version="1.0" encoding="UTF-8"?>
<svg xmlns="http://www.w3.org/2000/svg" xmlns:xlink="http://www.w3.org/1999/xlink" width="375pt" height="374.999991pt" viewBox="0 0 375 374.999991" version="1.2">
<defs>
<clipPath id="clip1">
  <path d="M 106 71.355469 L 269 71.355469 L 269 278 L 106 278 Z M 106 71.355469 "/>
</clipPath>
<clipPath id="clip2">
  <path d="M 169 266 L 206 266 L 206 303.855469 L 169 303.855469 Z M 169 266 "/>
</clipPath>
</defs>
<g id="surface1">
<g clip-path="url(#clip1)" clip-rule="nonzero">
<path style=" stroke:none;fill-rule:nonzero;fill:rgb(95.689392%,87.449646%,25.489807%);fill-opacity:1;" d="M 239.027344 91.371094 C 239.027344 91.371094 234.792969 87.925781 230.992188 85.40625 C 215.148438 74.886719 200.347656 71.316406 187.167969 71.570312 C 173.988281 71.316406 159.1875 74.886719 143.34375 85.40625 C 139.542969 87.925781 135.308594 91.371094 135.308594 91.371094 C 79.242188 140.503906 117.054688 200.328125 141.871094 226.875 C 143.03125 228.105469 144.148438 229.273438 145.203125 230.359375 C 150.949219 236.914062 162.546875 252.65625 167.234375 277.25 L 207.113281 277.25 C 211.777344 252.65625 223.386719 236.914062 229.132812 230.359375 C 230.199219 229.273438 231.300781 228.105469 232.464844 226.875 C 257.28125 200.328125 295.09375 140.503906 239.027344 91.371094 "/>
</g>
<path style="fill:none;stroke-width:40;stroke-linecap:round;stroke-linejoin:round;stroke:rgb(90.979004%,90.979004%,90.979004%);stroke-opacity:1;stroke-miterlimit:10;" d="M 1922.7933 1988.798459 C 1922.7933 1988.798459 2034.315481 1870.813529 2008.096043 1531.995818 " transform="matrix(0.119931,0,0,-0.120513,-67.806224,443.981299)"/>
<path style="fill:none;stroke-width:40;stroke-linecap:round;stroke-linejoin:round;stroke:rgb(90.979004%,90.979004%,90.979004%);stroke-opacity:1;stroke-miterlimit:10;" d="M 2309.603293 1988.798459 C 2309.603293 1988.798459 2186.81164 1868.18804 2213.291644 1531.995818 " transform="matrix(0.119931,0,0,-0.120513,-67.806224,443.981299)"/>
<g clip-path="url(#clip2)" clip-rule="nonzero">
<path style=" stroke:none;fill-rule:nonzero;fill:rgb(21.958923%,20.779419%,21.179199%);fill-opacity:1;" d="M 205.289062 285.46875 C 205.289062 295.691406 197.183594 303.980469 187.167969 303.980469 C 177.164062 303.980469 169.046875 295.691406 169.046875 285.46875 C 169.046875 275.25 177.164062 266.960938 187.167969 266.960938 C 197.183594 266.960938 205.289062 275.25 205.289062 285.46875 "/>
</g>
<path style=" stroke:none;fill-rule:nonzero;fill:rgb(21.958923%,20.779419%,21.179199%);fill-opacity:1;" d="M 218.46875 276.734375 C 218.46875 279.527344 216.214844 281.792969 213.433594 281.792969 L 161.371094 281.792969 C 158.589844 281.792969 156.320312 279.527344 156.320312 276.734375 C 156.320312 273.9375 158.589844 271.660156 161.371094 271.660156 L 213.433594 271.660156 C 216.214844 271.660156 218.46875 273.9375 218.46875 276.734375 "/>
<path style=" stroke:none;fill-rule:nonzero;fill:rgb(21.958923%,20.779419%,21.179199%);fill-opacity:1;" d="M 218.46875 267.320312 C 218.46875 270.117188 216.214844 272.382812 213.433594 272.382812 L 161.371094 272.382812 C 158.589844 272.382812 156.320312 270.117188 156.320312 267.320312 C 156.320312 264.511719 158.589844 262.246094 161.371094 262.246094 L 213.433594 262.246094 C 216.214844 262.246094 218.46875 264.511719 218.46875 267.320312 "/>
<path style=" stroke:none;fill-rule:nonzero;fill:rgb(21.958923%,20.779419%,21.179199%);fill-opacity:1;" d="M 218.46875 259.078125 C 218.46875 261.875 216.214844 264.140625 213.433594 264.140625 L 161.371094 264.140625 C 158.589844 264.140625 156.320312 261.875 156.320312 259.078125 C 156.320312 256.28125 158.589844 254.015625 161.371094 254.015625 L 213.433594 254.015625 C 216.214844 254.015625 218.46875 256.28125 218.46875 259.078125 "/>
<path style=" stroke:none;fill-rule:nonzero;fill:rgb(21.958923%,20.779419%,21.179199%);fill-opacity:1;" d="M 218.46875 285.976562 C 218.46875 288.773438 216.214844 291.039062 213.433594 291.039062 L 161.371094 291.039062 C 158.589844 291.039062 156.320312 288.773438 156.320312 285.976562 C 156.320312 283.179688 158.589844 280.902344 161.371094 280.902344 L 213.433594 280.902344 C 216.214844 280.902344 218.46875 283.179688 218.46875 285.976562 "/>
<path style=" stroke:none;fill-rule:nonzero;fill:rgb(91.758728%,69.018555%,45.878601%);fill-opacity:1;" d="M 200.707031 103.628906 C 203.886719 103.628906 206.726562 105.011719 208.585938 107.195312 C 209.835938 106.820312 211.140625 106.617188 212.519531 106.617188 C 219.140625 106.617188 224.515625 111.246094 224.515625 116.957031 C 224.515625 117.054688 224.503906 117.148438 224.492188 117.234375 C 228.039062 118.8125 230.464844 121.980469 230.464844 125.644531 C 230.464844 127.683594 229.707031 129.5625 228.449219 131.105469 C 231.816406 133.394531 233.988281 136.925781 233.988281 140.914062 C 233.988281 143 233.390625 144.953125 232.359375 146.675781 C 238.03125 149.144531 241.929688 154.21875 241.929688 160.089844 C 241.929688 165.800781 238.246094 170.765625 232.8125 173.308594 C 233.570312 174.828125 233.988281 176.488281 233.988281 178.25 C 233.988281 181.78125 232.273438 184.972656 229.539062 187.25 C 230.128906 188.410156 230.464844 189.699219 230.464844 191.046875 C 230.464844 195 227.644531 198.386719 223.640625 199.796875 C 224.203125 200.992188 224.515625 202.292969 224.515625 203.664062 C 224.515625 209.378906 219.140625 214.003906 212.519531 214.003906 C 210.578125 214.003906 208.742188 213.597656 207.113281 212.886719 C 205.359375 214.234375 203.128906 215.042969 200.707031 215.042969 C 195.082031 215.042969 190.515625 210.714844 190.515625 205.378906 L 190.515625 113.292969 C 190.515625 107.953125 195.082031 103.628906 200.707031 103.628906 "/>
<path style="fill:none;stroke-width:20;stroke-linecap:round;stroke-linejoin:round;stroke:rgb(98.039246%,79.60968%,63.139343%);stroke-opacity:1;stroke-miterlimit:10;" d="M 2304.391976 2785.585694 C 2304.391976 2785.585694 2341.099189 2749.412292 2295.500167 2713.206477 " transform="matrix(0.119931,0,0,-0.120513,-67.806224,443.981299)"/>
<path style="fill:none;stroke-width:20;stroke-linecap:round;stroke-linejoin:round;stroke:rgb(98.039246%,79.60968%,63.139343%);stroke-opacity:1;stroke-miterlimit:10;" d="M 2308.495888 1999.786615 C 2308.495888 1999.786615 2341.294613 1960.501523 2292.210523 1928.606696 " transform="matrix(0.119931,0,0,-0.120513,-67.806224,443.981299)"/>
<path style="fill:none;stroke-width:20;stroke-linecap:round;stroke-linejoin:round;stroke:rgb(98.039246%,79.60968%,63.139343%);stroke-opacity:1;stroke-miterlimit:10;" d="M 2427.607049 2713.789919 C 2427.607049 2713.789919 2389.206158 2735.604166 2363.605564 2708.312048 " transform="matrix(0.119931,0,0,-0.120513,-67.806224,443.981299)"/>
<path style="fill:none;stroke-width:20;stroke-linecap:round;stroke-linejoin:round;stroke:rgb(98.039246%,79.60968%,63.139343%);stroke-opacity:1;stroke-miterlimit:10;" d="M 2473.206071 2136.409274 C 2464.802823 2151.611178 2447.996326 2167.007563 2415.099888 2169.503399 " transform="matrix(0.119931,0,0,-0.120513,-67.806224,443.981299)"/>
<path style="fill:none;stroke-width:20;stroke-linecap:round;stroke-linejoin:round;stroke:rgb(98.039246%,79.60968%,63.139343%);stroke-opacity:1;stroke-miterlimit:10;" d="M 2557.987682 2286.289031 C 2557.987682 2286.289031 2497.503836 2196.989997 2385.883943 2265.28512 " transform="matrix(0.119931,0,0,-0.120513,-67.806224,443.981299)"/>
<path style="fill:none;stroke-width:20;stroke-linecap:round;stroke-linejoin:round;stroke:rgb(98.039246%,79.60968%,63.139343%);stroke-opacity:1;stroke-miterlimit:10;" d="M 2430.408131 1962.608397 C 2430.408131 1962.608397 2465.095959 2034.598652 2368.295749 2087.302909 " transform="matrix(0.119931,0,0,-0.120513,-67.806224,443.981299)"/>
<path style="fill:none;stroke-width:20;stroke-linecap:round;stroke-linejoin:round;stroke:rgb(98.039246%,79.60968%,63.139343%);stroke-opacity:1;stroke-miterlimit:10;" d="M 2511.50925 2544.10555 C 2511.50925 2544.10555 2486.788066 2636.613513 2368.295749 2596.809807 " transform="matrix(0.119931,0,0,-0.120513,-67.806224,443.981299)"/>
<path style="fill:none;stroke-width:20;stroke-linecap:round;stroke-linejoin:round;stroke:rgb(98.039246%,79.60968%,63.139343%);stroke-opacity:1;stroke-miterlimit:10;" d="M 2482.195593 2446.800396 C 2482.195593 2446.800396 2450.601984 2411.793879 2398.68424 2430.204714 " transform="matrix(0.119931,0,0,-0.120513,-67.806224,443.981299)"/>
<path style=" stroke:none;fill-rule:nonzero;fill:rgb(91.758728%,69.018555%,45.878601%);fill-opacity:1;" d="M 173.640625 103.628906 C 170.449219 103.628906 167.605469 105.011719 165.734375 107.195312 C 164.511719 106.820312 163.195312 106.617188 161.8125 106.617188 C 155.195312 106.617188 149.820312 111.246094 149.820312 116.957031 C 149.820312 117.054688 149.832031 117.148438 149.84375 117.234375 C 146.296875 118.8125 143.871094 121.980469 143.871094 125.644531 C 143.871094 127.683594 144.617188 129.5625 145.886719 131.105469 C 142.515625 133.394531 140.347656 136.925781 140.347656 140.914062 C 140.347656 143 140.933594 144.953125 141.976562 146.675781 C 136.304688 149.144531 132.40625 154.21875 132.40625 160.089844 C 132.40625 165.800781 136.089844 170.765625 141.523438 173.308594 C 140.765625 174.828125 140.347656 176.488281 140.347656 178.25 C 140.347656 181.78125 142.0625 184.972656 144.796875 187.25 C 144.207031 188.410156 143.871094 189.699219 143.871094 191.046875 C 143.871094 195 146.691406 198.386719 150.695312 199.796875 C 150.144531 200.992188 149.820312 202.292969 149.820312 203.664062 C 149.820312 209.378906 155.195312 214.003906 161.8125 214.003906 C 163.757812 214.003906 165.59375 213.597656 167.222656 212.886719 C 168.972656 214.234375 171.203125 215.042969 173.640625 215.042969 C 179.253906 215.042969 183.808594 210.714844 183.808594 205.378906 L 183.808594 113.292969 C 183.808594 107.953125 179.253906 103.628906 173.640625 103.628906 "/>
<path style="fill:none;stroke-width:20;stroke-linecap:round;stroke-linejoin:round;stroke:rgb(98.039246%,79.60968%,63.139343%);stroke-opacity:1;stroke-miterlimit:10;" d="M 1947.612197 2785.585694 C 1947.612197 2785.585694 1911.002696 2749.412292 1956.601718 2713.206477 " transform="matrix(0.119931,0,0,-0.120513,-67.806224,443.981299)"/>
<path style="fill:none;stroke-width:20;stroke-linecap:round;stroke-linejoin:round;stroke:rgb(98.039246%,79.60968%,63.139343%);stroke-opacity:1;stroke-miterlimit:10;" d="M 1943.508285 1999.786615 C 1943.508285 1999.786615 1910.709559 1960.501523 1959.79365 1928.606696 " transform="matrix(0.119931,0,0,-0.120513,-67.806224,443.981299)"/>
<path style="fill:none;stroke-width:20;stroke-linecap:round;stroke-linejoin:round;stroke:rgb(98.039246%,79.60968%,63.139343%);stroke-opacity:1;stroke-miterlimit:10;" d="M 1824.494836 2713.789919 C 1824.494836 2713.789919 1862.798015 2735.604166 1888.398609 2708.312048 " transform="matrix(0.119931,0,0,-0.120513,-67.806224,443.981299)"/>
<path style="fill:none;stroke-width:20;stroke-linecap:round;stroke-linejoin:round;stroke:rgb(98.039246%,79.60968%,63.139343%);stroke-opacity:1;stroke-miterlimit:10;" d="M 1778.798102 2136.409274 C 1787.20135 2151.611178 1803.910135 2167.007563 1836.904285 2169.503399 " transform="matrix(0.119931,0,0,-0.120513,-67.806224,443.981299)"/>
<path style="fill:none;stroke-width:20;stroke-linecap:round;stroke-linejoin:round;stroke:rgb(98.039246%,79.60968%,63.139343%);stroke-opacity:1;stroke-miterlimit:10;" d="M 1693.886208 2286.289031 C 1693.886208 2286.289031 1754.500337 2196.989997 1866.185371 2265.28512 " transform="matrix(0.119931,0,0,-0.120513,-67.806224,443.981299)"/>
<path style="fill:none;stroke-width:20;stroke-linecap:round;stroke-linejoin:round;stroke:rgb(98.039246%,79.60968%,63.139343%);stroke-opacity:1;stroke-miterlimit:10;" d="M 1821.596041 1962.608397 C 1821.596041 1962.608397 1786.908214 2034.598652 1883.708424 2087.302909 " transform="matrix(0.119931,0,0,-0.120513,-67.806224,443.981299)"/>
<path style="fill:none;stroke-width:20;stroke-linecap:round;stroke-linejoin:round;stroke:rgb(98.039246%,79.60968%,63.139343%);stroke-opacity:1;stroke-miterlimit:10;" d="M 1740.494923 2544.10555 C 1740.494923 2544.10555 1765.216107 2636.613513 1883.708424 2596.809807 " transform="matrix(0.119931,0,0,-0.120513,-67.806224,443.981299)"/>
<path style="fill:none;stroke-width:20;stroke-linecap:round;stroke-linejoin:round;stroke:rgb(98.039246%,79.60968%,63.139343%);stroke-opacity:1;stroke-miterlimit:10;" d="M 1769.80858 2446.800396 C 1769.80858 2446.800396 1801.402189 2411.793879 1853.287362 2430.204714 " transform="matrix(0.119931,0,0,-0.120513,-67.806224,443.981299)"/>
<path style="fill:none;stroke-width:40;stroke-linecap:round;stroke-linejoin:round;stroke:rgb(96.078491%,52.549744%,6.669617%);stroke-opacity:1;stroke-miterlimit:10;" d="M 2126.002086 2942.693648 L 2126.002086 2855.209767 " transform="matrix(0.119931,0,0,-0.120513,-67.806224,443.981299)"/>
<path style="fill:none;stroke-width:40;stroke-linecap:round;stroke-linejoin:round;stroke:rgb(96.078491%,52.549744%,6.669617%);stroke-opacity:1;stroke-miterlimit:10;" d="M 1590.50671 2567.18392 L 1677.991692 2567.18392 " transform="matrix(0.119931,0,0,-0.120513,-67.806224,443.981299)"/>
<path style="fill:none;stroke-width:40;stroke-linecap:round;stroke-linejoin:round;stroke:rgb(96.078491%,52.549744%,6.669617%);stroke-opacity:1;stroke-miterlimit:10;" d="M 1708.70589 2828.30661 L 1771.209122 2767.110032 " transform="matrix(0.119931,0,0,-0.120513,-67.806224,443.981299)"/>
<path style="fill:none;stroke-width:40;stroke-linecap:round;stroke-linejoin:round;stroke:rgb(96.078491%,52.549744%,6.669617%);stroke-opacity:1;stroke-miterlimit:10;" d="M 2662.898004 2567.18392 L 2575.413023 2567.18392 " transform="matrix(0.119931,0,0,-0.120513,-67.806224,443.981299)"/>
<path style="fill:none;stroke-width:40;stroke-linecap:round;stroke-linejoin:round;stroke:rgb(96.078491%,52.549744%,6.669617%);stroke-opacity:1;stroke-miterlimit:10;" d="M 2544.698824 2828.30661 L 2482.195593 2767.110032 " transform="matrix(0.119931,0,0,-0.120513,-67.806224,443.981299)"/>
<path style="fill:none;stroke-width:30;stroke-linecap:round;stroke-linejoin:round;stroke:rgb(90.979004%,90.979004%,90.979004%);stroke-opacity:1;stroke-miterlimit:10;" d="M 2135.708164 1201.313881 C 2135.708164 1201.313881 2186.290508 1210.000684 2220.001214 1248.216132 " transform="matrix(0.119931,0,0,-0.120513,-67.806224,443.981299)"/>
</g>
</svg>
