<?xml version="1.0" encoding="UTF-8"?>
<svg xmlns="http://www.w3.org/2000/svg" xmlns:xlink="http://www.w3.org/1999/xlink" width="375pt" height="374.999991pt" viewBox="0 0 375 374.999991" version="1.2">
<defs>
<clipPath id="clip1">
  <path d="M 60.257812 83.742188 L 78 83.742188 L 78 112.09375 L 60.257812 112.09375 Z M 60.257812 83.742188 "/>
</clipPath>
<clipPath id="clip2">
  <path d="M 79 83.742188 L 97.558594 83.742188 L 97.558594 112.09375 L 79 112.09375 Z M 79 83.742188 "/>
</clipPath>
</defs>
<g id="surface1">
<g clip-path="url(#clip1)" clip-rule="nonzero">
<path style=" stroke:none;fill-rule:nonzero;fill:rgb(19.219971%,54.508972%,63.529968%);fill-opacity:1;" d="M 69.910156 95.878906 C 68.144531 95.878906 66.523438 96.464844 65.210938 97.445312 C 65.339844 93.355469 68.5 89.269531 74.730469 85.179688 L 73.808594 83.746094 C 64.773438 89.355469 60.257812 95.515625 60.257812 102.21875 C 60.257812 105.296875 61.09375 107.710938 62.773438 109.453125 C 64.449219 111.199219 66.570312 112.070312 69.136719 112.070312 C 71.703125 112.070312 73.773438 111.371094 75.347656 109.96875 C 76.921875 108.566406 77.707031 106.871094 77.707031 104.886719 C 77.707031 104.867188 77.703125 104.851562 77.703125 104.824219 C 77.753906 104.472656 77.785156 104.117188 77.785156 103.75 C 77.785156 99.402344 74.257812 95.878906 69.910156 95.878906 Z M 69.910156 95.878906 "/>
</g>
<g clip-path="url(#clip2)" clip-rule="nonzero">
<path style=" stroke:none;fill-rule:nonzero;fill:rgb(19.219971%,54.508972%,63.529968%);fill-opacity:1;" d="M 95.375 109.1875 C 95.476562 109.070312 95.601562 108.957031 95.695312 108.835938 C 96.855469 107.464844 97.558594 105.691406 97.558594 103.75 C 97.558594 99.402344 94.03125 95.875 89.683594 95.875 C 87.691406 95.875 85.878906 96.621094 84.492188 97.84375 C 84.492188 97.792969 84.484375 97.753906 84.484375 97.703125 C 84.484375 93.527344 87.664062 89.351562 94.03125 85.179688 L 93.105469 83.746094 C 84.074219 89.355469 79.554688 95.515625 79.554688 102.222656 C 79.554688 105.300781 80.394531 107.710938 82.070312 109.457031 C 83.746094 111.203125 85.867188 112.074219 88.433594 112.074219 C 91 112.074219 93.070312 111.371094 94.644531 109.96875 C 94.867188 109.773438 95.039062 109.554688 95.230469 109.34375 C 95.28125 109.292969 95.328125 109.242188 95.375 109.1875 Z M 95.375 109.1875 "/>
</g>
</g>
</svg>
