<?xml version="1.0" encoding="UTF-8"?>
<svg xmlns="http://www.w3.org/2000/svg" xmlns:xlink="http://www.w3.org/1999/xlink" width="375pt" height="374.999991pt" viewBox="0 0 375 374.999991" version="1.2">
<defs>
<clipPath id="clip1">
  <path d="M 145 131.398438 L 219 131.398438 L 219 229 L 145 229 Z M 145 131.398438 "/>
</clipPath>
<clipPath id="clip2">
  <path d="M 145 131.398438 L 220 131.398438 L 220 230 L 145 230 Z M 145 131.398438 "/>
</clipPath>
<clipPath id="clip3">
  <path d="M 144 131.398438 L 221 131.398438 L 221 230 L 144 230 Z M 144 131.398438 "/>
</clipPath>
<clipPath id="clip4">
  <path d="M 184 160 L 236 160 L 236 243.898438 L 184 243.898438 Z M 184 160 "/>
</clipPath>
</defs>
<g id="surface1">
<path style=" stroke:none;fill-rule:nonzero;fill:rgb(100%,59.999084%,0%);fill-opacity:1;" d="M 207.4375 216.058594 C 195.375 223.8125 179.851562 224.453125 167.742188 215.777344 C 154.480469 205.945312 149.246094 190.265625 152.066406 174.5625 C 156.597656 155.941406 170.347656 141.9375 187.578125 137.222656 C 158.851562 143.140625 142.304688 178.667969 156.777344 204.773438 C 161.984375 213.472656 169.480469 218.675781 178.691406 222.128906 C 192.503906 225.566406 209.738281 220.851562 214.957031 206.6875 C 214.8125 206.464844 212.089844 210.941406 207.4375 216.058594 "/>
<path style=" stroke:none;fill-rule:nonzero;fill:rgb(100%,59.999084%,0%);fill-opacity:1;" d="M 207.242188 217.523438 C 197.101562 224.386719 183.304688 225.601562 171.78125 219.832031 C 157.378906 212.328125 149.269531 196.082031 150.359375 179.796875 C 152.578125 157.699219 168.617188 141.363281 189.296875 135.472656 C 166.886719 139.625 151.4375 160.03125 149.792969 182.707031 C 149.28125 199.570312 159.6875 214.644531 174.664062 221.5625 C 189.636719 227.320312 208.597656 223.179688 215.417969 207.992188 C 215.269531 207.800781 212.265625 212.386719 207.242188 217.523438 "/>
<path style=" stroke:none;fill-rule:nonzero;fill:rgb(100%,59.999084%,0%);fill-opacity:1;" d="M 207.128906 218.84375 C 197.101562 224.386719 184.460938 226.757812 173.515625 221.570312 C 155.660156 214.078125 146.964844 194.925781 150.347656 176.3125 C 153.714844 154.207031 169.1875 139.617188 189.292969 134.308594 C 171.484375 138.445312 157.152344 150.707031 151.46875 168.167969 C 144.640625 187.960938 152.199219 210.601562 170.636719 220.996094 C 185.617188 229.078125 208.035156 226.089844 215.902344 209.101562 C 215.738281 208.96875 212.476562 213.675781 207.128906 218.84375 "/>
<path style=" stroke:none;fill-rule:nonzero;fill:rgb(100%,59.999084%,0%);fill-opacity:1;" d="M 207.210938 219.957031 C 197.679688 224.964844 186.1875 227.335938 175.824219 223.882812 C 160.851562 218.128906 150.449219 204.214844 148.660156 187.363281 C 145.6875 160.050781 166.308594 139.042969 189.863281 132.5625 C 170.90625 137.867188 154.28125 151.300781 149.179688 171.664062 C 145.78125 185.628906 149.28125 199.570312 157.953125 211.742188 C 172.398438 230.875 204.027344 231.335938 216.484375 209.925781 C 216.285156 209.871094 212.8125 214.726562 207.210938 219.957031 "/>
<path style=" stroke:none;fill-rule:nonzero;fill:rgb(100%,59.999084%,0%);fill-opacity:1;" d="M 207.601562 220.804688 C 194.242188 228.464844 178.140625 228.527344 165.453125 219.273438 C 152.191406 209.441406 146.386719 194.347656 147.476562 178.066406 C 150.269531 155.382812 167.457031 137.878906 188.710938 132.566406 C 156.53125 138.5 135.398438 177.53125 153.335938 207.109375 C 160.855469 219.289062 173.535156 227.382812 188.484375 227.324219 C 200.558594 226.699219 211.460938 220.261719 217.234375 210.375 C 216.992188 210.414062 213.371094 215.464844 207.601562 220.804688 "/>
<g clip-path="url(#clip1)" clip-rule="nonzero">
<path style=" stroke:none;fill-rule:nonzero;fill:rgb(100%,59.999084%,0%);fill-opacity:1;" d="M 208.398438 221.332031 C 192.527344 231.378906 172.390625 228.550781 159.691406 215.804688 C 146.996094 203.066406 143.476562 184.476562 148.589844 167.597656 C 154.847656 149.550781 169.753906 136.707031 187.558594 131.410156 C 157.105469 137.917969 137.109375 173.453125 149.867188 202.472656 C 156.242188 215.820312 168.355469 225.65625 183.3125 227.925781 C 197.117188 229.039062 212.050781 224.328125 218.203125 210.367188 C 217.90625 210.523438 214.226562 215.808594 208.398438 221.332031 "/>
</g>
<g clip-path="url(#clip2)" clip-rule="nonzero">
<path style=" stroke:none;fill-rule:nonzero;fill:rgb(100%,59.999084%,0%);fill-opacity:1;" d="M 209.675781 221.46875 C 189.667969 235.460938 162.03125 226.261719 151.03125 205.957031 C 135.972656 176.945312 154.238281 139.671875 185.257812 131.417969 C 154.230469 138.511719 136.546875 176.363281 149.875 204.796875 C 157.988281 221.046875 175.28125 232.605469 194.242188 228.464844 C 205.15625 225.519531 214.914062 220.25 219.402344 209.816406 C 219.058594 210.109375 215.429688 215.683594 209.675781 221.46875 "/>
</g>
<g clip-path="url(#clip3)" clip-rule="nonzero">
<path style=" stroke:none;fill-rule:nonzero;fill:rgb(100%,59.999084%,0%);fill-opacity:1;" d="M 211.472656 221.113281 C 194.261719 234.277344 168.949219 230.886719 155.660156 214.078125 C 144.105469 199.007812 141.152344 178.671875 149.140625 161.203125 C 155.414062 146.644531 168.027344 137.296875 181.808594 131.429688 C 161.132812 138.484375 146.824219 156.558594 144.605469 178.65625 C 142.386719 200.757812 155.117188 222.800781 176.988281 228.53125 C 194.257812 233.117188 214.355469 225.484375 220.816406 208.632812 C 220.433594 209.082031 217 214.988281 211.472656 221.113281 "/>
</g>
<path style=" stroke:none;fill-rule:nonzero;fill:rgb(100%,59.999084%,0%);fill-opacity:1;" d="M 213.773438 220.148438 C 202.863281 227.851562 190.808594 233.128906 177.566406 229.109375 C 152.816406 222.808594 140.652344 199.019531 144.015625 174.589844 C 147.390625 154.8125 159.414062 140.234375 176.0625 132.613281 C 150.226562 143.757812 135.972656 176.945312 146.996094 203.066406 C 154.53125 219.894531 171.828125 232.621094 190.800781 230.804688 C 205.167969 229.007812 217.789062 220.820312 222.339844 206.851562 C 221.191406 208.019531 220.625 209.765625 219.894531 211.199219 C 218.460938 213.652344 216.378906 216.871094 213.773438 220.148438 "/>
<path style=" stroke:none;fill-rule:nonzero;fill:rgb(100%,59.999084%,0%);fill-opacity:1;" d="M 216.511719 218.429688 C 204.027344 231.335938 183.910156 234.320312 167.78125 226.242188 C 155.105469 219.3125 146.433594 207.136719 143.507812 192.613281 C 138.816406 168.214844 151.390625 147.238281 169.742188 134.382812 C 158.84375 141.980469 148.535156 152.484375 145.136719 166.449219 C 138.308594 186.238281 144.140625 208.308594 159.714844 221.621094 C 174.707031 233.191406 196.566406 235.433594 212.046875 223.167969 C 218.351562 217.910156 221.777344 210.921875 224.054688 203.9375 C 223.484375 205.683594 222.914062 207.429688 221.824219 208.890625 C 220.601562 211.511719 218.8125 214.933594 216.511719 218.429688 "/>
<path style=" stroke:none;fill-rule:nonzero;fill:rgb(100%,59.999084%,0%);fill-opacity:1;" d="M 219.527344 215.808594 C 202.90625 239.480469 167.816406 235.542969 151.632812 213.511719 C 133.71875 189.746094 141.644531 155.996094 162.855469 137.894531 C 139.921875 156.585938 133.160156 193.816406 153.945312 216.992188 C 165.496094 230.898438 186.222656 236.636719 203.445312 229.59375 C 214.925781 223.738281 224.664062 213.820312 225.191406 200.445312 C 224.621094 202.191406 224.054688 203.9375 223.738281 205.714844 C 222.8125 208.488281 221.414062 212.097656 219.527344 215.808594 "/>
<path style=" stroke:none;fill-rule:nonzero;fill:rgb(100%,59.999084%,0%);fill-opacity:1;" d="M 222.597656 212.144531 C 208.652344 238.292969 171.277344 239.015625 152.796875 216.996094 C 135.46875 196.132812 137.074219 164.152344 155.40625 144.320312 C 132.488281 167.65625 135.515625 208.921875 163.757812 226.835938 C 178.742188 236.082031 197.71875 236.589844 211.484375 226.074219 C 221.230469 218.480469 226.941406 207.996094 226.324219 195.789062 C 226.332031 198.117188 225.761719 199.863281 225.394531 201.617188 C 224.851562 204.507812 223.949219 208.261719 222.597656 212.144531 "/>
<path style=" stroke:none;fill-rule:nonzero;fill:rgb(100%,59.999084%,0%);fill-opacity:1;" d="M 225.390625 207.347656 C 218.378906 224.886719 201.171875 236.578125 182.183594 233.746094 C 169.523438 231.464844 158.582031 226.273438 151.066406 216.421875 C 136.625 197.292969 136.53125 171.710938 147.957031 151.902344 C 129.660156 179.875 140.738281 222.273438 174.128906 232.609375 C 187.371094 236.628906 201.738281 234.832031 212.054688 225.492188 C 221.804688 217.898438 230.378906 204.496094 226.304688 191.140625 C 227.464844 193.460938 226.898438 195.207031 226.488281 196.625 C 226.410156 199.566406 226.109375 203.375 225.390625 207.347656 "/>
<path style=" stroke:none;fill-rule:nonzero;fill:rgb(100%,59.999084%,0%);fill-opacity:1;" d="M 227.496094 201.425781 C 224.105469 217.890625 213.222656 230.136719 196.5625 234.269531 C 182.769531 236.648438 169.535156 233.789062 159.152344 225.691406 C 140.695312 210.644531 133.703125 185.09375 141.671875 162.972656 C 130.851562 191.496094 145.929688 226.320312 177.011719 234.34375 C 190.25 237.203125 203.464844 234.246094 213.78125 226.066406 C 225.820312 216.140625 232.085938 199.257812 225.707031 184.75 C 225.714844 187.074219 226.296875 188.816406 226.675781 190.859375 C 227.121094 193.746094 227.496094 197.488281 227.496094 201.425781 "/>
<path style=" stroke:none;fill-rule:nonzero;fill:rgb(100%,59.999084%,0%);fill-opacity:1;" d="M 228.46875 194.53125 C 229.878906 224.84375 196.023438 244.15625 169.53125 232.628906 C 148.21875 222.828125 135.480469 199.621094 137.695312 176.359375 C 133.203125 205.441406 154.582031 233.847656 183.921875 236.644531 C 201.175781 237.742188 216.097656 229.546875 224.089844 214.402344 C 230.375 203.332031 230.902344 189.960938 223.386719 178.941406 C 223.964844 180.683594 225.125 183.007812 225.609375 184.578125 C 226.613281 187.28125 227.707031 190.789062 228.46875 194.53125 "/>
<path style=" stroke:none;fill-rule:nonzero;fill:rgb(100%,59.999084%,0%);fill-opacity:1;" d="M 227.863281 186.984375 C 233.269531 208.554688 220.125 230.113281 198.867188 235.425781 C 168.996094 243.675781 141.308594 220.527344 136.601562 191.476562 C 138.964844 208.910156 149.949219 224.5625 166.078125 232.640625 C 187.972656 244.1875 217.269531 235.355469 226.382812 212.070312 C 232.085938 199.257812 230.304688 183.570312 219.914062 173.140625 C 219.914062 173.140625 219.339844 173.726562 219.605469 173.488281 C 220.703125 174.785156 224.8125 180.371094 227.863281 186.984375 "/>
<path style=" stroke:none;fill-rule:nonzero;fill:rgb(100%,59.999084%,0%);fill-opacity:1;" d="M 225.320312 179.3125 C 236.691406 200.402344 225.289062 227.1875 204.039062 234.824219 C 178.773438 244.21875 151.121094 230.371094 140.105469 206.578125 C 148.808594 226.894531 168.40625 239.609375 190.253906 238.363281 C 208.648438 237.132812 225.855469 225.441406 229.8125 206.242188 C 232.632812 191.699219 227.96875 174.277344 214.296875 168.558594 C 215.746094 169.582031 220.945312 173.882812 225.320312 179.3125 "/>
<path style=" stroke:none;fill-rule:nonzero;fill:rgb(100%,59.999084%,0%);fill-opacity:1;" d="M 220.683594 172.207031 C 229.140625 180.085938 232.054688 191.117188 230.949219 202.75 C 228.140625 220.78125 215.539062 234.78125 197.152344 238.335938 C 177.613281 241.898438 160.339844 234.988281 147.636719 221.082031 C 159.765625 235.570312 177.613281 241.898438 196.582031 238.921875 C 214.96875 235.363281 229.289062 220.777344 231.523438 202.164062 C 233.183594 185.300781 223.347656 168.480469 207.617188 165.027344 C 209.339844 165.644531 215.292969 168.332031 220.683594 172.207031 "/>
<path style=" stroke:none;fill-rule:nonzero;fill:rgb(100%,59.999084%,0%);fill-opacity:1;" d="M 214.050781 166.464844 C 237.191406 180.054688 237.3125 213.769531 216.675781 230.125 C 200.046875 243.558594 177.617188 243.0625 159.757812 233.246094 C 173.585938 241.332031 189.695312 243.597656 204.625 237.726562 C 221.851562 230.6875 233.863281 213.785156 232.640625 194.023438 C 230.855469 177.171875 217 162.109375 200.003906 163.453125 C 201.867188 163.550781 208.101562 164.40625 214.050781 166.464844 "/>
<path style=" stroke:none;fill-rule:nonzero;fill:rgb(100%,59.999084%,0%);fill-opacity:1;" d="M 205.871094 162.835938 C 217.589844 166.175781 227.394531 174.859375 231.460938 185.890625 C 236.109375 198.660156 232.710938 212.625 224.699219 223.121094 C 212.679688 238.863281 193.722656 244.164062 175.3125 240.746094 C 193.722656 244.164062 213.257812 239.441406 225.277344 223.699219 C 233.855469 211.457031 236.101562 196.335938 230.300781 182.40625 C 223.921875 167.894531 207.207031 158.074219 192.132812 164.207031 C 193.953125 163.730469 199.910156 162.703125 205.871094 162.835938 "/>
<g clip-path="url(#clip4)" clip-rule="nonzero">
<path style=" stroke:none;fill-rule:nonzero;fill:rgb(100%,59.999084%,0%);fill-opacity:1;" d="M 196.894531 161.90625 C 218.710938 159.195312 236.035156 178.894531 234.390625 200.410156 C 232.175781 223.671875 213.835938 240.019531 192.570312 243.003906 C 220.164062 240.578125 243.628906 210.839844 232.605469 183.558594 C 229.121094 175.433594 222.773438 169.0625 215.855469 164.4375 C 206.0625 159.242188 193.410156 159.289062 184.839844 167.375 C 186.414062 166.347656 191.515625 163.601562 196.894531 161.90625 "/>
</g>
<path style=" stroke:none;fill-rule:nonzero;fill:rgb(100%,59.999084%,0%);fill-opacity:1;" d="M 188.125 163.90625 C 207.765625 154.003906 231.398438 168.449219 234.929688 190.527344 C 238.457031 211.441406 226.445312 229.507812 209.804688 239.453125 C 231.617188 228.90625 244.742188 200.371094 230.855469 177.171875 C 223.339844 166.152344 212.382812 157.476562 198.589844 159.851562 C 191.121094 161.625 181.355469 164.566406 178.984375 172.6875 C 180.125 171.222656 183.859375 167.128906 188.125 163.90625 "/>
<path style=" stroke:none;fill-rule:nonzero;fill:rgb(100%,59.999084%,0%);fill-opacity:1;" d="M 180.617188 168.636719 C 193.394531 154.640625 216.980469 157.457031 227.960938 171.949219 C 241.824219 189.339844 238.464844 213.765625 224.722656 230.09375 C 240.1875 213.179688 241.8125 185.847656 226.222656 169.050781 C 219.875 162.679688 211.8125 159.222656 203.183594 158.671875 C 190.535156 158.71875 175.613281 166.914062 175.085938 180.285156 C 175.085938 180.285156 175.082031 179.125 175.269531 179.507812 C 175.839844 177.792969 177.863281 172.90625 180.617188 168.636719 "/>
<path style=" stroke:none;fill-rule:nonzero;fill:rgb(100%,59.999084%,0%);fill-opacity:1;" d="M 175.273438 175.445312 C 179.632812 165.15625 190.535156 158.71875 201.457031 158.097656 C 213.53125 157.472656 223.90625 164.40625 230.84375 173.683594 C 240.664062 187.015625 239.578125 203.296875 235.027344 217.265625 C 243.578125 196.886719 237.730469 170.167969 216.417969 160.367188 C 207.777344 156.328125 197.425781 156.367188 188.816406 160.46875 C 179.632812 165.15625 171.046875 176.234375 174.09375 186.941406 C 174.050781 185.199219 174.242188 180.167969 175.273438 175.445312 "/>
<path style=" stroke:none;fill-rule:nonzero;fill:rgb(100%,59.999084%,0%);fill-opacity:1;" d="M 172.644531 183.34375 C 175.015625 160.523438 200.851562 149.378906 219.871094 161.515625 C 234.28125 171.34375 240.664062 185.855469 240.148438 202.714844 C 242.945312 181.195312 228.484375 158.578125 205.476562 156.335938 C 191.09375 154.648438 178.472656 162.835938 173.347656 176.222656 C 171.648438 182.625 171.09375 189.023438 175.433594 193.988281 C 174.835938 192.457031 173.320312 187.917969 172.644531 183.34375 "/>
<path style=" stroke:none;fill-rule:nonzero;fill:rgb(100%,59.999084%,0%);fill-opacity:1;" d="M 172.800781 191.222656 C 169.335938 180.308594 174.46875 168.082031 183.070312 161.65625 C 192.242188 154.644531 203.742188 153.4375 214.679688 157.464844 C 227.925781 162.648438 237.167969 174.242188 240.09375 187.601562 C 237.738281 172.496094 225.617188 160.332031 211.800781 155.734375 C 202.011719 152.863281 191.667969 154.066406 183.066406 160.492188 C 177.90625 164.582031 174.472656 169.246094 172.191406 175.066406 C 168.777344 184.382812 171.117188 194.835938 179.1875 200.621094 C 179.1875 200.621094 178.609375 200.039062 178.851562 199.796875 C 177.847656 198.636719 174.964844 195.105469 172.800781 191.222656 "/>
<path style=" stroke:none;fill-rule:nonzero;fill:rgb(100%,59.999084%,0%);fill-opacity:1;" d="M 175.339844 198.105469 C 167.640625 187.875 169.890625 173.910156 177.332031 165.164062 C 183.628906 157.582031 193.390625 153.476562 203.167969 154.023438 C 217.546875 154.546875 229.074219 162.644531 236.59375 173.660156 C 229.074219 161.480469 218.121094 153.964844 203.742188 153.4375 C 190.511719 152.90625 177.882812 158.765625 172.179688 171.578125 C 167.046875 182.644531 170.566406 201.230469 183.609375 203.804688 C 182.390625 203.109375 178.625 200.910156 175.339844 198.105469 "/>
<path style=" stroke:none;fill-rule:nonzero;fill:rgb(100%,59.999084%,0%);fill-opacity:1;" d="M 179.511719 203.351562 C 166.515625 194.851562 166.441406 175.089844 176.175781 164.003906 C 189.921875 148.839844 215.230469 149.90625 229.652344 163.222656 C 218.683594 151.054688 202 149.375 187.644531 154.664062 C 176.160156 159.355469 168.726562 170.429688 168.195312 182.636719 C 168.238281 194.265625 176.914062 207.605469 188.867188 205.894531 C 187.625 205.632812 183.492188 204.871094 179.511719 203.351562 "/>
<path style=" stroke:none;fill-rule:nonzero;fill:rgb(100%,59.999084%,0%);fill-opacity:1;" d="M 184.457031 206.769531 C 171.140625 201.8125 164.183594 186.722656 169.3125 173.332031 C 176.707031 151.796875 203.714844 146.460938 222.152344 155.695312 C 210.625 148.761719 196.246094 148.234375 184.195312 154.675781 C 173.863281 160.527344 166.425781 170.4375 166.472656 183.226562 C 167.097656 196.59375 179.808594 212.824219 193.902344 206.320312 C 192.777344 206.398438 188.714844 206.96875 184.457031 206.769531 "/>
<path style=" stroke:none;fill-rule:nonzero;fill:rgb(100%,59.999084%,0%);fill-opacity:1;" d="M 189.425781 208.554688 C 168.285156 207.054688 159.5625 180.925781 172.15625 164.601562 C 182.457031 151.773438 198.542969 147.0625 213.503906 150.492188 C 192.78125 143.597656 167.527344 157.644531 165.316406 180.90625 C 164.207031 192.535156 170 204.140625 181.515625 207.585938 C 186.695312 209.308594 193.601562 210.445312 198.25 205.589844 C 197.316406 205.878906 193.632812 207.546875 189.425781 208.554688 "/>
<path style=" stroke:none;fill-rule:nonzero;fill:rgb(100%,59.999084%,0%);fill-opacity:1;" d="M 193.902344 209.164062 C 176.355469 212.835938 161.921875 196.035156 164.726562 178 C 168.679688 157.636719 187.617188 147.683594 206.019531 147.617188 C 184.734375 144.789062 163.519531 161.726562 163.601562 183.820312 C 163.640625 194.28125 170 204.140625 179.21875 208.757812 C 186.703125 211.636719 197.054688 211.597656 201.757812 204.277344 C 201.023438 204.648438 197.863281 207.132812 193.902344 209.164062 "/>
<path style=" stroke:none;fill-rule:nonzero;fill:rgb(100%,59.999084%,0%);fill-opacity:1;" d="M 197.65625 209.117188 C 185.566406 215.128906 170.585938 207.042969 165.367188 194.855469 C 160.722656 183.246094 163.546875 169.867188 171.566406 160.535156 C 178.433594 152.371094 188.769531 147.683594 199.113281 146.480469 C 173.808594 145.414062 153.792969 175.136719 165.953125 197.761719 C 170.578125 204.722656 176.925781 211.089844 185.554688 211.640625 C 193.03125 212.191406 201.652344 210.417969 204.496094 202.875 C 203.925781 203.230469 201.289062 206.269531 197.65625 209.117188 "/>
<path style=" stroke:none;fill-rule:nonzero;fill:rgb(100%,59.999084%,0%);fill-opacity:1;" d="M 200.65625 208.863281 C 185.574219 217.453125 165.988281 208.226562 162.476562 190.800781 C 158.371094 169.304688 173.824219 148.898438 193.9375 145.917969 C 176.695312 148.308594 162.945312 162.3125 161.289062 180.339844 C 160.183594 193.132812 166.554688 205.316406 178.074219 211.085938 C 188.441406 215.699219 202.808594 212.738281 206.644531 201.714844 C 206.191406 201.992188 203.988281 205.398438 200.65625 208.863281 "/>
<path style=" stroke:none;fill-rule:nonzero;fill:rgb(100%,59.999084%,0%);fill-opacity:1;" d="M 202.980469 208.730469 C 194.1875 214.515625 183.84375 215.714844 174.621094 209.9375 C 164.824219 203.582031 160.183594 193.132812 160.140625 181.507812 C 161.226562 164.0625 173.25 149.484375 189.910156 145.351562 C 175.542969 148.3125 165.238281 159.976562 160.6875 173.945312 C 155.578125 191.988281 166.007812 212.875 186.140625 214.542969 C 195.917969 215.089844 205.675781 210.984375 208.386719 200.972656 C 208.007812 201.152344 206.105469 204.796875 202.980469 208.730469 "/>
<path style=" stroke:none;fill-rule:nonzero;fill:rgb(100%,59.999084%,0%);fill-opacity:1;" d="M 204.734375 208.902344 C 192.484375 219.75 173.492188 215.753906 164.816406 202.414062 C 150.363281 180.960938 164.632812 152.421875 187.035156 144.78125 C 165.203125 150.675781 152.074219 176.886719 161.351562 197.777344 C 165.410156 206.484375 172.332031 212.269531 180.964844 215.144531 C 191.902344 218.011719 206.835938 213.304688 209.847656 200.726562 C 209.523438 200.792969 207.78125 204.609375 204.734375 208.902344 "/>
<path style=" stroke:none;fill-rule:nonzero;fill:rgb(100%,59.999084%,0%);fill-opacity:1;" d="M 206.007812 209.449219 C 192.496094 223.242188 168.316406 215.195312 160.777344 198.363281 C 152.074219 176.886719 165.207031 151.839844 185.878906 143.621094 C 172.09375 148.324219 162.933594 158.824219 158.382812 172.792969 C 154.417969 188.503906 159.078125 204.765625 173.484375 213.429688 C 186.738281 220.9375 207.425781 217.371094 211.105469 200.964844 C 210.824219 200.929688 209.113281 204.878906 206.007812 209.449219 "/>
<path style=" stroke:none;fill-rule:nonzero;fill:rgb(100%,59.999084%,0%);fill-opacity:1;" d="M 206.875 210.359375 C 195.363281 221.484375 175.234375 219.816406 164.835938 207.066406 C 158.476562 198.371094 154.414062 187.339844 156.667969 175.707031 C 161.214844 160.574219 170.371094 148.914062 184.722656 142.464844 C 168.648438 149.5 155.476562 164.085938 155.542969 182.6875 C 155.601562 197.800781 164.277344 211.140625 178.097656 216.898438 C 191.34375 222.082031 208.570312 216.203125 212.1875 201.632812 C 211.941406 201.511719 210.152344 205.578125 206.875 210.359375 "/>
<path style=" stroke:none;fill-rule:nonzero;fill:rgb(100%,59.999084%,0%);fill-opacity:1;" d="M 207.390625 211.566406 C 193.648438 223.238281 172.359375 220.410156 161.953125 205.332031 C 145.765625 182.140625 160.027344 150.113281 184.71875 141.300781 C 169.21875 147.753906 157.765625 160.585938 154.957031 178.617188 C 153.28125 191.996094 159.078125 204.765625 168.882812 213.449219 C 182.726562 225.019531 208.011719 220.277344 213.097656 202.648438 C 212.890625 202.464844 210.9375 206.640625 207.390625 211.566406 "/>
<path style=" stroke:none;fill-rule:nonzero;fill:rgb(100%,59.999084%,0%);fill-opacity:1;" d="M 207.605469 212.988281 C 193.652344 224.398438 173.515625 221.570312 162.539062 208.238281 C 144.054688 185.054688 158.292969 148.378906 185.867188 140.136719 C 160.011719 146.625 145.753906 178.652344 157.917969 202.445312 C 164.859375 214.042969 176.96875 222.71875 191.335938 220.917969 C 201.105469 219.140625 210.863281 213.871094 213.847656 203.90625 C 213.667969 203.679688 211.496094 207.960938 207.605469 212.988281 "/>
<path style=" stroke:none;fill-rule:nonzero;fill:rgb(100%,59.999084%,0%);fill-opacity:1;" d="M 207.589844 214.515625 C 187.347656 230.816406 157.394531 216.976562 153.273438 190.832031 C 149.734375 166.429688 165.183594 146.027344 186.433594 138.390625 C 163.457031 145.449219 147.449219 169.925781 153.863281 194.898438 C 157.359375 206.511719 165.441406 215.785156 176.960938 220.390625 C 190.777344 224.992188 209.160156 220.269531 214.453125 205.289062 C 214.296875 205.050781 211.859375 209.429688 207.589844 214.515625 "/>
</g>
</svg>
