<?xml version="1.0" encoding="UTF-8"?>
<svg xmlns="http://www.w3.org/2000/svg" xmlns:xlink="http://www.w3.org/1999/xlink" width="375pt" height="374.999991pt" viewBox="0 0 375 374.999991" version="1.2">
<defs>
<clipPath id="clip1">
  <path d="M 46 168.003906 L 329 168.003906 L 329 187.503906 L 46 187.503906 Z M 46 168.003906 "/>
</clipPath>
</defs>
<g id="surface1">
<g clip-path="url(#clip1)" clip-rule="nonzero">
<path style=" stroke:none;fill-rule:nonzero;fill:rgb(99.609375%,96.859741%,15.289307%);fill-opacity:1;" d="M 46.167969 168.179688 C 47.035156 168.003906 47.910156 168.152344 48.761719 168.375 C 49.917969 168.707031 51.125 168.558594 52.316406 168.59375 C 52.910156 169.792969 54.316406 168.679688 55.019531 169.566406 C 56.589844 169.109375 58.222656 169.289062 59.824219 169.480469 C 60.460938 169.910156 61.226562 169.980469 61.976562 170.074219 C 64.925781 169.796875 67.890625 170.125 70.847656 170.199219 C 72.613281 170.050781 74.386719 170.109375 76.160156 170.046875 C 77.273438 170.078125 78.386719 169.929688 79.511719 169.957031 C 80.621094 170.085938 81.449219 169.066406 82.546875 169.09375 C 84.957031 169.144531 87.382812 168.964844 89.78125 169.289062 C 91.476562 169.535156 93.1875 169.324219 94.898438 169.4375 C 96.734375 168.25 98.984375 168.949219 101.027344 168.71875 C 102.808594 168.492188 104.472656 169.21875 106.214844 169.386719 C 109.003906 169.238281 111.835938 169.699219 114.632812 169.355469 C 116.847656 169.6875 119.054688 168.839844 121.269531 169.195312 C 123.113281 169.4375 124.984375 169.132812 126.835938 169.363281 C 129.847656 169.230469 132.867188 169.230469 135.875 169.425781 C 142.144531 169.308594 148.429688 169.621094 154.707031 169.285156 C 157.566406 169.714844 160.519531 169.769531 163.359375 169.144531 C 164.78125 169.90625 166.476562 169.425781 168.023438 169.503906 C 168.5 169.582031 168.984375 169.550781 169.464844 169.417969 C 171.304688 169.417969 173.226562 169.566406 175.007812 169.074219 C 175.183594 169.101562 175.53125 169.152344 175.707031 169.179688 C 176.246094 169.191406 176.8125 169.089844 177.34375 169.296875 C 178.558594 169.644531 179.832031 169.289062 181.078125 169.347656 C 183.074219 169.492188 185.066406 169.347656 187.039062 169.03125 C 187.863281 168.992188 188.695312 169.074219 189.515625 169.214844 C 192.089844 169.488281 194.667969 168.890625 197.246094 169.210938 C 197.808594 169.203125 198.375 169.203125 198.949219 169.199219 C 201.582031 169.570312 204.203125 168.746094 206.828125 169.199219 C 206.910156 169.195312 207.074219 169.179688 207.15625 169.175781 C 208.074219 169.144531 209 169.070312 209.921875 169.15625 C 210.59375 169.085938 211.269531 169.085938 211.945312 169.195312 C 212.023438 169.191406 212.175781 169.179688 212.25 169.175781 C 213.269531 169.394531 214.300781 169.097656 215.335938 169.144531 C 216.871094 169.085938 218.414062 169.089844 219.953125 169.148438 C 221.429688 169.277344 222.917969 168.941406 224.402344 169.15625 C 225.519531 169.378906 226.640625 168.996094 227.765625 169.15625 C 229.800781 169.425781 231.859375 169.144531 233.90625 169.351562 C 236.285156 169.175781 238.660156 169.535156 241.042969 169.425781 C 245.019531 169.5 248.996094 169.363281 252.976562 169.503906 C 254.617188 169.25 256.320312 169.980469 257.90625 169.269531 L 257.90625 169.539062 C 262.730469 169.902344 267.570312 170.167969 272.40625 170.191406 C 272.914062 170.269531 273.425781 170.34375 273.949219 170.445312 C 279.503906 170.453125 285.023438 171.113281 290.5625 171.417969 C 293.734375 171.675781 296.902344 171.855469 300.078125 172.078125 C 305.855469 172.542969 311.679688 172.964844 317.40625 173.660156 C 318.949219 173.753906 320.476562 174.101562 322.03125 174.082031 C 322.429688 173.765625 322.835938 173.445312 323.246094 173.132812 C 323.46875 173.15625 323.925781 173.203125 324.15625 173.222656 C 324.226562 173.71875 324.132812 174.308594 324.390625 174.78125 C 324.96875 175.386719 325.785156 175.851562 325.964844 176.753906 C 326.125 177.605469 326.96875 177.921875 327.640625 178.316406 C 327.597656 178.503906 327.519531 178.882812 327.480469 179.070312 C 328.242188 179.742188 328.351562 180.75 328.449219 181.710938 C 327.695312 182.539062 328.585938 183.394531 328.359375 184.332031 L 328.726562 184.386719 C 328.453125 185.230469 327.992188 185.996094 327.582031 186.777344 C 326.167969 187.527344 324.621094 187 323.132812 186.933594 C 316.605469 186.289062 310.089844 185.371094 303.550781 184.917969 C 301.648438 184.898438 299.785156 184.378906 297.878906 184.511719 C 294.484375 184.199219 291.085938 184.058594 287.691406 183.769531 C 284.117188 183.308594 280.503906 183.378906 276.917969 183.054688 C 275.015625 183.058594 273.136719 182.542969 271.238281 182.796875 C 265.765625 182.605469 260.308594 182.039062 254.824219 182.121094 C 249.320312 182.164062 243.828125 181.960938 238.328125 181.871094 C 235.003906 181.660156 231.660156 181.902344 228.339844 181.660156 C 226.410156 181.578125 224.472656 181.554688 222.550781 181.675781 C 219.539062 181.515625 216.511719 181.636719 213.5 181.609375 C 210.058594 181.378906 206.601562 181.808594 203.15625 181.519531 C 202.140625 181.632812 201.113281 181.65625 200.113281 181.46875 C 198.867188 181.445312 197.640625 181.796875 196.40625 181.640625 C 194.976562 181.511719 193.554688 181.8125 192.128906 181.710938 C 190.703125 181.84375 189.289062 181.515625 187.863281 181.601562 C 186.738281 181.546875 185.625 181.769531 184.507812 181.710938 C 180.464844 181.890625 176.417969 181.695312 172.386719 181.679688 C 169.058594 181.734375 165.707031 181.90625 162.375 181.6875 C 161.292969 181.851562 160.203125 181.785156 159.136719 181.667969 C 156.371094 181.925781 153.605469 181.492188 150.839844 181.714844 C 149.039062 181.863281 147.238281 181.769531 145.445312 181.675781 C 143.980469 181.875 142.523438 181.578125 141.058594 181.628906 C 137.71875 181.582031 134.378906 181.679688 131.042969 181.53125 C 128.101562 181.632812 125.152344 181.246094 122.21875 181.558594 C 119.164062 181.210938 116.082031 181.6875 113.027344 181.460938 C 108.832031 181.816406 104.640625 181.304688 100.449219 181.359375 C 96.878906 181.667969 93.289062 181.226562 89.722656 181.609375 C 89.15625 181.570312 88.644531 181.296875 88.085938 181.277344 C 84.308594 181.183594 80.535156 181.320312 76.769531 181.429688 C 75.625 181.464844 74.492188 181.269531 73.367188 181.125 C 72.046875 181.105469 70.734375 181.15625 69.421875 181.0625 C 67.984375 180.453125 66.414062 180.601562 64.910156 180.347656 C 61.84375 179.972656 58.929688 178.875 55.871094 178.488281 C 53.886719 177.894531 51.960938 177.078125 50.230469 175.933594 C 49.992188 175.464844 49.753906 175.011719 49.644531 174.507812 C 49.058594 173.917969 48.875 173.101562 48.746094 172.316406 C 48.023438 172.136719 47.421875 171.667969 47.925781 170.902344 C 47.710938 170.589844 47.488281 170.277344 47.285156 169.980469 C 47.566406 169.945312 48.128906 169.882812 48.410156 169.847656 C 48.402344 169.78125 48.386719 169.648438 48.375 169.582031 C 47.324219 169.894531 46.765625 168.828125 46.167969 168.179688 "/>
</g>
</g>
</svg>
